<svg xmlns="http://www.w3.org/2000/svg" width="128" height="128" viewBox="0 0 128 128">
    <path d="M104.337 72.695c-.813-.861-1.762-1.578-2.669-2.335-1.448-1.886-3.4-3.266-5.333-4.667-3.533-3.023-6.774-6.336-10.667-9.001-1.648-1.574-3.604-2.838-5.333-4.333-1.806-1.531-3.533-3.135-5.333-4.667-1.91-1.424-3.704-2.962-5.666-4.333-.801-.868-1.85-1.483-2.334-2.666-1.115-.661-1.552-2.008-3.667-1.667-.394.161-.755.356-.999.666-3.293 2.373-5.792 5.54-8.998 8.001-2.87 2.91-6.038 5.518-9.003 8.333-2.175 1.312-4.352 3.322-6.001 4.667-1.326 1.085-2.639 1.842-3.666 2.999-3.408 2.367-6.258 5.298-9.333 8.001-.571.652-.577 1.867-1.002 2.668-1.523.803-2.741 1.919-2.998 3.999.352 1.537 1.173 2.603 2.666 3.001.426 1.574 1.466 2.538 2.336 3.666 2.36 1.308 3.364 3.968 7.332 3.667 1.889-.223 2.321-1.903 3.334-3.001 1.837-.384 2.835-1.604 3.998-2.667 2.504-1.942 4.645-4.244 7.003-6.333 2.211-2.118 4.576-4.09 6.666-6.334a18.788 18.788 0 0 0 3.331-3.331 4.677 4.677 0 0 0 1.666-1.667c1.376.262.625-1.596 2.001-1.334 2.629 2.154 6.077 3.483 8.334 6.001 1.748.698 2.523 2.367 4.332 2.999.931 1.518 3.298 1.591 4.333 3.001 1.162.065 1.265 1.179 2.334 1.335.463.763 1.665.779 2.002 1.666 1.725.72 2.644 2.243 4.332 3.001 1.364 1.078 2.339 2.552 4.003 3.331 1.264 1.178 1.909 2.975 3.998 3.335 2.956-1.158 4.567-3.659 6.334-6.004 1.944-2.275 4.396-4.046 4.998-7.666-.644-.907-.947-2.163-2.329-2.333zm-66.669.665c-1.025-.085-1.502-.723-2.335-1.001.922-1.255 3.082-3.46 4.002-.999-.117 1.107-1.002 1.446-1.667 2zm13.001-9.334c.062-.377.333-.182.333 0-.066.38-.333.184-.333 0zm5.666-4.666c-.761.095-1.254-.081-1.333-.667-1.047.383-.813-.523-1.336-.667.58-1.55 2.293-3.532 4.001-2-.445 1.107-1.052 2.059-1.332 3.333zm2.998-7.332c.415-1.377.973.126 1.67.333-.41 1.01-1.276-.236-1.67-.333zm4-4.001c-.173-.171.242-.425.335-.333.17.173-.241.425-.335.333zm4 0c-.387-.056-.594.072-.663.333-.685-.43-.353-1.872-1.337-1.999.645-.73 1.871.776 2 1.666zm-.663 9c-.02.204-.052.395-.334.333-.019.203-.052.397-.333.334.033.403-.487.204 0 0 .019-.204.048-.395.333-.334.016-.204.045-.395.334-.333.136-.419.428-.681.995-.667-.133.42-.43.684-.995.667zm9.998 9c-.268-.175-.541-.347-1.001-.333-.085-1.086.398-1.605 1.333-1.667.042.822.047 1.605-.333 2zm-.336-9c-.702-.106-.072-1.579.669-1.332.246.908-.661.668-.669 1.332zm4.003 3c.977.022 1.237.761 1.665 1.333-.046 1.29-1.35 1.314-1.665 2.333-.895-1.226-1.181-2.679 0-3.666zm3.333 7.667c-1.123.544-1.423 1.909-3.001 2.001.563-1.103 1.795-1.538 2.668-2.334a3.034 3.034 0 0 0 1.335-1.333c.873.099.257-1.292 1.33-1.001-.324 1.344-1.455 1.879-2.333 2.667zm1.666 5.666c1.476-1.526 3.511-2.485 4.667-4.334 1.087-.085 1.605.397 1.666 1.334-2.688.296-3.556 4.881-6.333 2.999zm10 2h-1.33a6.505 6.505 0 0 1-2.668 2.667c-.755-.888 1.174-1.923 1.997-2.334.212-1.344 1.43-1.681 1.334-3.333 1.415.254 1.942 1.391 2.999 2.001-.38.733-2.198.02-2.333.999z"/>
</svg>
