<svg xmlns="http://www.w3.org/2000/svg" width="128" height="128" viewBox="0 0 128 128">
  <path
    d="M101.668 44.999c-1.766-2.346-3.379-4.845-6.335-6.003-2.088.359-2.733 2.158-3.998 3.336-1.663.78-2.638 2.253-4.002 3.331-1.686.76-2.606 2.283-4.332 3.001-.337.885-1.54.904-2.002 1.666-1.071.156-1.173 1.27-2.334 1.336-1.038 1.409-3.402 1.484-4.333 3.001-1.807.634-2.584 2.3-4.332 2.998-2.256 2.52-5.706 3.849-8.334 6.002-1.376.261-.625-1.597-2.001-1.336a4.685 4.685 0 0 0-1.666-1.667 18.821 18.821 0 0 0-3.331-3.331c-2.09-2.245-4.454-4.215-6.666-6.334-2.357-2.086-4.5-4.389-7.003-6.333-1.162-1.062-2.161-2.283-3.998-2.667-1.013-1.098-1.444-2.779-3.334-3.002-3.969-.298-4.973 2.364-7.332 3.668-.872 1.129-1.91 2.093-2.336 3.666-1.492.399-2.315 1.464-2.666 3.001.255 2.08 1.474 3.196 3 3.999.424.801.43 2.016 1 2.668 3.074 2.703 5.924 5.634 9.333 8.001 1.027 1.157 2.339 1.915 3.666 2.998 1.65 1.347 3.826 3.356 6.001 4.667 2.964 2.818 6.132 5.425 9.003 8.334 3.206 2.462 5.706 5.628 8.998 8 .244.31.604.506.999.667 2.115.338 2.556-1.005 3.667-1.667.483-1.182 1.534-1.797 2.334-2.665 1.965-1.373 3.756-2.911 5.666-4.333 1.802-1.532 3.528-3.135 5.333-4.667 1.729-1.493 3.685-2.76 5.335-4.333 3.891-2.662 7.134-5.978 10.665-9.001 1.935-1.4 3.886-2.782 5.333-4.667.908-.758 1.856-1.476 2.669-2.335 1.381-.169 1.683-1.426 2.331-2.332-.604-3.623-3.056-5.394-5.001-7.668zM35.333 55.331c.833-.278 1.311-.914 2.334-1.001.667.555 1.55.894 1.668 1.999-.92 2.462-3.081.257-4.002-.998zm15.336 8.335c0-.184.267-.379.333 0 0 .181-.271.375-.333 0zm2.997 5.999c.523-.144.288-1.049 1.336-.667.079-.586.573-.76 1.332-.667.282 1.274.889 2.227 1.333 3.333-1.707 1.53-3.421-.45-4.001-2zm5.667 5.998c.395-.096 1.26-1.342 1.67-.332-.699.206-1.255 1.711-1.67.332zm4.335 4.335c-.094.092-.509-.162-.335-.333.094-.092.505.159.335.333zm1.664 1.332c.984-.128.653-1.57 1.338-1.999.069.26.276.387.663.333-.129.891-1.356 2.397-2.001 1.666zm1.338-10.665c-.289.063-.318-.129-.334-.333-.287.062-.315-.129-.333-.333-.486-.204.034-.403 0 0 .282-.063.316.131.333.333.282-.062.311.129.334.333.565-.017.862.245.995.667-.567.013-.859-.248-.995-.667zm8.997-8.667c.46.013.734-.158 1.001-.333.381.394.376 1.178.333 2.001-.936-.063-1.42-.582-1.333-1.668zm1.334 9.999c-.74.246-1.371-1.228-.669-1.332.005.663.915.424.669 1.332zm3.332-4.332c-1.179-.988-.894-2.439 0-3.666.315 1.018 1.621 1.043 1.666 2.333-.426.573-.687 1.31-1.666 1.333zm4.337-6a3.027 3.027 0 0 0-1.334-1.333c-.873-.796-2.105-1.231-2.668-2.334 1.578.092 1.878 1.457 3.001 2.001.875.788 2.008 1.324 2.332 2.667-1.072.291-.457-1.099-1.33-1.001zm5.331-2.999c-1.155-1.849-3.19-2.81-4.667-4.334 2.776-1.88 3.645 2.703 6.333 2.999-.062.938-.579 1.42-1.666 1.334zm4.667-3.335c.096-1.652-1.123-1.989-1.335-3.333-.823-.411-2.752-1.446-1.997-2.334a6.495 6.495 0 0 1 2.669 2.667h1.329c.135.979 1.954.267 2.334.999-1.059.611-1.585 1.747-2.999 2.001z"/>
</svg>
