<?xml version="1.0" encoding="utf-8"?>
<!-- Generated by IcoMoon.io -->
<!DOCTYPE svg PUBLIC "-//W3C//DTD SVG 1.1//EN" "http://www.w3.org/Graphics/SVG/1.1/DTD/svg11.dtd">
<svg version="1.1" xmlns="http://www.w3.org/2000/svg" xmlns:xlink="http://www.w3.org/1999/xlink" width="128" height="128" viewBox="0 0 128 128">
<path fill="#000000" d="M114.067 25.755v-5.782c-0.083-1.844 0.331-4.182-0.605-5.172-0.748-1.106-2.453-2.21-3.349-2.435-0.186-0.046-0.419 0.017-0.607 0-4.911-0.41-10.378 0.313-14.911 0-1.892 0.138-3.642 0.416-5.48 0.609-1.077-0.345-1.895-0.942-3.346-0.912-0.125-0.52-0.394 0.065-0.914 0-1.482-0.162-1.425 1.213-2.433 1.521-0.866 2.060 0.662 3.056 0.302 5.478-0.746 6.53-0.911 13.36-0.61 20.085 0.916 20.136 0.639 41.266 0.308 61.776-0.394 1.229-0.833 2.415-0.913 3.956-0.166 1.454-1.279 1.967-0.911 3.956 0.253 2.081 0.294 4.369 1.519 5.477 1.044 0.077 1.467 0.769 2.74 0.608 0.52-0.592 1.574-0.656 2.739-0.608 0.131 0.682 1.499 0.123 2.131 0.306 0.388 0.417 1.32 0.3 2.128 0.302 4.776-0.186 10.091 0.286 14 0 0.973-0.85 2.049-1.6 3.041-2.434 0.358-2.178 0.768-4.305 0.61-6.999 0.823-0.291-0.289-2.518 0.913-2.433 0.506-0.61-0.026-2.258 0.606-2.74-0.548-11.251 1.519-24.197 1.827-36.517 0.638-5.952 0.933-12.252 1.215-18.563 0.546-5.886 0.434-13.575-0.001-19.478zM106.765 33.362v10.652c-1.192 15.141-1.9 30.76-3.346 45.646-0.166 3.585 0.356 7.864-0.302 10.956 0.594 1.802 0.573 3.016 0.302 5.173-0.644 0.671-0.902-0.389-1.829-0.304-1.11-0.201-1.165 0.658-2.131 0.609-0.155-1.77 0.344-4.197-0.302-5.478-0.277-0.533-0.564-1.058-1.521-0.914-0.127-1.037-1.67 0.461-1.523-0.302 0.428-2.251 2.555-5.425 0.605-7.305-1.757-0.344-2.209 0.627-3.344 0.912 0.556-1.171 0.784-2.665 1.523-3.652 0.302-1.318 0.623-2.625 1.216-3.652 0.161-2.391 2.502-5.873 0-7.303-1.889 0.036-2.352 1.501-3.349 2.434-0.461 1.364-1.461 2.187-1.823 3.651-0.911-1.426 0.16-3.485 0.911-4.26 0.3-3.552 1.444-6.263 2.129-9.433 0.431-1.496 0.683-3.175 1.218-4.565 0.255-1.283 0.746-3.771-0.302-4.565-1.68-0.55-2.39 1.446-3.044 0.912 0.975-4.604 2.25-8.906 2.433-14.303-0.45-0.97-0.413-2.428-1.523-2.738-1.629-0.603-1.925 1.708-2.433 1.218-0.498-9.243-1.102-18.377-1.825-27.389 5.775 0.324 11.906 0.22 18.562 0.303v12.176c0.253 0.862-0.424 0.79-0.301 1.522zM74.813 45.535c-0.467-1.050-1.144-1.508-1.827-2.435-2.556-0.587-6.098-0.19-9.127-0.305-0.392 0.016-0.422 0.392-0.916 0.305-2.442-0.008-4.544 0.324-6.691 0.608-2.291 0.246-4.765 0.308-6.087 1.521-1.338 1.809-0.3 4.727-1.217 7.304 0.227 3.268-0.358 5.731-0.304 8.825-0.533 5.656-0.118 12.259-0.61 17.955-0.094 9.134 0.254 18.717-0.304 27.388 0.158 3.165-0.99 6.206 0.914 7.916 2.252 1.659 6.075 0.144 9.127 1.215 3.681 0.031 7.363 0.062 10.653-0.301 0.632-0.179 0.984-0.642 1.522-0.912 0.472-0.442 0.598-1.227 1.825-0.914 1.171-0.654 2.588-1.064 2.736-2.737 1.25-1.756-1.054-3.536-0.304-4.868 0.927-10.235 0.65-21.666 1.526-31.954v-16.742c-0.653-3.754 0.296-9.129-0.915-11.868zM67.202 103.356c-0.875 0.035-1.992-0.165-2.433 0.304-1.752 0.275-1.661 2.398-3.648 2.434 0.341-1.887 2.068-4.239 0.604-6.086-1.423-0.725-2.392 0.577-3.65 0.912 0.031 0.368-0.446 0.188 0 0 0.911-3.894 3.79-7.316 3.045-11.869-0.396-0.42-1.323-0.3-2.133-0.304-0.306 0.164-1.344 1.578-1.219 0.304 0.829-1.506 1.257-3.41 1.823-5.174 0.73-1.611 1.381-3.29 1.831-5.175 0.684-1.137 1.685-1.964 1.825-3.649-0.098-0.717-0.942-0.684-1.219-1.219-1.836 0.194-3.065 0.99-3.648 2.435-1.185 0.845-1.8 2.26-2.437 3.649-1.027-0.951 0.323-2.096 0.608-2.738 0.544-0.878 0.548-2.291 1.217-3.043 0.564-2.276 1.141-4.541 2.133-6.388-0.068-1.489 0.925-1.915 0.912-3.35 0.54-0.878 0.546-2.291 1.215-3.043-0.059-2.451 2.025-4.762 0.61-6.696-2.856-0.115-3.014 2.464-4.258 3.956-1.191 1.55-2.102 3.378-2.741 5.479-0.822-0.597 0.188-3.027-0.608-3.653-0.035-1.486 0.164-3.206-0.304-4.26v-5.781c4.719-0.047 8.65-0.884 13.696-0.608 1.071 18.204-0.774 35.888-1.22 53.565zM39.51 73.838c-1.565-1.178-4.696-2.056-7.304-1.217-4.783 0.082-10.065-0.33-13.998 0.606-0.033 0.577-1.004 0.21-0.914 0.912-0.586 0.124-0.238 1.181-1.215 0.914-0.090 0.617-0.827 0.595-0.914 1.218-0.842-0.131-0.286 1.133-0.911 1.216-0.066 7.469 0.068 14.737 0.606 21.606-0.809 2.538-0.592 6.105-0.606 9.436-0.072 1.653-0.958 2.487-0.61 4.564 0.679 0.094 0.741 0.927 1.217 1.217 1.696 1.038 4.813 0.421 7.304 0.608 3.944 0.288 9.852 1.483 13.088-0.302 1.25-0.661 0.727-3.37 0.914-4.262 1.987 0.266 2.54-0.907 3.344-1.825 0.933-3.804 0.606-8.277 0.61-12.781v-13.392c0.574-2.804 0.462-6.717-0.611-8.518zM32.206 104.573h-4.564c0.375-2.704 2.446-5.798 1.219-8.216-1.81-0.188-2.427 0.819-3.044 1.825-1.141 0.684-1.152 2.502-2.129 3.348 0.289 1.266-0.912 0.064 0 0-0.083-1.492 0.566-2.096 0.912-3.044 0.335-0.921 0.308-1.719 0.912-2.432 0.109-2.228 1.622-3.044 1.523-5.481-0.225-0.892-0.925-1.309-1.523-1.825-2.037-0.415-2.369 0.877-3.65 1.218 0.065-4.124-0.811-7.306-0.61-11.564 3.895 0.16 7.668 0.446 11.869 0.302-0.516 8.414-0.747 17.107-0.914 25.869z"></path>
</svg>
