<svg viewBox="0 0 128 128">
  <path
    d="M103.983 42.194c-2.208-3.573-4.564-6.998-7.302-10.042-1.651-1.292-3.306-2.577-4.566-4.26-1.533-1.411-3.316-2.567-4.866-3.956-4.665-2.132-9.355-4.242-15.825-4.565-.175-.738-1.971.144-1.827-.913-.96.052-1.019-.808-2.127-.609-1.41-.719-3.438-.82-5.48-.911-.066.236-.257.354-.607.304-8.3.222-14.226 2.816-20.083 5.475-.94 1.294-2.89 1.576-3.654 3.045-1.392.943-2.202 2.466-3.954 3.043-.929 1.409-2.456 2.211-3.654 3.349-.188.924-.673 1.553-1.825 1.521-.612.604-1.077 1.356-1.826 1.826-2.572 3.82-5.131 7.651-7 12.173-3.244 7.281-2.494 18.972-1.827 28.605 1.197 4.387 2.538 8.621 4.564 12.173 2.142 3.44 4.644 6.514 7 9.737.339.067.473.339.608.611 2.859 2.318 5.675 4.669 8.828 6.693 3.511 1.86 6.42 4.33 11.257 4.867.762.858 2.524.03 3.653 0 2.942-.078 6.556.646 10.955.302-.051-.657 1.078-.135 1.524-.302 2.915-.834 5.217-2.287 7.91-3.348 3.154-.797 6.286-1.627 9.13-2.739 4.396-1.996 7.885-4.897 11.564-7.609 1.685-1.559 2.605-3.885 4.262-5.477 2.1-1.146 3.473-3.019 5.171-4.562 1.394-2.261 2.929-4.376 4.262-6.697 1.097-3.06 2.123-6.194 2.738-9.738.441-12.109-3.043-20.287-7.002-27.997zm-2.737 34.995c-.417 1.408-1.388 2.264-2.433 3.044-.365 1.461-1.81 1.844-2.131 3.348-.992.829-1.589 2.064-2.435 3.044-1.53 1.002-3.049 2.019-4.867 2.737-1.296 1.488-2.603 2.69-4.26 3.956-.305.236-.6.373-.911.608-.385.289-.756.469-1.218.913-.33.313-1.463.784-2.128 1.215-.405.263-.758.475-1.22.913-.483.464-2.031.77-2.738 1.523-2.582.866-5.179 1.712-7.306 3.044H66.86c-.277.531-.566 1.056-1.523.911-5.321-.419-6.203.076-11.867-.303-5.794-.092-10.022-1.746-14-3.651-1.141-1.599-2.456-3.023-3.652-4.564-1.151-1.487-2.042-3.231-3.347-4.564-3.078-6.457-6.21-12.856-7.912-20.693-.148-3.581.409-6.043 0-8.52.675-2.125 1.081-4.098 1.826-6.392.209-.644.384-1.51.609-2.13.079-.222.523-.724.605-.911.168-.37.18-.589.308-.913.744-1.909 1.404-3.855 2.434-5.78.323-1.708.931-3.13 1.217-4.871 3.458-4.048 7.832-7.182 12.477-10.042 2.441-.298 4.227-1.25 6.693-1.522 1.533-.191 1.649-1.802 3.044-2.13h7.608c.056-.345.302-.17.302 0 .802-.404 1.783.008 2.739 0 1.014-.006 1.922-.479 2.737 0 .282-.829.953.424 1.829 0h2.129c.037.671 1.294.129 1.827.304.717-.006.896.525 1.825.305 4.273 2.626 8.037 5.759 12.171 8.52 2.459 2.717 5.165 5.183 7.305 8.216 1.25 1.387 1.989 3.29 3.349 4.564.694 1.844 1.533 3.541 2.434 5.175 1.694 6.522 3.177 13.254 3.352 21.3-.435 1.393-.964 2.69-2.133 3.345zm-21.3-40.169c-2.254.689-3.173 2.714-4.566 4.261-2.068 1.381-3.581 3.317-5.784 4.562-1.523 1.923-3.362 3.535-5.476 4.871-2.171-2.694-4.338-5.401-6.387-8.219-2.238-2.735-4.112-5.829-7.608-7.303h-2.133c-2.077 1.475-3.85 3.248-5.48 5.175-1.03.789-2.295 1.352-3.041 2.433-.894.927-2.383 1.267-2.129 3.347.308 1.645 2.398.881 3.347 1.218 1.23 2.727 2.98 4.933 4.868 6.999.528 1.502 1.758 2.301 2.434 3.654 1.026 1.089 2.238 2.067 2.739 3.345-2.129 2.027-4.056 4.257-6.087 6.388-1.166.863-2.22 1.841-3.344 2.74-.671 1.46-2.568 1.697-2.738 3.653-.167 3.003 1.866 3.811 2.738 5.779 1.127 1.711 2.035 3.646 3.648 4.868h2.434c2.078-.663 2.939-2.539 4.264-3.955 3.495-2.285 6.376-5.189 9.738-7.609 2.8 2.474 5.293 5.257 7.305 8.52.907.919 2.219 1.431 2.736 2.738 1.244.685 1.414 2.442 3.043 2.738 1.094.467 1.925.523 3.044.304 2.193-1.054 3.533-2.961 4.867-4.868 1.16-.969 2.479-1.778 3.349-3.044-.085-1.602.323-1.803 0-3.042-1.218-2.844-3.439-4.68-5.177-6.999-.863-1.168-1.836-2.221-2.738-3.344-.851-1.281-2.156-2.11-2.737-3.657 3.76-3.238 7.998-6.001 11.566-9.434.371.845 1.867.566 3.04.607.411-.806 1.609-.829 1.525-2.13.461-.753.588-1.844.608-3.044-1.865-3.506-4.564-6.186-6.999-9.125-1.62-.805-2.518-2.347-4.868-2.43zm-35 6.695c1.024-.111.51 1.317.914 1.827-.587-.365-1.661-1.044-.914-1.827zM43.425 75.06c.06-.346.307-.168.307 0-.059.346-.307.166-.307 0zm12.482-19.475c-1.5-1.141-1.316-3.965-2.741-5.176-.523-2.114-.914-4.358-1.826-6.084-.493-.89-.963-.12-1.523-.609-.047-.863-.556-1.269-.607-2.13.491-.087.525.287.914.304 1.017 1.717 2.531 2.945 3.346 4.868.96.357 1.057 1.579 1.826 2.129.366.954 1.313 1.323 1.522 2.435-2.195.15-1.365 2.832-.911 4.264zm12.168 12.779c.16-.467.319-.018.306.305-.162.47-.318.02-.306-.305zm2.742-10.343c-.94-1.194-2.056-2.207-3.044-3.352.138-.878 1.311-.719 1.523-1.521 1.058.261 1.054 1.581 1.825 2.13.96-.147.689.933 1.828.609-.339 1.086-1.05 1.797-2.132 2.133zm4.562-3.96c.073-.38.604-.306.61 0-.273.187-.544.366-.61 0zm1.825-6.086c-1.383-.48.454-1.089.608-1.826.415.095.254.764.304 1.218-.243.259-.831.18-.912.608zm4.869.307a15.93 15.93 0 0 0-.911-2.738c.149-.963-1.51-.113-1.217-1.218 1.134-.987 1.315.933 2.126 1.218.37.949 1.314 1.319 1.526 2.432-.732-.124-.659.557-1.524.306z"/>
</svg>
