<svg xmlns="http://www.w3.org/2000/svg" width="128" height="128" viewBox="0 0 128 128">
    <path d="M111.963 40.22a44.301 44.301 0 0 0-1.619-6.197c-1.198-1.406-2.505-2.704-4.313-3.503-.422-.832-1.567-.945-2.153-1.618-.993-.358-2.321-.377-2.695-1.348.706-.371-.133-2.285.542-2.693-.19-1.355.454-1.878.268-3.234.619-.548.097-2.237.268-3.233-.487-.678-.487-1.845-1.617-1.887-.49-.644-2.102-.143-2.424.271-.991.085-1.49.665-2.424.806-.555.576-1.067-.075-1.618-.268-1.118-.309-1.049.567-1.889.54-.837.956-.693 2.895-1.077 4.311-.173 1.71-.136 3.64-.812 4.849-2.469-.128-5.58.377-7.274-.538.444-3.09.354-7.141-.54-9.701-.656-.513-1.331-1.004-2.693-.811-1.414.067-1.493-1.201-3.233-.806-.319.129-.61.286-.808.538-1.281.784-1.06 3.072-2.156 4.042.542 2.34-.214 4.744-.541 7.007h-2.961c-.908-.172-2.506.348-2.966-.269-.644-2.949-.019-7.168-1.077-9.701-2.343-1.678-7.455-1.169-9.162.806-.987 2.638-.592 5.702-.538 8.895h-4.043c-1.293-.179-2.963.276-3.506 0 .101-1.715-.477-2.755-.269-4.58-1.197-1.86-1.499-4.609-3.503-5.661-2.345-.61-5.268-.698-7.277.269-.484.773-1.011 1.503-1.614 2.156-.599 2.899-.467 5.731-.27 8.893-5.157 1.13-9.992 2.586-14.283 4.584-.825 1.061-1.924 2.412-2.424 3.501-.149.321-.406.544-.542.81-.63 1.253-.966 2.179-1.345 3.501-.58 2.022-.87 4.125-1.078 6.47-.541 6.005-.154 13.044-.272 19.67.749 12.548 2.151 24.437 2.695 37.189.587-.047.125.956.27 1.347.558.699.921 1.597 1.078 2.694 1.01.785 1.91 1.683 2.695 2.693 1.421.197 2.317.915 3.503 1.348 1.352.354 2.851.562 4.311.811 12.041-.303 21.785.844 32.877.269 8.878-1.362 19.499-.984 28.297-2.424h11.855c.665-.507 1.846-.49 2.695-.811.79-.644 1.659-1.218 2.424-1.886.391-.509.398-1.4 1.077-1.619 1.358-4.674 1.736-9.926 1.889-15.358.154-5.511.269-11.222.269-16.978 0-11.871.083-22.484 0-33.146zM97.948 20.819c.142.14-.194.343-.268.269-.139-.139.196-.347.268-.269zm-37.185 1.617c-.008-.637.464-.795.269-1.618h.807c-.151 1.915.32 4.451-.27 5.928-1.452-.252-.559-2.853-.806-4.31zM43.246 34.562c-.939.234-.928-.416-.54-.809.333.12.554.344.54.809zm-1.08-10.51c-.032-.483.331-.569.268-1.077.617.372.102 1.874.271 2.693-.023.427.129 1.029-.271 1.078v-1.349c.224-.758-.379-.697-.268-1.345zm61.982 79.229c-3.532.6-8.153.111-12.125.269-4.786.511-9.493 1.105-14.556 1.348-5.03.273-10.316.284-14.821 1.077-6.144-.145-12.983.409-18.325-.538-6.416-.325-14.602 1.125-18.054-2.156-.658-13.893-2.57-26.537-2.694-40.962-.024-.383-.047-.763.27-.809 12.878 1.598 26.161.591 40.959 1.618 13.202.712 27.423 1.345 41.771.809-.033 13.889.293 28.134-2.424 39.343zm2.425-46.891c-.165 1.365-.598-.784-1.617-.27-.706.283-.881 1.094-.808 2.156-2.778-.099-3.444.295-6.2.27-.175-1.915 2.248-3.898.272-5.121-2.108.682-2.83 2.74-3.236 5.121-2.229-.013-4.606.116-6.465-.27.262-2.332 2.619-3.734 1.616-6.466-.314.045-.48-.061-.538-.27-2.164-.006-2.709 1.603-4.044 2.427-.579 1.573-1.704 2.609-2.156 4.309h-2.694c.191-2.406 3.092-5.378.808-7.006-2.308.026-2.867 1.803-4.313 2.697-.335 1.364-1.537 1.873-1.346 3.771h-4.581c.509-1.257 1.918-2.853 1.079-4.581-3.298.027-3.661 2.989-5.661 4.313-1.521.082-2.396-.479-4.044-.271.475-1.951 1.841-3.009 1.888-5.389-1.358-1.071-3.224.524-4.043 1.616-1.352.894-2.191 2.302-3.233 3.504-2.495.068-4.83-.021-7.006-.271.339-1.569 2.044-3.33.805-4.849-2.058-.264-2.7.892-3.499 1.887-.894.815-1.566 1.847-2.157 2.962-2.188.164-3.007-.065-5.121.271-.382-1.023.751-2.588 1.347-3.504.175-1.297 1.678-2.785.539-3.771-1.203-.561-1.645 1.036-2.425 1.077-.475.023-1.408 1.352-1.889 1.888-.979 1.443-2.271 2.577-2.961 4.31-1.819-.2-2.8.433-4.581.269.575-2.295 1.869-3.88 2.425-6.198.609-.827 1.359-1.513 1.616-2.694-.814-1.3-2.861-.522-3.772.27a15.45 15.45 0 0 0-3.505 4.313c-.829.427-.85 1.665-1.617 2.156-.419.838-.261 2.254-1.077 2.693-.688.013-.328-.2-.269-.54-.023-.381-.045-.762.269-.807-.216-.937.4-1.037.269-1.888.771-.756.769-2.285 1.618-2.963.697-2.267 2.517-3.41 2.424-6.466-.206-.696-.655-1.144-1.346-1.348-1.767.211-2.435 1.515-3.234 2.696-.443-.038-.443-1.851 0-1.889-.205-1.014.326-1.288.269-2.156.445-1.082.757-2.294 1.349-3.233 1.846-1.026 3.508-2.24 5.928-2.693.608-.289 1.183-.611 1.616-1.077 1.428.077 1.998-.699 3.506-.543-.116 1.281.39 1.947.538 2.966 1.286 2.306 4.654 2.533 8.355 2.423 2.351-.968 3.521-3.124 3.503-6.466 2.211-.033 4.046-.446 6.467-.271.509 2.098.355 4.856 2.425 5.39 1.734.118 2.813-.418 3.233-1.617 1.354.617 3.032-.001 4.312-.27 1.192-.514 1.578-1.837 1.889-3.232h5.119a6.671 6.671 0 0 0 .537 3.232c.178.816 1.225.753 1.621 1.349.914.018 1.88.083 2.155-.54 1.088.709 1.648 1.946 3.235 2.155 3.135.173 2.767-3.16 2.693-6.196 1.652-.596 4.378-.114 6.468-.271-.238 1.582.272 2.422.806 3.235-.279.708-.322 1.653-.269 2.693.376 1.243 1.4 1.834 3.231 1.619.885-.377 1.554-.964 1.618-2.158.881.289 1.403.935 2.424 1.077 1.089-.258 2.335-.361 2.964-1.077.302-1.407.65-2.767.542-4.579 1.891.802 3.679 1.71 5.119 2.962.296 1.502.787 2.806 1.081 4.313-.61 4.423-.105 9.957-.271 14.823zM60.492 74.986c2.884-.166 5.482-.626 6.199-2.966.396-4.439-8.815-4.237-9.432-.806-.019 1.185.645 1.69 1.348 2.156.142 1.024 1.048 1.283 1.885 1.617zm14.015-1.618c.546.078.525.728 1.075.808-.112.746 1.006.254 1.081.811 1.759.05 3.142-.271 4.313-.811.263-1.434 1.608-2.642.806-4.31-.619-.277-.866-.929-1.887-.81-.819.17-2.319-.344-2.694.271-1.814.069-4.244-.474-4.311 1.347v.811c-.128 1.294 1.743.589 1.618 1.884zm-22.639 1.347c.248-2.313-.272-3.86-1.348-4.85-1.661-.602-3.343-.467-5.118 0-.681.284-.612 1.077-1.348 1.077-.634.267-.639 1.158-1.078 1.619.239.835.276 1.878 1.347 1.888-.09 1.259.748 1.587 1.349 2.156 2.909.214 5.263-.128 6.196-1.89zm42.579.271c1.056-.264 1.487-.669 2.156-1.349.092-.09.433.078.538 0-.044.032.306-.6.272-.539.299-.512.216-.898.27-1.348-.176-1.262-1.431-1.444-2.156-2.156-2.794-.329-6.079-.597-6.737 1.889.237 1.469.89 2.525 1.616 3.502.911.594 3.478.143 4.042.001zm-56.594 1.077c.77-.842.77-3.469 0-4.31-.629-.538-1.712-.621-2.961-.54-.436-.554-1.352-.625-2.425-.54-1.007.837-1.603 3.555-.541 4.852 1.384.71 4.378.846 5.926.538zM49.711 88.73c.77.487 1.102 1.414 2.698 1.077.058-.207.226-.313.535-.271.85-1.084.65-4.192.269-5.659-1.28-.785-2.392-1.736-4.312-1.885h-.539c-.068.378-.59.305-.805.539-.226.582-.701.918-.54 1.886-.836.333-1.52.82-1.617 1.888 0 1.795 1.037 2.556 2.425 2.962.988.177 1.035-.581 1.886-.538zm18.325-3.774c-.399-.229-.389-.868-.537-1.349-1.537-.262-3.164-.432-4.314-1.077-2.452-.118-4.889-.219-4.851 2.156.019 1.867 1.01 2.76 1.887 3.771 3.962.19 7.578.036 7.814-3.5zm7.545-2.425c-1.231.652-1.698 2.073-1.887 3.772.808.812 2.108 1.13 3.233 1.619 1.513.038 2.818 1.028 4.313.267 1.022-1.306.439-4.189-.269-5.389-1.375-.511-3.596-.175-5.39-.269zm-36.379 1.078c-1.444.096-1.894-.8-3.506-.541-.012-.161-.038-.318-.269-.268-.2.606-1.509.107-2.156.268-.406.495-1.163.637-1.616 1.078-.062.209-.009.533-.272.542-.181 3.408 2.134 5.171 5.122 4.579.84-.417 1.209-1.305 1.887-1.886.876.156 1.252-.183 1.887-.27-.203-.83.741-.517.538-1.347.094-1.352-.668-1.845-1.615-2.156zm57.937 3.233c.162-1.87-.575-2.838-1.344-3.774-2.787-.559-6.789-.434-7.008 2.426.105 3.471 6.933 3.874 8.352 1.348zm-18.053 5.389c-2.109-.044-4.077.054-5.39.811-.695 1.163-.541 2.542 0 3.773.911.796 2.224 1.187 3.772 1.346 1.667-.038 2.993-.422 4.311-.808.348-.554 1.514-.285 1.619-1.077.621-.277.558-1.242.538-2.156-.817-1.43-3.218-1.274-4.85-1.888zm18.053 1.348c-.384-.781-1.222-1.11-2.156-1.349-2.592-.17-4.785.064-5.656 1.618-.005 1.173-.091 2.424.269 3.233.453.446 1.21.586 1.616 1.079 1.823-.155 3.425-.529 5.39-.54 1.016-.692 2.825-.589 2.424-2.694-.184-.895-.933-1.221-1.888-1.347zm-49.313.539c-.865.258-1.215.837-1.618 1.346-.078 1.517.312 2.566.811 3.505 1.761.884 5.428 1.339 6.735-.271-.07-.788.609-.828.541-1.618-.098-.981-.548-1.609-.81-2.424-1.204-.294-3.91-1.061-5.659-.539zm17.787 0c-.981-.083-1.756.042-2.426.267-2.163-.096-4.322-.186-4.312 1.889.387 1.677 2.202 1.931 3.232 2.963h4.313c.632-.088 1.115-.323 1.617-.54.743-.066.614-1.001 1.078-1.348-.136-2.106-1.822-2.668-3.503-3.231zm-29.644 1.347c-.622-.276-.87-.926-1.888-.808-.84 1.044-2.62 1.151-2.425 3.234-.197.396.197.917.54 1.347.889 1.118 1.713 1.285 3.231 1.617 1.323.287 1.99.154 2.965 0 .788-1.005 1.706-1.889 1.616-3.774-.821-1.062-2.081-1.69-4.04-1.617z"/>
</svg>
