<svg id="checked01" xmlns="http://www.w3.org/2000/svg" width="128" height="128" viewBox="0 0 12.387 12.387">
  <path fill-rule="evenodd"
        d="M470.733,159.411c-1.938-.161-3.88-0.317-6-0.3-0.96-.206-1.98-0.351-2.9-0.6-0.248-2.276.094-4.545-.1-6.9a0.787,0.787,0,0,1,.1-0.3,29.553,29.553,0,0,0,7,0,4.618,4.618,0,0,0,1.3.2c0.026,1.881.638,3.68,0.4,5.5A7.793,7.793,0,0,1,470.733,159.411Zm1.5,0.1c-0.089-2.635,0-5.633.1-8-0.257-.409-0.322-1.01-0.6-1.4a3.813,3.813,0,0,1-1.2-.3,82.77,82.77,0,0,1-9.8-.1,0.586,0.586,0,0,0-.2.3,0.913,0.913,0,0,1-.4.4,65.241,65.241,0,0,0,.2,10.3,41.828,41.828,0,0,0,4.6.1c1.176,0.189,2.419.313,3.7,0.4a17.632,17.632,0,0,0,1.8.2,2.175,2.175,0,0,0,.9-0.1c0.178-.189.732,0,0.7-0.4a0.965,0.965,0,0,0,.2-1.1C472.221,159.713,472.236,159.608,472.232,159.511Zm-3.6-6.7a10.9,10.9,0,0,0-1.5,1.2,13.774,13.774,0,0,1-1.5,2.1c-0.424-.376-0.707-0.891-1.1-1.3a1.437,1.437,0,0,0-1.6-.9c-0.58.985,0.491,1.768,0.8,2.5,0.629,0.639.9,1.633,2,1.8,1.137-.261,1.5-1.3,2.2-2,0.6-.873,1.7-1.233,1.7-2.6A0.954,0.954,0,0,0,468.635,152.814Z"
        transform="translate(-459.994 -149.369)"/>
</svg>
