<svg xmlns="http://www.w3.org/2000/svg" width="128" height="128" viewBox="0 0 128 128">
    <path d="M111.467 10.88c-.533-.213-2.027.427-1.92-.427-3.413.32-5.547 1.92-8.427 2.667-4.267 4.053-8.107 8.533-13.44 11.52C81.92 32 74.347 37.653 67.733 44.267c-3.093 3.413-5.867 7.147-9.173 10.347-1.493 1.813-2.88 3.84-4.587 5.333-.64 1.067-1.6 1.707-2.347 2.667-.32 1.173-1.813 1.173-1.92 2.667.107 1.173 1.173 1.387.747 3.092.427.108.427.641.427 1.174 1.6 1.28 2.347 3.52 4.267 4.587 1.067 1.92 3.413 2.453 3.84 5.013-3.093.959-5.227 2.667-8.107 3.84-.533-1.173-2.24-1.173-2.667-2.347.96-3.946 2.24-7.467 2.347-12.267-.32-.32-.533-.746-.747-1.173-3.413-.107-3.093 3.52-4.587 5.333-.747 2.453-2.133 4.267-3.093 6.507-1.493 3.841-6.08 8.96-3.093 13.76 1.067-.107 1.173.853 2.347.747 3.093.107 3.413-2.667 5.76-3.413 4.907-1.6 8.853-4.267 14.187-5.333.96-.427 1.173-1.6 1.92-2.347.32-1.067 2.027-.853 2.667-1.492.64-.961.747-2.241 1.493-3.094 3.947-2.667 7.68-5.653 10.773-9.173 3.093-1.813 5.227-4.8 7.68-7.253 2.453-2.347 4.8-5.013 7.253-7.253.641-.64 1.6-.96 2.347-1.493 1.6-1.493 3.2-3.84 5.013-5.76 2.347-2.453 5.12-4.587 7.253-7.253V36.27a41.982 41.982 0 0 0 5.333-5.333c1.813-1.813 3.413-3.733 4.587-6.187v-6.187c-1.387-3.2-3.2-6.08-6.187-7.68zM96.533 40.853c-1.493-.107-1.813-1.28-3.413-1.173-.533.107-.64.64-1.173.747-.213 2.027 2.026 1.6 2.347 3.093-1.708 1.067-2.56-1.707-5.013-1.173-1.174 0-1.387.853-1.92 1.493-.321 2.56 2.773 1.813 3.092 3.84-2.026 2.027-3.52-1.707-6.187-1.493-1.173 0-1.493.853-2.347 1.173-.426 3.2 1.067 4.373 2.667 5.333-.213 1.387-1.387 1.92-2.347 2.667-2.24-.747-3.2-2.667-5.759-3.093-1.6.213-2.453 1.173-2.667 2.667.533 2.453 3.733 2.453 4.267 5.013-.853.213-1.067 1.28-1.92 1.493-2.027-.427-3.413-3.2-5.333-2.347-.747 1.707 1.387 3.413 2.667 4.267-.427 1.387-1.28 2.24-2.667 2.667-1.6-.853-1.92-2.88-4.587-2.667-1.279 0-1.387 1.173-1.92 1.92-.213 2.773 2.133 2.987 2.667 5.013-.96.96-1.813 2.027-2.667 3.093-2.347-1.92-4.267-4.159-6.507-6.507-.64-.641-1.92-1.067-1.92-2.347 2.027-.853 2.88-2.773 5.013-3.413.427-.96 1.493-1.28 1.92-2.347.96-.32 1.173-1.387 2.347-1.493 1.707-2.88 4.587-4.693 6.507-7.253 1.387-.96 2.347-2.24 3.413-3.413 1.387-.747 2.026-2.24 3.412-3.093 4.588-4.373 9.6-8.32 13.441-13.44.32-.32 1.067-.213 1.173-.747.641-.107.641.32 1.174.427.959 2.667 3.092 4.053 4.587 6.187.532 2.88-1.494 3.307-2.348 4.907zM106.88 26.24c-1.6.747-1.813 2.773-3.413 3.413-2.24-.96-3.2-3.093-4.267-5.333.32-1.28 2.133-1.6 2.667-3.093.96-.96 2.347-1.493 3.093-2.667 1.279 0 2.026-.533 2.667-1.173 1.812.427 2.346 2.24 2.346 4.587-.426 2.027-2.132 2.773-3.092 4.267zm-83.2-3.413c2.56.107 4.8.64 7.68.427 1.387.427 3.2.427 4.587.747 13.227-.107 21.44.32 33.707.747 2.88 1.067 7.253 1.067 8.853-1.173v-3.093c.427-1.6-.853-1.493-.746-2.667-1.067-.64-2.241-1.067-3.413-1.493-2.133-.427-2.453.96-3.841 1.173-.64-.96-1.707-1.6-3.412-1.493-13.761-.32-28.374.533-41.068 0-2.453.853-7.04-.32-6.507 3.413-.32 2.773 2.56 2.453 4.16 3.413zm87.787 44.48c-.32-1.707-.427-3.733-.747-5.333.107-2.24.107-4.373-1.92-4.587-1.92.427-2.56 2.133-2.347 4.587-.853.32-.107 2.133-.426 3.093-.854.32-.108 2.133-.427 3.093-.427 4.267-.427 9.067-.427 13.759-.533 4.16-.32 9.067-1.173 13.013v6.933c-1.067 1.387.32 5.227-.747 6.507-5.013-.32-9.067.427-13.013 1.174-1.279-.853-1.279-3.093-3.412-3.093-4.8-.853-11.093-.213-16.533-.426-5.227-1.174-13.333-.96-19.2-.427-5.973-3.733-16.64-4.373-26.027-3.413.107-9.92-1.173-18.559-.747-28.8-.427-1.387-.427-3.2-.747-4.587.107-7.04-.747-14.4-.747-21.867 0-7.573.533-15.36-.747-22.293-.533-.427-1.173-.64-1.493-1.173-1.067-.533-1.92 1.067-2.347 0-.64-1.813 0-4.8-2.667-4.587-.533.107-.747.533-.747 1.173-.64 0-.213 1.067-.747 1.173-.853 24.32-2.24 50.133-1.173 75.2v7.679c.533.854.747 2.027 1.173 3.093 1.067.427 1.067 1.92 1.92 2.667.213 1.173-.96 1.067-1.493 1.493-.213.853-.747 1.92 0 2.667 1.6 1.707 5.013 1.6 7.68 2.346 3.093.213 6.08.533 9.6.427 19.307.853 40.213.107 60.16.427 3.947-.96 8.32-1.388 13.44-1.174 1.493-1.387 4.587-.959 5.76-2.667.747-2.453.213-6.187.426-9.173.746-11.731.212-25.171-.108-36.904z"/>
</svg>
