<svg viewBox="0 0 128 128">
  <path
    d="M100.61 39.811c-.417-.689-.808-1.398-1.323-1.99-.67-.435-1.125-1.087-1.325-1.987-1.042-1.169-1.541-2.88-2.654-3.978-1.825-2.705-3.704-5.356-7.294-6.298H86.36c-.495.171-.837.488-1.328.662-2.067 1.58-3.647 3.646-5.306 5.635-1.195.686-1.79 1.968-2.986 2.653-1.102.776-1.641 2.111-2.984 2.651-1.579 2.067-3.646 3.647-5.633 5.304-.688 1.196-1.969 1.791-2.653 2.984-1.378.501-1.493 2.262-2.982 2.653-2.758-4.206-5.911-8.017-8.955-11.934-2.037-1.498-3.16-3.908-5.301-5.305-1.765-1.771-2.992-4.081-5.968-4.642-2.704.39-3.973 2.215-5.971 3.316-.992.992-1.123 2.85-2.317 3.645-.556 1.435-2.532 1.444-2.322 3.647.253 1.421.926 2.518 1.657 3.647.727 1.119 1.826 1.992 2.652 2.982.426.509.591 1.196.996 1.66 1.373 1.573 2.832 2.721 3.978 4.309 1.699 1.948 3.087 4.206 4.973 5.967 1.071 2.576 3.393 3.902 4.31 6.629-2.877 3.538-5.996 6.825-8.951 10.279-3.288 3.121-5.747 7.072-9.284 9.945-.444 1.215-1.266 2.052-1.657 3.314-1 .992-2.626 1.353-2.983 2.982-.479 1.29-.762 2.778-.66 4.643.971 2.006 2.924 3.041 3.977 4.973 1.622 1.471 2.428 3.761 5.302 3.978 2.894-.316 4.128-2.285 5.969-3.645 1.354-1.854 3.291-3.121 4.641-4.973 1.708-.726 2.862-2.004 4.313-2.987 1.601-.823 2.587-2.27 3.974-3.311 1.965-1.781 3.951-3.688 5.635-5.307.598-.57.929-1.663 1.992-1.658.92 2.392 2.898 3.728 3.978 5.967 1.821 1.49 2.817 3.813 4.639 5.306 1.31 2.004 2.815 3.819 4.314 5.634 1.412 1.902 3.249 3.379 5.303 4.643h4.309c1.638-.793 2.753-2.11 4.309-2.984 1.793-.42 3.074-1.346 4.641-1.987.564-1.755 1.877-2.769 1.656-5.307-.527-.689-.719-1.711-1.656-1.987-.165-1.049-1.892-.54-2.321-1.328-4.868-7.505-11.089-13.662-15.581-21.547 2.143-1.842 4.186-3.772 6.3-5.635 1.76-2.216 4.467-3.488 6.298-5.637 1.123-.865 2.105-1.877 3.315-2.65.773-1.219 2.542-1.44 3.313-2.654 2.398-1.688 5.01-3.166 5.967-6.298.301-1.845-.632-2.463-.662-3.984zm-59.67-3.977c-.16 1.162-.493 2.158-.328 3.647-1.254.143-1.513-.701-1.992-1.328.675-1.648 2.101-2.54 2.653-4.307.693-.141.877.227 1.325.332-.132.968-1.135 1.075-1.657 1.657zM36.63 92.52c-1.713-.496-3.22-1.198-3.316-3.314 2.419-.427 2.481 1.5 4.313 1.659-.193.689-.701 1.07-.996 1.656zm2.653-6.297c-.17-.17.241-.422.332-.332.173.172-.241.424-.332.332zm4.97-3.979c-.397.035-.2-.482 0 0 .686.422 1.684.529 1.66 1.659-.958-.147-1.511-.701-1.66-1.659zm6.635-3.315c-1.34-.208-1.676-1.419-3.317-1.325.805-2.07 2.899-2.846 3.978-4.642.118-.435.584-.519.662-.994.386-.055.591.072.667.332.444 1.215 1.263 2.049 1.655 3.314-1.414.907-2.235 2.409-3.645 3.315zm5.966-24.202c-1.623-.364-1.914-2.064-2.983-2.982-.762-1.115-1.913-1.843-2.653-2.984-2.367.49-2.852-.904-3.98-1.658v-6.629c1.244.855 1.847 2.353 2.651 3.647.856 1.137 1.807 2.175 2.322 3.648 1.352.746 1.634 2.566 2.982 3.313.136 1.523 2.269 2.443 1.661 3.646zm4.308 7.957c-.242-.904.66-.664.668-1.323 1.257.177 1.578 1.292 1.985 2.32-.933-.282-1.358-1.073-2.653-.997zm20.224 25.859c.533-.091.57.314.994.333.326 1.554 1.665 2.097 1.992 3.647-1.504 1.444-2.319-.739-3.316-1.658-.162-1.044.596-1.169.331-2.322zM68.783 53.736c.908.306-.461 1.037 0 1.987-1.843-.1-.434-1.406 0-1.987zm5.641 28.508c-1.523-.798-2.002-2.642-3.318-3.644-.409-.699-.912-1.296-1.323-1.992-.584-.52-.437-1.776-1.001-2.321.103-.677.899-.648 1.001-1.325.533-.094.567.316.994.332 1.115 2.422 2.785 4.288 4.306 6.298-.294.812-.77 1.439-.659 2.652zm11.601-36.466c-1.565-.204-2.277-1.258-3.979-1.326-.688.194-1.07.698-1.656.995v2.984c.385.497.956.811.996 1.657-1.81 1.285-3.554 2.634-4.975 4.31-1.914-.737-2.458-2.844-5.633-2.322 5.327-5.939 11.65-10.894 16.906-16.91 1.851 1.58 2.529 4.328 3.98 6.301-1.51 1.805-3.787 2.845-5.638 4.31z"/>
</svg>
