<svg xmlns="http://www.w3.org/2000/svg" width="128" height="128" viewBox="0 0 128 128">
  <path
    d="M75.42 39.55c3.08.1 6 0 8.06-.92 1.17-2.54 1.67-5.75 1.86-9.26-.58-.05-.2-1.05-.62-1.24-.1-.63-.84-.6-.93-1.23-.9-.5-1.4-1.3-2.2-1.86-2.2-.5-4.4-1.03-6.5-1.54-2.6.14-5.7-.32-7.8.3-7.9-.12-12 3.48-15.8 7.42-.1.24 0 .6-.4.6-1.7 4.93-.4 11.23-.6 17.3.3 1.35.3 2.97.6 4.32-3 .92-6.7 1.2-10.3 1.55-1 1-.6 3.3-.6 5.2.2 1.8.8 3.3 1.2 4.9.6.6 1.8 1.2 2.4 1.5.2.1.2.2.3.3 1.5.8 4.4 0 6.8.3-.4 6.1.7 12.1 0 17.6 0 1 .9 1.1.6 2.4 0 2.9-.2 6.1.6 8.3-.9 1.4-1.5 3-1.3 5.5.36 0 .33.4.3.9-.2 1.4 1.94.5 1.56 2.1.5 1.4-1.3.5-1.25 1.5v2.72c1.6.9 4.4.56 6.87.62 2.7-1.3 6.56-1.5 8.36-3.7 1.4.7 2.8-.1 3.73-.7-.05-1 .8-1.04.6-2.17 0-1-.5-1.56-.3-2.8v-8.9c-.6-7.1-.13-15.3-.9-22.23 2.7-.3 5.8-.2 7.8-1.2 1.05-1.4 1.1-3.8 1.5-5.83.6-.7.7-1.8.66-3.1.6-.7.2-2.3.3-3.4-.4-1.9-.5-4.1-2.44-4.4-2.7-.7-6.2 1.88-9 .96.1-3.5-.9-7.27 0-10.5 2.2-.55 4.3-1.2 6.5-1.86zM63.94 54.37c.35.8.76 1.5 1.24 2.16.24.07.62 0 .62.3 3.6.2 6.6-.2 9.3-.9 0 3.08-.8 5.35-1.55 7.7-2 .14-4.4.93-5.88.62-.84.5-1.12 1.57-1.87 2.16-.14 1.4.43 1.6 0 2.5-.6.4-.16 1.9-.62 2.5V76c.26.86-.43.8-.3 1.53v10.8c-.26.88.43.8.3 1.55v9.26c.2.84-.4 2.45.3 2.78-.2 1.14-1.23-.05-2.47.32-1.5.37-2.7 1.14-4.6 1.24.4-1.1 1-1.93 1-3.4.2-1.18-1.1-.97-1.5-1.54.6-2 1.7-3.46 2.2-5.56.6-1.6 2.2-4.02 1-5.56-1.5-.32-1.5.9-2.5 1.24 0 .24 0 .6-.3.62-.1.24 0 .6-.3.6 0 .4-.4.2 0 0 .1-.23 0-.6.3-.6.1-.24 0-.6.3-.62v-.93c1.1-1.77 2-3.75 2.5-6.16.6-.87.9-2.03 1.3-3.1.5-.8 1.1-2.68.3-3.7-1.5.1-2.4.92-2.8 2.17-.9-.58.5-1.33.4-2.15.4-.8.5-1.8.97-2.5.6-1.3 1.7-4.1 0-5-1.32-.1-1.84.6-2.2 1.5-.63.6-1.3 1.2-1.54 2.1-1.1-.2-.4-2.3-.6-3.4-.2-1.6.35-2.8 0-3.7-1.7-2.5-6.1-.3-9.6-.9-.35-1-.7-3.1-.3-3.7 3.1-.3 7.4.6 9.6-.6.1-.3 0-.6.3-.7.3-2.2-.8-3.1-1.56-4.3.7-2.5.1-6.3.3-9.3.7-.5 1-1.3 1.52-1.9.3-3 2-4.6 2.14-7.78-.8 0-1.8-.15-1.9.6-.9-.3-1.15 1.5-1.56.65-.33-1.7.7-1.97.9-3.1 1.8-1.3 3.7-2.56 5.6-3.7 5.26-.78 14-1.4 18.3.6.17 1.9-.84 2.64-.6 4.63h-4.7c-3.3.75-5.96 2.1-9 3.1-.7.2-.82 1-1.53 1.2-.1 1.26-.7 2-.92 3.1-.25 4.47.4 8.06.3 12.36z"/>
</svg>
