<svg viewBox="0 0 128 128">
  <path
    d="M111.819 39.886c-1.267-2.271-1.561-5.511-2.948-7.661-.605-2.93-1.795-5.279-2.358-8.248-.767-2.768-1.589-5.48-2.062-8.545-.4-1.368-.623-2.912-.591-4.714-.225-1.54-.15-3.386-1.175-4.125-.698.008-.869-.509-1.771-.294-.347.142-.669.315-.883.589-.885.49-2.527.222-3.536.589-1.011.755-2.19 1.344-3.533 1.768a117.511 117.511 0 0 0-6.482 6.777c-1.229.445-1.92 1.422-2.945 2.062-1.014.754-2.289 1.252-3.244 2.064-2.26 1.178-4.726 2.148-7.366 2.947-2.682-.226-4.45.459-7.069.292-6.874-.296-10.933-3.405-16.794-4.712h-6.484c-8.989 1.32-13.509 7.115-18.855 12.08-.098-1.246-1.478-1.535-2.358-1.179-.734.445-1.347 1.01-1.474 2.061.055 1.131-.239.107-.881.296-.601.086-.787.59-1.183.883-.517 1.473-.347 4.091 0 5.598-.125 1.101.162 2.036.296 2.948.142.962.177 1.89.591 2.651.517 3.803 1.344 7.298 2.356 10.606 1.431 7.214 4.016 13.268 5.891 20.036.752 1.409.904 3.415 1.767 4.714.356 1.802.916 3.404 1.474 5.008.834 3.486 1.873 6.77 2.357 10.607.885 3.437 1.477 7.162 1.764 11.195.365 3.957 1.275 7.371 1.476 11.491.715.463 1.101 1.253 1.176 2.356 1.653 1.395 3.57 2.52 5.6 3.534 2.1.038 4.169.043 5.892-.292 1.602-1.049 3.342-1.963 4.714-3.242.564-.813 1.308-1.444 1.771-2.356.619-.756.624-2.124 1.174-2.948.133-1.31-.795-1.558-1.174-2.356-.283-.896-.598-1.762-.886-2.652-.62-1.74-1.68-3.036-2.356-4.715-.752-3.471-2.032-6.416-2.651-10.017-.765-1.302-1.093-3.034-1.474-4.715-.939-1.222-.83-3.491-1.77-4.715.767-.705 1.551-1.398 2.063-2.357-.258-1.435.404-1.954.59-2.947.371-.121.602-.379.591-.883 2.892-2.409 6.486-4.118 10.607-5.305 3.619.111 7.83-.368 10.603.59 1.585.479 2.66 1.467 4.128 2.063.585.396 1.4.561 2.065.885.575.5 1.819.337 2.354.882 3.58.643 7.4 1.046 11.788.884 5.152-1.132 8.279-4.289 11.784-7.071 1.852-1.98 3.387-4.273 5.305-6.188.518-1.642 1.444-2.879 2.065-4.421 1.073-1.086 1.574-2.743 2.354-4.125.054-.434.71-.269 1.178-.293.156-.435.439-.742.592-1.179.367-.712.73-1.431.885-2.357-.924-4.672-3.219-7.975-2.947-13.844zM34.328 73.179c.06-.335.299-.163.295 0-.056.336-.295.164-.295 0zm11.787 37.123c-.468 1.594-2.294 1.832-3.239 2.946-.467-.613-.612-1.548-.592-2.65-.497-.584-.32-1.838-.591-2.651-.204-1.483.501-2.053.298-3.535.015-1.39-.518-2.231-.59-3.534-.577-.898-.284-2.665-.882-3.535-.018-1.458-.35-2.6-.59-3.832-.269-1.205-.292-2.654-.886-3.535-.586-5.204-2.575-9.01-3.532-13.846-.346-.049-.323-.466-.297-.883-.343-.049-.32-.467-.294-.884-.885-.06.279-1.222 0 0 .343.051.319.467.294.884.342.05.32.466.297.883 1.359 2.372 1.899 5.565 3.238 7.956.745 2.991 1.729 5.736 2.652 8.544 1.713 5.746 3.263 11.658 4.715 17.67zm59.81-55.096a7.146 7.146 0 0 1-1.473 1.474c-.85.13-.695 1.267-1.473 1.472-.383 1.09-.979 1.969-1.178 3.242-.6.387-.997.966-1.179 1.767-.509.379-1.158.61-1.179 1.473a13.548 13.548 0 0 0-2.653 2.652 42.787 42.787 0 0 1-6.184 4.713h-8.84c-3.3-.432-5.692-1.771-7.953-3.24-2.173-.478-4.184-1.121-6.484-1.473h-5.301c.334-1.685 1.702-3.715.881-5.6-1.78-.72-2.65 1.809-3.828 2.652-.208 1.364-.972 2.173-1.179 3.537-2.49.359-4.392 1.307-6.187 2.356-.781-.899.417-2.319.591-3.242.349-1.124.781-2.162 1.175-3.24.208-2.088 2.2-4.745.591-6.778-3.269.062-4.505 3.301-5.892 5.6-1.347 2.478-2.323 5.336-2.946 8.543-.264 1.344.491 1.67.588 2.652-.774.304-.991 1.169-1.77 1.473-.5.419-.685 1.928-1.471 1.179-.378-2.273-1.462-3.844-2.061-5.892.314-2.532.924-4.772 1.765-6.776.281-2.037 2.219-4.352.885-6.189-2.282-.315-2.34 1.59-3.537 2.357-.388 1.48-1.215 2.517-1.766 3.831-1.281-.928-1.318-3.136-.886-5.01.268-1.893.984-3.337 1.182-5.303.829-1.326.93-3.387 1.471-5.007.35-1.486 1.849-3.164 1.179-4.715-1.055-.688-2.466.359-2.945 1.179-.788.685-1.381 1.566-1.77 2.653-1.2 1.745-2.097 3.793-2.648 6.187-1.093.208-.509-1.258-1.18-1.472.077-.863-.667-.907-.591-1.77.147-5.155 2.034-8.572 2.356-13.552-.408-1.36-1.531-2.005-3.535-1.767-2.045.703-2.268 3.232-2.945 5.303-2.054-2.511.874-5.677 2.061-7.661 3.76-3.018 7.325-6.229 12.669-7.661h6.188c5.515 1.654 9.868 4.47 16.5 5.01h8.84c3.521-.702 6.458-1.987 9.427-3.243.945-1.215 2.917-1.399 3.829-2.651 1.549-.515 2.283-1.843 3.832-2.357a87.555 87.555 0 0 1 6.778-6.777c.238-.254.804-.175.883-.589.242-.056.288.114.291.293.146 3.166.411 6.022.886 8.839.029.188-.048.405 0 .59.612 2.456 1.472 6.401 2.355 9.133.061.193.534.727.592.885.323.904.467 2.052.883 3.239.066.193.535.728.586.883.066.175-.042.408 0 .59.1.383.645 1.536.888 2.357.837 2.849 1.285 5.77 2.063 8.838-.251 1.816-1.018 3.111-1.182 5.01z"/>
</svg>
