<svg width="128" height="128" viewBox="0 0 128 128">
  <path
    d="M115.52 48.107c-5.44-0.96-11.733 0.213-17.28 0.32 0.533-1.6 1.708-2.453 2.56-3.627 0.96-1.28 2.027-2.347 3.307-3.307-0.212-2.667 1.813-3.093 2.241-5.12 0-1.067-0.747-1.387-1.067-2.24-0.853-0.213 0.107-2.24-0.747-2.56-2.987-4.16-7.040-7.147-10.24-10.987-1.6-0.853-1.921-2.987-4.374-2.987-2.347 0.533-3.2 2.667-5.12 3.627-0.747 1.28-1.28 2.56-2.56 3.307-0.746 1.387-1.279 2.88-2.987 3.307-1.6-0.107-3.092-0.427-4.053-1.067-0.96-2.667 0-6.293 0-9.173 0.747-1.6 1.6-3.093 1.493-5.547-1.067-1.493-3.521-1.6-6.293-1.493h-8.107c-2.88 1.067-8.213-0.427-10.667 1.067-2.667 2.987-1.067 10.24-1.493 15.467-1.493 0.427-2.133 1.813-3.627 2.24-1.067-2.88-3.52-4.373-4.373-7.36-1.173-0.747-1.387-2.56-2.24-3.627-0.747-1.173-0.96-2.987-2.987-2.987-2.24-0.213-2.453 1.707-4.053 2.24-0.747 1.28-2.133 2.027-2.987 3.307-2.453 1.813-4.16 4.373-6.613 6.293-0.107 1.387-1.387 1.6-1.493 2.987-0.32 1.067-2.24 0.747-1.813 2.56 1.6 5.867 6.507 8.533 8.853 13.547-0.747 1.387-0.64 3.52-1.493 4.8-2.56-0.107-5.44 0.107-8.107 0s-5.653-1.173-7.36 0.747c-0.747 1.6-0.32 4.907 0 6.613v6.613c0.32 3.84 1.493 6.827 2.987 9.6 5.76 0.213 10.347-0.96 15.467-1.493-0.32 2.347 0.96 2.88 0.747 5.121-2.56 3.626-5.973 6.507-9.173 9.6-0.533 0.533-0.533 1.707-1.067 2.24-0.64 0.64-1.493 0.96-1.493 2.24 1.067 4.054 4.16 6.080 6.293 9.174 3.2 2.24 4.8 6.080 8.853 6.933 3.093-1.174 5.12-3.413 7.68-5.12 0.96-1.067 2.24-1.921 3.307-2.988 1.28-0.533 2.027-3.2 4.053-1.812 0.747 0.32 0.427 2.559 0 2.987v4.053c-0.107 1.707 1.707 1.493 1.493 3.307 0.107 2.133 0.32 4.054 0.747 5.867 2.453 2.347 6.827 2.774 11.733 2.56 1.813-0.427 2.987-1.493 4.8-1.813h5.867c1.493-0.747 2.027-2.453 2.987-3.626-0.747-3.841 0.533-7.147 0.747-10.988 1.493-0.212 2.88-0.533 4.373-0.746 1.067 1.812 2.241 3.626 3.627 5.12 1.067 1.92 2.88 2.987 5.12 3.626 1.493-0.32 1.813-1.92 3.627-1.812 2.24-2.241 3.947-4.908 6.292-6.933 0.854-1.388 1.6-2.774 2.988-3.627 0.426-1.707 2.559-1.92 2.987-3.627 0.747-0.107 0.107-1.6 0.747-1.812 0.426-0.427 0.426-1.28 0.32-2.241-0.747-2.453-2.56-3.733-4.053-5.547-0.747-0.856-1.173-2.030-2.24-2.563 0-0.747-0.959-0.427-0.747-1.493-0.32-0.107-1.6-0.959-0.746-1.067 5.12-0.213 7.787 0.533 11.733 0 0.533-0.853 1.279-1.387 1.812-2.24-0.107-1.493 1.6-1.174 1.493-2.56 0.64-5.333 1.067-10.987 1.493-16.533-0.64-3.733 0.427-6.613-1.173-8.747zM19.947 67.947c-0.213-0.213 0.213-0.427 0.32-0.32 0.213 0.107-0.213 0.32-0.32 0.32zM109.547 60.587c-0.853 3.2-0.213 7.893-1.813 10.241-3.413 0.107-7.467-0.321-10.24 0.32-0.96 0.213-0.747-0.747-1.067-1.067-0.747-0.108-0.96-0.748-1.813-0.748-3.413 0.213-3.2 4.16-4.374 6.613 0.854 3.413 2.774 5.867 5.121 7.68 1.812 2.667 3.733 5.012 5.867 7.359-0.108 0.853-1.813 0.108-2.56 0.32-2.347 1.281-3.733 3.628-5.867 5.121-0.427 1.493-1.92 2.027-2.24 3.627-2.133-1.6-3.093-4.587-4.8-6.613-0.96-0.212-1.921-0.533-2.56-1.067-2.987 1.173-6.827 1.493-9.92 2.56-1.174 0.427-1.387 1.813-2.241 2.56 0.427 4.053-0.746 6.507-0.746 10.24-2.133 0.107-3.521-0.64-5.867-0.32 0.853-2.241 1.493-4.587 1.813-7.36 0.747-0.747 0.427-2.453 1.067-3.307-0.107-1.387 0.96-2.88 0-4.053-1.493 0.107-1.92 1.28-2.24 2.56-0.427 1.28-1.173 2.241-1.067 4.053-1.28 2.133-1.28 5.547-2.24 8.108h-4.373c-0.107-0.853 0.107-1.387 0.32-1.813 1.067 0.107 0.32-1.387 1.067-1.493 0.107-4.587 2.347-8.853 1.813-12.907-2.56-0.427-1.92 2.24-2.987 3.307-0.32 0.852-0.747 1.386-0.747 2.559-0.853 0.213-0.107 2.133-1.493 1.813-0.427-2.027-0.747-2.56-0.32-4.8-0.64-2.453-2.88-3.52-5.547-4.053-0.213-2.454 1.92-4.374 0.747-6.613-1.92-0.213-2.453 0.96-2.56 2.56-0.747 0.96-0.96 2.454-1.067 4.054-2.667 2.346-5.013 5.012-8.107 6.932 0 0.426-0.533 0.212 0 0 0.427-3.733 2.773-7.467 2.24-10.988-1.92 0.427-1.6 3.093-2.987 4.054-0.32 2.027-0.96 3.733-1.493 5.547-0.107 1.174 0.427 1.813 1.493 1.813-0.533 1.387-2.347 1.6-2.987 2.987-0.96-0.427-1.28-1.493-2.24-1.813 0.213-1.067 0.533-1.921 0.747-2.988-0.213-2.987 0.533-4.8 0.747-7.359 0.64-0.108 0.213-1.28 0.747-1.493 0-0.747 0.96-0.426 0.747-1.492-0.107-0.747-0.747-0.96-1.067-1.493-4.267 0.64-4.16 5.653-5.12 9.6-1.173-0.533-1.173-2.24-2.24-2.987 1.493-3.093 4.16-5.12 5.867-8.108 0.853-0.427 2.24-0.213 2.987-0.747 0.213-0.853 0.533-1.707 0.32-2.987-0.213-1.173 1.173-0.853 0.747-2.24-0.533-3.307-1.28-6.293-2.56-8.853-0.64 0-0.96-0.32-1.067-0.747-1.6-0.32-2.24 0.533-3.627 0.32 0.427-2.773 3.733-4.16 2.56-7.36-3.307-0.32-3.52 2.347-5.547 3.307-0.213 1.707-1.92 2.027-1.813 4.053-1.387-0.32-1.707 0.427-2.987 0.32 0.96-1.173 1.92-2.559 2.24-4.373 0.853-1.493 1.707-2.88 2.24-4.8-1.493-1.173-3.627 0.32-4.053 1.493-0.853-0.32 0.747-1.92-0.32-2.56-2.027-0.747-2.24 1.6-3.307 0.747v-2.24c2.773 0.64 7.253 0.64 9.6-0.32 1.92 0.427 2.773 0.213 4.8 0 0.64-0.32 1.173-0.853 1.493-1.493 0.32-1.6-0.747-1.707-1.067-2.56 1.173-2.453-1.173-5.013-0.32-6.933-0.32-1.493 2.027 0.427 2.56-0.747 1.067-0.213 1.067-1.387 1.493-2.24-0.427-2.56-2.56-3.307-4.053-4.8-1.92-0.96-3.093-2.773-5.12-3.627 0.107-1.387 1.6-1.387 2.24-2.24 0.533-0.853 1.28-1.6 2.24-2.24 0.533-0.853 1.28-1.6 2.24-2.24 0.853-0.747 1.387-1.813 2.987-1.813 0.533 2.347 2.24 3.627 3.307 5.547 1.493 1.493 1.813 4.267 4.053 5.12h1.067c1.813 0 2.133-1.493 2.56-2.987 1.173-0.107 1.387-1.067 2.24-1.493 0.853 0 1.067 0.64 2.24 0.32 3.093-1.493 1.387-7.893 1.813-12.16 2.987 0.533 5.547 1.493 9.173 1.493 1.92-0.213 2.88-1.6 5.12-1.493v7.36c0.641 2.24 0 5.867 1.813 6.933 2.133 0.427 1.28-2.24 2.56-2.56 1.492-0.32 1.92 0.533 3.307 0.32 0.96 0.533 1.067 1.813 2.56 1.813 2.773-0.213 3.733-2.133 5.867-2.987 1.707-1.067 2.88-2.453 4.373-3.627 1.92-0.107 1.92 1.707 3.308 2.24 1.173 0.853 2.026 1.92 3.307 2.56 1.067 2.027 2.987 3.093 3.627 5.547-3.841 1.28-3.841 6.4-8.428 6.933-0.853 3.627-0.747 9.28 2.24 10.24 1.067 0.107 1.921-0.107 2.241-0.747 3.092 2.453 9.067 0.32 13.547 0.747 0.106 1.92-0.321 5.013-0.214 7.147zM82.027 59.84c-0.533-1.067-1.174-2.027-1.493-3.307-1.067-1.493-2.56-2.56-3.307-4.373-0.96 0.107-1.174-0.533-1.493-1.067-2.027-0.747-3.52-2.133-5.867-2.56-2.027-0.853-4.907-0.96-7.36-1.493h-4.8c-0.213 0-0.427 0.107-0.32 0.32h-0.747c-0.96 0.533-2.133 0.747-2.56 1.813-0.533 0.213-0.853 0.533-1.067 1.067-0.533 0.213-1.92-0.427-1.813 0.32-1.067 0.32-1.813 1.067-2.24 2.24-1.6-0.213-1.92 0.96-2.987 1.493-1.92 3.84-3.093 8.427-2.56 14.72 0.747 1.173 1.067 2.88 1.813 4.053 0.853 1.173 1.92 2.24 2.56 3.627 2.133 1.92 4.16 3.946 6.613 5.546 2.987 0.854 6.187 1.388 9.92 1.493 0.427-0.32 0.96-0.533 1.813-0.32 3.84-1.493 7.573-2.987 10.667-5.12 0.853-1.28 2.24-2.133 2.987-3.627 1.067-1.28 1.708-2.88 2.56-4.373 0-3.732 0.32-7.572-0.32-10.452zM68.053 76.693c-4.267 0.212-7.893-0.213-10.987-1.067-2.133-1.708-4.373-3.2-5.547-5.867-0.64-4.267-0.533-8.427 0-12.48 0.64-0.533 1.387-1.067 2.56-1.493 0.107 0 0.64 0.107 0.747 0 0.427-0.533 2.667-1.28 4.053-1.493 2.987-0.427 6.080 0.427 9.173 0.32 1.28 1.28 3.52 1.6 4.053 3.627 0.747 0.64 1.708 0.96 1.813 2.24 1.387-0.213 1.174 1.28 1.813 1.813 0.64 8-2.88 11.84-7.68 14.4z"></path>
</svg>
