<svg width="128" height="128" viewBox="0 0 128 128">
  <path
    d="M118.789 54.997c.148-.964-.555-1.08-.307-2.136v-8.243c-.932-6.297-.243-14.209-2.444-19.235-1.375-.456-2.106-1.559-3.97-1.526-2.075.041-2.699-1.369-4.883-1.222-.436.073-.512.502-.917.611-.537.579-1.511.722-2.133 1.221-.007.503-.849.17-.917.61-.477.132-.26.962-1.221.608-.919 1.423-2.378 2.308-3.969 3.055-5.96.653-11.121 2.112-16.791 3.053a100.675 100.675 0 0 1-10.38 2.136c-.211.603-1.701-.075-1.832.612-1.058-.245-1.173.453-2.136.305-.547.37-1.776.056-2.139.61-5.714.999-10.437 2.993-15.569 4.579-5.11 1.608-9.683 3.754-15.573 4.581-2.095 1.771-5.523 2.208-8.244 3.356-1.757-2.6-5.518-4.534-9.766-3.663-.129.579-.66.769-.612 1.529-.862-.052.255 1.88-.612 1.83-.031.78-.558 1.068-.913 1.528-.28.535-.104 1.522-.61 1.831.187 5.814-.386 12.395.307 17.708a6.21 6.21 0 0 0 1.829 1.834c.438.883 2.088.556 2.444 1.528 1.412.026 2.978.6 4.884.913 1.57.31 2.449-1.22 3.36-.612 2.091.656 3.974 1.522 6.106 2.141 1.254.168 1.976.874 3.356.913.667.763 2.408.439 2.751 1.528-.947 4.267-.667 10.262-.307 14.96.652.671.357 2.287 1.221 2.746.085 1.237.525 2.122.612 3.361 1.563 1.487 2.432 3.667 4.272 4.883 9.786.194 20.752 1.965 29.92 0 .846-1.395 1.335-3.14 1.221-5.494.193-.929-.391-2.63.308-3.052.192-.929-.391-2.634.304-3.055 2.2-.165 2.31 1.761 4.579 1.526 1.423.71 2.758 1.519 4.579 1.832.734.999 1.852 1.613 2.746 2.446 1.096.177 1.482-.358 2.14-.612.061.956.787 1.249 1.221 1.83 5.221-.641 6.3 2.863 10.992 2.749.378 1.15 1.325 1.727 2.139 2.444 3.198.771 4.812 3.129 8.241 3.664 3.098-1.078 4.713-3.632 4.885-7.632.066-.37.339-.187.612 0 .354-.051.333-.481.304-.916.556-2.392.955-4.95 1.528-7.326.309-12.627-.529-24.107-.612-36.334zM20.173 68.429H18.04c-.573-5.026-.678-10.52-.612-16.18.24-1.591 1.616-2.05 2.136-3.36.357-.048.546.068.61.307-1.083 4.404-.673 11.606-.303 16.485.021 1.406 1.478 1.371 1.526 2.748.225 1.169-1.128.349-1.224 0zM71.16 98.046c-1.089 1.561-4.3 1.912-6.718 1.219-5.785-.015-10.911-.689-16.486-.917-.081-.628-1.35-.068-1.219-.911-.607-.005-.388-.835-1.222-.612-.203-.409-.654-.566-1.221-.609-.704.093-.34-.882-.915-.916-.301-5.196-.928-10.063-1.222-15.264v-.917c1.557-.13 2.381.469 3.359.917.562 2.287.204 5.491.305 8.244.577 2.067.978 4.313 1.525 6.409.656 1.178 1.685 1.981 2.747 2.752h4.581c1.568-.573 3.08-1.2 4.884-1.53 2.838-.196 4.764.528 7.633.305 1.061-.668 1.901-1.562 1.832-3.359-.151-.962.552-1.079.307-2.135.332-.781-.93-1.456 0-1.832 1.952-.121 1.416 2.244 1.525 3.967.118 1.711.472 3.189.306 5.189zM49.179 76.367c.368-.03.184.444 0 0-.369.033-.187-.444 0 0zm1.524 5.189c.794-.121 2.056.439 2.748.61.334.083.694.531.917.61 1.058.388 2.336.531 3.361.915.077.031.065.246.303.306a21.13 21.13 0 0 1 2.746.911c.102.046.052.244.305.308.737.183 1.501.701 2.443.915.385.534-.307 1.843.306 2.749.302.815.629 1.609.609 2.746-2.065-.342-5.281.002-7.63.306-1.854.689-2.795 2.29-5.802 1.829-.697-3.469-.114-8.225-.306-12.206zm51.905 10.992c.094 1.218.015 2.256-.612 2.747-3.209.058-3.74-2.57-6.413-3.051.989-1.079-.911-1.121-1.525-1.528.259-.861.986-1.254.915-2.442-.251-1.373-2.644-.998-3.357-.306-.9.365-1.671 1.998-2.752 1.222-1.325-.061-.555-.533-.607-1.53-1.23-.193-1.542-1.306-3.053-1.221.721-2.436 3.463-2.846 3.356-6.107-.108-.404-.538-.48-.608-.916-2.422-.08-3.356 1.326-4.884 2.136-1.186.853-2.111 1.96-3.053 3.053-1.879-.361-3.41-1.064-5.496-1.222 1.124-2.642 3.934-3.595 4.581-6.717-1.173-1.844-3.978.331-5.496.915-.4.11-.478.54-.913.612-1.604 1.139-2.671 2.826-4.275 3.968-2.412-.439-4.541-1.164-7.023-1.526.092-1.131 1.298-1.146 1.833-1.832.389-.837 1.224-1.221 1.83-1.834 1.255-1.088 2.597-2.088 3.36-3.665-.402-1.558-2.155-1.133-3.666-.916-1.009.723-2.5.96-3.358 1.834-1.427.299-1.93 1.532-3.356 1.832-.897.836-1.204 2.258-3.056 2.14-.889-.981.698-1.335.917-2.14.617-.603.997-1.443 1.836-1.832.877-1.458 2.612-2.061 3.048-3.967-.544-1.263-2.669-.988-3.662-.306-1.461.271-2.253 1.206-3.361 1.834-1.261.773-1.994 2.075-3.053 3.05-2.016-.323-3.134-1.543-5.187-1.832 1.072-.864 2.07-1.797 3.356-2.442.855-1.079 2.54-1.327 2.444-3.359-.342-.613-2.361-.35-2.749 0-.937.08-1.373.662-2.138.916-1.242.893-2.79 1.481-3.665 2.747-.522-.391-.612-1.218-1.221-1.525-1.032-.088-1.754-.487-3.051-.304 1.02-1.525 2.805-2.289 3.969-3.667 1.37-1.175 3.179-1.908 3.665-3.969-.459-1.323-2.692-.901-3.97-.608-.856.869-2.59.869-3.358 1.827-2.834.527-4.197 2.522-6.716 3.361.836-.997 2.069-1.597 3.051-2.443.592-1.242 2.106-1.559 2.444-3.054-1.375-.956-2.93.524-4.274.61-1.135.598-2.139 1.319-3.358 1.833-1.128.602-1.806 1.652-3.359 1.834-.555-3.381.338-7.747 0-11.907 6.106-.817 10.988-2.852 17.096-3.664 2.805-.653 5.688-1.233 8.244-2.138 1.277-.451 2.99-.468 3.968-1.22 1.412-.22 2.642-.617 3.664-1.221 1.603.178 2.313-.54 3.969-.307 10.27-3.467 22.379-5.096 33.888-7.326.246-.06.303-.308.611-.307.911-.004 1.04-.795 1.832-.913.258-.658 1.34-.493 1.834-.917h.305c1.101-.29.426 1.2.612 1.83v2.14c.251.862-.435.79-.307 1.524-.076 13.365-.948 28.115.307 40.91v3.972c-.012.721.524.898.303 1.834.044 1.178 1.03 1.41.916 2.746.221 1.556-.762 1.894-1.224 2.754zm10.683-8.854v9.771c-.364 3.069.422 5.645-.303 8.546-1.814.289-2.219-.831-3.36-1.219-.239-1.563.431-2.219.306-3.665-1.16-8.406-1.206-17.924-2.138-26.56V58.05c.195-1.129-.396-3.042.308-3.664-1.05-1.904-.466-5.441-.61-8.245-.442-1.153.835-.586.61-1.524-.044-.753-.052-1.473.302-1.833.476-1.288-1.696.068-1.221-1.221V38.51c-.04-.548.372-.646.306-1.221.244.213.837.474.913 0-.428-3.146.349-6.99 2.746-8.245.263-.054.29.119.309.307-.164 1.181.542 1.49.304 2.748.321.316.63 2.181 0 2.442-.271.982 1.004.418.916 1.222.563.045.186 1.032.607 1.221v6.715c1.31 10.576-.191 22.518.305 34.195.004 1.221.612 1.832.612 3.054.429 1.646-1.158 1.281-.913 2.748z"/>
</svg>
