<svg width="128" height="128" viewBox="0 0 128 128">
  <path
    d="M96.259 95.355c-0.456-1.837-1.131-3.744-1.218-5.781-1.379-1.766-1.998-4.289-3.042-6.389-0.981-2.264-2.306-4.186-3.35-6.391-2.784-3.094-6.082-5.682-7.302-10.344v-4.261c0.781-1.247 1.15-2.907 2.433-3.652 0.863-1.166 1.838-2.22 2.737-3.347 0.864-1.167 1.762-2.298 2.435-3.651 1.031-0.997 1.3-2.757 2.434-3.652 1.106-2.954 2.999-5.117 3.957-8.218 1.355-2.703 2.111-6.003 2.739-9.434 0.031-5.207 0.079-10.428-0.61-14.911-0.467-0.648-1.098-1.133-1.523-1.825-0.361-0.148-0.689-0.324-0.912-0.609-0.73 0.12 0.17-1.386-0.911-0.912-6.282-0.112-11.034-1.748-16.127-3.044-4.512-0.66-9.685-0.662-14.912-0.607-2.908 0.949-7.2 0.511-10.956 0.607-4.702 0.979-8.579 2.783-14 3.044-0.581 0.432-1.086 0.94-1.521 1.522-0.25 0.866-2.2 0.031-2.131 1.217-0.231 3.622-1.171 6.539-1.215 10.347 0.307 0.606 0.524 1.299 1.215 1.521 0.437 0.478 1.588 0.24 1.525 1.217 0.109 2.122 0.693 3.766 0.91 5.784 0.672 0.75 0.679 2.163 1.218 3.043 0.437 1.086 1.084 1.962 1.217 3.346 1.221 1.723 1.994 3.891 3.045 5.782 2.17 3.816 5.068 6.9 6.996 10.956 2.602 1.355 5.697 2.217 6.999 4.868 0.387 1.238 0.888 2.358 0.914 3.955-0.779 2.669-3.365 3.533-5.48 4.867-2.248 4.142-6 6.782-9.13 10.042-1.499 2.356-2.96 4.75-4.258 7.308-0.899 4.070-1.971 7.973-2.741 12.171v4.869c-0.118 1.471-0.767 3.094-0.302 4.259 0.818 2.121 2.502 3.379 3.651 5.173 2.582 1.578 5.485 2.832 8.216 4.261 3.078 1.081 6.618 1.7 10.346 2.129 7.090 1.604 15.969 0.607 24.040 0.607 5.769-1.13 11.013-2.784 15.827-4.867 0.481-1.041 0.746-2.296 1.521-3.043-0.001-7.010-1.385-12.532-2.736-17.955zM87.132 16.233c1.318 0.406 1.908 1.539 3.044 2.13-0.896 0.774-2.197-0.633-3.349-0.608-0.252-0.861 0.43-0.789 0.305-1.522zM72.22 14.406c4.517 0.048 9.458-0.331 12.778 0.912-0.267 0.643-0.923 0.9-0.911 1.826-3.315-1.045-8.543-0.179-12.171-0.912-0.010-0.717 0.524-0.896 0.304-1.826zM67.35 14.406v1.826c-0.391 0.418-1.318 0.301-2.129 0.304 0.085-1.335 0.329-2.512 2.129-2.13zM58.526 15.017c0.96 0.148 1.074-0.549 2.13-0.305-0.142 1.484-0.868 2.378-2.741 2.131 0.102-0.712 0.368-1.26 0.611-1.826zM53.050 17.45c-1.226-0.209-1.738 0.291-2.741 0.305 0.379-0.407 2.648-1.573 2.741-0.305zM57.005 52.142c-2.056-1.8-3.982-3.728-5.785-5.782-2.205-1.648-3.111-4.595-4.868-6.694-1.311-3.961-3.442-7.106-4.261-11.564v-4.566c4.031 0.437 8.485 0.444 12.782 0.61 8.48-0.932 20.136-0.972 28.607 0 2.817 0.934 5.802 1.701 8.52 2.738-0.349 4.825-1.856 8.492-3.653 11.868-0.8 1.736-1.656 3.416-2.738 4.868-0.87 1.666-1.78 3.29-3.044 4.564-3.283 0.242-5.226-0.86-7.609-1.521-3.538 0.62-8.415-0.096-11.867 0.609-1.343 0.484-2.58 1.073-3.349 2.13-0.702 1.123-2.155 1.495-2.735 2.74zM78.912 52.446c-0.687 1.847-2.619 2.451-3.042 4.563-0.693 0.222-1.553 0.272-2.13 0.611-1.168 0.963-1.938 2.321-2.132 4.258-0.986-1.297-3.030-0.802-4.866-0.607-1.086-0.236-1.146-1.49-1.827-2.13-0.736-0.48-1.344-1.090-1.823-1.826-1.562-0.773-2.61-2.056-3.958-3.044 0.598-0.924 1.221-1.824 3.044-1.521 0.879-0.441 1.807-0.832 2.435-1.522 3.062 0.037 6.542 0.742 9.431 0 1.787 0.245 2.85 1.211 4.868 1.218zM49.702 109.355c-0.958 0.146-1.191-0.432-1.828-0.609v-2.128c0.712 0.099 1.258 0.365 1.828 0.606v2.131zM50.005 100.832c0.859-0.251 0.787 0.43 1.521 0.305 0.052 0.496-1.992 0.615-1.521-0.305zM58.526 111.789c-1.202-0.524-2.535-0.913-3.957-1.218v-2.435c1.534 0.194 3.096 0.354 4.564 0.608-0.414 0.804-0.356 2.078-0.607 3.045zM64.003 112.396h-1.826c-0.191-0.925 0.389-2.62-0.306-3.042 0.423-0.693 2.12-0.113 3.044-0.306-0.144 1.276-0.586 2.259-0.912 3.348zM73.133 112.396h-4.868c0.321-1.342-0.602-2.351 0-3.042 1.709 0.114 3.179 0.467 5.173 0.304-0.864 0.653-0.507 1.621-0.305 2.738zM80.741 110.875c-0.959 0.361-2.299 0.341-3.044 0.912-1.282-0.14-1.4-1.44-2.436-1.827-0.054-0.258 0.117-0.288 0.308-0.302h8.213c-0.57 0.849-2.251 0.587-3.041 1.217zM53.959 102.050c0.392-1.229 1.674-1.573 2.434-2.435 0.569-1.966 1.946-3.127 3.045-4.564 4.435 0.481 6.104-1.805 7.608-4.259 0.877-0.097 1.674 0.128 2.736 0 1.315-0.158 2.058-0.374 3.043 0.911 1.045 0.133 1.707-0.118 2.433-0.302 0.289 1.437 1.711 1.738 2.742 2.433 0.051 1.365 0.629 2.207 1.214 3.044 1.244 0.486 1.505 0.57 3.044 0.303 0.746 2.197 2.644 3.242 4.566 4.258-0.085 1.098 0.562 1.469 0.606 2.435-11.841 0.078-23.51-0.020-33.473-1.824zM87.436 95.659c-0.741-0.879-0.996-2.25-2.129-2.739-1.303-0.382-1.506 0.025-3.044 0-1.699-0.43-1.868-2.388-3.953-2.432-0.566-0.856-1.010-1.832-2.132-2.129-0.77-1.867-2.090-3.184-3.955-3.956-1.611 0.014-2.316 0.931-3.35 1.521-1.414-0.144-2.027-0.411-3.344 0-1.841 0.798-2.721 2.556-3.958 3.957-5.441-0.468-7.013 2.926-9.129 5.781-4.384-0.529-6.594 1.119-8.52 3.044-0.904-0.442 0.4-1.187 0-2.13 0.599-0.211-0.076-1.697 0.607-1.826-0.097-1.821 0.732-2.719 0.913-4.26 0.893-2.556 2.364-4.537 3.65-6.693 4.124-3.183 7.668-6.94 9.74-12.173 3.41-0.95 5.338-3.388 7.302-5.781 1.937 0.085 3.073-0.706 3.958 0.608 1.541 0.221 1.534-1.11 2.433 0 0.623 0.492-0.015 2.244 0.61 2.737 0.796 1.946 2.994 2.483 3.954 4.26 1.598 1.138 2.66 2.817 4.26 3.958 0.644 1.79 1.992 2.874 2.737 4.561 1.002 1.332 1.812 2.856 2.741 4.26 1.515 3.25 2.525 7.007 3.348 10.956-1.137-0.285-1.599-1.246-2.739-1.524zM68.87 66.446c0.019 0.403-0.444 0.392-0.606 0.608-0.196 0.256-0.102 0.636-0.304 0.911-0.3 0.406-1.042 0.778-1.219 1.219-0.271 0.68-0.289 1.702-0.305 2.738 0.526 0.794 1.214 1.426 2.434 1.522 0.816-0.2 1.158-0.871 1.827-1.218 0.275-2.508-0.466-4-1.217-5.478-0.067-0.236-0.254-0.352-0.61-0.302zM69.484 77.096c-1.932-0.946-2.984 0.881-3.045 2.739 0.56 0.046 0.188 1.029 0.61 1.217 0.715 0.097 1.139 0.479 2.129 0.304 0.554-0.77 1.044-1.594 0.912-3.044-0.562-0.045-0.188-1.030-0.606-1.216z"></path>
</svg>
