<svg xmlns="http://www.w3.org/2000/svg" width="128" height="128" viewBox="0 0 128 128">
    <path d="M117.305 32.613c-.969-.2-.623-1.717-1.594-1.915-.638-.644-1.51-1.044-1.917-1.915-3.346.495-6.085-.173-9.578-.318-8.546.388-18.533-.012-27.762-.639-3.268-.986-7.219-1.294-10.85-1.916h-7.978c-.408.017-.444.41-.958.319-13.584-.288-26.074.523-38.935.959-1.423.123-.532 1.348-.956 1.914-1.079-.928-2.634-1.663-4.469-.957-1.878 1.259-1.664 4.292-1.598 7.341.467 2.512.556 5.402.639 8.296.534 5.532.253 11.874.322 17.873.649 11.372.687 23.352 1.914 34.147.708.673.876 1.889 1.914 2.237.842-.097 1.046.442.957 1.276.093.65.865.625.959 1.277 1.251-.298 1.185-.695 2.553-.321h3.829c1.672.029 2.874.532 4.785.321 9.958-.686 21.125-.155 31.599-.321 1.59.323 3.447.379 5.102.64 14.62.391 30.396 1.294 45.003.639 2.383.151 4.435-.029 5.425-1.277 1.283-1.951-.088-4.708.319-7.66 2.182-17.405-1.441-35.344 0-52.977-.175-1.423-.313-2.878-.642-4.148-.036-1.637 2.228-.971 1.918-2.875zM25.391 29.74c1.037-.184 1.486.219 2.235.32h2.554c.454-.027.904-.053.956.319H27.31c-.663-.192-2.22.516-1.918-.639zm85.211 65.426c-12.977 1.995-28.064.984-42.127.637a664.063 664.063 0 0 0-43.084 0c-2.341.216-4.639.469-6.701.958.446-1.889.845-3.834.959-6.065.439-9.755.142-19.123-.322-28.721-.412-7.285-.047-14.18-.958-21.383-.297-2.369-1.105-4.312-.955-6.701-.013-.547.237-.828.636-.957 6.648.534 13.476.1 20.426.636 6.629.515 13.41 0 20.107 0h21.063c6.624 0 13.137.889 19.468 1.277h10.849c-2.103 20.576 2.468 40.166.639 60.32zM34.328 54.635c.639.531 1.483.856 1.594 1.915.896 1.34 2.248 2.221 3.513 3.191 1.83.328 4.278.532 6.065 0 3.196-1.802 5.15-4.845 5.106-9.893-.491-3.236-2.366-5.081-4.789-6.383-1.819-.203-3.334-.708-5.425-.638-.195.018-.38.047-.321.319h-1.595c-.45.51-1.099.816-1.916.958-1.867 1.959-3.491 4.168-3.19 8.298.54.524.396 1.73.959 2.234zm5.742-7.34c1.051-.655 3.231-.175 4.788-.321.82.562 1.378 1.388 2.231 1.916.025 1.358.538 2.233.321 3.829-.373.051-.268.581-.321.958-.935.977-2.032 1.794-3.19 2.554-1.339-.484.557-1.849 0-3.511.1-.736-.92-.354-.955-.958-1.68-.403-1.894.662-3.195.64.08-1.674-.776-2.416-.957-3.829.562-.291.528-1.175 1.277-1.277zm66.063 35.745c-.55-1.154-1.11-2.296-1.275-3.832-1.915-1.707-3.112-4.123-4.467-6.383-1.293-2.219-2.965-4.059-4.469-6.063-1.904-1.609-3.222-3.8-4.787-5.745-.535-1.268-1.506-2.112-1.912-3.511-.556-.369-.602-1.102-.958-1.597a5.434 5.434 0 0 0-1.274-1.276c-3.069-.407-4.195 1.126-5.105 2.871-1.216 1.34-1.98 3.129-3.194 4.468-.702 1.958-2.264 3.055-3.194 4.788-1.175 1.379-2.004 3.099-3.189 4.467-1.746-1.229-2.773-3.185-5.106-3.832-.271.061-.3-.123-.317-.319-7.931-.802-11.699 2.556-15.32 6.066 0 1.064-1.036 1.089-.956 2.234-.836.227-.307 1.822-1.28 1.915-1.23-.897-2.299-1.957-4.148-2.235h-2.231c-4.151 1.169-7.985 2.654-10.532 5.427-1.174.208-1.593 1.175-2.235 1.915a6.463 6.463 0 0 0-1.915 1.915c-1.043 1.251-2.797 3.294-2.237 5.104.082.348.637.218.642.642.665-.188 1.034-.673 1.595-.958.704-.734.798.555 1.276.958-.241.527-2.63.527-2.87 0-.26.059-.319.321-.642.317v.958c2.672.52 5.835.55 8.619.956 13.71-1.398 29.731-.483 44.043-1.276 5.322.405 11.121-.554 16.279-1.276 3.052.183 5.524-.221 8.293-.321.879-.61 1.761-1.219 3.19-1.277-.173-2.002-.669-3.345-.323-5.102zm-74.998 5.102c-.183-1.034.219-1.483.319-2.231 1.232-.063.342 2 .96 2.555-.574.04-.673-.392-1.279-.323zm5.425-6.063c.061-.361.321-.175.321 0-.06.365-.321.179-.321 0zm5.747 6.386c-.707-.042-.134-1.356-.32-1.917-.368-.378-.361-1.13-.321-1.915.3-.235.487-.581.641-.956.581.916.456 3.847 0 4.787zm1.275-7.98c-.736.098-.356-.923-.957-.958.1-.433.798-.264 1.276-.319.039.572-.392.673-.319 1.277zm2.871.957c.518-.092.549.302.958.319.603 1.738.132 4.552.959 6.066-2.727-.04-.98-4.557-1.917-6.385zm36.382-16.915c.87-.938 1.471-2.146 2.236-3.193.373-.05.569.072.638.32.467 1.342 1.656 1.962 1.915 3.51-1.582.33-2.201 1.627-3.51 2.234-.315 1.069-1.278 1.489-1.594 2.555-1.28.003-1.059-1.496-1.917-1.912.416-1.501 1.739-2.094 2.233-3.514zm3.513 13.405c-.022 1.681-1.062 2.344-.956 4.149-.982-.081-1.439-.69-2.237-.956.524-1.178 1.752-1.656 1.597-3.514.9-.261.826.451 1.596.32zm-7.342-7.021c.111 1.724 2.286 2.269 1.277 4.149-.852-1.385-1.779-2.689-2.237-4.467.518-.092.552.3.96.318zm.321 11.489c-.168-.166.233-.409.319-.321.162.166-.231.409-.319.321zm-1.279-2.555c-.162-.164.231-.406.323-.319.163.165-.231.407-.323.319zm0-.957c-.059.363-.319.179-.319 0 .063-.362.323-.175.319 0zm-1.275-3.83c.475.906.788 1.979.956 3.192-.907-.477-.888-1.876-.956-3.192zm-.319-2.233c.267-1.012.421.564.319.956-.267 1.016-.424-.563-.319-.956zM54.432 87.506c-2.958.407-2.622-2.483-3.188-4.467.542-.52 1.129-.999 1.593-1.598-.015-1.912-.645-2.915.64-3.83.569-.088.656.303.318.32-.202 1.926-.452 3.804-.318 6.065.081 1.404 1.099 1.878.956 3.51zm4.469-1.277c-2.218-1.4-1.875-5.36-2.554-8.298-.48-.476-.096-1.819-1.276-1.596.986-1.567 2.701-2.406 4.149-3.51.732.348-.319 1.568-.638 1.915-.403 3.891-1.121 8.245.318 11.489zm32.551-.319c-1.856 1.229-5.583.586-7.979 1.277h-7.34c-.902-.264-.825.448-1.593.319H63.689c-.291-.704.043-1.373-.322-2.555-.707-.463-.44-1.9-.957-2.554v-8.619c.536-1.201-1.483-1.453-.638-1.914h3.509c1.204.822 2.028 2.017 2.874 3.19-.289 4.382-.971 10.361 2.873 11.489 4.279-.728.378-6.264 1.275-8.936 1.656 2.604 1.629 6.879 5.425 7.343 1.355-.028 2.014-.754 1.917-2.236 1.298.936 2.16 2.306 4.15 2.552 1.388.221 1.764-.575 2.231-1.275 1.272.175.96.175 2.236 0 .812-.783 1.141-2.051.958-3.832.47-.59.61-1.515.639-2.554.554-.51.69-1.437.636-2.554-1.274-1.042-1.78.818-3.186.64-.092-.656-.858-.638-1.281-.958.31-3.097 1.886-4.926 2.554-7.66.519-.09.552.303.963.318 1.565 3.117 4.656 4.704 5.743 8.3-1.005-.155-1.249.454-1.918.638-1.121 2.175-2.802 3.795-3.189 6.704-.034 1.412.46 2.303 1.272 2.874zm5.746-.319c-.467.493-1.633.281-2.555.319-.239-.984.876-.614.641-1.596-.829-2.391.705-4.695.637-7.341.971.838 1.267 2.353 2.236 3.19-.94 1.455-1.374 3.457-.959 5.427zm2.554 0c-.267-.834.962-1.752 0-2.236.856-.629 2.067 1.112 2.236 2.236h-2.236zm-34.148-8.617h-.958c-2.072 2.904-1.148 11.129 3.829 8.936-.077-1.624-1.363-2.042-1.593-3.51-.356-1.884-.14-4.332-1.279-5.426z"/>
</svg>
