<svg xmlns="http://www.w3.org/2000/svg" width="128" height="128" viewBox="0 0 128 128">
  <path
    d="M124.8 26.148c-.483-7.075-1.917-13.198-4.929-17.744-1.137-.832-2.733-1.208-3.617-2.299-3.502-.55-7.844-.261-11.827-.329-.419.017-.454.422-.986.329-.925.39-1.888.738-2.959.988-2.033 1.248-3.303 3.265-5.584 4.27-.775 1.741-2.55 2.489-3.285 4.271-1.233 1.285-2.175 2.866-3.287 4.271-.508 1.792-1.46 3.136-1.969 4.93-.942 1.467-1.325 3.497-2.628 4.601-8.099.666-15.953 1.572-23.987 2.299-.281.489-.827.706-1.645.657-2.314 1.631-4.928 2.956-6.572 5.261-1.27.699-2.39 1.549-3.283 2.625-1.44.644-2.449 1.715-2.96 3.286-2.561 1.382-3.8 4.084-5.914 5.916-1.189.781-1.905 2.038-2.63 3.285-.561.422-1.293.681-1.312 1.645-.895.2-1.539.651-1.974 1.311-2.254 1.691-3.741 4.144-5.586 6.244-2.368 1.685-4.366 3.736-6.24 5.914-4.462 3.643-9.074 7.139-12.489 11.83-.493 3.891-1.889 6.875-1.643 11.502 2.288 4.282 6.297 6.844 9.53 10.186 1.337 2.494 3.593 4.073 4.929 6.569 1.923 1.91 3.58 4.086 5.258 6.244 2.465 1.916 5.196 3.563 7.229 5.915 1.843.457 3.187 1.412 4.598 2.298 1.681.625 3.593 1.013 5.258 1.644.453-.643 2.016-.177 2.629-.656 1.107-.094 2.244-.163 2.96-.656 1.615-.686 3.493-1.104 5.583-1.312 1.725-1.672 3.509-3.283 5.584-4.6 1.636-1.76 3.563-3.229 5.587-4.6 3.471-3.323 7.087-6.497 10.515-9.858 2.945-2.202 5.805-4.485 8.871-6.573.772-1.198 1.98-1.954 2.956-2.956.778-1.303 2.212-1.948 3.286-2.956 1.973-2.08 4.68-3.425 6.244-5.917 1.312-6.021 3.222-11.452 3.285-18.727.977-.775.632-2.873.984-4.272.254-5.332.752-10.418.988-15.773 6.415-1.25 11.329-4.006 15.442-7.555.734-1.356 1.9-2.264 2.632-3.616.975-1.216 1.477-2.902 2.296-4.273.062-.488-.111-1.211.331-1.313.197-.685-.402-2.163.332-2.304zM84.381 46.192c.527 2.591-2.398 2.021-3.938 1.643-.235-1.973 2.574-2.325 3.938-1.643zm-1.644 43.701c-.015.201-.046.389-.325.329-.044.836-.479 1.274-1.314 1.313-.022.201-.05.389-.328.331-.022.201-.053.386-.33.329.029.398-.48.201 0 0 .014-.201.049-.389.33-.329.017-.201.048-.39.328-.331.096-.669.888-.643.986-1.313h.33c.018-.2.048-.388.324-.329-.056-.719.273-1.045.991-.988.056.717-.272 1.047-.991.988zm16.436-45.345c-.23 1.304-1.446 1.622-1.975 2.629-.373 5.43-.365 11.24-1.312 16.102-1.81 1.914-2.251 5.195-2.3 8.867-.487.282-.705.828-.657 1.646-2.584 1.905-3.144 5.836-6.571 6.9.092-1.958.077-3.799-1.313-4.271-1.596 1.031-1.406 4.092-.989 6.241-.168 1.805-1.889 2.054-2.301 3.616-1.381.479-1.279 2.446-2.956 2.629-.214-2.525.65-6.125-.981-7.228-1.594.378-1.605 2.338-2.304 3.615.229 2.09-.555 3.166-.323 5.258.085 1.073-1.278.697-1.32 1.644-.479.613-.012 2.179-.654 2.629-.229 1.412-1.934 1.35-2.302 2.629-1.115.415-1.244 1.821-2.627 1.969.022-3.311.022-6.592-1.312-8.541-1.486.157-1.181 2.103-1.314 3.612-.796.849.059 3.348-.656 4.274v4.272c-1.243 1.611-2.803 2.894-4.273 4.273-1.752-3.29 1.071-11.15-2.628-12.487-2.271.467-1.498 3.979-2.299 5.917v6.241c-.302 1.727 1.499 1.345 1.641 2.63-1.333.309-1.758 1.528-2.957 1.973-.926.717-2.058 1.226-2.957 1.973-.98-.333-.648-1.983-.984-2.96v-3.615c.272-.929-.464-.852-.328-1.644-.151-1.598.344-3.845-.328-4.927-1.826.365-1.683 2.703-2.304 4.273.254 2.879-.481 4.776-.326 7.556.114.977.189 2 .987 2.299-.91.736-2.607.68-4.273.659-.302-3.646-.943-6.946-.658-11.175-.597-.825-.597-2.248-1.971-2.3-3.946.264-2.982 6.281-2.629 9.86-3.401-1.857-5.778-4.738-8.869-6.9-.985-1.646-2.469-2.789-3.615-4.274-1.611-.909-2.003-3.037-3.615-3.942-.734-1.891-2.315-2.942-2.958-4.929-1.332-1.185-1.779-3.257-2.956-4.6.256-2.666-.476-4.346-.328-6.899.511-1.459 2.275-1.666 2.956-2.959a14.997 14.997 0 0 0 2.956-2.956c2.463-.826 3.9-2.676 5.586-4.269 1.774-1.513 3.378-3.196 5.258-4.602.625-1.458 1.581-2.581 1.977-4.272 1.467-.284 1.711-1.79 3.284-1.969 1.969-2.303 3.864-4.679 6.242-6.572 1.494-2.669 4.236-4.089 5.586-6.9 2.113-1.065 3.695-2.658 5.255-4.274.089-.678 1.458-.079 1.316-.987.668-.095.641-.888 1.312-.982.715-.82 2.109-.957 2.628-1.973 1.833.189 2.907-.379 4.273-.656 6.46.326 11.002-1.264 17.086-1.318-.013 2.179-1.227 3.16-.986 5.587-2.946.362-5.123 2.462-6.244 5.259-.252.628-.181.85-.331 1.972-.151 1.156-.127 2.411.662 3.942.323.656 1.448.518 1.309 1.643 1.035.174 1.837.578 2.63.987 3.023-.372 5.554-1.237 7.886-2.298 1.227-.637 1.631-2.093 2.629-2.958-.148-1.496.206-2.78 0-3.942-.452-2.598-2.346-3.853-4.271-4.93.332-2.628 1.496-4.417 2.302-6.572 2.319-.418 4.787-.689 6.898-1.314 2.907.38 3.847 2.724 5.259 4.599-.102 2.526-.94 4.314-.662 7.217zm20.371-15.772c-1.276 1.907-2.533 3.821-3.946 5.585-3.085 1.514-5.293 3.911-9.526 4.272-.088-.961.739-1.007.652-1.969-.921-2.8-3.644-3.807-4.597-6.572-1.58-.502-2.513-1.65-3.616-2.629-1.206.11-1.829-.365-2.629-.659-2.153.042-3.477.904-5.585.987 1.644-6.459 5.867-10.341 9.528-14.788 1.648-.65 3.001-1.598 4.273-2.627 3.954-.334 8.752-.726 11.828.658 2.808 4.204 4.763 10.64 3.618 17.743z"/>
</svg>
