<svg viewBox="0 0 128 128">
  <path
    d="M31.969 46.354c3.829-.124 7.298.109 10.789.319 9.288-.757 18.953-1.144 29.192-.953 4.666-.315 9.838-.316 14.91-.316 5.092 0 10.227.33 14.6 0 1.013-1.416 2.648-2.214 2.537-4.761-.384-3.211-2.436-4.754-5.711-5.077-.072.248-.269.369-.636.319-13.914-.372-25.74 1.334-39.344 1.267-6.964-.192-12.614.927-19.355.95h-5.08c-1.485.207-3.796-.412-4.758.319-3.702-.319-5.394 1.374-5.077 5.075.914 2.688 4.278 2.918 7.933 2.856zm55.529 13.009c-16.33.704-34.12-.061-50.451.636-1.017.358-2.108.644-3.489.636-.652.828-3.186-.225-3.808.633-2.343.564-3.841 2.133-3.807 4.76.769 2.724 3.271 3.711 6.979 3.489 3.162-.326 6.601-.378 10.154-.316 9.763.513 21.122.316 31.094.316 3.427 0 6.72.127 9.836 0 3.679.192 6.429-.555 10.154-.316 1.917.117 3.285-.314 4.444-.954.557-.289.979-.71 1.267-1.269.841-.111.29-1.616.954-1.903-.156-2.913-1.855-4.278-3.489-5.711-2.701-.459-7.156-.547-9.837 0zM97.65 81.889c-11.481-.054-22.723.125-33.634.638-7.346.27-15.09.139-22.208.636-3.746.065-6.867.752-10.155 1.268-3.151.656-6.051 1.564-5.711 5.711 1.571 3.116 5.654 1.643 9.517 1.586 18.19-.118 34.096.52 51.717 0h10.791c4.019.317 5.613-1.792 6.025-5.079-.651-3.046-2.322-5.075-6.342-4.76z"/>
</svg>
