<svg viewBox="0 0 128 128">
  <path
    d="M111.554 24.763c.393-2.323-.683-3.41-1.324-4.866-1.805-.97-4.83-.907-7.52-1.12-2.132-.695-5.6-.257-8.413-.377-15.97 2.087-35.855.86-52.218 2.623-2.636.23-2.314-2.036-5.31-1.5-6.42.562-14.717-.474-19.033 1.87-1.293 2.15-1.243 5.435-1.32 8.61.537 3.482-1.164 6.542 0 9.357.328 1.217 1.6 1.64 2.653 2.25-.09 1.574 1.978 1.318 2.653 2.242 3.03.07 5.027-.738 7.962-.746h27.44c13.393-1.65 30.673-.01 44.256-1.497 1.092-.05 2.13-.06 2.65.376.075.83 1.116-.49 2.215 0 2.04-.025 4.323.16 5.754-.377V30.003c.028-1.896-.765-3.102-.448-5.24zm-88.95 10.86V33c.745.538 2.37 2.658 0 2.622zm2.215-7.49c-.522-.06-.373-.683-.443-1.123.75-.137.835.292.887.75-.377-.07-.42.145-.445.374zm6.637 6.737h-1.77c.446-.497.42-1.392 1.33-1.498-.48-1.985 1.342-.44 0 0-.1.708.497.83.44 1.498zm0-2.99c-.23-.197.316-.482.44-.375.232.19-.317.475-.44.374zm1.33-2.625c.418 1.56-1.328.077 0 0 .048-.954.082-1.925 1.33-1.867-.52.556-.554 1.528-1.33 1.867zm5.31 5.615c-.07-.932.695-1.157.882-1.87.66.32.64 1.205.89 1.87h-1.774zm3.1-7.11c.417 1.553-1.324.076 0 0-.047-.454.64-.232 0 0zm6.636 7.11c.49-1.834 2.066-2.743 3.1-4.117-.048-.452.644-.23 0 0-.416 2.1 1.13 2.537 1.33 4.117h-4.43zm11.06-4.115c1.155-1.005 1.34.456 2.66.372-.008.572-3.28.822-2.66-.372zm.888-1.873c-.537-1.95 1.825-1.45 3.544-1.494-.93.715-2.114 1.203-3.543 1.494zm30.535-2.62c1.666.288 2.12-.457 3.547-.377.262 1.825-3.275 1.918-3.547.378zm9.735 1.125c-.965-.058-.948-.945-.88-1.87 1.706.068 3.26.01 4.422-.377-.487 1.34-2.65 1.25-3.542 2.248zm11.504 29.194c.393-2.324-.683-3.408-1.324-4.864-1.805-.97-4.83-.908-7.52-1.125-2.132-.69-5.6-.25-8.413-.372-15.97 2.087-35.855.86-52.218 2.624-2.636.227-2.314-2.036-5.31-1.5-6.42.558-14.717-.475-19.033 1.87-1.293 2.15-1.243 5.432-1.32 8.61.537 3.477-1.164 6.54 0 9.357.328 1.217 1.6 1.64 2.653 2.245-.09 1.578 1.978 1.32 2.653 2.25 3.03.068 5.027-.74 7.962-.753h27.44c13.393-1.643 30.673-.008 44.256-1.495 1.092-.047 2.13-.055 2.65.378.075.83 1.116-.49 2.215 0 2.04-.024 4.323.16 5.754-.378V61.825c.028-1.894-.765-3.106-.448-5.243zm-88.95 10.86v-2.624c.745.54 2.37 2.662 0 2.623zm2.215-7.49c-.522-.06-.373-.682-.443-1.12.75-.142.835.29.887.745-.377-.068-.42.15-.445.375zm6.637 6.738h-1.77c.446-.497.42-1.39 1.33-1.494-.48-1.985 1.342-.442 0 0-.1.702.497.824.44 1.494zm0-2.993c-.23-.196.316-.48.44-.374.232.193-.317.477-.44.375zm1.33-2.623c.418 1.558-1.328.076 0 0 .048-.953.082-1.924 1.33-1.868-.52.56-.554 1.528-1.33 1.868zm5.31 5.616c-.07-.93.695-1.156.882-1.87.66.32.64 1.206.89 1.87h-1.774zm3.1-7.113c.417 1.555-1.324.077 0 0-.047-.452.64-.23 0 0zm6.636 7.113c.49-1.832 2.066-2.744 3.1-4.116-.048-.45.644-.23 0 0-.416 2.1 1.13 2.536 1.33 4.116h-4.43zm11.06-4.116c1.155-1.008 1.34.457 2.66.377-.008.565-3.28.816-2.66-.378zm.888-1.87c-.537-1.953 1.825-1.453 3.544-1.497-.93.712-2.114 1.208-3.543 1.497zm30.535-2.623c1.666.287 2.12-.457 3.547-.378.262 1.827-3.275 1.918-3.547.377zm9.735 1.124c-.965-.057-.948-.945-.88-1.87 1.706.07 3.26.01 4.422-.377-.487 1.34-2.65 1.25-3.542 2.248zm11.504 27.698c.393-2.325-.683-3.412-1.324-4.866-1.805-.97-4.83-.905-7.52-1.126-2.132-.69-5.6-.252-8.413-.372-15.97 2.088-35.855.865-52.218 2.62-2.636.23-2.314-2.034-5.31-1.495-6.42.563-14.717-.473-19.033 1.87-1.293 2.152-1.243 5.43-1.32 8.61.537 3.48-1.164 6.543 0 9.36.328 1.217 1.6 1.64 2.653 2.245-.09 1.577 1.978 1.316 2.653 2.248 3.03.066 5.027-.743 7.962-.756h27.44c13.393-1.645 30.673-.01 44.256-1.492 1.092-.046 2.13-.057 2.65.374.075.832 1.116-.485 2.215 0 2.04-.02 4.323.166 5.754-.374V92.14c.028-1.896-.765-3.096-.448-5.238zm-88.95 10.853v-2.618c.745.542 2.37 2.658 0 2.618zm2.215-7.484c-.522-.058-.373-.683-.443-1.122.75-.14.835.29.887.748-.377-.07-.42.147-.445.375zm6.637 6.74h-1.77c.446-.5.42-1.394 1.33-1.496-.48-1.986 1.342-.443 0 0-.1.703.497.827.44 1.496zm0-2.998c-.23-.195.316-.477.44-.37.232.19-.317.475-.44.37zm1.33-2.62c.418 1.557-1.328.077 0 0 .048-.95.082-1.922 1.33-1.867-.52.557-.554 1.53-1.33 1.867zm5.31 5.618c-.07-.934.695-1.162.882-1.873.66.316.64 1.206.89 1.873h-1.774zm3.1-7.114c.417 1.555-1.324.08 0 0-.047-.452.64-.23 0 0zm6.636 7.114c.49-1.835 2.066-2.746 3.1-4.118-.048-.455.644-.23 0 0-.416 2.1 1.13 2.54 1.33 4.118h-4.43zm11.06-4.118c1.155-1.007 1.34.456 2.66.373-.008.573-3.28.822-2.66-.373zm.888-1.87c-.537-1.952 1.825-1.452 3.544-1.496-.93.71-2.114 1.207-3.543 1.495zM90.316 88.4c1.666.287 2.12-.456 3.547-.374.262 1.822-3.275 1.912-3.547.374zm9.735 1.122c-.965-.055-.948-.943-.88-1.87 1.706.074 3.26.01 4.422-.374-.487 1.335-2.65 1.25-3.542 2.244z"/>
</svg>
