<svg width="128" height="128" viewBox="0 0 128 128">
  <path
    d="M119.427 33.925c-.435-2.041-.95-4-1.294-6.138-1.474-2.612-2.994-5.187-4.198-8.072-2.479-2.476-4.619-5.285-7.751-7.106-2.736-.705-6.157-.73-9.69-.645-.413.017-.446.414-.965.321-6.752 1.11-10.621 5.101-16.15 7.43-2.787 2.701-6.067 4.915-8.72 7.752a30.735 30.735 0 0 0-4.2 4.197c-1.261 1.539-3.02 2.58-2.909 5.49.362.927.68 1.903 1.291 2.584.644.003.412.881 1.292.645-.23.877 1.526-.23 1.293.645 2.65.065 3.421-1.748 5.169-2.582 1.363-1.446 2.45-3.13 4.201-3.877 2.533-2.736 5.736-4.809 8.717-7.103 1.958-1.273 4.422-2.037 6.138-3.554 2.443-.787 4.129-2.331 7.425-2.261 2.074 1.052 2.902 3.345 3.877 5.49 1.211 1.913 2.619 3.628 3.231 6.135v8.721c-.785 2.875-1.476 5.846-1.939 9.042-2.052 2.363-4.072 4.754-6.78 6.459-2.171 2.353-5.5 3.547-8.072 5.492-2.573 1.949-5.312 3.729-7.752 5.811-2.714 1.806-4.805 4.24-8.074 5.491h-6.461c-1.958-.733-4.283-1.098-6.133-1.938-2.934.311-4.737-1.361-7.428-.324a14.054 14.054 0 0 0-2.584 2.585c-.702 1.795-.051 3.555 0 4.522.015.321.284.207.322.324.23.687.12 1.504.321 1.936.654 1.386 2.255 2.703 3.228 3.552.53.459.871 1.036 1.294 1.292 1.106.675 2.741.502 3.552 1.615 5.029.381 10.248.494 14.211-.968 2.458-1.097 4.607-2.496 6.781-3.876 2.279-1.381 4.204-3.117 6.459-4.52 1.364-.682 2.721-1.371 4.2-1.937 1.21-.837 2.4-1.692 3.88-2.26 2.479-1.715 4.936-3.457 7.426-5.169 3.332-3.666 6.486-7.506 9.686-11.302.431-1.295 1.269-2.178 1.939-3.23.607-1.222 1.023-2.636 1.94-3.553.06-1.66 1.163-2.276 1.287-3.874.848-.988.772-2.89 1.618-3.875.181-3.046.469-5.989.323-9.365zM54.832 98.516c-.273-.763-1.416.269-1.936.323-.863.212-1.229.926-1.936 1.293-1.328.717-2.383 1.71-3.875 2.26-1.858 2.342-4.565 3.835-7.431 5.167-2.328.687-4.854 1.177-8.072.97-5.499-3.867-8.939-9.794-8.399-19.702.746-.546.43-2.156 1.296-2.584.074-1.32 1.096-1.701 1.288-2.906 1.235-1.567 2.509-3.092 3.88-4.522 2.571-2.916 5.579-5.4 8.395-8.075 1.347-1.342 2.97-2.411 4.2-3.873 1.269-.131 1.38-1.421 2.582-1.617.411-.99 1.847-.95 2.264-1.939 3.653-1.836 5.834-5.145 11.624-4.843 3.778.633 3.675 5.153 8.073 5.167 3.89.124 5.471-2.067 5.812-5.491-.329-2.902-2.123-4.335-3.875-5.813-1.541-1.794-3.639-3.035-6.138-3.876-2.174-.731-5.136-.675-8.074-.645-1.109.592-2.235.614-3.228.97-2.278.813-3.861 2.215-6.139 2.907-2.432 2.09-5.303 3.739-7.748 5.812-1.427.837-2.514 2.01-3.878 2.908-.384.798-1.105 1.263-1.936 1.615-.535.648-.868 1.502-1.936 1.616-.631 1.628-2.49 2.032-3.231 3.553a22.187 22.187 0 0 0-3.554 3.551c-1.292.97-2.111 2.409-3.228 3.553-1.243 1.127-1.962 2.776-3.228 3.876-1.175 3.242-2.962 5.868-3.553 9.688-.626 13.33 4.608 20.797 10.979 27.131 2.207.912 3.941 2.303 6.46 2.907h5.813c3.07-.59 5.795-1.525 8.72-2.259 1.198-1.278 3.16-1.793 4.52-2.908 1.446-1.137 2.785-2.382 4.202-3.552.837-1.639 2.334-2.619 2.582-4.846.386-.906.353-2.227.323-3.552-.849-.444-.151-2.433-1.617-2.262z"/>
</svg>
