<svg width="128" height="128" viewBox="0 0 128 128">
  <path
    d="M103.939 55.042c-0.698-1.803-2.313-2.689-4.066-3.439-0.454-0.795-1.895-0.606-2.187-1.565-0.71-0.541-2.623 0.123-2.814-0.937 0.296-8.324-0.271-15.782-1.565-22.513-0.785-1.196-1.34-2.622-1.878-4.065-0.928-1.155-1.704-2.466-2.502-3.753-3.444-3.639-8.069-6.102-14.069-7.19h-9.379c-1.793 0.397-3.599 0.779-5.63 0.938-2.067 1.163-4.429 2.033-6.568 3.126-0.655 0.91-1.883 1.243-2.813 1.877-1.587 0.081-2.175 1.162-3.44 1.562-2.514 2.594-4.44 5.774-6.255 9.069-1.357 4.372-1.926 9.537-2.813 14.385v7.816c-2.57 0.35-5.109 0.726-8.129 0.626-0.179 0.548 0.375 1.837-0.315 1.876-0.465 0.367-0.88 0.784-1.247 1.25-0.889 7.703 0.427 15.797 0 24.077 0.133 1.633 0.799 2.741 0.934 4.376-0.019 5.233 0.498 9.927 1.25 14.384 1.087 2.979 2.853 5.277 3.755 8.442 1.235 0.746 1.939 2.020 2.813 3.126 1.104 0.876 2.085 1.879 3.129 2.817 0.538-0.017 0.801 0.24 0.938 0.624 2.35 0.987 4.993 1.678 7.191 2.815 1.941 1.496 4.862 2.020 7.503 2.814 3.041 0.287 6.23 0.825 9.381 0.625 3.183-0.201 6.111-1.11 8.755-1.563h5.318c7.63-4.040 14.105-9.239 19.696-15.318 1.027-3.457 2.75-6.216 3.443-10.008 0.83-3.648 1.2-7.763 1.873-11.569v-12.512c0-4.341 0.259-8.346-0.31-12.193zM44.527 40.346c1.77-2.090 4.114-3.601 5.005-6.565-0.278-0.658-0.486-1.39-0.935-1.876-0.548-0.289-1.678 0.011-1.566-0.939 1.2-1.718 2.342-3.498 4.066-4.689-0.072-1.22 0.67-1.622 0.937-2.502 1.313-1.502 3.56-2.069 5.004-3.44 1.944-0.764 3.476-1.942 5.628-2.5h3.756c2.798-1.053 6.697-1.011 10.627-0.939 0.050 0.367 0.569 0.265 0.942 0.313 1.933 1.189 3.48 2.771 5.312 4.065 1.259 1.66 2.457 3.38 3.442 5.315 0.201 2.195 0.566 4.224 1.246 5.941 0.198 3.766 0.448 7.476 0.315 11.57-0.004 1.141-0.89 1.403-1.25 2.188v1.876c-0.171 0.454 0.365 1.616-0.31 1.564-1.513 0.467-1.307-0.779-1.254-1.875-1.156-0.14-2.151-0.027-2.814-1.25 0.482-1.87 1.105-3.898 0.939-6.88-0.194-3.425-1.069-7.125-1.564-10.006-0.328-1.027-1.411-1.296-1.877-2.188-0.442-0.811-1.058-1.444-1.566-2.19-1.995-1.233-3.582-2.876-5.624-4.064-2.743 0.243-4.545-0.46-7.192-0.311-9.17 2.815-14.13 9.842-16.573 19.384-0.244 1.288 0.479 1.604 0.312 2.812 0.264 1.309-0.606 1.478-0.622 2.502-0.443 1.499 0.901 2.832 0 3.754-1.297 0.045-0.328-2.177-0.627-3.127-0.606 0.853-1.028 1.89-2.502 1.876-0.545-0.515-0.925-0.584-1.252-1.251-0.773-1.593 0.030-4.46 0.001-6.566zM77.67 41.909v7.818h-21.259c-0.342-2.262-0.363-4.849-0.315-7.504 1.752-7.217 5.209-12.722 12.199-14.697 1.972 0.008 4.083-0.124 5.624 0.313 2.874 3.069 2.427 9.455 3.749 14.070zM94.873 81.932c0.444 1.225 0.216 3.121 0.938 4.066-0.387 1.698-0.45 3.716-0.627 5.627-1.919 3.086-4.136 5.873-6.254 8.754-1.918 1.523-3.891 2.988-5.94 4.378-2.478 0.856-4.474 2.198-6.565 3.442-3.134 0.275-7.569 0.662-10.632 0-1.071-0.776 0.121-2.133-1.251-2.816-1.6-1.154-2.441 1.898-3.752 0.94-1.533-0.144 0.387-1.219 0.312-1.877 0.525-0.517 0.251-1.837 0.315-2.816-0.451-1.32-1.427-2.115-3.44-1.875-1.957 0.022-2.184 1.779-4.066 1.875-1.672 0.726-1.643 3.152-3.439 3.754-0.522-1.266 1.427-2.444 0.94-4.689-0.102-0.734-0.968-0.701-1.253-1.252-2.133 0.369-3.265 1.738-4.062 3.441-1.082-0.23-0.209-0.943 0-1.564 0.432-0.504 0.264-1.613 0.935-1.877 0.337-1.539 1.347-2.402 1.566-4.066 0.984-1.138 1.115-2.639 1.56-4.066 0.066-0.203 0.569-0.774 0.627-0.938 0.064-0.186-0.046-0.435 0-0.625 0.093-0.376 0.547-1.713 0.313-3.127-0.285-0.552-0.699-0.969-1.252-1.25-3.546-0.315-3.844 2.614-5.628 4.064-1.189 1.936-2.484 3.767-3.441 5.94-0.736-0.262 0.26-1.371 0.315-1.876-0.032-0.969 0.383-1.492 0.624-2.189 0.312-1.462 0.943-2.602 1.252-4.066 0.89-2.651 2.605-4.481 2.502-8.129-0.314-0.94-0.942-1.565-1.875-1.876-1.783 0.093-2.958 0.794-3.754 1.876-0.796-0.417 0.461-1.39 0.313-2.189 0.241-0.695 0.656-1.221 0.623-2.19 0.658-1.221 1.154-2.6 1.566-4.066-0.034-1.634-0.845-2.489-1.877-3.129 0.59-1.39 2.415-1.544 2.502-3.438-0.179-1.282-1.18-1.739-2.191-2.189-2.127-0.358-2.246 1.295-3.752 1.563 0.483-1.604 0.387-3.782 0.627-5.627 1.43-0.55 2.399-1.564 3.752-2.191 17.218 1.441 36.194 1.119 54.718 1.251-0.841 7.922 0.39 17.913-1.249 25.023zM70.794 69.112c-2.238-0.439-3.877-0.646-6.253-0.311-1.779 1.034-3.862 1.764-5.315 3.127-1.454 2.056-2.544 5.902-1.562 9.379 0.978 1.627 3.284 1.928 4.374 3.441-0.685 3.285-0.934 8.29-0.31 11.882 0.678 0.676 1.632 1.078 2.501 1.566 1.163 0.194 1.434 1.278 3.127 0.938 4.409-1.427 2.858-8.818 3.126-14.383 1.748-1.484 3.038-3.423 3.756-5.94 0.238-2.218-0.389-3.572-0.316-5.626-0.969-1.436-1.877-2.928-3.13-4.073z"></path>
</svg>
