<svg xmlns="http://www.w3.org/2000/svg" viewBox="0 0 1250 394">
  <g fill="#fff">
    <path
      d="M136.43 5.95c1.13-1.44 3.02-.82 4.56-.97 15.3.03 30.6.03 45.9 0 1.5.16 3.4-.48 4.6.97 1.9.05 3.9.05 5.8.1 1.9 1.86 4.9.22 7.1 1.76 1.3.3 2.9 0 4 1.1l2.8.3c1.5 1.1 3.5.8 5.1 1.7l1.9.4c1.3.6 2.6 1 4 1.5s2.8 1 4.2 1.6c1.6.7 3.3 1.3 5 2l1.9 1.1c1.3.7 2.7 1.4 4 2 1.3.7 2.7 1.4 4 2 .9.8 1.8 1.6 3 2 1.3.7 2.6 1.4 3.7 2.5l2 1c1.4.9 2.8 2 4.3 2.7.4.3 1.1 1 1.5 1.3 1.5.7 2.8 1.9 4 3 2.4 1.1 4 3.3 5.9 5.1 1.7.5 2.8 1.9 4 3.1 6.7 6.9 13.6 13.6 20.4 20.5.9 3.1 4.6 4.4 5.6 7.5 1.1 1.3 2.4 2.4 3 4.1l1.3 1.5c.7 1.5 1.8 2.9 2.7 4.4.9 1.1 1.7 2.4 2.3 3.7.8 1.5 1.8 2.8 2.6 4.2l.9 2.1c1.1 2 2.1 4 3.1 6 .6 1.7 1.2 3.4 2 5 .5 1.2.9 2.5 1.4 3.7 1 2 1.1 4.3 2.1 6.2.1.5.2 1.5.3 1.9 1.1 1.5.5 3.6 1.6 5.1.3 1.4-.1 3 1.1 4.1v2.6c2.3-2.5 6.2.1 8.6-2.1 2.9-.1 5.8 0 8.8-.1l-1.3-2.5c-.1-10.1-.1-20.3 0-30.4l.6-1.4.9-3c.5-1.9 1.8-3.5 2.6-5.3 4.1-4.2 8.3-8.3 12.4-12.5 1.5-1.5 2.9-3.1 4.8-4.1.5-.2 1.5-.7 2-.9 1.6-.9 3.2-1.7 4.9-2.1 1.6-.9 3.6-.6 5.4-.7 8.6.1 17.3 0 26 .1l1.5.7c1.7.4 3.3 1.2 4.9 2 1.7.9 3.5 1.6 4.9 3.1l13 13c1 1 1.7 2.3 2.5 3.6.9 2 2 4 2.5 6.2.9 2 .6 4.3.7 6.5-.1 8 0 15.9-.1 23.9l-.8 1.6c-.2 2.1-1 4.1-1.9 5.9-3.9 6.8-10.2 11.7-15.6 17.3-1.2.4-2.1 1.2-3.1 2-1.7 1-3.3 2.2-5.2 2.7-1.4.8-2.9.6-4.4.7-.8 1-1.1 2.1-1.1 3.4 1.2 1.3 1 3.1 1 4.7v11c7.5-7.3 14.8-14.8 22.2-22.1.7-.7 1.5-1.3 2.5-1.6 1.6-1.4 2.9-3.2 4.9-4 1.3-1.1 2.5-2.3 4-3 1.5-1.3 3.3-2.1 5.1-2.9 1.9-1 3.7-2.4 5.6-3.5 2.1-.7 4.3-1.5 6.3-2.5 1.3-.5 2.6-.9 3.9-1.5l1.9-.3c1.1-.9 2.6-.8 4-1 1.7-1.6 4.5 0 6.1-1.8 2.3-.3 5.1.8 7-1 9.4-.1 18.9 0 28.3 0 .7-1 1.1-2.2 1.3-3.5-3.2-2.8-6-6-9.2-8.9v-20c-.1-1.7 1.1-2.9 1.8-4.4.9-2 1.7-4.1 2.5-6.2l1.5-2.7c.5-1.1 1-2.2 1.5-3.4 3.7-3.7 7.5-7.3 11.1-11.2l2.6-.3c1.6-1.7 4.5 0 6.1-1.8 2.6 0 5.2 0 7.8-.1 1.1-1.4 3-.8 4.5-.9 8.7.2 17.4-.2 26.1.2.3.2 1.1.6 1.5.8 2.3.3 4.8-.4 6.9.8 1 .3 2 .6 3 1 1.4.4 2.8 1 4.1 1.6l2.1 1c5.1 5.5 11.2 10.3 15.6 16.3 1.5 2.2 1.2 4.9 2.5 7 .1 10.3.1 20.6 0 30.9-1.8 1.6-.2 4.4-1.8 6.1-.2 1.4-.2 2.8-.9 4-.3 1.1-.7 2-1 3-.3 1.1-.7 2.1-1.2 3.1l-.4 2c-.7 1.7-1.3 3.5-2.1 5.2-.4 1-.7 1.9-.9 2.9-.6 1.2-1.3 2.4-2 3.6l2.6-.9-.8-.8c3.5-.5 4.7-4.6 8-5.6.8-.8 1.6-1.6 2.5-2.3 1.5-.7 2.8-1.8 4.3-2.6l2-.9c1.1-1 2.4-1.7 3.7-2.4 1.1-.5 2.2-1.1 3.3-1.6 1.8-1 3.8-1.7 5.7-2.4 1.7-.8 3.4-1.4 5.2-2.1l1.9-.3c1.5-1.2 3.6-.5 5.1-1.7 1.7-.3 3.7.4 5-1.1 2.6-.4 5.8.9 8-1 10.5 0 20.9-.1 31.4 0l1.6.9c2 .2 4.1-.3 5.9.8 1 .3 2 .6 3 1 1.7.4 3.3 1.2 4.9 2 1.5.8 2.7 1.9 3.9 3 1.4.7 2.7 1.8 4 2.6 2.3-2.5 4.7-4.8 7-7.2 1.4-.2 3.1.3 4.2-1 1.3-.1 2.6-.1 3.9-.2 2.2-2.2 6 .4 8.1-1.9h31.4c.4.3 1.2.7 1.6.9 2.3.2 4.8-.3 6.9.9l1.96.4c1.7.7 3.45 1.3 5.16 2 2.2 1.8 4.5 3.4 6.7 5.1 2-2.1 4.1-4.2 6.1-6.3 1 0 2 0 3.1-.1 1.6-1.8 4.5 0 6.1-1.9 1.9 0 3.9 0 5.8-.1 1.1-1.4 3-.8 4.52-1 9.35.1 18.7 0 28 .1l1.6.9c2 .3 4.35-.5 6 1l1.9.3c1.7.8 3.5 1.3 5.24 2 1.3.8 2.6 1.5 3.6 2.6 4.44 4.5 9 9 13.4 13.5.5 1.2 1.14 2.2 1.9 3.2.84-2.1 1.8-4.1 2.74-6.1l1-2c2.6-4.9 7.6-8.1 11.2-12.3h66c2.9 3 5.84 6 8.9 8.9 1.84-1.5 3.9-2.6 5.97-3.7 2.1-.8 4.24-1.6 6.3-2.6 1.25-.5 2.6-.9 3.9-1.5l1.9-.4c1.5-1.1 3.6-.5 5.1-1.7 1.66-.3 3.7.4 5-1.1 1.94 0 3.9 0 5.86-.1 1.16-1.4 3-.8 4.6-.9 8.96.1 17.94 0 26.9.1l1.6.9c1.7.2 3.65-.3 5 1l1.9.2c1.2 1.3 3 .8 4.56.9 17.13-.1 34.3.1 51.43-.1 1.4-1.2 3.3-.8 5-1 2.3-1.7 5.4-.6 8-.9 1.1-1.4 3-.8 4.5-.9h25.1c1.6 0 3.3-.3 4.6.9 2 .2 4.2-.4 6 .8 1.8.2 3.5.7 5.2 1.5.9.5 1.8 1 2.8 1.5 1.5.6 2.7 1.9 3.8 3 4.2 4.2 8.4 8.3 12.5 12.5.7 1.9 1.6 3.8 3 5.2.1-1.3.4-2.6.9-3.8 1.1-2.3 1.8-4.7 2.9-7 2.9-4.4 7.4-7.5 10.8-11.6h64.2c3.4 3.6 6.9 7 10.4 10.4V158c.2 1.3-.8 2.4-1.3 3.54-.5 1.28-.8 2.5-1.3 3.8l-1.1 2c-.4 1.46-.9 2.85-1.5 4.2-1.1 1.8-1.7 3.8-2.4 5.8-.8 1.6-1.3 3.4-2 5-.8 1.6-1.4 3.4-1.9 5.1l-1.1 2c-.4 1.5-.9 2.9-1.5 4.3l-1.1 1.9c-.5 1.2-.8 2.5-1.3 3.8-1 2.04-1.6 4.2-2.6 6.26-.5 1.2-.8 2.5-1.3 3.8l-1.1 2-1.5 4.2-1.1 1.9c-.6 1.7-1.2 3.47-2 5.1-.6 1.7-1.2 3.4-2 5-.5 1.25-.9 2.54-1.3 3.8l-1.1 2c-.4 1.44-.9 2.83-1.5 4.2-1.3 2.2-1.9 4.74-3 7.1-.6 1.64-1.2 3.34-2 5-.6 1.64-1.2 3.34-2 5-.5 1.2-.9 2.5-1.4 3.7-1 2-1.7 4.2-2.5 6.23-1.3 2.2-1.9 4.8-3 7.1-.6 1.7-1.2 3.4-2 5-.5 1.2-.9 2.5-1.4 3.7-1 2.1-1.6 4.22-2.6 6.3-.5 1.2-.9 2.5-1.4 3.7-1 2.1-1.7 4.2-2.6 6.3-.7 1.63-1.3 3.33-1.9 5l-1.1 1.94c-.6 2-1.3 3.9-2.3 5.8l-2 4-2 4-2 4c-.6 1.3-1.3 2.6-1.9 4-.6 1-1.3 2-2 2.9-.6 1.1-1.3 2-2 3-1 2.2-2.3 4.2-4 5.94-.6 1.5-1.9 2.7-3 3.9-1 2.5-3.3 4-5 6-.7 1.9-2.2 3.2-3.5 4.5l-13.5 13.5c-.8.9-1.9 1.6-3 2.1-1.9 1.7-3.5 4-5.9 5-2.3 2.1-5 3.8-7.7 5.4-2.1 1.2-4.1 2.6-6.3 3.6l-1.9 1c-1.3.5-2.6.9-3.8 1.4-1.7.8-3.5 1.4-5.2 2.2l-1.9.4c-1 .5-2 .9-3 1.1-1.2.7-2.7.7-4 .9-1.7 1.4-4 .7-6 .9-1.1 1.4-3 .8-4.6 1-12.6-.1-25.3.1-37.9 0l-1.6-.8-1.9-.4c-2-.8-4-1.5-5.9-2.4-1.5-.8-2.7-2-3.9-3.1-2.7-1.2-4.4-3.7-6.5-5.6-2.5-2.8-5.8-5.1-7.6-8.4-1.3-1.5-2.4-3-3.4-4.7-.7-1.7-1.3-3.5-2-5.2l-.4-2c-1.4-2-.6-4.6-.9-6.9-1.2-1.6-.9-3.7-.9-5.6.1-6.7-.1-13.4.1-20l1.1-2c-8.7.1-17.4 0-26.2 0-1.5-.1-3.2.4-4.5-.8-1.3-.2-2.7-.2-3.9-.9-1.7-.4-3.3-1.2-4.9-2-1.1-.5-2.2-1.1-3.3-1.5-1.3-1.3-2.6-2.7-3.9-4-1.7.8-3.4 1.7-5 2.5-2.3 1.3-4.7 1.9-7 3-1.3.6-2.6 1-3.9 1.6l-1.9.4c-1.7 1.7-4.5 0-6.1 1.8-10.4.1-20.9 0-31.4.1-1.5-.1-3.4.4-4.5-.9-1.65-.2-3.4 0-4.9-.8l-4.2-1.5c-1.7-1-3.3-2.2-5.1-3.1-5.7-5.6-11.3-11.2-16.9-16.9-.9-1.8-2.1-3.4-3.1-5.1-.7-1.6-1.3-3.3-1.3-5-4.5 4.5-9.1 9-13.6 13.6-1.2 1.2-2.4 2.5-4 3.1-1.2 1.1-2.5 2.2-3.9 3-1.5 1.2-3.2 2.1-5 3-2 1-4 2-6 3.1-2.2 1.3-4.7 1.9-7 3-.95.4-1.9.7-2.9 1-1.3.4-2.6.7-3.94.9-1.5 1-3.3.7-4.9.9-2.3 2.2-6-.4-8.2 1.9-13.2 0-26.5.1-39.8 0-1.5-1.3-3.5-.8-5.1-1.6-1-.3-2-.7-3-1-2-.4-3.5-1.8-5.2-2.7-.9-.8-1.9-1.6-3.1-2-.9-1-1.9-1.9-2.8-2.9l-3 1.5c-1.3.7-2.7 1.4-4 2l-2.7 1.5c-1.4.6-2.73 1.1-4.13 1.6-1 .3-2 .7-3 1-1.2.7-2.6.7-4 .8-1.4 1.2-3.3.8-4.9 1-1.2 1.4-3.1.8-4.6.9-10.67-.1-21.3.1-31.9-.1l-1.65-.8c-1.35-.1-2.76-.1-3.96-.8l-2.9-.9c-2.2-1.1-4.2-2.6-6.4-3.8-2.05-1.9-4-3.8-5.9-5.9l-1.8 1c-1.5.3-2.85.9-4.2 1.5-1.6.9-3.2 1.7-4.9 2.1-1.3.5-2.7.9-3.97 1.4-1.1.2-2.1.6-3.1 1.1l-1.9.4c-1.2.9-2.7.8-4.1 1-1.5.9-3.3.8-4.9.9-2 1.9-5.3-.3-7.1 1.8-2.7.4-5.8-.9-8 1-14.6.1-29.3.1-43.9 0-1.6-1.6-4-.7-6-1-1.48-1.2-3.5-.8-5.1-1.6-1.4-.4-2.8-1-4.1-1.7-1.2-.5-2.58-.8-3.8-1.3-1-.6-2-1.3-2.9-2-5.5-2.2-8.8-7.4-13.08-11.2-3 1-4.5 4.1-7.3 5.3l-1.5 1.4c-1.5.7-2.88 1.8-4.3 2.7-.5.2-1.5.7-2 .9l-2.8 1.4-2 1c-1.1.5-2.2 1.1-3.27 1.6-1.3.5-2.6.9-3.9 1.4-1.1.2-2.1.6-3 1.1l-1.9.3c-1.4 1.3-3.33.8-5 1-1.3 1.2-3 .8-4.5.9H478c-1.28.1-2.4-.2-3.5-.8-1.38-.2-2.78-.2-4-.9-1-.2-1.96-.6-2.9-.9-3.3-1.3-5.87-3.9-8.17-6.5l-3.07 1.5-2 1c-2.23 1.2-4.52 2.3-6.93 3-1 .4-2 .7-3 1-1 .4-2 .7-3 1-1.5.9-3.3.6-5 .8-1.2 1.3-3.05.8-4.6.9-10.5-.1-20.95 0-31.4-.1-1.6-1.7-4.25-.3-6.08-1.6-1-.3-2-.6-2.9-.9l-2-1.1c-1.1-.5-2.2-1.05-3.3-1.5-2.98-2.8-6.48-4.9-9.1-8.1-1.37-2.1-3.3-.1-4.5 1-1.5.8-2.85 1.8-4.3 2.7-1.6.7-3.2 1.5-4.76 2.3-1.4.66-2.7 1.35-4 2.1-1.7.8-3.4 1.3-5.1 1.95-1.1.2-2.1.6-3.1 1.1l-2 .37c-1.5 1.1-3.3.8-5 1-1.3 1.1-3 .8-4.5.9-10.8-.1-21.7.08-32.5-.1-1.6-1.7-4.2-.3-6-1.6-2.6-1-5.1-2.1-7.4-3.6-5.5-5.3-10.7-10.7-16.1-16-.7-1.8-1.3-3.6-2-5.3l-.3-1.9c-1.9-3.6-.4-8-.9-11.9-2.2 2.1-4.4 4.2-6.4 6.4H247l-3.04 3.3c-1.5 3.3-4.75 5.3-7.07 8-3.4 3-6 7-10 9.1l-2.6 2.4c-1.2.5-2.1 1.2-3.1 2-1.5.86-2.8 1.9-4.2 2.7l-4.1 2c-1.2.5-2.5.88-3.7 1.4-1.4.66-2.7 1.27-4.2 1.65-1.6.7-3.6.5-5.1 1.4-1.4.3-3 0-4.1 1.15-2 .3-4.5-.7-6 1-17 .1-33.9.1-50.9 0-2.2-1.9-5.4-.6-8-1-1.9-2.1-5.2.1-7.1-1.9-1.7-.2-3.6.3-5-1-1.4-.3-2.9 0-4-1.1l-1.9-.3c-1-.6-2-.98-3.1-1.2-1.3-.5-2.7-.9-4-1.4-1.5-.4-2.9-1-4.2-1.57-.5-.3-1.5-.8-2-1.1-4.5-1.6-8.6-4.1-12.8-6.3-2.2-.9-4.2-2.4-6.2-3.6-1.4-.6-2.6-1.4-3.8-2.3-1-.6-2-1.3-3-2-1.5-.7-2.7-1.9-3.9-3-1.6-.6-2.8-1.9-4-3-2.1-.8-3.4-2.6-5-4.1-1.2-.3-2.2-1.1-3-2l-20-20c-.9-.9-1.7-1.8-2.1-3l-2.3-2.7c-2-3.6-5.2-6.5-6.6-10.5-.4-.3-1.1-1.1-1.4-1.5-.9-1.7-2.2-3.3-3.1-5.1-1.2-2.1-2.7-4-3.7-6.2l-1-2c-.3-.5-.7-1.6-1-2.1-.7-1.3-1.4-2.6-2-4-.6-1.7-1.2-3.4-1.9-5-.5-1.2-.9-2.5-1.4-3.7-.8-1.6-1.3-3.3-1.6-5.1-.4-1-.8-2-1.1-3-.7-1.2-.7-2.6-.9-3.9-1.2-1.4-.7-3.3-.9-5-2-1.9.2-5.2-1.9-7.1 0-2 0-3.9-.1-5.9-1.4-1.1-.8-3-1-4.6.1-15.7 0-31.3 0-47-.1-1.25.3-2.4 1-3.45.1-2 .1-3.96.1-5.9 1.4-1.3.8-3.3 1.1-5 1.5-3.1 1.2-6.9 2.7-10.08l.4-1.9c.6-1.3 1-2.7 1.6-4l.4-1.9c.6-1.2 1-2.6 1.5-3.9 1.1-2.3 1.7-4.8 3-7 1-2 1.7-4.2 2.5-6.2 1.2-1.8 2.5-3.7 3.5-5.7.9-2.2 2.4-4.2 3.6-6.3.7-.9 1.4-1.9 2-3 .7-.9 1.4-1.9 1.9-3 1.1-1.3 2.5-2.4 3-4.1 1.4-1.6 3.3-2.9 4-5 8.3-8.3 16.7-16.6 25-24.9 3.4-1.7 5.7-5.1 9.1-6.98 3.7-2.1 6.7-5 10.5-6.6.9-.8 1.9-1.5 2.9-2.1l2-.9 2-1c1.3-.7 2.7-1.3 4-2l3-1.5 2-1c1.6-.7 3.3-1.3 5-1.9 1.3-.6 2.7-1.2 4.2-1.6.9-.35 1.9-.7 2.9-1 1-.4 2-.7 3-1 1.6-.8 3.6-.5 5.1-1.5l1.9-.3c1.8-1.5 4.5-.1 6.1-1.8l3.9-.2c1.9-1.8 4.7-.7 7-1m-45 38c-24.6 15.04-44.4 38-55.3 64.74-12.7 30.58-13.6 65.5-4 97.05 4.7 14.6 12.6 27.97 21.2 40.56 8.7 12.9 20.8 22.9 33.5 31.5 16.2 10.7 34.1 19.6 53.6 22.1 19.5 3.1 40 3.7 58.7-3.3 11.4-4 21.4-11.6 28.5-21.4 9.8-13.6 12.6-31.6 9.2-47.9-2.6-12.2-9.5-23.5-19.6-30.9-12.6-9.7-28-14.5-42.7-20.2-7.5-2.95-15.1-6.45-20.7-12.4-4.6-5.84-3.4-15.1 1.9-20.14 4.6-3.75 10.4-5.85 16-7.73 19.9-5.7 41.3-2.9 60.7 3.2-.7-6.7-1.4-13.3-2-19.9-15.4-14.6-37.4-19.6-58.1-19.5-16.78-.1-34 3.7-47.67 13.8-14.26 10.3-23.68 27-24.9 44.5-.8 10.4.5 21.4 6.23 30.3 4.7 7.5 12 12.9 19.2 17.8 14.86 9.6 32.3 14 48 21.9 4.6 2.5 9.57 5.2 12 10.1 1.92 4.2-.17 8.8-2.1 12.7-4.5 8.5-13.97 13.3-23.3 14.5-14.65 1.9-29.5-1.9-42.7-8.2-22.7-11-41.3-30.3-51.3-53.6-10-23.1-11.5-49.9-3.65-73.8 9.05-26.6 28.4-49.7 53.1-63.1 15.53-8.4 33.4-12.4 51.05-11.4 25.64.8 51.4 9.7 70.7 26.9 19.3 17 31.5 41.4 34.6 66.8 3.05 24.2-1.9 49.6-15 70.3-1.2 2-3.2 4-2.47 6.5 1.4 13.1 2.64 26.3 4.05 39.4 22.9-19.3 38.3-46.9 43.8-76.2 4.9-26.2 1.8-53.5-7.2-78.5-11.5-29.5-33.9-54.4-61.5-69.6-19-11.4-41.1-16.9-63-17.9-27.7-1.4-55.7 6.1-79.2 20.6m283.6 34.8c-10.5 3.1-18.3 14.1-17 25.2 1 13.3 14.4 23.9 27.6 22 13.5-1.5 24.1-15.7 21-29.1-2.6-13.8-18.3-23.2-31.6-18.4m144 1.86c-2.8 5.8-5.4 11.5-8.1 17.3 4.9 0 10.7-.36 14.3 3.6 3.5 4 2 9.85.1 14.3-5 12-9.8 24.1-15 36.05-4.8-6.6-12.7-10.6-20.8-11-14.3-.6-28.7 3-41.3 9.8-20.5 11-36.1 29.4-47.6 49.4-7.2 13-13.6 26.6-16.9 41.2-1.1 4.9-4.2 9-7.3 12.7-5.7 6.6-13.1 12.02-21.7 13.72-3.8.7-8.5.55-11.1-2.7-2.4-3.25-1.4-7.6 0-11.04l21.6-53.2c5.1-12.7 11.2-25.7 10.3-39.7-.2-7.4-4.8-14.5-11.8-17.2-12.7-5-27-3.2-39.9.1l-8.3 17.4c5.1.1 11.5-.4 15.1 4 3 4.3 1.3 9.9-.4 14.4-9.5 23.18-18.9 46.4-28.7 69.47-4.1 10.3-7.4 21.8-4.6 32.9 1.8 7.5 7.9 13.4 15.1 15.8 11.9 4 25.1 2 36.5-2.7 13.3-5.6 25.3-14.7 33.8-26.5 1.3 8.9 5.2 17.8 12.3 23.6 8.5 7.1 20.4 8.8 31.1 7.2 14.7-2.5 27.84-10.5 39.34-19.8 1.3 6.9 5.33 13.3 11.7 16.5 10 5.1 22 4.6 32.63 1.8 18.1-5.1 34-17.2 44.4-32.9 3.4 12.5 12.1 23.5 23.9 29.1 15 7.44 32.4 6.54 48.6 4.54 20.2-2.8 40.7-9.9 55.8-24.1.3 6.55 2.2 13.45 7.2 18 7.2 6.7 17.7 8 27.2 7.3 17.3-1.55 33-10.9 45.3-22.8 1.2 5.1 3.2 10.1 7 13.9 5.8 6.1 14.3 8.7 22.5 9 16.2.5 32.8-2.6 47-10.7 15.2-8.6 26.8-22.3 36.1-36.9 10.8-16.84 18.1-35.5 26.6-53.5 8.4-18.22 17-36.42 25.5-54.7-14.8 0-29.6.1-44.4 0-11.9 26.4-24 52.78-35.6 79.3-5.9 14.7-13.4 29.57-13.3 45.78-5.3 4.9-13.6 8.3-20.5 4.9-6-3.4-4.7-11.4-3.8-17 3.5-17.1 10.4-33.3 16.8-49.5 5.6-14 13.1-27.8 13-43.2.1-8.1-4.2-16.3-11.7-19.7-11.7-5.4-25.3-4.1-37.6-1.4-1.4.5-3.4.3-4 1.9-2.7 5.3-5.2 10.8-7.9 16.1 4.3.1 9-.4 12.7 2.1 2.6 1.6 3.5 4.9 3.3 7.8-.3 5.5-2.5 10.6-4.4 15.6-8.4 22.1-18.1 43.8-25.9 66.3-1 2.1-2.9 3.7-4.5 5.3-5.6 5-12.6 9.2-20.3 9.7-3.4.2-7.4-.7-9.1-3.9-1.7-3.3-.5-7.2.7-10.4 8.5-21.1 17.2-42.1 25.6-63.2 3.9-10.5 7.8-21.7 5.8-33-1.2-7.2-7.1-12.8-13.9-14.7-12.1-3.6-25.3-2.2-37.3 1.1-3.1 5.5-5.4 11.4-8.2 17.1 4.9 0 10.8-.4 14.4 3.6 3.3 4.1 1.7 9.9-.1 14.4-8.4 20.5-17 41-25.4 61.5-1.8 4.5-5.1 8.2-8.4 11.7-8.5 8.7-18.9 15.6-30.2 20-10.7 4.2-22.7 6.3-34.1 3.5-8.3-2-16-7.5-19.7-15.4-3.7-7.8-3.3-16.8-1.2-25 9.3-.1 18.5.1 27.8-.1 16.5-.5 32.9-7.4 44.5-19.3 10.4-10.5 18-24.4 19.3-39.3.8-9.2-1.4-19.1-7.7-26.1-5.8-6.6-14.6-9.6-23.2-10.1-18.2-.9-36.4 4.4-51.5 14.4-16.2 10.6-28.8 26-38.3 42.7-7.3 13.4-14.1 27.6-16 43-.4 3.8-2.7 7-4.9 10.1-5.7 7.5-13.4 13.9-22.7 16.3-4 .9-8.8 1.1-11.9-2.1-2.8-3.2-2-7.8-.6-11.4 16.1-39.3 32.3-78.6 48.4-117.9 5-12.4 10.9-25.3 9.8-39.1-.4-7.2-5.3-13.8-12.1-16.3-12.7-4.8-26.7-2.9-39.7-.2m415.8 89c-15.7 15.8-26.8 35.5-34.9 56.2-5 13.4-8.4 27.8-6.5 42.2 1.2 9.4 5.3 18.8 12.9 24.8 9.1 7.1 21.6 8.6 32.8 6.4 13.8-3.1 26.1-10.9 36.9-19.8 1.2 6 4.3 11.7 9.5 15.2 8.4 5.8 19.3 6.3 29.1 4.8 15.7-2.7 30-11.3 41.1-22.5.4 3.7 1.5 7.4 3.1 10.8-8.7 8.3-15.5 18.7-18.9 30.3-2.9 9.8-3.7 20.6 0 30.3 2.6 7.2 8.3 13.3 15.4 16.3 8.6 3.7 18.2 3.1 27.3 2 16.2-2.3 31.5-9.5 44.1-19.8 11.3-9.2 20.4-20.8 27.8-33.3 9.4-15.9 15.3-33.6 22.5-50.5 16-39.6 32.3-79.1 48.4-118.7-14.8-.1-29.6.1-44.4-.1-14.4 34.6-28.5 69.4-42.8 104.1-1.5 3.1-2.2 6.8-4.9 9.2-5.8 5.5-12.9 10.2-21.1 11-3.4.3-7.6-.5-9.4-3.7-1.8-3.2-.8-7.1.4-10.4 9-22.3 18.2-44.5 27.1-66.9 3.6-10 7-21 4.2-31.6-2-7.4-9.1-12.2-16.3-13.6-11.5-2.4-23.7-1.6-34.8 2.1-3.1 5.5-5.6 11.3-8.4 16.9 4.8 0 10.3-.4 14.1 3.1 3.4 3.3 2.7 8.7 1.1 12.8-7.6 19.8-15.8 39.4-24.1 59-2.7 5.8-4.8 12.1-9.1 17-5.9 7-13.8 12.7-23 14.2-3.7.5-8 .3-10.6-2.7-2.5-3-1.5-7.1-.2-10.4 15.1-36.8 30.5-73.5 45.2-110.4-14.7 0-29.5-.1-44.2 0l-3 7.9c-5.5-7.6-14.9-11.6-24.2-11.2-23.9-.1-46.5 11.5-62.9 28.4z"/>
    <path
      d="M646.17 160.14c2.6-.87 6.26-.95 7.68 1.87 2.12 4.6.84 9.8-.24 14.4-2.8 10.4-7.6 20-12.9 29.3-4.1 6.9-9.7 13.8-17.8 15.9-6.7 1.6-13.6.6-20.4.9 7.2-17.4 16.3-34.1 28-48.9 4.5-5.2 9.1-11.1 15.8-13.3zm-178.12 12.9c7.07-6.24 16.6-10 26.1-8.9 3.74.37 6.98 2.6 9.4 5.37-8.8 21-17.2 42.1-26.05 63.1-3.87 9.8-8.53 19.2-11.74 29.2-8 6.8-17.12 13.3-27.8 14.6-4.8.7-10.5-.8-12.76-5.5-2.87-6-1.88-13-.64-19.3 3.73-16.4 11.58-31.5 19.62-46.2 6.63-11.6 13.72-23.3 23.87-32.2zm509.88.92c7.47-6.96 17.9-11.23 28.17-9.72 3.38.5 6.2 2.64 8.3 5.26-11.55 27.84-22.87 55.77-34.27 83.68-1.67 3.32-1.54 7.8-4.92 10-7.3 5.96-15.7 11.44-25.2 13-4.6.8-10.2.1-13.1-4.04-3.3-5.08-2.8-11.58-2-17.32 3-16.33 10.8-31.15 18.4-45.75 6.9-12.57 14.1-25.32 24.8-35.1zm91.97 125.36c17.57 5.87 36.6.1 51.7-9.46-6.6 17.03-15.2 33.6-27.62 47.15-5.24 5.6-11.36 10.7-18.7 13.3-5.9 2-13 1.6-17.9-2.6-4.22-3.4-5.9-9.2-5.2-14.5 1.94-12.7 7.73-25.3 17.73-33.7z"/>
  </g>
  <g fill="#14ba14">
    <path
      d="M90.8 45.82c23.55-14.57 51.5-22.05 79.2-20.64 21.96 1.05 44.05 6.52 63 17.88 27.65 15.2 50 40.17 61.5 69.6 9.03 24.93 12.13 52.3 7.2 78.46-5.42 29.35-20.88 56.95-43.75 76.24-1.4-13.14-2.7-26.3-4.08-39.44-.7-2.54 1.3-4.5 2.46-6.52 13.1-20.7 18.06-46.1 15-70.3-3.1-25.42-15.3-49.82-34.6-66.82-19.27-17.22-45.05-26.05-70.7-26.9-17.65-1.02-35.5 2.98-51.06 11.4-24.7 13.4-44.03 36.44-53.1 63.04-7.87 23.93-6.33 50.72 3.66 73.8 9.98 23.2 28.6 42.53 51.35 53.52 13.2 6.27 28.03 10.12 42.7 8.2 9.3-1.25 18.74-6 23.28-14.57 1.93-3.82 4.02-8.47 2.1-12.7-2.42-4.86-7.4-7.6-11.98-10.1-15.72-7.93-33.14-12.3-48-21.95-7.23-4.94-14.52-10.3-19.22-17.84-5.75-8.9-7.04-19.9-6.24-30.3 1.23-17.53 10.65-34.23 24.88-44.54 13.62-10.13 30.9-13.93 47.63-13.84 20.65-.13 42.68 4.9 58.06 19.5.6 6.63 1.3 13.26 2 19.9-19.5-6.14-40.9-8.88-60.8-3.24-5.6 1.88-11.4 3.98-16 7.73-5.3 5-6.5 14.3-1.9 20.1 5.6 5.9 13.2 9.4 20.7 12.4 14.6 5.7 30 10.5 42.6 20.2 10.1 7.4 16.9 18.7 19.5 30.9 3.4 16.3.6 34.3-9.2 47.9-7.1 9.8-17.1 17.4-28.5 21.4-18.7 7-39.3 6.3-58.8 3.3-19.5-2.5-37.4-11.5-53.6-22.1-12.8-8.6-24.9-18.7-33.5-31.5-8.7-12.6-16.6-26-21.3-40.6-9.6-31.6-8.6-66.5 4-97.1 11-26.7 30.8-49.6 55.4-64.7zM374.47 80.6c13.32-4.8 28.98 4.65 31.55 18.4 3.14 13.4-7.46 27.62-21 29.05-13.2 1.93-26.57-8.7-27.6-22-1.27-11.13 6.5-22.12 17.05-25.44z"/>
    <path
      d="M518.38 82.52c12.98-2.7 27-4.57 39.73.2 6.9 2.45 11.8 9.08 12.2 16.33 1.1 13.73-4.8 26.65-9.8 39.08l-48.3 117.84c-1.4 3.6-2.2 8.27.6 11.4 3.1 3.15 7.9 2.94 11.9 2.04 9.3-2.3 17.1-8.7 22.7-16.3 2.2-3 4.5-6.2 4.9-10.1 2-15.3 8.7-29.5 16.1-43 9.5-16.7 22.1-32.1 38.3-42.7 15.1-10 33.4-15.4 51.6-14.4 8.6.5 17.4 3.6 23.2 10.1 6.4 7 8.5 16.9 7.7 26.2-1.3 14.9-8.9 28.8-19.3 39.3-11.6 11.9-27.9 18.8-44.4 19.3-9.2.2-18.5 0-27.7.1-2.2 8.2-2.6 17.3 1.2 25 3.6 7.9 11.4 13.4 19.7 15.4 11.4 2.8 23.4.7 34.1-3.5 11.3-4.4 21.8-11.3 30.2-20 3.3-3.5 6.6-7.2 8.4-11.7 8.4-20.5 16.9-40.9 25.4-61.4 1.7-4.5 3.4-10.2 0-14.4-3.6-4-9.5-3.6-14.4-3.7 2.8-5.6 5.1-11.6 8.2-17.1 12-3.3 25.2-4.7 37.3-1.1 6.9 1.9 12.8 7.6 13.9 14.8 2 11.3-1.9 22.5-5.8 33-8.5 21.1-17.1 42.1-25.7 63.2-1.2 3.3-2.4 7.1-.7 10.4 1.7 3.2 5.7 4.1 9 3.9 7.7-.5 14.7-4.7 20.3-9.7 1.7-1.6 3.6-3.1 4.6-5.3 7.8-22.4 17.5-44.1 25.9-66.2 1.9-5 4.1-10.1 4.4-15.6.2-2.9-.7-6.1-3.3-7.8-3.7-2.5-8.4-2-12.7-2.1 2.7-5.3 5.2-10.8 7.9-16.1.6-1.7 2.7-1.5 4-2 12.3-2.7 25.9-3.9 37.6 1.5 7.5 3.4 11.8 11.6 11.7 19.6.2 15.4-7.4 29.3-12.9 43.2-6.4 16.2-13.3 32.4-16.9 49.5-.9 5.7-2.2 13.7 3.8 17.1 7 3.3 15.2 0 20.5-5 0-16.2 7.4-31 13.3-45.7 11.6-26.6 23.7-52.9 35.6-79.3 14.8.1 29.6 0 44.4 0l-25.5 54.7c-8.5 18-15.8 36.6-26.6 53.5-9.2 14.6-20.8 28.3-36 36.9-14.2 8.1-30.8 11.2-47 10.7-8.2-.3-16.8-2.9-22.6-9-3.7-3.7-5.8-8.8-7-13.9-12.3 11.9-28 21.3-45.3 22.8-9.4.7-20-.6-27.2-7.3-5-4.5-6.9-11.4-7.2-18-15.1 14.2-35.6 21.3-55.8 24.1-16.2 2-33.6 2.9-48.6-4.5-11.8-5.6-20.5-16.5-24-29-10.3 15.6-26.3 27.7-44.4 32.8-10.6 2.8-22.6 3.4-32.6-1.8-6.4-3.2-10.4-9.6-11.7-16.5-11.5 9.3-24.7 17.3-39.4 19.8-10.8 1.7-22.6-.1-31.2-7.1-7.2-5.8-11-14.7-12.4-23.6-8.5 11.8-20.5 20.9-33.8 26.5-11.4 4.7-24.5 6.7-36.5 2.7-7.2-2.4-13.2-8.3-15-15.8-2.8-11 .5-22.5 4.6-32.8 9.8-23.1 19.2-46.3 28.7-69.5 1.8-4.5 3.5-10 .4-14.3-3.6-4.5-9.9-4-15.1-4l8.5-17.3c13-3.2 27.2-5.1 39.9 0 7 2.7 11.6 9.8 11.8 17.2.9 14-5.2 27.1-10.3 39.8L343.9 257c-1.3 3.4-2.3 7.8 0 11 2.6 3.3 7.3 3.5 11.1 2.8 8.6-1.7 16.1-7.1 21.7-13.7 3.2-3.74 6.2-7.84 7.4-12.7 3.3-14.53 9.7-28.2 16.9-41.2 11.4-20 27.1-38.4 47.6-49.33 12.6-6.8 27-10.4 41.3-9.8 8.2.4 16 4.4 20.9 11 5.2-11.9 9.9-24.1 14.9-36.1 1.9-4.4 3.4-10.3-.1-14.3-3.6-3.9-9.5-3.5-14.4-3.6 2.7-5.7 5.3-11.5 8.1-17.2M646.9 161c-6.77 2.2-11.36 8.1-15.8 13.3-11.67 14.8-20.7 31.6-27.95 49 6.8-.3 13.75.7 20.45-.9 8.1-2.1 13.7-9 17.8-15.9 5.3-9.2 10.1-18.9 12.9-29.2 1.1-4.7 2.34-9.9.2-14.4-1.4-2.8-5.1-2.7-7.7-1.9m-178.1 12.9c-10.1 8.9-17.2 20.6-23.9 32.2-8 14.7-15.9 29.8-19.6 46.24-1.2 6.3-2.2 13.3.7 19.3 2.25 4.7 7.94 6.2 12.75 5.5 10.7-1.3 19.8-7.8 27.8-14.6 3.2-10 7.84-19.4 11.7-29.1 8.8-20.94 17.2-42.1 26-63.04-2.45-2.8-5.7-5-9.4-5.4-9.5-1.1-19.06 2.7-26.1 8.9zm466-1.9c16.4-16.9 39-28.5 62.9-28.4 9.27-.4 18.7 3.54 24.2 11.1l3-8c14.75-.1 29.5 0 44.2-.02-14.8 36.9-30.1 73.6-45.2 110.4-1.4 3.2-2.3 7.4.1 10.3 2.6 3 6.97 3.1 10.6 2.6 9.16-1.5 17.1-7.2 23-14.2 4.3-4.9 6.4-11.2 9-17 8.3-19.6 16.6-39.1 24.1-59 1.6-4.1 2.4-9.5-1.1-12.8-3.8-3.5-9.3-3-14.1-3.1 2.9-5.6 5.4-11.46 8.5-16.96 11-3.6 23.3-4.5 34.8-2.1 7.2 1.5 14.3 6.2 16.25 13.7 2.8 10.6-.6 21.6-4.2 31.5-8.9 22.4-18.1 44.6-27.1 66.9-1.2 3.3-2.2 7.14-.4 10.4 1.9 3.2 6 4 9.4 3.7 8.1-.8 15.3-5.5 21.1-11 2.66-2.4 3.4-6.1 4.8-9.2 14.3-34.7 28.4-69.47 42.8-104.1 14.8.1 29.55 0 44.34.1-16.1 39.6-32.4 79.1-48.4 118.7-7.2 17-13 34.6-22.5 50.5-7.4 12.5-16.5 24.03-27.8 33.23-12.6 10.4-27.9 17.6-44.1 19.8-9 1.12-18.7 1.7-27.3-2-7.1-2.98-12.8-9.1-15.4-16.35-3.7-9.63-2.9-20.5 0-30.22 3.4-11.6 10.2-22 18.9-30.3-1.6-3.4-2.7-7.03-3.2-10.8-11.2 11.2-25.5 19.8-41.2 22.5-9.8 1.5-20.7.98-29.1-4.8-5.2-3.5-8.3-9.22-9.5-15.22-10.8 8.9-23.1 16.7-36.9 19.8-11.2 2.2-23.7.74-32.9-6.4-7.6-5.96-11.7-15.4-12.9-24.8-1.8-14.4 1.5-28.8 6.5-42.2 8-20.6 19.2-40.4 34.8-56.2m43.8 2.8c-10.7 9.8-17.9 22.57-24.8 35.1-7.6 14.6-15.4 29.46-18.4 45.8-.9 5.7-1.4 12.2 2 17.3 2.9 4.14 8.5 4.8 13.1 4 9.5-1.5 17.8-7 25.2-13 3.4-2.2 3.3-6.7 4.9-10 11.4-27.9 22.7-55.8 34.2-83.7-2.1-2.6-4.9-4.7-8.3-5.2-10.3-1.5-20.7 2.8-28.2 9.75m92 125.3c-10 8.5-15.8 21-17.7 33.8-.7 5.3 1 11.1 5.2 14.5 4.9 4.1 12 4.6 17.9 2.6 7.4-2.5 13.5-7.6 18.7-13.2 12.4-13.5 21-30.1 27.6-47.1-15.1 9.6-34.1 15.3-51.7 9.5z"/>
  </g>
</svg>
