<svg width="128" height="128" viewBox="0 0 128 128">
  <path
    d="M122.133 24.96c-0.853-1.92-4.693-0.96-6.4-2.027-1.813-0.427-1.813 1.173-3.413 1.067-0.32-0.853-2.347 0.107-2.667-0.64h-3.413c-0.533-0.533-2.026-0.32-3.092-0.32-0.96-0.213-2.667 0.427-3.093-0.32-12.692-0.533-26.987-0.533-39.68 0-8 0.213-16.32 2.027-25.173 2.027-8.64 0-17.6-0.213-25.813 1.067-1.493 1.173-2.027 3.413-3.413 4.8-0.428 2.453-0.108 5.973-0.641 8.64 1.493 16.107 2.347 32.96 3.733 49.28 0 1.387 1.28 1.6 1.387 3.093 0.213 2.346 0.747 4.479 1.387 6.4 1.067 0.32 1.493 1.173 3.093 1.067 0-0.427 0.533-0.213 0 0-0.32 0.32-0.213 0.959-0.64 1.067-0.107 3.2 2.667 3.412 5.12 4.053 2.773 0.213 5.333 0.533 8.533 0.32 2.56 0.427 5.44 0.64 8.107 1.067h30.507c7.253-1.067 15.253-1.28 22.4-2.347 8.32 0 15.040-1.387 22.72-2.026 1.6-0.321 0.426 2.026 1.707 2.026 0.213 0.853 1.067 1.174 2.347 1.067 1.493-0.32 2.133-1.492 2.347-3.092 0.426-1.388 0.426-3.2 0.32-5.121v-10.987c0.427-6.826 0.96-13.547 1.067-20.693 0.747-6.507 0.32-14.080 1.067-20.693 0.107-3.52 0.64-6.613 1.067-9.813-0.213-2.027 0.533-3.093 0.64-4.8 0.213-1.6 0.96-3.093-0.107-4.16zM17.92 31.467h23.040c8.853-0.96 17.813-1.92 27.84-1.707 0.533 0.107 0.853-0.533 1.067 0 0.32 0.32 1.707-0.32 1.707-0.32v0.32c1.067-0.107 1.388-0.213 2.027 0 0.213 0 0.533 0 0.64 0 0.854-0.107 1.067 0 2.347 0 0 0 0.108-0.427 0.32-0.32 0 0 0.108 0.32 0.321 0.32 0.64 0.107 1.92 0 3.092 0-0.107 0 0.213-0.533 0.32-0.32 0.427 0.533 1.813 0.32 3.093 0.32 2.133-0.107 2.453-0.107 4.8 0 7.573 0 14.827 0.32 21.44 1.387 1.388-0.107 0 0.533 0 1.067-0.426 0.32-1.067 0.533-1.387 1.067-0.747 0.64-1.707 1.173-2.347 2.027-2.026 0.96-3.626 2.24-5.44 3.413-3.627 2.347-7.253 4.693-10.56 7.467-0.853-0.32-0.64 0.64-1.387 0.64-0.533 0-0.64 0.96-1.387 1.067-0.32 0-1.28 0.747-1.707 1.067-0.321 0.213-0.854 0.533-1.067 1.067-2.241 0.747-3.413 2.56-5.441 3.413-3.2 2.773-6.72 5.227-9.813 8.107-2.24-1.28-4.267-2.773-6.080-4.373-2.347-0.853-4.053-2.347-6.080-3.413-1.707-1.28-3.84-2.24-5.44-3.733-4.373-1.813-8-4.267-12.267-6.080-8.427-3.733-16.213-8.213-24.427-12.267 0.534-1.173 1.601 0.213 2.774-0.213zM11.413 31.787c0-0.107 0.747-0.64 1.067-0.32 0.213 0.213-1.387 0.96-1.067 0.32zM23.040 99.307c0.107-0.746 0.427-1.387 0.64-2.026 0.533 0.64 0.747 1.492 1.067 2.347-0.853 0.212-1.387-0.001-1.707-0.321zM36.267 99.307h-3.733c0.853-1.92 2.133-3.52 3.093-5.44 1.28 0.747 0.32 3.733 0.64 5.44zM114.987 40.32c-0.64 10.24-1.173 20.587-2.026 30.508v4.373c0.32 0.96-0.427 0.853-0.321 1.707v5.119c-0.853 3.412 0.321 8.853-1.067 11.84-2.559-0.213-4.159 0.64-6.826 0.32-8.321 1.707-18.454 1.6-26.774 3.413 0.32-2.027 1.707-2.88 2.027-4.8-0.213-0.96-0.533 0.533-1.067 0.32-0.32 0.427-0.32 1.28-1.067 1.387-0.213 1.28-0.96 2.027-1.387 3.093-3.308 0.32-6.4 0.853-9.813 1.067 1.387-2.56 3.627-4.267 4.373-7.467-1.067-0.853-1.812 0.64-2.346 1.387-0.854 0.747-1.494 1.707-2.028 2.667-0.96 0.533-1.493 1.493-2.667 1.708 0 0.853-0.533 0.959-0.32 2.026h-13.227c0-1.387 1.707-2.347 1.067-3.413-1.813 0.213-1.707 2.454-2.667 3.413-3.093-0.107-5.76 0.213-8.533 0.32-0.533-2.24-0.747-4.907-1.707-6.826-0.747-1.493 0.533-2.133 0-3.093-3.307 0.427-5.227 2.241-7.147 4.053-0.533-0.533-0.64-1.387-2.027-1.067-2.24 0.213-2.56 2.133-4.373 2.667 0.32-1.173 1.173-1.812 1.067-3.412-1.6 0.105-2.24 1.491-3.093 2.344-0.853 0.96-1.173 2.453-2.347 3.093 0 0.427-0.107 0.747-0.32 1.067-0.107 0.533 0.533 0.853 0 1.067-1.813 0-2.987-0.64-4.8-0.64 0.107-0.854 1.173-0.641 1.067-1.708 0.96 0 0.747 1.067 1.707 1.067 1.387-0.533 2.453-1.387 2.667-3.092 0.96-1.067 1.6-2.454 2.347-3.733 1.493-2.454 3.2-4.693 4.053-7.788-4.053 0.854-5.44 4.267-7.787 6.827 0 0.427-0.533 0.213 0 0 1.173-2.773 2.773-5.12 4.053-7.787 1.067-2.56 4.267-4.587 3.093-8.533-3.733-0.108-4.373 2.88-6.4 4.373-1.067 2.667-3.2 4.267-4.053 7.147-0.747-0.32 0-1.707 0.32-2.027-0.107-1.173 0.64-1.6 0.64-2.667 0.96-1.279 1.173-3.307 2.027-4.8 0.32-1.812 1.28-2.987 1.707-4.8 0.533-1.707 1.92-2.559 2.027-4.8-0.213-1.067-1.28-1.279-2.027-1.707-1.92 0.107-2.453 1.6-3.733 2.347-0.747 2.559-2.347 4.267-3.093 6.826-0.747-0.32-0.107-2.133-0.32-3.092 0.427-0.641 0.32-1.92 0.64-2.667 0-1.067 0.747-1.493 0.64-2.667 0.747-0.32 0.32-1.92 1.067-2.347 0.533-3.52 3.627-6.293 2.347-10.56-2.88-0.32-3.733 1.387-4.8 3.093-0.747-0.213-0.107-1.92-0.32-2.667-0.747-0.32-0.107-2.133-0.32-3.093-0.64-5.333-1.173-10.88-1.707-16.32 0.747 0.427 1.067 1.387 1.707 2.027 2.56 1.173 4.48 2.987 6.827 4.373 2.56 1.173 4.48 2.987 7.147 4.053 4.373 3.093 9.707 5.227 14.293 8.107 2.773 0.96 4.907 2.56 7.147 4.053 2.347 1.387 4.16 3.307 6.827 4.373 1.92 1.813 4.8 2.667 6.4 4.8 1.493 0.533 2.24 1.6 3.413 2.347 1.708 0.213 2.454 1.387 4.8 1.067 1.387-0.426 2.24-1.386 2.667-2.666 2.133-0.747 3.521-2.453 5.441-3.413 1.387-1.6 3.733-2.453 5.12-4.053 2.24-0.747 3.413-2.56 5.44-3.413 1.708-1.387 3.627-2.453 5.441-3.733 6.613-5.547 14.933-9.28 21.013-15.253 0.638 0.96 0.211 3.307-0.109 4.267zM17.6 92.907c0.64 0.321-0.213 2.027-1.067 2.027-0.32-1.387 0.533-1.493 1.067-2.027zM117.013 29.44c0.107-0.427 0.32-0.213 0.32 0 0 0.32-0.32 0.107-0.32 0z"></path>
</svg>
