<svg xmlns="http://www.w3.org/2000/svg" width="128" height="128" viewBox="0 0 128 128">
  <path
    d="M114.78 49.42s-.37-11.66-1.12-12.83l-37.63 54c1.5.4 13.04 5.8 13.04 5.8l14.9 7.7s6.34 2.7 7.08 2.7 1.5-.4 2.24-1.6c1.1-2 1.4-10.5 1.4-10.5s-.4-12.1 0-13.2 0-32.3 0-32.3zm-1.5 36.93c-.37-.4-1.1-1.17-1.1-.4 0 0-3.36-2.7-3.74-3.1 0-.4 0-.4-.37-1.17l-1.12-1.17s-.74-1.1-.37-1.1.75 0 1.12.8 1.12 1.6 1.86 2.4 1.5 2.7 2.24 1.6c0 0 1.86 1.2 1.86 1.6s0 1.2-.37.8zm-13.4-21s-.38-1.16.74-.38 7.45 5.83 7.82 6.6c0 .78-.37.78-.74.4-.37 0-.75 0 0 .38s1.86 1.95-.75 0c-1.86-1.16-1.1-.77-.37-.4-.74-.37-1.86-1.15-1.86-1.54s2.98 1.6 1.86.4c-1.12-.4-6.7-5.4-6.7-5.4zm12.66 10.5c-1.12-.78-4.47-8.16-5.6-8.55 0 0 0-.78.4-.4.73.8 4.83 1.95 5.2 3.5.75 1.56 1.12 5.84 0 5.45zm-2.23 1.56c0 .8-.7.4-.7.4s-10.4-8.5-9.7-9.7c-.3 0 10.5 9 10.5 9.4zm-6.7-3.8c1.5 1.2 5.6 5.1 5.6 5.5s0 .8-.7.4-5.9-5-5.9-5.4-.3-1.5 1.1-.4zm9.7-12.4c.4.8.8 3.1.4 3.5 0 0-1.5-.4-1.5-3.1-.3-2.7-4.4-4.6-4.4-4.6l-1.1-1.1s-1.5-2.3.4-.8 3 2 3 2l3 2.7c0-.4 0 .8.4 1.6zm-3 1.6c0 .8-3.7-2.3-3.7-3.1 0 0 0-1.2.8-.4 1.1 1.2 3 2.7 3 3.5zm.4-19s2.3 1.6 1.9 2-.3.4 0 .8.8 2.4 0 2-3-1.9-3-2.3c.4.4.8-1.9 1.1-2.3zm-.7 5.9s2.3.8 2.6 2c0 0-1.1 0-.7.8.8.8 1.1 0 1.5 1.6V56s.8 1.52 0 .75-.4-1.56-1.1-1.95-1.5-1.57-1.5-1.57.8-.4 0-1.16-1.1-1.52-1.1-1.52l.4-.76zm-4.4.4l1.1-.8s2.3 2.3 2.3 2.7c-.4.4-.7 0-1.1 0-.3-.4-2.2-1.1-2.2-1.9zm-5.9 7c.4-.4 1.5.8 1.9 0 0 0 .8-1.9 1.1-2.3 0 0 1.9 1.2 2.3 1.6.4.8-1.1-.4-1.1.4s.4 1.5 0 1.5c-.7-.4-2.2-.7-1.1.4s2.6 1.2 2.6 1.2.4 1.2 1.5 1.6 4.8 3.5 5.2 4.3 2.6 3.1 1.1 2.36c-1.1-1.2-8.2-7-8.2-7l-2.6-.8s-.4 1.14-1.1 0c-1.1-1.2-.7-1.2-.7-1.2h.4s-1.2-1.6-1.2-2zm3.3 8.1s.8 1.2 0 1.2c-.7-.4-3-1.9-3-2.3h-.3c-1.5-.4-2.9-2.3-2.9-2.3 1.5-.8 6.4 3.5 6.4 3.5zm-7.1 3.1c.4 0 9.7 10.1 9.7 10.1s-10.4-8.1-11.2-8.9c-.7-.4-.3 0 1.5-1.1zM94.8 74c.32.8 11.9 10.1 12.62 10.5.75.8 1.87.4.38-.76S95.05 72.8 95.05 72.8s0-1.55.38-.78c.75.4 11.93 10.1 12.3 10.9s2.6 2.3 3.35 3.1c.36.76 1.5 1.54 2.23 1.54 0 0 .8 7 .4 7.4 0 0-1.8-1.55-1.5-1.55s-.7-1.1-.7-1.5c-.3-.4-.7-1.5-.7-1.5 0-.4-3.7-4.2-3.7-4.2s-8.5-8.5-9.3-8.5c-.3 0-3-2.3-3.3-1.9s-2.2-.8-1.5-1.1 1.5 0 1.5 0-.3-.8.4-.4zm11.82 19c-.34-.4-12.64-13.6-16.36-15.16 0 0 4.83 2.34 5.57 3.1.75.4 8.2 7.4 8.57 8.18s2.6 3.1 3 3.5c0 .8-.4 1.2-.76.4zM89.1 74.3c1.12.77 5.6 3.5 5.96 4.27s-.37.4-.75.4-5.6-4.3-6.3-4.3c.4 0 0-.76 1.1-.37zm-2.24 8.94c2.24 1.94 7.45 4.66 10.8 7.77s8.58 7.4 7.1 8.6c0 0-3.37-3.1-4.1-3.9-.76-.4-4.86-4.6-4.86-4.6s-11.92-7.7-11.55-8.9c0 .4.38-.8 2.6 1.2zM89.8 94.9c-.73 0-4.1-1.95-4.1-1.95s-7.07-3.1-7.07-3.88 1.12-.4.75-1.17c0-.4-.75-1.17-.37-1.55s2.3.38 3 1.55c.4 1.17 4.5 4.28 5.2 5.05 1.2.4 3.4 1.95 2.6 1.95zm10.82 5.05s-1.12-.78-1.5-.78-1.1-.78-1.48-1.16-10.8-9.3-11.55-10.1-3.8-2.7-3.4-3.5c0 0 .4-.4 1.5.4s9.3 7 10.4 8.6c1.1 1.2 6.7 6.6 5.9 6.6zm7.45 4.27s-7.82-3.88-5.96-4.66c0 0 2.3.78 3 1.55.4.4 3.4 2.8 3 3.2zM91.3 84.02s-.74-.78 1.12-.4c0 0 11.55 10.1 11.92 10.9l2.24.76-11.92-12.04s-1.12-1.17 1.5.38c.36.4.73.4.73.4-.8-.78.7.38 0 0 1.1 1.16 11.5 11.65 11.9 12.82s-.4.4 0 1.17c.3.4.3 2.4-.4 1.6-1.1-.4-13.4-12.8-17.2-15.5zm21.6 14.76c-.36 1.17-.36 2.33-.36 3.5 0 .78-.74.78-.74 1.56s-1.5-.4-1.12-.78-.75-1.17-.75-1.17 0-1.2.38-.8c.8.8 2.3 1.5 1.5.4s0-1.2 0-1.2 0-1.6.4-1.2l-1.1-1.1c-.3 0-2.2-2-1.5-2 .4 0 1.9 1.1 1.2-1.2 0 0 1.1 0 1.5.7.4 1.1 1.1 1.5.8 3.1z"/>
  <path
    d="M107.7 33.48c-.75-.38-4.1-2.33-5.22-2.72-1.5-.38-6.33-3.5-6.7-3.88-.75-.4-6.34-3.5-7.46-3.9-.74-.38-2.98-1.16-2.98-1.16s-1.12-.77-2.23-.77c-1.8 0-4.4 2.33-5.2 3.1L74.2 30l-4.84 8.54-4.83 8.94c-2.6 3.88-4.85 8.16-4.85 8.16-.74 1.94 15.65 34.6 16.4 34.6.37 0 1.5-1.95 1.5-1.95.36-.8 6.32-8.6 6.7-9 .37-.8 3.72-5.9 3.72-5.9l7.45-11.7L109.6 42c1.1-1.56 2.97-3.1 3.72-5.06 1.47-1.16-4.1-2.33-5.6-3.5zm-36.14 7.78c.37-1.17 1.1-3.1 1.1-3.9 0 0 13.05 8.56 13.8 9.34 0 0-11.18-7-11.92-6.6s-.75 1.16 0 1.55c1.1.4 12.66 9.33 12.66 9.33s-14.15-8.56-14.9-8.56-1.12.4-.37.78c.37.78 1.86 1.56 1.5 2.33 0 0-.38.78 0 1.56.36.3-3.74-2.8-4.48-2.4 0-.4 1.86-2.7 2.6-3.5zm-9.7 15.16c0-1.95 2.24-4.28 2.24-4.28l.38.4 1.86 1.93s-2.24-1.16-2.6-.77c0 .38 1.48 1.94 1.48 1.94s4.84 3.5 5.6 4.66c.36.78-3.74-2.33-4.85-2.72-.38 0-.75.4-.38 1.17s5.9 4.66 6.7 5.83c.3.4-10.5-6.22-10.5-8.16zm10.8 23.32S76.04 84 77.9 84.4c-.38 0-3.74.78-5.23-4.66zm7.84 1.55c0 .7-1.87 3.1-2.24 2.3l-6.7-7.4s0-.8.74 0 1.86 1.9 2.24 1.9.37.8.37.8 3.4 3.9 4.1 3.1c.4-.8.4-1.6-.3-2.3 0 0 3 1.5 1.5-.4 0 0-9.7-7.8-10-9.3l11.2 9.3c-.3 0-.7 1.1-.7 1.9zm1.5-2.8c-.38 0-14.54-12.1-14.92-12.9s0-.4.38-.4c.37.4 13.78 12.4 14.16 11.7s-.75-2-1.5-2.4-14.52-11.3-14.9-13.2c0 0 5.22 2.7 6.34 3.5s8.94 7.7 9.68 7.3c.75 0 1.12-.4 0-1.6-1.1-.8-9.3-8.2-9.3-8.2s13.03 8.9 13.4 9.7c.37 1.1-2.98 6.2-3.35 6.2zm4.1-7c-1.5.4-12.68-10.5-14.54-11.7s-3.36-3.1-3.36-3.1c.75 0 14.53 11.2 15.28 11.6s1.12 0 1.12-.4-14.9-12-14.9-12c.36 0 12.66 8.9 14.9 10.8s1.86 0 1.86 0c0-.8-15.28-11.7-15.28-11.7 1.87.4 17.52 12.4 17.52 12.4 0 1.1-2.6 3.9-2.6 3.9zm3.34-5.1c-.74-.4-18.26-14.8-19-14.8s-1.87 0-.38 1.2c1.5.8 4.48 3.1 5.6 3.9.74.8-9.7-5.5-10.07-5.8-.8-.4 2.2-4.7 2.6-5.5l.7.4h.7l1.1 1.2s-1.1-.4-2.6 0c0 0 0 1.1 1.5 1.9s17.9 14.4 21.6 16c-.8 0-1.1 1.9-1.9 1.5zm1.5-2c0-.4-19.76-13.6-20.5-16l3.72 1.6s17.52 12.6 17.52 13c.37.4-.38 1.5-.75 1.5zM92.8 62c-1.2 0-20.5-14.76-20.5-14.76L77.5 50c3.7 3.85 13 8.9 13 8.9.7 0-8.6-6.6-8.6-6.6s-4.5-3.9-6-5.44c-1.9-1.2.3-.4 1.5 0 1.5.4 10.8 7.75 11.5 8.14s.34 1.54 3.32 3.1c2.97 1.93 1.85 0 1.85 0-1.1-.4-16-11.67-16-11.67 1.1 0 17.9 11.3 17.9 11.3C95.2 58.9 92.6 62 92.6 62zm4.4-5.43c-.4-.4-10.1-7.4-10.5-8.17-.8-.4-6-4.25-6-4.25s5.6 3.1 6.3 3.9c0 0 1.1 0 1.84.8 1.12.4 5.6 3.1 5.96 4.3s3.34 2.34 3.34 2.34-1.1 1.5-1.1 1.2zm1.8-2.3c-.4-.4-19.8-13.2-19.8-14 0 0 14.5 8.6 18.24 10.9 0 0 .74.4.37-1.15 0 0-12.6-7.8-13-9.35 0 0 16.4 10.1 16.4 10.5-.8.8-1.9 3.5-2.3 3.1zm2.2-3.86s-12.67-9.3-13-10.1c0 0 7.03 3.9 8.2 5.1s0 0 0-.4 6.3 3.5 6.3 4.3c0 .4-1.5 1.2-1.5 1.2zm-1.1-4.3c-1.5-.8-15.3-10.1-15.7-10.5 0 0-.76-.7 1.5 0 0 0-3.75-3.5-7.1-4.6 0 0-1.5.8 0 1.5s10.43 6.6 11.55 7.8-.38 0-.38 0-9.3-5.4-10.48-5.8c-1.1 0-2.6.4 3.3 3.5s4.8 3.1 4.8 3.1-9.3-4.2-10-4.6-1.9 0-.4 1.2c1.5.8 1.8 1.6 1.8 1.6s-6.4-2.7-6-3.5c.3-.4 4.8-7.8 5.6-10.5 0 0 0-1.5 4.4-2.3 0 0 2.2-.4 2.6 0s5.9 2.7 6.7 3.9-3-1.6-3.4-1.6c-.4-.4-.78-.8-1.16.4-.36.8 0 0 0 0s0 .4.4.8 2.23.76 2.6 1.9c0 0-1.5-1.14-2.2-1.14 0 0-3-1.9-3.4-1.9-.7 0-1.1.8-1.1.8l-2.3-1s-1.5.8-.4 1.2c.74.4 16.4 10.1 18.63 12v.4c1.2 1.4-18.15-11.4-20-11.4 0 0-1.5.38 0 1.16 1.1.8 9.3 5.85 9.66 6.6s-.3 0-.3 0-8.2-5.4-8.9-5.02c-.7 0-1.1 0-.3.76s19 12.42 20.5 14.75c0 0-.4 0 .4.4.4.34 3 1.9 3 2.3-.3.4-2.6-.8-3.7-1.96zm5.9-1.9c-.37 0-1.1 0-1.1.4s.73.8.35 1.2-.38 1.2-.75.8S90 36.1 89.25 35.7s0-.8 1.5.4 6.7 4.63 7.08 4.24.8-.8.4-1.16c-.4 0-13.4-8.55-13.04-9.3 0 0 22 12.4 22 13.6-.4.4-.8 1.14-1.1.75zm1.5-1.9c-.3-.3-10-7.3-10-7.3s7.08 3.9 7.45 4.3 2.22 2 3.33 2.4c0 0-.32.8-.7.8zm1.85-1.9c-.75 0-13.05-8.1-13.8-8.9 0 0 13.42 7.4 13.8 8.2 0 0 .74 1.2 0 .8zm1.1-1.5s-10.8-7.4-12.3-8.2l13.43 6.2s-.73 1.2-1.1 2z"/>
  <path
    d="M69.32 73.13c-.37-.4-3.35-6.6-4.1-7.77-.37-1.56-3.73-6.22-3.73-6.22l-4.9-8.94-7.1-10.5c-.4 3.5-.4 17.88-.4 18.66 0 2.72.7 4.66.7 4.66s8.9 8.94 9.3 10.1-9.3-7.76-9.3-8.15-.4 1.16.4 1.94c.7.4 12.6 13.3 13 14.4 0 0-13.4-13.2-13.4-12.8v2c0 1.2 10 9.8 10.4 10.9l-10.4-9v7l.3.4c.4 0 11.6 5.5 11.6 5.5l14.9 5.8c-.4-.3-7.1-17.4-7.4-17.8zm-13.8 6.6c-.36 0-2.6-.38-3.7-1.16s0-.78-1.13-1.55-.8-1.56-.8-1.56 5.9 3.9 5.6 4.28zM68.2 77.4h.37s.75 1.96.75 2.35c0 .77-5.6-5.83-5.6-6.6 0 0 3.74 4.27 4.48 4.27zm-9.3-16.3s-10.82-7.77-9.33-9.33c0 0 8.94 6.22 9.32 9.33zm-9.7-1.17c-.37 0-.37-1.54-.37-1.54s8.2 7.7 8.2 8.9c.37-.4-7.46-7.4-7.83-7.4zM68.57 85.2s-2.23 0-2.23-1.94c0 0-4.1-4.28-4.1-5.45l2.98 2.7c.37.4.37 1.2.75 1.6.37 0 2.6 2 2.6 2.4v.8c.75 0 1.12.8 1.12 1.2 0 0-1.2-.8-1.2-1.1zm-.37-3.5c-.74-.78-11.55-11.66-11.18-12.83 0 0 7.08 7 7.83 8.17s2.98 3.1 3.72 3.88 1.87 2.34 2.6 3.5-2.22-1.94-2.97-2.72z"/>
  <path d="M49.57 39.7L13.43 21.44l-.37 69.96 36.5 15.16V39.7z"/>
</svg>
