<svg xmlns="http://www.w3.org/2000/svg" width="128" height="128" viewBox="0 0 128 128">
    <path d="M101.268 57.901c-.743-.139.048-1.81-.994-1.647a2.95 2.95 0 0 0-1.318-1.323c-.667-1.091-1.047-2.468-2.966-2.309-.019-.202-.048-.389-.33-.328-.422.021-.459.425-.993.328-2.397-.307-3.603.576-5.606.661-10.443.112-21.4-.289-31.34.332-5.329-.054-9.981.568-15.173.657-2.186.451-4.947.331-7.583.333-2.602.039-5.027.255-6.597 1.318-1.023.738-1.076 2.447-1.32 3.957-.621 1.026-.384 3.542 0 4.615.228 3.29-.235 7.275 1.648 8.909 2.326 1.852 7.712.645 11.547.99 2.102.427 4.419.637 6.594.992h26.061c8.834 0 17.576.226 25.731-.658 3.988-2.504 2.282-10.703 2.641-16.828zm-68.942 2.967c.063-.374.328-.182.328 0-.063.376-.333.184-.328 0zm7.256 3.628c-.056.938-.603 1.377-.661 2.309-.749.243-.096 1.883-1.314 1.651.908-2.606 1.466-5.568 2.638-7.918h1.316c-.476 1.505-1.134 2.825-1.979 3.957zm7.255 4.291H44.53c-.419-.389-.139-1.246.328-1.65.036-.846.188-1.573.662-1.978.231-1.528.667-2.858 1.316-3.963-.091-.532.313-.568.334-.987h4.614c-1.866 2.641-3.511 5.501-4.948 8.577zm31.998-7.919c-.196.688-.691 1.068-.988 1.65-.85.914-1.108 2.413-1.98 3.3v2.638H72.57c.379-1.819 1.627-2.768 1.65-4.948-.065-.269-.335-.33-.335-.658-2.51-2.097-4.444 1.267-5.933 2.311-.392 1.255-1.21 2.088-1.652 3.295h-4.617c.479-1.498 1.16-2.798 1.649-4.289.709-.9 1.581-3.007.331-3.955-3.549.186-4.535 2.939-6.597 4.614-.264 1.385-1.162 2.14-1.318 3.628h-2.64c1.294-2.773 2.417-5.718 3.629-8.576h22.429c1.348-.154.051.889-.331.99zm5.607.331c-.472-.076-.112-.983-.656-.987-.063-.283.126-.313.33-.333h.66c.042.593-.404.696-.334 1.319zm9.897 0v7.258h-4.287c-.183-4.25 1.978-6.155 2.966-9.234h.662c1.194-.315.461 1.296.658 1.977z"/>
</svg>
