<svg viewBox="0 0 128 128">
  <path
    d="M117.333 34.56c.107-2.027-.853-2.987-.64-5.12-.747-1.173-.427-3.413-1.28-4.48 0-1.92-.533-3.2-.96-4.8.108-1.92.108-3.84-1.92-3.84h-.32l-1.28.64c-17.813-.747-32.427 1.6-49.813 1.28-8.32.32-16.107.96-24.427 1.28-8.107.213-17.387-1.173-24.747.32-1.173 4.373-.96 10.24-1.28 15.573.853 0-.32 2.133.64 2.24-.213 1.28.853 1.28.96 2.24 1.173.747 3.947-.213 5.12.64-.747 8.747.427 17.92 0 27.307.96 7.254.96 15.36 1.28 23.147.32 1.813-1.067 1.92-.64 3.841-.32 1.6 1.067 1.492.64 3.2v5.12c.533 1.386.213 3.626 1.6 4.159-.107.747-.96.747-1.28 1.28-.32.96-.32.96 0 1.92 1.28 1.388 4.053.747 6.08.321 2.453 0 4.373-.641 6.613-.96 3.2.213 5.547-.32 8.213-.64h17.493c1.813.533 4.267.533 6.4.959 1.708-.213 3.413-.64 5.12-.959 7.467-.213 14.188.212 20.908.64 2.88.533 6.826.32 10.453.32 3.733 0 7.68.533 9.813-1.28 1.173-2.133 0-4.587.32-7.573.107-8.96 0-17.707-.64-26.027-.533-11.092-.427-23.787 0-34.88 1.387 0 2.879.107 3.84-.32.533-.853 1.6-1.387 1.28-3.2 1.386-.321 2.346-.854 2.452-2.348zM24.64 40.213c.533-.107.64.213.64.64-.32-.107-.32.107-.32.32-.427 0-.32-.533-.32-.96zm79.68 51.734c0 2.88.108 4.267-.32 6.4-.853.64-1.387 1.813-2.56 2.24v1.92h-6.08c-.854.213-1.388.747-2.241.96-10.986-.533-21.652-1.387-32.639-1.92-1.173-.32-2.56-.427-3.52-.96-3.733 0-6.72-.747-10.453-.64-1.387.107.32-1.067.64-1.28.32-.747 1.067-1.067.96-2.24-.96-2.027-3.733-.108-4.8.64-1.28.96-2.56 2.133-3.84 3.2-2.24-.213-3.52.427-5.76.32.853-1.6 2.24-2.667 3.2-4.159.853-1.6 2.773-2.133 2.88-4.48-1.067-1.387-2.56.32-3.84.64-.64 1.174-1.92 1.6-2.88 2.56-.64 1.173-1.92 1.707-2.56 2.88-.213.746-1.067.853-1.28 1.6-.533-.108-.96 1.492-1.28.639.107-1.067-.107-1.813-.32-2.56 1.387-1.707 2.88-3.307 4.16-5.12 1.173-1.813 2.773-3.2 3.52-5.44-1.92-1.067-3.093 1.28-4.48 1.92-.32.853-1.28 1.067-1.92 1.6a2.087 2.087 0 0 1-.96.96c-.107.32-.533.853-.64.32-.32-.96-.533-1.92-.64-3.2-.427-.96 1.493-1.28 1.6-2.241 0-.64 1.6-1.279 1.92-2.24 1.067-1.6 2.88-2.453 3.2-4.8-1.387-.747-2.987.747-3.84 1.6-1.173.64-2.347 1.493-3.2 2.56-.747-.213-.107-1.813-.32-2.56v-2.88c1.067-.853 1.6-2.133 2.88-2.88.64-1.067 1.92-1.6 2.24-3.2-.213-.853-.747-1.387-1.6-1.6-2.453-.32-2.347 1.921-4.16 2.241-.64-8.747 0-18.667-.64-27.307 3.947.107 2.773-5.013 6.4-5.44-.32 1.387-1.6 1.813-1.28 3.84.107.96 1.067.533 1.067 1.173 2.88-.32 2.133-4.267 4.8-4.8-.213 1.6-1.28 2.347-1.6 3.84.427.747.64 1.707 1.6 1.92 2.027.213 2.453-1.067 2.88-2.56.96-.853 1.6-2.027 2.24-3.2h2.24c1.6.107-.747.64-.32 1.6-.64.32-.96.96-.96 1.92-.107 1.067.96.96 1.28 1.6 1.6-.213 2.24-1.6 2.88-2.88 1.28-.533 1.067-2.56 3.2-2.24 1.28-.107-.107.96-.32 1.28-.213.747-.64 1.28-.64 2.24.213.96.747 1.6 1.92 1.6 1.6-.107 1.6-1.707 2.56-2.56.427-1.173 1.387-1.813 1.92-2.88h2.88c1.387 0-.64 1.28-.96 1.6-.32.96-1.387 1.173-1.28 2.56-.107 1.067.96.96 1.28 1.6 2.667-.853 3.307-3.627 4.8-5.76 1.173.213 1.6-.533 2.88-.32-.533 1.6-1.92 2.24-2.24 4.16.107 1.067.747 1.6 1.6 1.92 1.707-.107 1.92-1.6 2.56-2.88 1.067-.747 1.387-2.24 2.24-3.2h4.8c1.388 0 0 .533 0 .96-.427.32-.64.853-.96 1.28-.96.427-.747 2.347 0 2.88 2.24-.96 2.88-3.52 4.48-5.12 1.6.107 3.733-.32 4.8.32 1.6.107-.747.64-.321 1.6-.64.32-.959.96-.959 1.92-.108 1.067.959.96 1.28 1.6 2.346-.427 2.559-2.88 3.52-4.8 2.24 0 4.267.213 6.08.64 1.492 0-.321.427 0 1.28-.747.427-.533.747-.321 1.6 1.921.747 2.774-1.707 3.841-2.88 2.133.213 3.307-.533 5.44-.32-.533 1.28-.959 2.987.32 3.84 1.921 0 1.813-2.027 2.56-3.2.747.533-.427 1.92 0 3.2-.107 1.067-.427 2.027-.32 3.52-.32 1.067 1.067.427.959 1.28 0 .427-.107.853.321.96-.108 2.347 0 4.373.64 6.08-.107 11.2 1.173 23.467-.64 33.6-.747 1.173.32 1.28.427 2.133zM102.08 32c-11.2.32-20.907-.853-32.107-.64-1.6-.213-2.026.747-3.2.96-15.892-.747-33.067-.107-48.853.32V22.507c8.96.32 18.773 1.173 27.947.32 8.533-.32 19.413-1.173 26.987-.32 8.32-.64 16.641-1.067 25.708-.96.533.107.533-.32.959-.32h11.093c.533 3.413 1.067 6.827 1.6 10.133-3.627-.107-7.04.107-10.133.64zM81.813 65.92c.213-1.173-1.174-.747-.96-1.92.747-.107.108-1.6.32-2.24V59.2c0-1.707-.212-3.2-.959-4.16-1.174-.96-2.881-.533-4.481-.64-5.227-.213-10.667.107-15.573 0-3.093-.427-6.293-.747-9.813-.64-1.493-.107-2.24.427-3.52.64-.533-.64-.96-1.387-2.24-1.28-.64.107-.64.853-1.28.96-.96 4.267.747 8.107.96 12.053.64.64 1.067 1.493 1.28 2.56 1.6.426 2.133 1.812 3.52 2.559H67.2c2.027-.533 4.48-.64 6.613-.959 2.56-.107 5.547.213 6.933-.64.64-.32.64-1.067 1.28-1.6-.107-.533.427-1.92-.213-2.133zm-5.12-2.453H68.48c-6.187 1.28-13.867 1.173-20.267 2.24-.213-3.092-.96-5.547-1.28-8.533C56 58.454 66.24 58.561 76.8 58.454c.213 2.133.107 2.987-.107 5.013z"/>
</svg>
