<svg xmlns="http://www.w3.org/2000/svg" width="256" height="256"><path fill-rule="evenodd" d="M172.1 50c1.5 0 3.1 0 4.6 0 0 .1 0 .2 0 .3 2.8 1.3 5.8 2.3 9.8 2.3 2 1.3 2.8 3.7 3.6 6.2 0 1 0 2 0 2.9-.1 0-1.2 11.2 0 15.1 0 .4-1.4 3.8-.7 5.9-2 3.6-.2 7.6-1.6 13.8.1.6.5-.2.7.3-1.8 2.2-.5 4.9-.7 7.9-.4 6.9-.6 20.4-.3 21.6-.1 9.1 0 13.6 0 23.3 1.6 1.2-.7 31.3-.7 48.2-3.5 1.7-1.9 6.2-5.2 9.2-1.3.2-.4-1.8-2-1.3-1.1.2-1.2 1.5-1.3 2-7.1 2.1-19.7 1.5-21 1.3-5.3-1.8-10.8-3.9-13.4-7.2.6-.1 1-20.2-.7-29.2 1.5-5 .6-29.9.3-37-.5-1.2-.1-2.6 0-3.9 1.7-9.3-1.1-18.6.7-25.6.9-3.5-.2-7 1-9.8 1-5.1-1.8-8.8-3.6-12.8 1.4-1 2.7 1.2 3.9.3.3-4.4 1.4-8.5-.7-11.5.3-.5 1.5-.2 1.6-1 .3-1.6-.7-2-1-3 .6-.9.3-11 2.3-14.1 1.3-.7 1.7-1.5 3-2.3 5.2-2.2 21.4-1.5 21.4-1.9zm-8.1 9.5c-1.6-2-2.9-4.3-4.3-6.6-.1 2.3 2.9 5.9 4.3 6.6zm19.3 19c-5.1-6.1-9.8-12.7-14.4-19-1.5-2.1-2.9-5.4-5.2-6.2 5.1 9.5 11.7 19.5 19.6 25.2zm-31.1-24.2c-.1.6.3 2.8-.7 3.6 6 8.1 13.1 16.4 19.3 23.9 2.2 2.6 3.7 5.7 6.6 7.2-7.2-9.8-14.7-19.2-21.3-29.5 3.7-.2 3.6 3.3 5.9 4.6-1.9-3.4-4-6.7-5.9-10.2-1.2.1-2.8-.1-3.9.4zm20.6-.3c-2-.3-2.8-.4-4.3.3.7.8.7 2.4 1.6 2.9-.2-1 .4-1.3 1-1.6 6.8 4.8 8.4 14.7 15.7 19-3.8-7.7-10.1-12.9-14-20.6zm13.4 10.5c-.4 0-.3.6-.7.7-1.9 0-1.9-1.8-3.3-2.3 1.2 2.7 2.6 5.2 4.9 6.9-.2-3.6.2-6.5-.7-9.8-2.5-.3-3.3-3.2-5.6-4.6 1.8 3.1 3.9 5.7 5.4 9.1zm-33.7 4.2c5.6 8.1 11.5 16.6 17 24.3 2.3 3.2 4.5 6.8 7.5 8.8-8.9-12-17.6-24.1-25.6-37-.2-1 1.6-.1 1.3-1.3-1.4-1.5-2.2-4.5-3.9-4.6.9 2.9-.1 4.8 0 8.5 2.1-.4 2.2 1.1 3.7 1.3zm29.5 21c.7.9 1.5 2.5 2.6 2.3-.2-2.9-2.9-4.6-4.6-6.6-5.7-6.5-10.7-13.8-15.7-20.6 4.5 8.9 11.8 17.6 17.7 24.9zm-27.9-13.1c-1.5-2.7-3.3-5.2-5.2-7.5.9 3.2 3.4 5.1 5.2 7.5zm25.9 5.9c2 1.5 2.7 4.3 4.9 5.6-.2-2.4.5-3.8.3-6.2-2.6-1.2-4.1-3.5-6.6-4.9-1.3-1.7-4.4-6.3-5.6-5.9 3.1 4.1 6.6 7.8 9.8 11.8-.2.5-.5.8-1 1-.6-.2-1.3-2.1-1.8-1.4zm6.2-4.3c1.2-.2-.1-1 .7-1.6-2.1-.2-3.4-4.4-4.6-3.3 1.8 1.1 2 3.9 3.9 4.9zm-11.8 28.9c-7.9-11.6-16.7-22.2-24.9-33.4-.8-.3-1.5.5-.3.3 7.2 12.2 16 22.8 25.2 33.1zm10.5-2.3c.4-3.8-.1-6.2 0-9.5-3.4-2.2-5.8-7.1-8.5-8.8 1.4 2.9 5.1 5.5 5.6 8.5 0 0-.9.5-1 .7-.1.4 1.8 2 .3 2-6.3-5.1-11.1-13.4-16.7-18 6.6 8.4 12 18.2 20.3 25.1zM165.3 90c4.8 7.1 10.7 13.4 15.4 20.6 1.4 2.2 1.8 4.9 3.6 6.9 0-1.9 0-3.7 0-5.6-7.3-6.6-13.3-15.3-19-23.3-2-2.7-3.4-6-6.2-7.5 2.3 2.8 4.2 5.9 6.2 8.9zm19 33.4c-.3-4.5-4.3-7.6-7.2-10.8-7.1-7.9-13.8-16.7-20-24.9-1.1-1.5-2.1-3.6-3.9-4.3 9.8 13.9 18.9 28.5 31.1 40zm-36.4-38c2 3.1 4.8 5.5 7.2 8.5 6.8 8.5 13.4 19.3 21.3 24.9-9.7-11.3-19.1-24.6-28.2-35.4.6 1.5.7 1.9-.3 2zm-2.6 2.3c-.1-1-.8-3.1-1.6-2.3.6.7.6 1.9 1.6 2.3zm29.5 40.3c-7.2-13.1-17.5-25.7-26.5-38 7.9 13.5 16.9 26.1 26.5 38zm8.5 18.4c-.4-1.8-.1-1.4.3-3-1.7-2.7-4.4-6.1-6.6-7.2 1.2 1.6 3.3 3.9 3.6 5.2-6.5-5.5-10.2-13.6-15.1-20.6-5-7.2-9.2-14.8-14.4-21.6-.8-1.8-1.8-3.4-3.3-4.6-.3 2.3.5 3.6-.3 4.3 11.3 16.5 22.3 33.3 35.8 47.5zm1.3-37.7c-1-4.6-5-6.2-7.5-9.2 2 3.5 4.5 6.6 7.5 9.2zm-34.4 3.3c-.5-.5-.8-1.1-1-2 .4 0 .5-.4 1-.3-.6-2-1.6-3.4-3.6-3.9-.1.4-.5.6-.3 1.3.4-.1 2.9 4.8 3.9 4.9zm13.8 15c3.7 5.1 7 10.6 11.5 13.8-7-9.8-13.9-19.8-21.3-29.2 2.4 5 6.1 10.4 9.8 15.4zm-14.1-.3c.4-.4 1.2-.4 1.6 0-.8-2.4-2.9-3.5-3.6-5.9 2.2-.8 3 2.5 4.6 3.3-1.7-2.9-3.1-6.1-5.6-8.2 1 .2 1.2-.6 2.3-.3-.4-1.1-1.1-2-2-2.6.4 1.5 0 1.2-1 .7.6 1.3.2 5.6 0 6.9-.2-.5-.4 2.8-.3 3.6 0 .2 1 1.4.7 2.3 12.7 15 21.9 33.6 37 46.2.9-6.3-4.1-9.3-7.5-11.8 3 1.5-17.2-19.7-26.2-34.2zm34 5.6c-.1-4.1 1.5-6.7-2-8.2-.1.6.3 1.6-.7 1.3-3.6-1.8-5.1-5.8-8.5-7.9 2.7 6.1 6.9 10.5 11.2 14.8zm-19.6 2.6c-2.3-3.2-4.4-6.5-7.2-9.2 2.2 3 4.6 7.6 7.2 9.2zm-18 1.3c0-.2.3.9.3 1 1 2.5 4.4 5.9 6.6 8.8 2.2 3 4.5 6.2 6.6 8.8 4.8 6.2 9.8 12.3 14.7 15.7-6.7-7.8-13.3-16.4-19.3-24.6-2-2.7-4.6-5.2-5.6-8.5 3.5 1.2 4.5 5.1 6.6 7.9 2 2.8 4.5 5.5 6.6 8.2 4.3 5.6 8.2 11.6 13.4 15.4-7.8-10.8-16-21.1-23.9-31.8 0-.6.1-1 .3-1.3-2.6-1.9-4.2-6.5-6.6-7.5.7 2.3.3 5.3.3 7.9zm37.3 1.7c.8-3-2-4.9-3-7.2-1.3.8-1.7-.4-2.9-.7 1.7 2.9 3.4 5.7 5.9 7.9zm-12.1 14.4c-6-6.6-10.7-14.6-16.7-21.3 5 7.4 10.6 16 16.7 21.3zm3.6 24.6c.4.1.8.4.3 0-4.3-6.4-9.7-11.9-14.4-18-4.6-6.1-8.9-12.6-14.1-18.4 8.3 13.2 17.7 25.4 28.2 36.4zm9.2-21.3c0-1.2 0-2.4 0-3.6-4.1-2.5-6.9-7.9-10.5-9.8 4.2 3.7 5.8 10 10.5 13.4zm-5.3 2.6c.3.9 1 1.4 2 1.6.7-.5-.4-.8.3-1 .9.7 1.5 1.6 2.6 2 1.2-1.3-.5-1.1-1-1.6-1.8-2-3.6-4.2-5.2-5.9-3.7-3.7-6.7-8.7-10.5-10.8 4 5.3 12 15.9 11.8 15.7zm-14.7 21.9c5.7 7.2 10.9 15.4 17.7 20.3.2-.7.8-.9.7-2-.4-.8-1.1-.6-1-1-3.2-3.1-6-6.6-8.8-10.2 0-.4.4-.5.3-1-8.5-10.8-18.9-19.8-24.6-33.4-.1-.9 1.3-.3 1-1.3-.7-1.1-1.3-2.2-2.6-2.6-.6 1.2-.2 2.7.3 3.6-.4.1-.7 1.9-.7 2.9.4.1.1.3 0 .7 2.1 2.4 5 5.7 5.9 8.2-1.7-1.3-3.7-5.7-4.9-5.2 5.3 7.3 10.9 13.8 16.7 21zm8.8 7.2c3.2 2.5 5.5 7.6 8.8 8.8-.7-.2-.1-.3 1.3-.3.2-3.3-3.4-4.3-4.9-5.9-2.1-2.1-3.6-5.1-6.2-6.2 3 2.8 6.7 6.7 8.2 9.8-3.1-1-4.4-5.7-7.2-6.2zm10.5-22.2c-.5-2.5-2.9-3-4.3-4.6 1.3 1.7 2.4 3.5 4.3 4.6zm-19 18c-3-5.5-9.3-11.6-13.4-17-1-1.3-3.9-5.7-3.9-4.6 4.4 7.1 11.1 15 17.3 21.6zm19.3 8.5c-.9-3.5 1.8-8.1.7-11.5-.9-2.5-3.8-2.6-5.2-4.9.2 1.7 1.8 2.1 2 3.9.2 1-1.6.1-1.3 1.3 1 1.8 3.3 2.4 3.6 4.9-2.3.5-3.7-2.3-5.2-3.6-.6 1.8 5.3 4.5 4.9 7.2-2.9-.7-5.7-4.3-7.5-7.2-6-5.1-10.2-11.9-15.4-17.7 6.6 10 14.5 21.2 23.4 27.6zm-33.7-15.4c4.4 3.5 8 9.4 12.1 12.1-4.2-5-8.6-10.7-12.5-15.4-.6-.8-1.6-2.2-2.6-2 .1 1.5-.6 2.9.3 5.2.9.1 1.8.1 2.7.1zm21.9 22.6c1.9 1.6 4.2 2.8 5.2 5.2 1.7 0 2.3-1.2 3.3-2-4.5-4.9-9.7-10.9-14.1-14.7 2.7 4.7 8.6 8 10.2 12.8-5.7-4.9-9.9-11.3-15.7-16.1-3.4-4.6-7.8-9.9-11.5-13.1 7.4 9.5 15.3 18.4 22.6 27.9zm12.2-21.9c.6-1.1-.4-1.9.3-3-3.1.4-3.9-1.6-5.6-2.6.8 2.8 3 4.2 5.3 5.6zm-17.7 22.6c.4.1.8.4.3 0-4.5-5.7-10-12-14.7-17.4-1.5-1.7-3.8-4.7-5.2-4.3 5.1 8.6 12.5 15 19.6 21.7zm-5.6-1.7c-3.2-4-7.2-8.9-10.5-12.8-.9-1.1-2.3-3.6-3.9-2.6 5.4 4.5 9 10.9 14.4 15.4zm14.8 7.2c-5.1-7.1-13.6-15.2-20-21 6.3 6.6 12.5 14.6 20 21zm-10.5 0c-5.9-7.2-12.1-14.1-18.4-21 5.4 7.8 11.4 14.9 18.4 21zm-13.5-11.4c1.4 1.5 3.1 3.5 4.3 3.3-3.4-3.2-5.9-7.2-9.5-10.2 1.1 2.9 3.2 4.7 5.2 6.9zm9.5 11.4c-3.1-4.1-7.3-8.9-11.1-11.1 3.8 3.6 6.1 8.8 11.1 11.1zm-11.4-8.1c-.6-.6-1.3-2.2-2-1.6 3.2 2.8 5.4 6.6 8.8 9.2-1.4-2.9-4.7-5.6-6.8-7.6zm18.6 9.1c1.2-1 3.3.8 5.2-.7-.8-1.6-2.9-3.7-3.9-3.9.8.4.6 1.4 0 2-3.3-1.7-5.3-4.7-8.2-6.9 1.5 3.8 7.6 9.1 6.9 9.5zm-15-2.6c-1.8-2-3.6-4.1-5.6-5.9 1.2 2.4 3.5 5.5 5.6 5.9zM63.5 167.9c.2-2.2 1.5-3.8 0-5.4.1-1.8-.1-9.1 0-10.1 0-.2.9-.9 1-1.4 1.2-3.8 0-7.2 1.4-8.8-.6-1.4.4-8.3.3-9.5-.9-6.3 2.3-15.4-1.7-20.6.7-1.5 2 .7 2-.7-2.2-12.5 1.5-29.4-.3-41.5 1.4-4.4 2.7-10 0-12.5.3-.5 1.1-.5 1.7-.7.8-3.8 3.8-6.8 7.1-7.8.7-.2 11.9-2.7 13.8 0 .7-.5 18.5-1.7 23.3 3.4.1 3.1 2.9 3.6 2.7 7.1-.7.8-1.4 13.2-1.4 20.9.3.7.6 8.4.7 12.2.2 9-1.8 18.5-2.7 28-.4 3.7-2 9.7-2 14.2-.1 3.7 1.6 7.5 2 9.8.2.8-.3 1.9-.3 2.7-.1 7.1.5 15-1 20.6 1.5.7 3 2.9 2.4 4.7-1-.6-1.7-1.4-2.4-2.4-.5 8.5 1 16.2-.7 22.3-.1.4-1.8 7.8-2.7 7.8-1.1.6-4.3 6.1-10.8 7.1-1.6.2-9.3-2.4-12.2-2.7.4.1-11.7-1.3-14.2-3-1.2-.9-6.2-1.6-6.4-4.7-.3-3.3.4-8 .3-9.5-.4-.3-.4-13.6.1-19.5zm35.4-77c-2.8-3.2-5-7.1-7.8-9.1 5.1 6.9 10.9 15.1 16.9 20.9.7.7 1.8 2.2 2.7 1.7-.1-2.9.3-6.2.3-10.5-9.2-8.4-16.6-18.6-25-27.7 7.6 11 15.9 21.2 24.7 31.1-4.4-1.8-6.9-6.3-9.8-9.8-5.9-7.3-11.5-14.7-17.2-22-2.9-3.7-6.3-7.1-8.1-11.5 2.2-.7 2.9 1.8 3.7 1.4-.7-1-1.6-1.8-2-3 .2-1.2 3 .1 3-1.4-2.9.5-4.4-.2-6.4 1.7.9 4.8 5.4 7.7 8.1 11.5 5.7 8 11.3 16.1 16.9 23.6 2.9 3.9 6.2 7.2 8.8 10.8-3.5-.9-6.1-4.7-8.8-7.7zm7.5-34.2c-1.1-2.3-2.4-4.6-4.7-5.7-.2 2.3 3 4.1 4.7 5.7zm4.7 20.3c.3-1.3-.5-2.5 0-3-.7-.4-1.1 0-2-.7-6.4-7.4-12.9-14.6-19.6-21.6 5.9 9.7 13.6 17.7 21.6 25.3zm0 11.1c.7-1.9-.2-2.9.3-4.4-3.9-.4-5.4-3.2-8.1-4.7-6.5-9.4-13.1-18.6-20.6-27-.4.1-1-.1-1 .3 9.7 12.1 17.3 26.2 29.4 35.8zM96.6 55c-.7-.3-.5-1.5-1-2-.6 0-1.1-.1-1.4-.3.6.8 1.5 3 2.4 2.3zm14.5 3.8c-.9-2.6-3.7-3.3-5.1-5.4 1.5 1.8 2.7 5.5 5.1 5.4zm-24.3 3.3c-1.9-3.2-3.9-6.3-6.8-8.4 1.7 3.4 4 6.1 6.8 8.4zm-16.2-2c-.1-.8-.9-.8-1 0 .8.9 1.1.2 2.4.7 6.5 10 14.1 19 21.3 28.4 2.3.7 3.4 4.5 5.4 4.4-10-11.5-17-26-26.7-37.8-.9 1-.6 3.2-1.4 4.3zm40.5 12.2c-.2-3.7-3-4.7-5.1-6.4-2.5-3.6-5.8-6.3-8.4-9.8-.4 0-.8-.6-1 0 4.8 5.4 8.8 11.6 14.5 16.2zm-.3-9.5c-1.3-.6-6.1-5.1-7.3-4.8 1.5.5 6.9 9.8 7.3 4.8zm-42.3 1.4c1.4.4-.1.7 0 1.7.7.6 2.1.1 2.7-.3-.9-.6-1-2-2-2.4.1.6-.4.6-.7 1zm3.4 10.1c7.3 10.6 15.8 23.8 24.7 31.1-9.8-12.5-19.3-25.3-28-38.8-.6 3.8 1.8 5.4 3.3 7.7zm23.3 27.4c.4.1.8.4.3 0-8.1-11.4-15.4-23.8-24.3-34.5 6.8 12.7 15.8 23.2 24 34.5zm14.9-20c-3.8-3.1-6.5-7.2-10.1-10.5 2.1 4.6 5.9 9.2 10.1 10.5zm1-1.7c0-.6 0-1.1 0-1.7-3.1-.3-4.4-4.1-6.4-4.4 2.4 1.8 3.5 4.9 6.4 6.1zm-42.9 6.1c2.1 2.1 5.5 4.6 5.1 8.1 10.5 13.7 21.8 28.4 32.4 40.9-.6 0-1 .1-1.4.3-2.7-3.2-5.4-6.3-8.1-9.5 2.3 4.3 5.6 7.7 8.8 11.1 0 1-1.9.2-1.7 1.4.9 1.4 1.6 2.9 3.4 3.4 1.9-1.9-.5-3.6-1-5.7.3-1.2 1.2.1 1.7-1-.2-.6-1.5-3.5-1.7-3.7-11.3-14.6-25.3-33-35.8-48.6.2-.6 1.6 0 1.7-.7-1.4-.8-1.5-3-3-3.7-.2 2.8-.2 4.3-.4 7.7zm40.2 31.8c-.4.1 1.2-3.8.3-5.4.6-.8 1.1-5.5 1.7-7.1-8-3.1-12.2-11.6-18.2-15.5 3.8 4.3 6.7 9.5 11.1 13.2.6 2.8 6.1 3.9 4.4 6.8-8.6-8.4-16.2-17.8-23.6-27.4 7.6 12.2 16.4 23.3 24.3 35.4zM68.5 95.2c.8-.8 1.6-.5 2.4 0-.1-1.6-.3-4.1-2.7-4.4.3 2.2.1 3.1.3 4.4zm34.5 21.7c-.6 0-.2 1.1-1 1-.8-.7-2.3-2.4-3-2 2.4 3 5.3 5.5 7.4 8.8-1.2.7-1.6-1.6-3-1.7-6-7.5-12.3-14.7-18.2-22.3 4.1 9 11.3 14.8 15.9 23.3 3 1.6 3.3 6 6.8 7.1 1.2-3.4.1-4.3-1-6.4.5.2.9.5 1.4.7.1-1.7.5-2.5.7-4.7-.9-.6-1.4-1.8-2.4-2.4-.9-2.1-2.9-3.2-3.7-5.4-7.3-5.7-19.8-20.8-19.9-20.3 5.8 8.7 12.3 17.1 20 24.3zm-25 4.7c3.5 4.8 9.4 12.4 12.8 15.2-6.9-11.2-16-20.3-21.6-32.8.5-.5.8-1.2 2-1-2.1-1.6-.5-5.2-3-6.1 1.7 3.8-1.6 5.8.3 8.4-.3.5-1.1.5-1 1.4 3.4 4.6 7 10.1 10.5 14.9zm19.6 8.4c-6.8-8.3-12.3-17.8-19.9-25.3 6.4 8.4 12.3 19.2 19.9 25.3zm9.8 19.6c.7-.8-.2-1.2.3-2.4-13.8-9.4-23.4-25.9-34.1-39.5-.4 0-.8-.6-1 0 10.3 15.3 21 30.1 34.8 41.9zm-34.1-30c-1-1.9-3-4.7-4.7-4.7 1.8 1.2 2.1 4.1 4.7 4.7zm-3.4 9.1c6.6 9.3 13.2 16.8 19.9 25.7 1.2-.3-1.4-2.3-1.7-3.4-6.3-9-14.6-16-18.9-27 3.1 0 4.2 2.1 5.1 4.4 6.5 6.9 12 14.8 18.6 21.6-3.4-5.6-8-10.6-12.2-15.9-4.1-5.2-7.5-11.6-12.5-15.2-.1 3.4-.3 5.9 0 9.5 1.1-.4.9-.2 1.7.3zm6.4-5.4c3.7 6.1 8.6 12 13.2 17.2 1.1 1.3 2.8 2.9 4.4 3.4-6.4-7.5-12.7-17-19.6-23 1 .5.9 2 2 2.4zm31.1 43.9c-12.5-11.8-25.7-28.7-35.8-40.5 8.6 13.2 18.9 25.7 28.7 37.5 1.2 1.5 4 2.3 3.4 5.1-5-2.2-7.6-8.6-11.8-10.5 4.4 4.7 8.6 9.6 12.8 14.5.9.6.2 2.7 2.4 2 .5-2.8-.7-6.6.3-8.1zm-11.5 0c2.5 3.1 5.5 6.4 8.1 9.1.9 1 1.8 2.9 3.4 2.4-14.3-13.9-24.9-31.4-38.5-45.9 8.2 12.2 18.4 22.5 27 34.4zm-18.2-18.9c3.5 4.2 6.8 8.5 10.8 12.2 1.1 1.9 2.9 3.2 4.1 5.1 1.1.2-.4-1.1-.3-1-6.6-10.8-17.3-19.7-24-29.7 1.9 5.2 5.9 9.3 9.4 13.4zm22.2-.7c2.2 2.6 6.9 5.4 4.4 6.8 2.1.5 1.5 2.3 3.7 3-.9-2.5 0-3.9 0-4.7-1.1-.9-2.3-1.7-2.7-3.4-4.6-2.9-8.3-8.6-12.2-11.1 2.1 1.9 3.8 5.7 6.8 9.4zm-32-1c1.6.7 1.9 2.6 3.4 3.4-1.2-1.6-.6-7.7-3-9.1-1.1 2 0 3.1-.4 5.7zm38.8 12.5c-5.6-6.2-12.2-11.5-17.9-17.6 5 6.5 12.5 15.3 17.7 21.6-.2 4.6.2-4 .2-4zM77 153.3c2.6 5.2 8.5 11.7 12.5 15.5-6.6-7.3-11.3-16.6-18.2-23.6.4 4.2 3.8 5.4 5.7 8.1zm8.4 17.3c-4.6-6.6-11.6-16.6-18.6-23 4.7 9.2 11.5 16.3 18.6 23zm19.6 24.6c-7.9-5.7-13.8-13.8-19.9-21.3-6.2-7.6-12.5-15.3-18.6-23 .2 2 .1 2.1.3 4.1 12 13.4 22.7 27.9 35.8 40.2-1.2 2 .5 2.7 2 3.7 2.7-2.9 2.6-8.9-1-9.5.9 1.3 3 4.4 1.4 5.8zM79.7 152c-.1 1.4 1.1 2.5 2 3.7 3.1 4.1 5.8 8 8.8 11.8 5 6.5 10.8 13.1 16.9 17.9-.3-2.8-.2-3.6 0-5.7-1-1-.6.8-1.7.7-8.7-9.5-18.3-18-26-28.4zm-8.1 14.5c6.8 8.1 14.6 15.5 21.6 23 .4.1.8.4.3 0-9-10.7-18-21.4-27.4-31.7.6 3.3 3.3 6.1 5.5 8.7zm2.3 8.1c2.9 3.5 5.8 7.6 8.8 8.8-4.8-5.7-10.6-10.5-14.9-16.9 0-.5.9-.3.7-1-.7-.7-1.1-1.9-2-2.4-1.3 5 4.3 7.8 7.4 11.5zm-7.4-2.3c1.1 2.7 3.4 4.2 5.4 6.1-1.3-2.4-3.3-5.8-5.4-6.1zm0 10.1c1.3-.3 2.2-.9 3.7-1 7.3 6.5 12.9 14.6 20.6 20.6-3.1-5.1-7.4-9.4-11.5-13.5-4.2-4.3-8.3-8.6-12.5-12.8 0-.2-.1-.4-.3-.3-.3 2.1-1.1 4.7 0 7zm36.1 7.8c-1.8-5.9-7.6-9.5-10.8-12.8 3.5 4.4 7 8.7 10.8 12.8zm4.4-.7c-2.3-5.4-16.5-18.1-11.5-12.2 3.7 4.3 7.1 8.8 11.5 12.2zM82 202c0-.4.1-.8.7-.7-4.9-6-10.4-11.5-15.9-16.9-1.7 3.9 9.7 12.2 15.2 17.6zm18.6-.4c1.2.2 1.6-.4 2.4-.7-3.4-4.7-9-9.1-12.8-12.2 3.4 4.4 8.9 7.6 10.4 12.9zm-21.6-.3c-4.5-3.8-8.2-8.5-13.2-11.8.1 2.7 2.9 3.6 4.4 5.1 1.7 1.6 3.1 3.7 5.1 5.1-.1.5 2.6 2.4 3.7 1.6zm14.5 1c1.6.3 2.3-.4 3.7-.3-3.2-3.9-7.4-8.6-11.1-10.8 2.6 3.6 7.1 6.1 7.4 11.1zm-19.2-2.7c-2.8-2.3-5.1-5-8.1-7.1 2 2.9 5.4 6.1 8.1 7.1zm12.5 2.7c-2.6-3.1-6.1-7.2-9.1-8.8 3.4 2.4 5.5 7.7 9.1 8.8z" clip-rule="evenodd"/></svg>