<svg xmlns="http://www.w3.org/2000/svg" width="128" height="128" viewBox="0 0 128 128">
  <path
    d="M118.4 30.613c.213-1.707-.533-2.453-.32-4.16-3.308-4.16-6.613-8.213-10.241-12.053-1.492-.747-2.879-1.6-4.159-2.453-3.52-.32-5.974.533-8.108 1.493-2.667 2.773-4.267 6.613-6.933 9.28-.746-1.173-.959-2.88-2.987-2.667-2.24.107-2.667 1.92-3.947 2.987-1.279 1.067-2.559 2.24-3.946 3.307-2.241 2.56-4.908 4.693-6.933 7.467-1.493.853-2.774 2.133-3.947 3.307-1.174 1.173-2.347 2.453-3.307 3.947-2.667 2.133-5.013 4.693-7.573 6.933-4.8 4.8-9.6 9.6-14.613 14.187-2.56 2.24-4.907 4.693-7.253 7.253-1.387 1.067-2.347 2.454-3.307 3.947-.747.427-1.067 1.387-1.493 2.133-.64.533-1.28 1.174-1.493 2.133-1.28 0-1.813.747-2.667 1.174-.107.959-.853 1.172-1.173 1.812-.213.96-.64 1.6-.853 2.454-.64 1.492-1.493 2.879-1.813 4.799-.747 1.28-1.173 3.093-1.813 4.48-.427 1.813-1.173 3.2-1.813 4.8-1.28 2.988-2.347 6.293-3.947 9.067-.64 3.093-3.733 7.254-.64 9.6 4.053.321 5.76-1.6 8.747-2.453.96-.853 2.987-.64 3.947-1.492.96 0 1.387-.321 2.133-.641.533-.426 1.707-.32 2.133-.853 2.88-.853 5.333-2.027 8.107-2.987 2.88-.96 6.08-1.6 8.747-2.667.533-.853.853-1.92 1.173-2.987 1.173-.213 1.707-1.388 2.453-2.133a198.49 198.49 0 0 1 6.933-6.613c1.173-.853 1.92-2.027 3.307-2.667 5.227-7.04 12.16-12.48 18.667-18.347 7.04-5.333 13.867-10.987 20.48-16.853.213-.747.426-1.387.32-2.453 1.493-.533 2.56-1.387 2.667-3.307-.32-1.493-1.067-2.56-2.453-2.987-1.174-.64-2.027-1.6-3.308-2.133-.532-1.28-2.026-1.6-2.666-2.667-1.279-.533-1.492-2.133-2.667-2.667-1.6-2.027-3.307-3.947-4.8-5.973-.746-1.067-1.6-2.027-2.453-2.987s-1.813-2.347 0-2.987c.641-.64.641.107.853.64.747 0 .427 1.173 1.174 1.173.426 1.173 1.173 2.027 2.133 2.667.959 2.24 2.987 3.413 3.947 5.76 1.707 1.387 2.667 3.52 4.479 4.8 1.493 1.707 3.093 3.307 5.441 4.16h3.626c1.6-1.067 2.667-2.56 3.947-3.947 2.027-1.067 3.841-2.347 5.441-3.947.107-1.6.959-2.347 1.173-3.947.533-.427.427-1.387.853-1.813-.001-.853.959-.747.746-1.92zM29.013 104.96c-1.813-1.493-3.52-3.093-5.973-3.947 2.453-6.08 4.48-12.587 7.253-18.347h5.44c-.107 1.707-1.173 4.053-.64 5.973.32 1.28 1.387 1.708 2.133 2.454h4.16c.32 2.879.533 5.867.96 8.746-5.013 1.173-8.64 3.627-13.333 5.12zm62.614-57.813c-.321 1.6-2.133 1.707-2.454 3.307-1.279.533-1.6 2.027-2.667 2.667-5.652 5.547-11.306 10.987-16.532 16.96-3.733 3.733-7.147 7.68-10.773 11.413-.32.959-1.173 1.707-1.813 2.453-1.92 1.92-4.373 3.947-6.293 6.292-1.173.641-1.387 2.241-2.667 2.667.107-1.492 0-2.773-.32-3.946.427-1.174 1.28-2.133 2.133-2.988 2.24-2.346 5.013-4.692 7.467-7.253 3.307-3.307 6.187-7.04 9.6-10.24 3.093-3.519 6.293-6.932 9.067-10.879 1.813-1.493 3.413-3.2 5.121-4.8 1.6-1.707 3.946-2.667 4.479-5.44 0-1.28-.853-1.813-1.812-2.133-1.921-.213-2.56.853-3.308 1.813-.64 1.067-1.813 1.6-2.453 2.667-2.133 1.173-3.413 3.413-5.44 4.8-3.947 6.08-9.387 10.56-13.867 16.213-4.8 5.12-9.92 9.92-14.72 15.041-1.6-.213-2.24.533-3.947.32-.213-1.6.533-2.241.32-3.947-.32-.96.64-.533 1.173-.64.64 0 .427-.854 1.173-.641.427-1.28 1.493-1.92 2.453-2.667.533-1.067 1.493-1.707 2.133-2.667 1.493-1.813 3.307-3.307 4.8-5.12 3.2-3.413 6.293-6.933 9.6-10.24 1.173-2.133 3.2-3.413 4.8-5.12 1.92-1.387 3.413-3.2 5.44-4.48 1.6-1.707 3.093-3.52 4.8-5.12.213-1.387 1.6-1.6 2.133-2.667.533-.747 2.027-1.813 1.174-2.987-.108-.213-.321-.32-.321-.64-.747-1.173-2.987-.427-3.627.32-.96.747-1.6 1.813-2.453 2.667-4.907 5.333-10.24 10.133-15.68 15.04-.533 1.173-1.387 1.92-2.453 2.667-.533 1.173-1.387 1.92-2.453 2.667-.64 1.067-1.813 1.6-2.453 2.667-.853.853-2.027 1.387-2.453 2.667-.96-.107-.64 1.174-1.493 1.174-.32.533-.64.959-1.173 1.173-.747.96-1.28 2.133-2.453 2.667-1.28 2.133-3.52 3.308-4.48 5.76-.853-.32-1.6-.853-2.987-.641h-3.627c-.747 0-.32-.212-.32-.64.427-.107.427-.533.853-.64 2.347-2.773 5.12-5.12 7.787-7.787.853-.853 1.493-2.026 2.667-2.453 3.84-4.053 8-7.787 12.053-11.733s8.213-7.68 11.733-12.053c3.092-2.88 6.187-5.867 9.067-9.067 1.279-.64 1.707-2.133 2.987-2.667-.108-.533.32-.533.32-.853.213-.107.32.107.32.32.213-.107.32.107.32.32 2.987 6.827 6.933 11.947 11.52 16.427zm20.16-13.547c-1.387.96-1.6-1.493-2.987-1.493-.64-1.067-1.707-1.707-2.667-2.453-1.067-.107-1.707.107-2.453.32 0 .32-.108.533-.32.64-.213 2.027.64 3.2 1.812 3.947.427 1.067 2.774 1.493 2.133 2.667-1.6-.107-2.026-1.6-3.307-2.133-1.173-.64-1.6-2.027-2.987-2.453-2.241.32-.853 3.52 0 4.16.747.32 1.067 1.173 1.813 1.493.212.96 1.387.747 1.492 1.813-.959.853-1.28-.64-2.133-.853-.747-.427-1.28-1.067-1.813-1.813-1.279-1.067-2.133-2.56-3.307-3.627-.853-1.493-2.133-2.773-2.987-4.16-1.067-1.28-2.347-2.24-2.987-3.947 2.667-2.773 4.159-6.72 7.253-9.067h3.947c.746.96 1.92 1.28 2.453 2.453.747.747 1.813 1.173 2.133 2.453 1.707 1.28 2.559 3.52 4.159 4.8-.32.64-1.387-.427-2.453 0-.747.107-.64.96-1.173 1.173.213 1.707 1.28 2.56 2.453 3.307.213.747.96.853 1.173 1.493.323.427 1.39.64.75 1.28z"/>
</svg>
