<svg xmlns="http://www.w3.org/2000/svg" width="128" height="128" viewBox="0 0 128 128">
    <path d="M122.133 44.081c-.308-.783-.354-1.826-.296-2.978-.614-.874-.833-2.145-1.194-3.274-.398-1.09-1.133-1.841-1.487-2.977-1.078-.312-1.652-1.13-2.38-1.786-1.327-.163-2.687-.293-3.873-.596-1.623.038-3.175 0-4.166-.595.065-2.347.053-4.619-.6-6.252-.797-.491-1.315-1.263-2.08-1.786-4.277-.314-10.487-.236-12.802 2.381-.344.968-.56 3.239 0 4.166.175.621.625.963.894 1.489.354.441 1.123.463 1.488.892 1.337-.253 2.387-.786 2.68-2.083.549-1.14 2.513-.858 4.168-.893v3.276c-8.474.483-16.956.237-25.007 0-.608-2.269-1.504-4.252-2.381-6.254-1.279-1.599-1.421-4.333-3.573-5.06-.63-.761-2.195-.581-3.576-.594-.801-.584-2.598-.178-3.868-.299-.705-.685-2.674-.105-3.869-.298-7.027-.021-14.23.137-20.838-.296-.664.23-1.163.623-2.086.594-2.492 1.974-2.286 6.648-3.869 9.526.172.524-.362 1.749.298 1.789-.387.737.664 1.443 0 1.488-1.808.105-3.762-.143-5.36 0-2.083.184-5.251 1.165-6.548 1.488-.748.188-.993.314-1.489.595-.675.385-1.09 1.044-1.788 1.19-2.141-.253-2.921.851-4.462 1.193-1.326 1.255-2.056 3.106-2.979 4.763-.584 7.553-1.154 15.12-.892 23.518.116 8.12.81 15.665 1.786 22.923-.126 5.189.291 9.83 1.188 13.992 2.459 2.602 6.132 3.992 11.016 4.166.731.464 1.935.446 2.977.598.896.391 2.55.029 3.275.596 2.743-.164 4.787.371 7.144.596 13.053.555 26.244.25 38.701-.596 5.9-.208 12.822-.596 19.352-.596 5.022 0 10.478.434 14.591-.299 1.408-.251 2.61-.615 3.868-1.19.447-.842 1.311-1.267 1.489-2.38.95-.34.831-1.749 1.489-2.38.27-1.016.445-2.133.892-2.977-.245-.842.419-.772.3-1.489.511-.179-.025-1.409.594-1.488.175-4.389 1.087-8.046.894-12.802.444-1.84.112-4.45.593-6.252v-3.272c.19-1.002-.379-2.766.299-3.275.095-9.134 1.524-16.936 1.487-26.203zM55.45 26.517c4.599-.137 8.637.292 12.8.595 1.187 1.49 1.711 3.646 2.68 5.359-.569.568-1.654.289-2.383.297-2 .029-4.794-.018-7.142 0v-2.083c-2.116-.331-1.816 1.755-2.98 2.383h-3.571c.317-2.065.749-4.016.597-6.55zm-9.53 1.788v-1.491c1.728-.653 4.637-.127 6.85-.296-.747 1.832-.838 4.323-1.19 6.55-.434.163-1.539-.349-1.491.295-1.112-.481.248-2.674.301-3.868-.163-1.227-.554-2.225-1.489-2.682-1.319.172-2.163.817-2.98 1.491.031.358-.432.182 0 0zm-6.546 5.058c-.06.34-.3.167-.3 0 .058-.337.3-.163.3 0zm75.315 23.819c-.868 6.77-1.344 13.938-1.489 21.431-.689 7.648-.448 16.221-3.27 21.734-12.3.6-25.931-.129-37.51 1.189-.84.044-.861-.731-.894-1.489-.095-.697-.921-.667-1.194-1.19-2.028.155-2.487 1.875-3.571 2.976-3.389-.216-5.861.491-9.227.298.778-2.098 2.49-3.266 2.378-6.251-3.22-1.002-5.301 1.617-6.844 3.272-.426 1.064-1.057 1.92-1.193 3.277h-5.358c.154-1.407 1.059-2.73.298-4.17-1.115-1.062-3.208-.466-4.169.296-.745.245-.941 1.044-1.487 1.489-.697.396-.136 2.046-1.193 2.083h-2.084c.06-1.93 1.381-2.588 1.191-4.765-1.582-1.324-3.352.562-4.765 1.192a4.214 4.214 0 0 0-1.486 1.489c-.7.29-.498 1.489-1.489 1.489.813-1.469 1.201-3.362 2.083-4.763-.01-1.573.891-3.787-.3-4.766-1.777.01-2.314 1.258-3.273 2.086-1.459.33-1.763 1.805-2.978 2.379-.836 1.444-1.866 2.695-2.678 4.166-.872-.251.386-.746 0-1.489.427-.366.564-1.022.598-1.787.688-.894 1.053-2.118 1.486-3.272.783-1.596 2.625-5.207.595-6.849-2.131-.148-2.98.992-3.87 2.083-.699 1.284-1.688 2.282-2.084 3.871h-.296c.285 1.237-.89.061 0 0 .395-2.188 1.252-3.907 1.789-5.954.286-2.042 1.933-4.153 1.486-5.955-1.372-1.451-3.919-.044-4.759.895.027.359-.437.183 0 0 .328-2.353 1.456-3.902 1.782-6.252.587-.702.702-1.879.895-2.975.8-1.021-.15-2.279-.895-2.683-2.23.253-2.827 2.134-3.572 3.872-1.026-.958-.315-3.654-.892-5.062V55.688c.43-3.935.515-8.215 1.192-11.908.855-.671 2.206.479 3.271-.298 2.353-1.121 4.637-2.312 7.443-2.977 15.903.113 32.317-1.034 48.526-.298 7.356.333 15.056.319 22.33 0 3.19-.142 6.469-.78 9.525-1.191 2.073-.09 3.471.499 5.358.597.325.864.279 2.101.892 2.678.177 5.238-.224 9.898-.299 14.886zm-8.037-13.994c-.888-.599-2.811-.167-4.166-.298-.183.018-.353.045-.296.298-1.856.032-2.422 1.35-3.576 2.084-.76 1.525-1.081 3.484-.893 5.954 1.16 1.874 3.117 3.478 5.954 3.572 1.52.051 2.992-.541 4.464-.895.643-.749 1.12-1.659 1.791-2.38.033-2.031.059-3.873-.3-4.762-.578-1.449-1.689-3.264-2.978-3.574zm-2.081 5.956c-.907.012-1.965.171-1.79-.895.704.006.879-.511 1.79-.295v1.19zm-16.079-2.382c-.048.346-.47.322-.893.297-.347.546-.778 1.008-1.19 1.488v2.681c.398.298.9.491 1.19.893 2.627.047 4.106-1.056 4.466-3.274-.661-1.227-2.06-1.71-3.573-2.084zm-4.764 16.67c.088-1.575-.513-2.46-.593-3.87-.677-.815-1.138-1.839-1.788-2.677-.493-.302-.326-1.266-.597-1.788-.267-.526-.717-.869-.893-1.488-2.968-2.69-7.579-3.733-12.502-4.465-2.507-.177-5.726.363-7.744-.298-.378.015-.408.381-.891.298-6.987.056-11.077 3.013-15.183 5.953-.434 1.356-.795 2.532-1.191 3.275-1.027 1.938-2.081 3.402-2.678 5.656.244.842-.418.772-.295 1.487.65 3.692-.633 6.796-.3 11.017.251.344.392.798.3 1.489.465.869.74 1.797 1.19 2.678.435.863.822 1.393 1.19 1.786.215.236.094.626.297.896.49.643 1.391 1.397 2.084 2.084.697.689 1.455 1.602 2.081 2.082.338.257 1.093.349 1.488.596.205.124.331.442.599.597.295.171.56.111.892.296.113.065.175.507.299.596.195.146.722.216.894.3.661.321 1.52.565 1.786.89.066.081.489-.037.596 0 3.262 1.23 7.437 1.698 11.906 1.489 1.744-.441 3.663-.705 5.064-1.489 1.642-.641 2.8-1.76 4.464-2.379.088-.608.806-.586.894-1.192.35-.444 1.237-.35 1.189-1.192 1.071-.513 1.484-1.692 2.381-2.38.289-.808.868-1.828 1.192-2.382.71-1.227 1.297-2.61 2.083-3.868 5.992.597 8.758-4.406 6.846-9.825-1.197-1.88-3.138-3.016-5.058-4.173zm-8.334 11.909c-.035.09-.238.058-.298.294-.044.178.068.433 0 .598-.078.188-.526.444-.594.596-.252.554-.33 1.329-.597 1.786-.069.121-.549.197-.595.298-.07.154.09.461 0 .597-.075.11-.552.201-.597.296-.066.142.094.475 0 .596-1.359 1.722-3.698 3.091-5.66 4.467-1.836.543-4.068.691-6.248.894-7.388-.354-11.611-3.869-14.886-8.335-1.029-3.139-.943-7.394-.893-11.612.739-1.344 1.352-2.817 2.678-3.572.496-1.59 2.319-1.854 2.98-3.275 2.723-1.047 4.852-2.688 7.443-3.87h.595c-.056-.255.114-.282.297-.298 5.006-.242 9.133.394 12.506 1.787 1.012.972 2.29 1.677 2.977 2.977.446.544 1.285.7 1.784 1.191.466.53.821 1.166 1.192 1.787.233 4.929-.594 9.084-2.082 12.796zm-4.167-11.313c-1.5 1.974-1.7 5.245-4.171 6.251-1.171.338-2.067-.897-2.38.296-1.262.07-2.355-.022-2.681-.892-1.038-1.576.778-2.496.298-4.465 1.078-1.112 1.183-3.182 2.681-3.869.51-.584.697-1.489 1.489-1.788.234-.96 1.346-1.036 2.083-1.489-.989-.896-2.81-.962-4.762-.892-2.029-.045-3.862.11-5.062.892-3.371.498-4.547 3.195-7.144 4.466-.76 1.624-1.875 2.888-2.979 4.166-.226 1.561-.996 2.575-1.189 4.168v4.168c.427.365.564 1.023.597 1.786 1.889 2.573 3.966 4.964 7.739 5.656H61.7c1.944-.77 4.152-1.345 5.952-2.381 1.139-.651 4.712-3.19 4.767-4.165.029-.548.573-.763.593-1.19.019-.326.229-.154.301-.299.596-1.261.523-3.424.594-5.358-1.044-2.627-.725-6.615-2.68-8.333v3.272h-.001z"/>
</svg>
