<svg xmlns="http://www.w3.org/2000/svg" width="256" height="256" viewBox="0 0 256 256">
  <path fill-rule="evenodd"
        d="M188.4 129.8c-3.4-2.4-27.7-15.6-35.6-20.6-5.8-2.6-19-9-18.9-10.6-1.9-1.2-8.5-5-9.9-5.5-2.8-1.1-4.4-2.2-6.9-3.4-1-.5-4.5-2.8-5.4-3.4-.7-.5-3.8-2.4-4.5-2.8-6.4-3.3-13.4-5.4-19.3-9.8-5-.8-25.3-13.4-27.6-13.2 0 43.1 0 86.2 0 129.3 0 .7 0 4.8 0 5.7 1.3 0 11.3-3.9 13.3-4.7-.1-.7 14.6-6.5 15.4-6.4 4.1-2 22.5-8.4 24.4-10 .1.6 20.3-8.8 26.4-11.1-.3 0 18.3-9.5 18.9-9.4 10.5-4.8 36.5-16.2 36.6-18.7-.1-.8-5.9-3.3-6.9-5.4zm-13.7-1.7c1.2-.4 1 .7 1.9.6 0 .4 0 .7 0 1.1-1.1.2-1.2-.5-1.9-.6 0-.4 0-.7 0-1.1zm-3.4-3c0 .5 0 1 0 1.5-1.4-.1-2.6-.5-2.6-2.1 1.4-.3 1.5.7 2.6.6zm-15.2-8.5c.6 0 1.1 0 1.7 0 1.6 2.7 5.8 2.9 7.5 5.5 1.4.6 3.2.7 3.2 2.6-2 0-3.1-.8-3.6-2.1-3.6-1-5.9-3.2-8.8-4.9 0-.4 0-.7 0-1.1zm-4.3-2.5c.4 0 .9 0 1.3 0 0 .4 0 .9 0 1.3-.4 0-.7 0-1.1 0-.2-.3-.2-.8-.2-1.3zm-32.6-9.2c3.3 1.2 5.8 3.2 9 4.5.1.8-.2 1.2-.4 1.7-3.3-1.2-4.8-4.1-8.6-4.9 0-.4 0-.8 0-1.3zm8.2 29.2c-1 .2-1.3-.3-2.1-.2-.6-2 2.7-1.6 2.1.2zm-11-11.1c.6 0 1.2-.1 1.5.2 0 .4 0 .7 0 1.1-.5.1-.8.3-1.5.2 0-.5 0-1 0-1.5zm1.1 3.6c0 2.4-3.9 1.6-3.2-.9 1.3-.4 2.7 0 3.2.9zm0 15.1c-1.3.2-1.7-.5-1.5-1.7.4 0 .9 0 1.3 0 .3.3.2 1.1.2 1.7zm-4.1-45.1c.4.4.3 1.4 1.5 1.1 0 .4 0 .7 0 1.1-2.3-.6-4.9-.8-5.1-3.4 2-.4 1.7 1.6 3.6 1.2zm-12.8-6.5c.4 0 .9 0 1.3 0 .1.4.6.4.4 1.1 2.1.3 3.8 1.1 4.7 2.6 1-.2 1.3.3 1.9.4 0 .6 0 1.1 0 1.7-1.3.1-2.3-.2-2.1-1.7-1.7 0-2.3-1-4.1-.9-.1-1.3-.4-1.5-1.7-1.3.1-.9-.7-.9-.4-1.9zm4.9 29.3c.1.8.7 1 .4 2.1-1.5.2-1.6-.8-1.5-2.1.4 0 .7 0 1.1 0zm-.6-3.2c1.4-.2 1.6.7 2.8.6 0 .4 0 .9 0 1.3-1.6 0-3-.2-2.8-1.9zm2.5 16.6c0 .5 0 1 0 1.5-2.1.3-2.8-.8-4.3-1.1-.1-3.6 3.1-1 4.3-.4zm-6.4-15.7c.6 0 1.1 0 1.7 0 .3.6.4 1.3 1.5 1.1 0 .5 0 1 0 1.5-1.6-.2-1.5.2-3 .2-.4-.7-.1-1.9-.2-2.8zm3.2-.9c-.4 0-.7 0-1.1 0 0-.3.1-.8-.2-.9 0-.5.9-.1 1.3-.2 0 .4 0 .7 0 1.1zm-7.7-28.5c1.2-.1 1.9.4 1.7 1.7-.5 0-1 0-1.5 0 .1-.7-.4-.9-.2-1.7zm.6 13.2c.2.3.7.4.6 1.1 1.7-1 1.9 1.2 3.2 1.3.1 1.1-.4 1.6-.9 2.1-2.1-.3-2.5-2.2-4.5-2.6.1-1.1.3-2.1 1.6-1.9zm2.6 27.6c.2 1.1-.5 1.2-.4 2.1-2.1-.5-4-1.3-4.3-3.6 2.2.4 2.8 1.1 4.7 1.5zm.2 27.5c0 .4 0 .7 0 1.1-.4 0-.7 0-1.1 0 0-.4 0-.7 0-1.1.4 0 .8 0 1.1 0zm-5.1-9.6c.5 0 1 0 1.3.2 0 .4 0 .7 0 1.1-.4 0-.9 0-1.3 0 0-.5 0-.9 0-1.3zM93.1 92c.4 0 .9 0 1.3 0 0 .4 0 .8 0 1.3-.4 0-.7 0-1.1 0-.3-.3-.3-.8-.2-1.3zm.2 8.5c-1.7 0-3-.6-3-2.3 1.4-.1 2.5.1 3.4.4.2.9-.3 1.2-.4 1.9zm.4 44.6c0 .4 0 .7 0 1.1-.3.3-.9.2-1.5.2 0-.4 0-.8 0-1.3.5 0 1 0 1.5 0zm-1.1-53.8c-1.4 1-3.9-.3-3.6-2.3.2 0 .4 0 .6 0 .7.7 1.5 1.3 2.8 1.5 0 .3-.1.8.2.8zm-4.7-8.9c1.4-.2 1.9.5 1.9 1.7-.8.1-1.4 0-1.9-.2 0-.5 0-1 0-1.5zm-6.6 3.4c-2 .3-2.7-.5-3.6-1.3.4-2.3 3.8-.4 3.6 1.3zm-4.7 77c.3.3.2 1.1.2 1.7-1.1.1-1.6-.4-1.5-1.5.2-.3.7-.3 1.3-.2zm-2-52.8c.4 0 .7 0 1.1 0 0 .4 0 .7 0 1.1-.4 0-.7 0-1.1 0 0-.4 0-.7 0-1.1zm-6-38.7c1.4 0 2.2.7 2.4 1.9 1.3-.4.8 1 2.1.6.1.8.5 1.3.4 2.3-1.3.2-1.8-.4-1.7-1.5-.3-.4-1.5.1-1.1-1.1-.5 0-1 0-1.5 0-.4-.4-.7-1.1-.6-2.2zm.5 87.8c-.6-1.6 1.1-1.8 1.9-1.3 0 .4 0 .7 0 1.1-.8-.1-1 .4-1.9.2zm.2 13.2c0 .4 0 .7 0 1.1-1.4.3-1.9-.3-2.6-.9 0-.3 0-.6 0-.8 1.3-.2 1.3.9 2.6.6zm.4-4.4c.5 0 1 0 1.5 0 .3 1.2-.5 1.4-1.5 1.3 0-.5 0-.9 0-1.3zm.2-15.8c-.4-1.3.5-2.2 1.5-1.5 0 .4 0 .9 0 1.3-.5.1-.8.4-1.5.2zm2-71.4c-1 .1-1.5-.3-2.4-.4 0-.6 0-1.1 0-1.7 1.6-.1 2.5.5 2.4 2.1zm-3.7 45.5c1.5-.2 1.7.8 2.8.9 0 .5 0 1 0 1.5-1.5.1-1.7-1-2.8-1.3 0-.4 0-.8 0-1.1zm-.4-50c.2 1-.2 1.5-1.3 1.3-.2-1 .2-1.5 1.3-1.3zm-1.5 72.3c4.3-.6 3.9 4.9-.6 3.8-.5-1.9.9-2 .6-3.8zm-1.1 6.2c.5 0 1 0 1.3.2 0 1.1-.2 2.1-1.5 1.9-.2-.9.3-1.3.2-2.1zM64.1 133c.4 0 .7 0 1.1 0 0 .5 0 1 0 1.5-.4 0-.7 0-1.1 0 0-.5 0-1 0-1.5zm-.2 41.7c2.4-.8 3.2.6 4.9 1.1 0 .4 0 .7 0 1.1-.3.3-.9.2-1.5.2-.4-1.4-2-.4-3.4-.6 0-.7 0-1.3 0-1.8zm.2 2.5c1.3.4 1.8 1.6 3 2.1.1.9-.4 1.2-.6 1.7-1 .1-1.1-.7-2.4-.4-.2-.8-.4-2.6 0-3.4zm1.3 6.2c-.4 0-.9 0-1.3 0-.2-.3-.2-.8-.2-1.3.5 0 1 0 1.5 0 0 .4 0 .9 0 1.3zm4.1 3.2c-2 .1-2.3-1.5-3.9-1.9 0-.4 0-.9 0-1.3 1.9 0 2.9.9 4.3 1.5.1.8 0 1.3-.4 1.7zm-1.5-6.2c2 .2 3.3 1 3.6 2.8-1.9.1-4.4-.2-3.6-2.8zm3.9-1.7c-.8.2-1-.3-1.7-.2 0-.4 0-.7 0-1.1.6 0 1.4-.1 1.7.2 0 .4 0 .7 0 1.1zm1-7.9c-.4 0-.7 0-1.1 0 0-.6 0-1.1 0-1.7.4 0 .9 0 1.3 0 0 .7.2 1.4-.2 1.7zm-.8-72.9c0-.7 0-1.4 0-2.1 1.7-.2 2.5 1.2 1.9 2.6-1 .1-1.2-.4-1.9-.5zm5.5 75.3c-.7-.1-1.9.3-1.9-.4-.3.1-.2.5-.2.9-.6 0-1.2.1-1.5-.2 0-1.7 1-2.3 2.8-2.1.1.7 1.1.6.8 1.8zm.9-30.6c.4 0 .7 0 1.1 0 0 .4 0 .7 0 1.1-.4 0-.7 0-1.1 0 0-.4 0-.8 0-1.1zm2.6 23.8c-.9-.1-1.2.4-2.1.2-.3-.3-.2-.9-.2-1.5.8 0 1.6 0 2.4 0-.1.4-.1.8-.1 1.3zm.4-8.5c-1.1 0-1.9-.4-2.4-1.1 0-.3 0-.6 0-.9 1.7-.1 2.6.3 2.4 2zm.4-72.5c1.1-.3 1.1.6 2.1.4 0 .4 0 .9 0 1.3-.9.1-1.5-.2-2.1-.4 0-.5 0-.9 0-1.3zm.7 72.9c.6 0 1.2-.1 1.5.2 0 .4 0 .7 0 1.1-.4 0-.9 0-1.3 0-.3-.3-.3-.8-.2-1.3zm2.8 20c-.4 0-.9 0-1.3 0-.2-.3-.2-.8-.2-1.3.3-.2.8-.2 1.3-.2 0 .5.3.8.2 1.5zm2.1-29.4c-1.3 0-2.2-.3-2.1-1.7 1.4-.1 2.3.3 2.1 1.7zM86 122.2c.5 0 1 0 1.5 0 0 .4 0 .7 0 1.1-.4 0-.9 0-1.3 0 .2-.7-.3-.6-.2-1.1zm.9-25.6c-.4 0-.7 0-1.1 0 0-.4 0-.7 0-1.1.4 0 .7 0 1.1 0 0 .4 0 .8 0 1.1zm-1.8-8.2c0-.4 0-.8 0-1.3 1.7-.5 1.3 1.1 2.8.9.1.5.3.8.2 1.5-1.6.2-2-.8-3-1.1zm2.6 8c.7-.1 1 .1 1.5.2.1.5.3.8.2 1.5-.8.1-1.2-.2-1.7-.4 0-.4 0-.8 0-1.3zm.9 54c-.2-.8.3-1 .2-1.7 1.8-.4 2.6 1 1.9 2.3-1.3.5-1.1-.7-2.1-.6zm2.8 23.6c-.4 0-.9 0-1.3 0-.2-1.1.1-1.8 1.3-1.5 0 .5 0 1 0 1.5zm2.1-23.1c0 .5.2.7.6.6.2.8-.3 1-.2 1.7-.9.1-1.4-.2-2.1-.2-.5-1.3-.1-2.6 1.7-2.1zm-.2 7c1.3-.1 2.1.3 1.9 1.7-1.4.1-2.1-.4-1.9-1.7zm3 4.6c-.4 0-.7 0-1.1 0 0-.4 0-.7 0-1.1.4 0 .7 0 1.1 0 0 .4 0 .8 0 1.1zm1.1-1.4c-.4 0-.9 0-1.3 0-.2-1 .2-1.5 1.3-1.3 0 .4 0 .8 0 1.3zm.4-5.6c-.4 0-.9 0-1.3 0-.9-1.1.4-2.4 1.5-1.5.1.7-.1 1-.2 1.5zm1.7 8.1c-.4 0-.9 0-1.3 0 0-.8 0-1.6 0-2.3.7 0 1.6-.1 1.9.2.5 1.4-.8 1-.6 2.1zm2.6-32.9c0 .5 0 1 0 1.5-.4 0-.9 0-1.3 0-.2-1.1.1-1.8 1.3-1.5zm.4 27c0 .4 0 .7 0 1.1-.4 0-.9 0-1.3 0 0-.4 0-.9 0-1.3.5-.1 1-.1 1.3.2zm-1.5 17c-.6-2.1 1.4-2.6 2.6-1.7-.1 1.4-1.1 1.7-2.6 1.7zm3.4-29.6c-.7.1-1-.1-1.5-.2 0-.4 0-.7 0-1.1.6 0 1.2-.1 1.5.2 0 .4 0 .8 0 1.1zm3.5 1.9c-.5 0-1 0-1.5 0 0-.4 0-.7 0-1.1.5 0 1 0 1.5 0 0 .4 0 .8 0 1.1zm-3.7-39.5c0-.6 0-1.3 0-1.9 2-.1 3.7 1.1 3.6 2.3-.7 1.5-2.9.1-3.6-.4zm5.6 41c-.4 0-.7 0-1.1 0 0-.4 0-.7 0-1.1.4 0 .7 0 1.1 0 0 .4 0 .8 0 1.1zm1.9 1.7c-.6 0-1.4.1-1.7-.2-.3-1.5.9-2.4 2.1-1.7.2.9-.1 1.4-.4 1.9zm1.1-24.2c-1.2.1-1.7-.5-2.6-.6-.2-.2-.3-.6-.2-1.1-.2-.1-1.6.1-1.9-.4-.3-1.6 1-1.7 2.4-1.7 0 .4 0 .7 0 1.1 1-.7 1.9.3 2.8.4.2 1.1-.5 1.4-.5 2.3zm-2.6-5.5c0-.4 0-.9 0-1.3 2.5 0 3 2 4.9 2.6 0 .4 0 .7 0 1.1-1.9-.6-3.4-1.5-4.9-2.4zm3.4 48.6c0-.5 0-1 0-1.5 1.7.2 2.4-.6 2.4-2.1 1.3 0 2.2.6 2.4 1.7-1.1 1.2-2.7 1.8-4.8 1.9zm5-70.8c-.4 0-.7 0-1.1 0 0-.4 0-.7 0-1.1.4 0 .7 0 1.1 0 0 .4 0 .8 0 1.1zm1.9 57.9c-.4 0-.9 0-1.3 0 0-.5 0-1 0-1.5.4 0 .7 0 1.1 0 .1.5.3.8.2 1.5zm.4-12.8c-.4 0-.9 0-1.3 0-.2-1.3.2-1.9 1.5-1.7 0 .6.2 1.4-.2 1.7zm3.5-12.7c.1.8-.1 1.4-.4 1.7-1 .1-1.4-.3-2.1-.4-.5-2.6 1.4-2.3 2.5-1.3zm-1.3 15.1c-.2-1.3.6-1.6 1.7-1.5.2 1.2-.6 1.5-1.7 1.5zm1 16.5c.6-1.4.3-3.7 2.6-3.4 1.6 1.7.2 4.7-2.6 3.4zm4.1-14.4c-1.3.6-2.4-.3-2.4-1.1.2-1.4 2.9-1.1 2.4 1.1zm2.2 1.7c-.4 0-.9 0-1.3 0 0-.5 0-1 0-1.5.4 0 .7 0 1.1 0 .2.3.2.9.2 1.5zm-.5-14.3c.6 0 1.2-.1 1.5.2 0 .4 0 .7 0 1.1-.4 0-.9 0-1.3 0-.2-.2-.2-.7-.2-1.3zm2.8 16c-.4 0-.7 0-1.1 0-.2-.3-.2-.8-.2-1.3.5 0 1 0 1.3.2 0 .4 0 .7 0 1.1zm1.3 6.4c-1.1-2.2.7-3.9 2.6-2.6-.3 1.4-.7 2.7-2.6 2.6zm0-9.2c1.6 0 2.6.5 2.6 2.1-1.6 0-2.8-.3-2.6-2.1zm-.4-34.8c-.8.1-1.1.8-2.1.6 0-.4 0-.9 0-1.3-.5.2-.8.6-1.7.4-.4-.6-.2-1.8-.4-2.6 1.6-.1 2.6.3 2.8 1.5.5 0 1 0 1.5 0 .2.2.3.6.2 1.1 1.8.6 4.3.6 4.3 3-1.9-.6-4.5-1.2-4.6-2.7zm6.4 41.8c-.3-1.7.9-2.1 2.6-1.9.1 1.7-1.2 1.8-2.6 1.9zm-1.3-2.9c0-.4 0-.7 0-1.1.4 0 .9 0 1.3 0 0 .4 0 .7 0 1.1-.4 0-.9 0-1.3 0zm6.2-7.9c-.4-1.9 1.2-2.2 2.6-1.7.4 1.8-1.3 2.3-2.6 1.7zm2.6-28.7c-3.1-.7-5.7-1.9-7.5-3.8-2.3.1-3.1-1.3-4.9-1.7 0-.3 0-.6 0-.9-1-.6-1.9-1.2-3.4-1.3.2-.8-.5-.8-.6-1.3-3.9-.1-5.5-2.6-8.8-3.4-.5-1.4-1.3-2.7-2.8-3.2 0-.6 0-1.1 0-1.7 1.7 0 2.9.5 3.4 1.7.5 0 1 0 1.5 0 .1.6.9.5.9 1.3.4 0 .9 0 1.3 0 4.1 3.2 9.3 5.2 13.3 8.5 4.5 1.6 7.5 4.6 11.6 6.6.1.3-.3 1.1.2 1.1-1.8.6-3.4-.9-4.2-1.9zm3.6 34.6c-.4 0-.7 0-1.1 0 0-.4 0-.9 0-1.3.4 0 .7 0 1.1 0 0 .5 0 .9 0 1.3zm-2.5-4.2c0-.4 0-.7 0-1.1.8-.2 2.8-.5 2.8.6-.3.8-2.1.9-2.8.5zm4.5-2.1c-.4 0-.9 0-1.3 0-.2-.3-.2-.8-.2-1.3.7-.1 1 .1 1.5.2 0 .4 0 .7 0 1.1zm.4-6.8c-1.2.3-1.4-.5-1.3-1.5.4 0 .9 0 1.3 0 0 .5 0 1 0 1.5zm0-22.6c1.5 0 2.5.3 2.4 1.9-1.6.1-2.5-.3-2.4-1.9zm3.4 31.7c-1.2 0-2.1-.3-1.9-1.7 1-.2 1.3.3 2.1.2 0 .6.1 1.2-.2 1.5zm.9-7.2c-1-.1-2.2 0-2.6-.6 0-.3 0-.6 0-.9.9 0 1.9-.1 2.6.2 0 .4 0 .8 0 1.3zm0-15.8c-1.1.1-1.9-.2-2.6-.6 0-.3 0-.6 0-.9 1 0 1.8.2 2.6.4 0 .4 0 .8 0 1.1zm2.1 23.2c-.9-.1-.9.7-1.9.4 0-.5 0-1 0-1.5.7 0 1.1-.4 1.9-.2 0 .5 0 .9 0 1.3zm-.6-4.9c.1-1-.4-1.3-.2-2.3.8-.8 1.6-.1 2.6 0 0 1.6-.9 2.3-2.4 2.3zm5.3 0c-.4 0-.7.1-.9.4.1.6.7.6.4 1.5-.3.2-.8.2-1.3.2-.2-.5-.3-1.1-.2-1.9.3 0 .6 0 .9 0-.3-.3-.2-1.1-.2-1.7.4 0 .9 0 1.3 0 0 .5 0 1 0 1.5zm-6-18c3-.1 3.5 2.2 6.2 2.3.2.6.4 1.3.6 1.9-2.1-.7-6-1.4-6.8-4.2zm12 7c-.7 0-1.4 0-2.1 0-.3-1.4-2.3-1.2-2.8-2.6 0-.7 1.1-.4 1.7-.4 0 .4 0 .7 0 1.1 1.4-.1 1.9.7 3.2.6 0 .4 0 .8 0 1.3zm1.3 5.9c-.4 0-.7 0-1.1 0 0-.4 0-.7 0-1.1.4 0 .7 0 1.1 0 0 .4 0 .8 0 1.1zm5.4-4.4c-1.2.1-1.8-.4-2.4-.8-.6.7 1.2 1 .6 2.3-1.8-.1-3-.7-3-2.6.9.1 1.6 0 1.3-1.1 1.6-.1 2 1 3.4 1.1.1.4.1.7.1 1.1zm9.4-.5c-1.4.1-1.6-1-3-.9 0-.4 0-.7 0-1.1 1.4-.2 1.8.5 3 .4 0 .6 0 1.1 0 1.6z"
        clip-rule="evenodd"/>
</svg>
