<svg width="128" height="128" viewBox="0 0 128 128">
  <path
    d="M100.703 56.867c-1.106-0.731-1.352-2.332-2.922-2.6-1.507-0.734-3.613 0.411-5.844 0-1.254-0.171-1.58 0.581-2.922 0.328-0.88 0.2-2.574-0.414-2.922 0.324-4.222-0.176-9.633 0.284-12.012 0-0.046-4.807-0.040-9.566 0.323-13.959-0.078-2.463 0.268-4.497 0.652-6.494 0.13-2.236 1.195-4.208 0.325-6.496-1.087-0.644-1.507-1.952-3.571-1.621-2.031 1.326-5.799 0.913-9.092 0.973-1.483 0.358-3.132 0.546-4.222 1.298-0.803-0.282-2.517-0.635-3.244 0-1.218 1.058-1.425 3.12-1.3 5.52-0.211 6.93 0.426 14.715-0.325 21.104-6.233 0.694-13.728 0.125-19.806 0.975-0.949-0.023-1.204-0.743-1.62-1.3-0.812-0.273-1.741-0.426-2.924-0.324-2.040 1.098-2.473 3.802-2.271 7.144-0.456 2.787-0.318 6.178-0.326 9.416 0.601 0.699 0.352 2.244 0.976 2.919 0.511 0.893 1.104 1.709 1.949 2.271 1.563 0.6 4.106 0.222 6.166 0.328 1.259 0.172 1.585-0.581 2.92-0.328 0.611-0.472 2.154-0.013 2.598-0.646 2.264 0.099 3.785-0.549 5.845-0.651h3.245c0.988 0.204 2.798-0.416 3.247 0.325v22.405c0.968 1.199 1.572 2.758 3.245 3.245 3.374 0.739 8.107 0.121 12.013 0.323 1.933-0.387 5.2-0.405 6.171-0.644 0.994-0.251 0.798-0.498 1.299-0.978 0.595-0.566 1.352-0.936 1.298-1.945 0.216-1.951-0.495-2.969-1.298-3.899-1.101-0.734-0.841-2.836-1.624-3.894 0.229-5.425-0.339-10.048-0.328-15.259 5.327-0.523 11.416-0.273 17.209-0.326 1.475-0.476 3.571-0.326 4.873-0.973 1.261-0.796 3.335-0.776 4.218-1.95 1.666-4.258-0.561-9.378 0-14.61zM42.916 65.631c-1.209 0.636-0.293 3.392-2.274 3.246 0.109-2.701 0.939-4.688 1.298-7.139h2.598c-0.48 1.36-1.502 2.176-1.622 3.893zM49.406 67.905h-1.624c-0.020-2.189 0.766-3.564 0.976-5.518-0.178-0.721 0.62-0.465 0.648-0.975 0.55-0.12 0.612 0.254 0.651 0.648-0.885 1.253-1.339 4.024-0.651 5.845zM61.745 89.659c-0.287 0.794-0.291 1.873-1.297 1.948 1.699-6.094 4.746-10.838 6.492-16.883 0.738 0.348 0.122 2.042 0.325 2.919 0.457 1.816 0.243 4.307 0.644 6.17-0.372-0.271-0.867-0.427-1.62-0.323-1.548 0.833-2.065 2.693-3.246 3.894-0.479 0.712-0.634 1.749-1.298 2.275zM62.392 66.282c0.809 0.050 0.096 1.1 0 1.298-0.805-0.048-0.094-1.099 0-1.298zM68.24 92.907c-0.564 0.84-2.156 0.655-3.573 0.644 0.369-3.414 2.59-4.979 2.923-8.438 0.276-0.062 0.304 0.126 0.32 0.326-0.34 1.431 0.643 2.511 0 3.246 0.223 1.4 0.897 2.968 0.331 4.222zM67.265 47.451c-0.771 1.502-1.436 3.109-2.598 4.219-0.533 0.55-0.704 1.46-1.297 1.949-0.269 0.818-0.426 1.741-1.624 1.623 0.491-2.974 1.524-5.402 2.273-8.116 0.663-2.294 2.667-4.853 1.622-7.793-1.968 0.091-2.662 1.451-3.249 2.923-1.11 0.947-1.782 2.33-2.272 3.894-0.98-0.491 0.271-1.425 0-2.27 0.449-0.417 0.2-1.534 0.651-1.951 0.308-1.533 0.709-2.972 0.974-4.543-0.26-1.668-1.893-0.224-2.274-0.652 0.068-1.012-0.219-2.381 0.324-2.92 2.267-0.696 6.080-1.444 8.768-0.65-0.8 4.399-1.004 9.387-1.297 14.287zM79.599 66.929c-1.024-0.156-1.147 0.587-2.269 0.33-0.344-2.685-0.193-4.126 0.648-6.172h3.572c-0.753 1.774-2.901 3.398-1.952 5.842zM93.888 66.604c-2.021 0.037-3.576 0.542-5.844 0.325 0.254-1.444-0.431-1.948-0.323-3.246-0.767-0.317-0.293-1.873-0.976-2.271 1.433-1.057 4.463-0.516 6.818-0.65-0.164 2.222 0.575 3.535 0.325 5.841z"></path>
</svg>
