<svg xmlns="http://www.w3.org/2000/svg" width="128" height="128" viewBox="0 0 128 128">
  <path
    d="M58.813 38.635c-.712-1.127-1.538-2.142-1.951-3.573-.927-.913-1.715-1.966-2.274-3.245-1.181-.656-1.755-1.924-2.597-2.924-2.067-1.397-3.919-3.01-6.166-4.221-2.425-.719-5.051-1.228-8.444-.976-.483.171-.819.482-1.303.65-2.133.571-2.901 2.51-4.543 3.573a29.685 29.685 0 0 0-5.197 2.922c-1.87 1.813-3.299 4.063-4.546 6.495-.634 3.802-1.09 7.787-.974 12.341.483 1.708.467 4.189 1.298 4.87.098.083-.066.53 0 .648.324.581.719 1.183.974 1.624.156.271.634.687.648.975.035.638.747.693.976.974.419.52.622 1.279.972 1.623.258.252.667.109.974.324.271.189.384.765.651.976.28.221.662.107.973.323.266.187.368.796.652.975.402.258.872.117 1.298.324.246.122.654.494.974.648 3.256 1.585 7.105 2.295 11.364 2.599.187 1.98.843 3.489 1.299 5.196v6.819c-.509.9-1.01 1.808-1.299 2.925-.653.86-1.21 1.821-1.622 2.921-1.48 1.55-2.452 3.612-4.221 4.871-1.191.973-2.354 1.978-3.897 2.6-.76.107-1.34.387-1.951.647-.845.126-1.778.168-2.27.647-2.139-.19-3.761.139-4.872.975-1.42 2.543-.269 6.863 1.299 8.442 1.547.73 3.83.718 6.171.65 1.536-.737 3.87-.677 5.194-1.624 3.944-.602 6.806-2.289 10.068-3.572.889-1.058 2.2-1.697 3.25-2.598a14.635 14.635 0 0 1 2.923-2.922c1.036-2.207 2.505-3.988 3.571-6.17 1.252-1.998 2.315-4.179 3.57-6.171 2.996-10.697 3.574-26.704.648-37.994-.581-1.147-1.246-2.217-1.619-3.571zm-25.333.324c.42-.557.672-1.278 1.626-1.299.064-.973 1.346.31 0 0-.418.558-.674 1.279-1.626 1.299.035.395-.471.2 0 0zM48.745 56.17c-1.866-.022-.884 2.798-2.92 2.598v-2.922c-1.099-2.586-1.812-5.552-3.899-7.145-1.953.43-2.34 2.422-3.571 3.573-.047 1.146-.929 1.452-.974 2.596-.527.666-.255 2.13-.978 2.599-1.374.118-.284-1.407-.325-1.948.129-.847.17-1.781.653-2.273-.204-2.043.93-2.748.976-4.546 1.028-.809.912-2.763 1.947-3.571.084-1.443 1.653-2.726.65-4.222-1.648-.238-2.011.803-2.922 1.298-3.119 3.378-5.393 7.6-6.821 12.663-1.294-.781.037-2.184-.324-3.895.646-3.68 2.344-6.315 3.568-9.418 1.292-1.633 3.101-2.749 3.903-4.87 2.236-.038 4.718.175 6.49-.325.233-1.635-.58-2.231-.973-3.247-.686-.719-2.131-.683-1.951-2.273 5.188 1.311 7.866 5.129 10.394 9.092-.164 1.566-.943 2.52-.646 4.547.632 2.83 2 4.924 2.92 7.468-.625.88-.718 1.992-1.297 2.922-.477.763-1.199 1.466-1.948 1.95-.715.716-1.081-.573-1.95-.653zm3.245 8.442c.845-.128.982-.968 1.95-.974-.266 1.684-1.364 2.533-1.624 4.222-.738-.45-.122-2.26-.325-3.248zm1.303 13.318c-.97 1.411-1.755 3.008-2.597 4.544-.956-.277.417-.817 0-1.622.672-.081.087-1.425.645-1.622v-3.573c-.203-.881.413-2.577-.322-2.921.433-.756.535-1.845.972-2.6.715.37 1.327.836 2.597.648-.243 2.571-.959 4.663-1.295 7.146zm57.796-22.734c-.085-1.102.251-2.632-.321-3.247-.022-1.277-.156-2.442-.652-3.247-.406-4.461-2.689-7.051-3.246-11.365-.946-.893-1.558-2.12-2.275-3.248-.625-1.319-1.8-2.094-2.6-3.247-.246-.073-.641-.008-.644-.323-4.798-2.133-11.912-1.948-18.511-2.275-.418.02-.451.417-.975.326-2.037 1.211-3.793 2.704-5.196 4.546-1.738 1.403-2.874 3.402-4.222 5.197-1.093 2.909-1.638 6.37-1.624 10.39.483.06.298.784.329 1.299 3.299 6.333 7.562 11.704 15.586 13.313 3.027.019 4.315.246 7.141 0 1.811 3.046 1.95 8.808 1.3 13.315-.767 1.074-1.019 2.658-1.946 3.572-.262 1.578-1.475 2.204-1.949 3.571-1.31.531-1.455 2.225-2.924 2.6-.529 1.31-2.219 1.46-2.921 2.598-2.918 1.196-5.699 2.528-8.442 3.895-.78-.198-1.484-.467-2.597-.324-.37 2.022-2.748.216-3.901 1.622-1.058 1.912-1.068 4.928-.65 7.468.416.888 1.307 1.297 1.952 1.95.614.684.513 2.079 1.946 1.948.856.981 3.123.558 4.868.647 3.513-.494 6.2-1.811 9.096-2.921 2.394-1.714 4.84-3.387 7.144-5.196.942-1.221 2.094-2.235 2.921-3.574 1.211-.956 1.772-2.556 3.249-3.246 1.784-2.653 4.016-4.864 4.867-8.444 1.552-2.776 2.285-6.378 3.251-9.742.723-3.713 1.58-7.292 2.272-11.042v-3.571c-.204-.988.415-2.797-.328-3.248zM85.44 96.76c-.869 1.077-2.577 1.322-3.573 2.274-1.571.055-2.885 1.727-4.223.974-.577-2.418 2.339-1.341 3.571-1.948 1.37-.474 2.581-1.103 4.225-1.3-.034-.391.47-.201 0 0zm-1.951-60.398c-.166-.167.234-.414.323-.325.173.169-.235.416-.323.325zm3.248 19.483c-.166-.17.236-.415.325-.325.166.169-.238.414-.325.325zm10.066-2.273c-1.061-1.212.784-5.33-1.622-5.196-1.989-.149-1.7 1.982-2.6 2.922v2.598c.012.765-.559.956-.324 1.949.52 1.279-1.402.112-1.3.974-.735-.346-.123-2.042-.326-2.923-.48-1.251.116-3.579-1.296-3.897-2.19.411-2.138 3.056-2.6 5.195-1.893-.746-.915-2.687-.975-4.869.84-1.329 1.05-3.281 1.95-4.547.37-1.793 2.216-2.111 2.273-4.222-1.221-1.593-4.31-.177-4.869.975-.946-.456.577-1.119.326-1.948.763-.103.723-1.007 1.298-1.299.687-1.155 1.969-1.711 2.271-3.248-.781-1.397-3.871-.445-4.868 0 .098-.876 1.366-.582 1.622-1.298 3.543.458 7.652.358 11.364.648.075.468.97.112.979.65.422.115.507.573.969.65-.813 2.309 1.499 3.77 1.622 6.17-.826 4.042-2.478 7.263-3.893 10.717zm4.55 12.015c-.99-.313-.708-1.891-1.3-2.599-.286-.907-.778-1.604-.976-2.598.432-.325 1.21-.306 1.301-.973 1.189 1.194.998 3.764.975 6.171z"/>
</svg>
