<svg viewBox="0 0 128 128">
  <path
    d="M89.738 85.263c-6.006-3.184-13.898-4.732-21.302-5.477-1.003-.719-1.786-1.661-2.739-2.431-.109-2.531-.37-4.908-.914-7.001 1.41-1.841 2.73-3.764 4.262-5.478 1.642-3.937 3.817-7.341 4.87-11.867 7.375-.018 8.706-8.323 7.302-15.219-1.622-.572-2.956.369-4.26-.607-.061-7.547-1.773-13.443-4.26-18.561-1.178-1.155-2.255-2.415-3.346-3.654-1.058-.261-1.69-.949-2.435-1.521-2.015-.523-3.934-1.136-6.086-1.523h-3.955c-.394.42-1.323.304-2.131.306-2.279 1.169-5.173 1.723-6.696 3.653-1.329.391-1.91 1.535-2.739 2.432-1.067.757-1.91 1.736-2.435 3.044-1.086.636-1.263 2.183-2.127 3.042-.24 1.585-1.445 2.206-1.522 3.958-.751.974-1.041 2.412-1.22 3.956-.55.359-.238 1.584-.606 2.13.065.977-.54 1.285-.304 2.432-1.809.421-3.211 1.257-4.262 2.437-1.688 2.433-1.821 6.022-1.521 9.736.902.927 1.914 1.74 2.741 2.739.392 1.429 2.565 1.085 3.042 2.435-.022 2.05.715 3.338.911 5.173.702.922.894 2.354 1.525 3.346.619 1.002.946 2.3 1.519 3.349.564 2.685 2.25 4.243 1.825 7.912-.571 1.046-1.014 2.224-2.127 2.736-.49 1.135-1.86 1.388-2.741 2.133-1.217.604-2.767.881-4.258 1.217-3.579 2.409-8.527 3.442-12.173 5.781-4.264 1.717-7.296 4.673-10.346 7.609-.525 1.606-1.8 2.461-2.131 4.26-.861 1.27-2.046 2.214-2.434 3.955-.197 1.327.396 3.441-.303 4.261-.437 1.45 1.268.754.912 2.13-.542 1.235-.303 3.276 0 4.563 1.353 1.287 2.696 2.579 5.781 2.129 1.141-.022.921 1.313 2.433.913 29.484-.22 56.854-.728 83.082-4.259 1.087-2.868 2.236-5.677 2.431-9.437-.106-8.784-5.129-13.483-11.262-16.736zM76.654 41.747c1.396-.283 1.469.761 2.737.606-.248 2.29-.593 4.479-3.352 4.261-.219-2.047.835-2.819.614-4.867zm-40.779 4.867c-.944.032-1.455-.372-2.131-.609-.052-.961.81-1.014.609-2.127 1.089-.18 1.471.351 2.128.608-.252.656-.787 1.036-.606 2.128zm57.821 59.343c-.992.632-3.312-.066-4.263.608-.888-.079-.932.688-1.824.607-.21.6-1.7-.074-1.827.608-1.178-.059-2.24-.008-3.042.305-8.094-.108-15.729.195-23.13 0-3.876-.083-7.212-.701-10.648-1.22-3.502-.456-7.537-.378-10.96-.911-5.685.499-12.133.242-17.952.608-.61.106-.955-.065-.914-.608h-1.52c-.474-.07-1.422-1.169-1.828-.305-.923-.376.333-1.046 0-1.824.004-.811-.114-1.739.306-2.132.019-1.604 1.012-2.233.914-3.955 3.051-2.933 6.22-5.747 9.431-8.518 2.931-1.434 5.873-2.854 9.436-3.654 1.244-.885 3.196-1.062 4.259-2.132 1.709-.422 2.384-1.872 3.959-2.43-.225-.83.599-.612.606-1.22.437-.067.107-.91.606-.911-.006-1.025.421-1.611.914-2.131.341-1.686 1.8-2.256 2.129-3.954-.444-4.023-1.069-7.861-1.521-11.868-.617-3.746-.604-8.123-1.523-11.565.154-4.11-.333-8.854.304-12.479 1.493-5.303 4.366-9.227 6.999-13.389 2.027-1.12 3.261-3.028 5.477-3.954.804-.318 1.867-.366 3.044-.307.545.04.643-.373 1.218-.304 3.156-.317 3.568 2.111 5.172 3.349.045 1.376 1.356 1.485 1.218 3.043 1.085.335.766 2.075 1.524 2.737.485 7.9 1.019 17.152.303 25.259-.434.579-.706 1.322-.913 2.132-.485.423-.776 1.044-.911 1.824-.854.968-1.55 2.105-2.129 3.349-.559.456-.756 1.267-1.525 1.52-.938.077-.931 1.096-1.52 1.523-.748 1.281-1.213 2.844-2.129 3.955.229 1.652-.482 2.358-.305 3.956.014 1.031-.71 1.318-1.218 1.825-.555.361-.24 1.586-.608 2.131v3.044c.377 1.551 1.404 2.449 2.131 3.65 1.259.668 2.636 1.221 3.344 2.434 1.711-.285 2.065.776 3.353.913.868.448 2.013.623 2.737 1.219 9.892 1.164 18.361 3.754 22.517 10.652.912 2.651.146 5.115.308 8.519zm27.694-54.168h-3.044c-.7-.314-.982-1.044-2.128-.913H99.174c-4.427.92-9.482.018-14.911.303-.979.95-2.306 1.551-3.044 2.739.588 3.456-1.212 9.816 1.525 11.868.73.188 1.386.439 2.435.306.728.184 2.203-.379 2.432.303 1.293.534 3.426.227 5.174.306.227.688 1.707.117 2.435.303h8.52c2.956-.8 6.048-1.459 9.435-1.827 2.684.15 4.931-.14 6.694-.911a4.299 4.299 0 0 1 1.823-2.131 98.597 98.597 0 0 0-.302-10.346zm-35.609 8.216c-.596-1.012.269-3.171.304-4.563.979.066 1.287-.539 2.433-.304-.752 1.779-2.085 2.983-2.737 4.867zm3.957-.912c-.791.83-.011 3.235-2.129 2.739-.396-2.074 2.025-3.82 1.824-6.696h1.522c-.059 1.663-1.018 2.429-1.217 3.956zM94 60.614c-1.15-.236-1.458.37-2.435.305.146-2.188.923-3.744 1.519-5.478h2.739c-.256 2.08-1.473 3.19-1.823 5.173zm3.042 0c-.096-.705.05-1.171.304-1.521.523.389 1.194.626 1.219 1.521h-1.523zm3.956-2.433c-1.283-.038-1.46-1.181-2.738-1.22-.04-.546.371-.643.305-1.217h3.041c.256 1.273-.592 1.438-.608 2.437zm4.564 1.52c-.443.468-1.555.266-2.434.304.16-1.16.638-2.002.914-3.044 1.209.314 2.077 1.544 1.52 2.74zm5.48-1.824c-.708.605-2.422-1.135-1.523-2.132 1.349-.133 1.656.779 1.523 2.132zm6.998.304c-1.394-.233-2.027-1.22-3.044-1.827.467-.648 2.102-.129 2.434-.912.595.523.657 1.574.61 2.739z"/>
</svg>
