<svg width="128" height="128" viewBox="0 0 128 128">
  <path
    d="M116.587 81.067a22.11 22.11 0 0 1-1.28-3.733c-.64-.213-.853-.747-1.92-.64-.747-.108-.533-1.067-1.6-.96-1.92-2.453-4.48-4.373-6.933-6.293-5.547-.213-10.453-1.28-16.64-.96-1.387-.213-1.6.747-2.56.959-.533-1.492-2.453-1.706-3.093-3.092 1.492-.32 2.026-1.493 3.092-2.24 1.28-2.347 3.413-3.947 4.693-6.293 2.24-1.493 3.413-4.053 5.653-5.653.427.427 1.493.427 1.92 0 1.6-1.173 2.667-2.987 4.053-4.373 1.6-.747 2.774-1.813 3.733-3.093.213-1.6-.32-2.347-.64-3.413 1.28-.96 2.773-1.813 3.733-3.093 1.28-1.067 2.88-1.707 3.733-3.093.213-.853.427-1.6.64-2.56-1.707-5.227-4.8-8.96-7.253-13.44-1.28-1.173-2.559-2.24-4.053-3.093h-3.732c-3.52 2.133-6.293 5.013-8.427 8.427-.107 1.173.533 1.493.64 2.453-1.6-.853-2.027-2.987-4.374-3.093-1.92.213-2.667 1.493-4.053 2.24-.64 1.28-1.6 2.24-1.92 3.733-1.6.533-2.24 2.027-3.093 3.093-1.6.427-2.026 2.133-3.412 2.773-.533 1.493-2.027 2.133-2.774 3.413-1.173.853-2.24 1.92-3.413 2.773-1.279 1.387-2.133 3.307-4.053 4.053-.64-.96-1.28-1.92-2.24-2.56-.533-1.173-1.92-1.387-2.24-2.773 1.067-4.587-.64-9.173-.96-13.44-1.813-1.92-3.093-4.16-5.013-5.973a11.638 11.638 0 0 0-2.453-3.093c-.427-1.387-1.92-1.813-1.92-3.733-1.707-.533-2.88-1.493-4.693-1.92-1.6-.64-3.733-.853-5.013-1.92-2.133.427-3.627.32-5.653 0-.107-.533-.427.107-.96 0-1.812.213-3.306.853-4.372 1.92.107 1.173-.533 1.493-.64 2.56 2.347 2.667 6.933 3.093 8.747 6.293 1.707 2.347 2.667 5.44 3.733 8.427-2.88 2.88-5.12 6.4-8.747 8.427-1.813.533-3.52 1.067-5.973.96a10.571 10.571 0 0 1-4.053-4.053c-1.493-1.173-2.667-2.773-3.413-4.693-.107-1.387.32-3.2-.32-4.053-1.707-.853-3.84.107-5.333-.32-2.453 5.12-.853 13.227.32 18.453.64.64 1.6.853 2.24 1.6 2.987 4.8 6.613 8.853 10.987 12.267 2.56 0 4.693.533 7.253.64 3.733-.427 7.573-.747 11.947-.64 3.627 3.413 7.253 6.827 10.347 10.667-2.027.427-2.667 2.133-4.373 2.774-2.347 2.986-5.653 5.226-8.107 8.106-1.387 0-1.173 1.6-2.56 1.6-.427.96-1.493 1.28-1.92 2.241-1.067 1.279-3.947 2.24-2.773 4.692 1.28 1.067 1.92-.853 3.093-.959.747-.854 1.6-1.708 2.773-2.241.747-.853 1.6-1.707 2.773-2.24.64-.96 1.6-1.708 2.773-2.241 1.6-1.6 3.307-3.2 5.013-4.692 1.6-1.708 3.947-2.774 5.333-4.693.747.427 1.173 1.067 1.6 1.92.64.533 1.493.854 1.6 1.921-.427-.427-2.027-.427-2.453 0-3.413 2.453-6.293 5.333-9.387 8.107-1.707 1.28-3.093 2.773-4.693 4.053-.64.853-1.28 1.6-2.24 2.241-.64.745-.853 2.025-2.24 2.238-1.6-.64-2.667.213-4.693 0 .32-1.6.427-2.88-.64-3.733-2.133-.533-4.693-.533-6.613-1.28 2.987-4.267 6.827-7.573 10.667-10.987 2.24-1.387 3.947-3.307 5.973-5.013.64-1.173 1.813-1.707 2.453-2.773 1.28-.641 2.667-1.067 2.56-3.093 0-.427-.427-.427-.32-.96-1.067-.96-3.733-.853-4.053.64-1.067.32-1.813 1.173-2.56 1.92-1.173 1.174-2.667 3.308-3.733 4.053-.32.213-.64.108-.96.321-.853.746-1.28 1.92-2.56 2.24-3.947 4.16-8 8.107-11.307 12.8-.96 9.067-5.12 14.933-6.613 23.467-1.173 2.027-3.84 3.947-1.92 6.933.213.107.64 0 .64.32 2.56.427 2.88-1.387 4.373-1.92 7.787-2.24 14.827-5.227 21.653-8.427 1.173-.107 2.133-.426 3.093-.64.533-.747 1.067-1.493.96-2.773 3.52-2.88 6.187-6.721 10.027-9.388 1.493-1.707 3.84-2.667 5.333-4.373 1.707-1.6 4.373-2.133 4.053-5.653-.427-.32-.96-.533-1.28-.96-3.093.108-3.947 2.56-5.973 3.733-.853.853-1.92 1.493-2.773 2.241-1.067.533-1.493 1.92-2.773 2.24a37.105 37.105 0 0 1-5.013 5.013c-.64.959-1.6 1.707-2.24 2.773-1.387.32-1.067 2.241-2.773 2.241-1.173-1.067-.427-4.16-.64-6.293 6.08-5.333 11.733-11.093 18.133-16 .213-.427.533-.747.96-.96.213-.426-.32-1.6.32-1.6 2.453 2.988 5.12 5.76 7.253 9.067.213 1.491 1.067 2.238 1.28 3.624.213 2.773.427 4.373.32 7.787.213 2.241 1.067 3.947 1.28 6.293 2.773 2.88 5.44 6.08 8.747 8.426-.108 1.067 1.067 1.067 1.28 1.921.533.64.853 1.492 1.92 1.6 4.373.533 7.253 2.559 11.947 2.773 1.173 0 1.387-.853 2.24-1.28.96-.213 1.387-.959 1.92-1.6-.107-1.28-.533-2.133-.64-3.413-1.28-1.707-2.987-2.987-5.013-4.053-.533-1.067-2.027-1.067-2.56-2.24-1.279-.32-2.346-.747-2.773-1.92.107-2.027 0-3.733-.32-5.333 1.387-1.28 2.88-2.56 4.692-3.413 1.813-1.813 3.2-4.053 5.654-5.013 2.346.32 3.84.107 5.973.96 2.347 2.987 1.813 8.853 4.053 11.946 2.987.533 6.4.213 8.427-1.6 1.92-5.226.213-13.226.107-19.306zM32.96 105.493c-1.173 1.067-3.307 1.279-4.693 2.24-1.173 0-1.28-1.28-1.92-1.92-.64-.533-1.493-.853-1.6-1.92-.853-.427-1.387-1.388-2.56-1.6 1.067-4.48 2.56-8.533 3.413-13.121 1.6.533 2.453 1.708 4.693 1.6 0 1.28-.107 2.56.32 3.413.64 1.92 3.947 1.067 6.293 1.28.213 3.52-.96 5.227.64 7.573-1.067 1.174-2.88 1.708-4.587 2.454zm67.947-71.466c.213-1.707-.212-2.773-1.279-3.093 0-.32.533-.213.959-.32.96-.533 1.387-1.6 2.56-1.92-.108-.533.32-.533.32-.96.64.64 1.813.213 2.453 0 .96 1.493 1.92 3.093 2.56 5.013-2.133 1.493-4.053 3.307-5.974 5.013-1.279-.747-1.92-2.027-3.092-2.773.213-.533 1.067-.64 1.493-.96zm-15.68-6.294h.96c2.241 3.093 5.653 5.013 7.787 8.107 1.28.747 2.133 1.813 3.413 2.56 1.28 1.92 3.2 3.093 4.053 5.333-1.812.747-2.453 2.773-4.373 3.413-4.48-5.013-9.6-9.387-14.613-14.08.533-2.133 1.707-3.733 2.773-5.333zm-15.894 17.6c2.56-2.133 5.12-4.373 7.253-6.933 1.067-.427 1.174-1.707 2.56-1.92a2.09 2.09 0 0 1 .959-.96c4.267 4.373 8.213 9.067 12.8 13.12-.107 1.067-.959 1.387-1.6 1.92-.107 1.067-.959 1.387-1.6 1.92-.853 1.493-2.026 2.56-3.092 3.733-1.708 2.88-4.16 5.013-5.653 8.107-1.067-.32-1.174-1.813-2.241-2.24-.426-1.067-1.707-1.173-1.92-2.56 1.493-.427 2.027-1.92 3.413-2.453.959-1.28 1.813-2.56 3.092-3.413.747-1.493 2.56-1.813 3.093-3.413 0-.747-.533-.96-.64-1.6-2.454-.213-3.841 1.387-5.013 2.453-1.28 1.173-2.241 2.773-3.733 3.733-.533 1.173-1.92 1.387-2.241 2.773-1.81-.427-2.023-2.453-3.41-3.093 2.559-2.24 5.12-4.48 7.787-6.613.747-1.173 1.492-2.24 2.559-3.093.213-1.493 2.133-1.387 1.6-3.733-.32-.427-.853-.64-1.279-.96-.96-.107-2.773.64-2.773 1.6 0 .64-1.707 1.813-1.92 2.773-1.28 1.28-2.987 2.24-4.053 3.733-1.387 1.173-2.667 2.347-3.413 4.053-1.493-1.387-3.307-2.56-4.053-4.693 1.067-.64 2.24-1.493 3.52-2.24zm-31.68-28.586c-.213-.213.213-.427.32-.32.107.213-.213.427-.32.32zm21.974 48.64c-1.067-.213-.427-1.173-.32-1.92.64.107.107 1.387.32 1.92.32 0 .107.427 0 0zm53.546 31.04c-.746.32-1.067 1.279-2.24 1.279-.853-2.879-2.667-4.907-3.093-8.107-.107-.427-.533-.533-.64-.96-.533-.746-1.28-1.173-2.56-1.279.108-.747 0-1.174-.32-1.6-2.987-.64-5.76-1.92-9.067-1.28-1.067.853-2.24 1.707-2.773 3.092-.427-.106-.64-.426-.64-.959.107-.64-.427-.64-.64-.96-1.387.213-.853 2.56-.96 4.053-.746.533-1.6.96-2.24 1.6-.747-.747-.213-2.88-1.6-3.093-1.707.32.533 4.48-1.6 4.373 0-1.387 0-2.667-.96-3.092-1.067 0-.959 1.173-.959 2.24v3.093c-.214.959.532.959.319 1.919.107 1.067-.107 1.707-.32 2.453 0 .747.533.96.32 1.92.96 2.56 2.667 4.48 4.053 6.613 1.174.533 1.813 1.707 3.093 2.24.32.533 1.173.533 1.28 1.28.746.213 1.492.427 1.6 1.28h-3.093c-.32-1.28-.853-2.24-1.92-2.773-1.6.212-.533 2.879-.96 3.412-2.773-.426-2.133-4.373-3.733-5.973-1.28.533-.747 1.707-.64 3.093-1.6-.321-1.28-2.454-2.241-3.413-.212-1.813-.959-3.093-1.6-4.374-1.067.108-.533 1.813-.64 2.774-1.067-.32-.64-2.027-1.6-2.56-.533-3.733-1.28-7.359-1.92-10.987v-2.453c.213-.96-.533-.96-.32-1.92-.212-1.172.641-1.172.641-2.239-.213-4.267-1.493-7.467-1.6-11.947-.533-.746-.213-2.24-1.28-2.559-1.493-.108-.96 1.919-1.6 2.772v5.013c-1.067-.427-1.387-1.813-2.24-2.56-.108-1.6-.533-2.773-.96-4.053s-.427-3.093-1.6-3.733c-1.493 0-1.28 1.92-1.28 3.413-2.027-2.133-2.027-6.293-3.093-9.387-.213-1.92.107-4.373-1.28-5.013-2.027.427-1.28 3.52-1.6 5.653-.853-1.173-1.28-2.773-1.6-4.373-.853-1.173-.64-3.52-1.6-4.693-1.493-.32-.64 1.707-1.28 2.24-.213 2.027.32 3.2.32 5.013-1.6-.107-1.493-2.453-1.92-2.773-.107-.107 0-.533 0-.64-.32-.96-.64-2.027-.96-2.773v-1.92c-.32-.427-.427-1.28-.96-1.6-2.773-.64-1.92 3.52-1.6 5.013-1.493 0-1.067-1.813-1.6-2.773-.747-.747-.747-2.24-2.453-1.92-1.28.427-.427 2.453.32 2.773-.213.96-.64-.32-1.28 0h-1.387c-.533-.853-1.92-.747-2.773-1.28-.533-1.92-.853-3.947-1.92-5.333-2.56-.107-1.173 3.84-1.6 5.973h-3.093c-.853-1.707-.64-4.587-2.24-5.653-1.387-.213-.747 1.813-1.28 2.56-.107 1.387.747 2.987.32 3.733-1.387.32-1.387-.64-1.92-1.28-.213-.747-.853-1.28-.96-2.24-.96-1.28-1.173-3.2-2.24-4.373-1.813.64-.747 2.453-.96 4.373-2.453-2.347-3.413-6.187-4.053-10.347-.533 0-.96.107-1.28.32.32 1.493-.96 2.987 0 4.053-.853.853-1.387-1.173-2.24-1.28 0-.32.107-.853-.32-.96.107-2.987-.533-5.333-.96-7.787 1.813 1.707 3.2 3.627 4.693 5.653 1.6 1.067 2.773 2.667 5.333 2.773-.213 1.067.32 1.28.64 1.92.853.213.853-.427 1.6-.32-.107.747.533.96.96 1.28 1.067.107 1.493-.32 1.6-1.28.64.64.747 1.92 2.24 1.92 2.453-.747.32-3.413.64-5.653 1.28-.32.213 1.707.96 1.92.213.64.747 1.067 1.92.96 1.067-.107.533-1.813.64-2.773-.107-1.067-.427-2.027-.32-3.413-.853-.213.533-.533.32-.96.64 0 .427-.853 1.28-.64-.107 1.707.107 3.307 1.28 3.733 3.52-.427-.747-5.013 1.28-6.613.96-.32.427 1.067.96 1.28.107.64.853.64 1.28.96 1.813 0 1.173-2.24.96-3.413-.107-1.28.96-1.387.64-2.773-.32-1.707-.96-3.2-1.92-4.373-.107-1.28 1.493-.96 1.28-2.56-.32-3.2-3.2-3.733-5.013-5.333.32-.96.747.427 1.6 0 .213.427.96.427 1.6.64 1.493.213 1.387-1.067 2.773-.96.213.427.96.427 1.6.64 1.067 3.093 3.093 5.227 4.693 7.787 1.173 1.173 1.92 2.667 3.733 3.093 0 4.16.427 8 .64 11.947.853 1.707 1.92 3.307 3.413 4.373.107 1.067 1.173 1.387 1.6 2.24.64.64.96 1.707 1.92 2.24.853 1.813 2.133 3.093 3.093 4.693.853 1.813 2.347 2.88 3.413 4.373 2.773 2.453 5.44 5.013 8.107 7.467 1.387 1.173 2.56 2.667 4.053 3.733 1.174 1.493 2.454 2.773 4.054 3.733 3.84 0 6.72-.96 10.667-.96 2.133.747 5.546 1.28 7.787.96 1.492.533 2.133 1.813 3.413 2.453.746 1.28 2.026 1.92 2.773 3.093 1.067 0 1.173.853 2.453.64 0 .853.213 1.493.641 1.92 0 2.56.212 4.8.64 6.933.211 3.307-.109 5.76.105 8.32z"/>
</svg>
