<svg width="128" height="128" viewBox="0 0 128 128">
  <path
    d="M45.5 101.5c.8 1.4 1.8 3.2 2 3.9.5.5.6.8.8 1.1.3.3.1.3.5.3.3 0 .8 0 .8-.3.1-1.6.1-1.6-2.3-6-1.7-3-4.1-8.2-3.8-7.3.2.7-2.7-3.3-3.4-3.1-.7.2 2.6 5.9 3.1 6.9.6 1 1.2 2.4 2.3 4.5zm63.4-43.4c-1.7-13.7-9.4-29-22.5-35.1-11.9-5.6-25-6.2-36.9-1.8h-.3c-.2 0-.3.1-.4.2-.8.3-1.6.7-2.5 1-.5-.4-1.3-.4-1.7.2-.2.3-.5.5-.8.8l-.7.7c-1.6.9-3.2 1.8-4.7 2.9-14.8 10.1-22 26.6-19.6 44.1 1.1 8 4 16.9 9.3 23.1 4.5 5.3 10.2 11.5 17 13.8 9 3 18.6 1.6 27.8.3 6.7-.9 12-5.3 14.2-11.6 2.2-6.3-.1-12.7-3.7-18-4.1-6.1-13.2-7.6-19.2-11.5-2.9-1.9-4.2-4.4-3.4-7 .6-.1 1.1-.7 1.1-1.3 0-.2-.1-.4-.2-.6.2-.4.5-.8.8-1.1 2.8-3.2 8.3-3.3 12.2-3.1 1.9.1 3.7.4 5.4 1.1.2.4.6.6 1.1.6h.1c1.2.6 2.3 1.2 3.6 1.4 2.6.4 3.1-2.2 3.1-4.2-.2-5.3-7.6-7.2-11.6-8.2-7.6-1.9-15.2-1.9-22.3 1.6-3.8 1.8-6.9 4.9-8.7 8.5-.3.2-.5.4-.6.8-.1.5-.2 1-.3 1.6-.6 2-.7 4.2-.3 6.4 1.6 8.2 9.1 11.9 16 15 .9.4 1.6.8 2.3 1.3.7.9 1.5 1.9 2.2 2.7l1 1c.2.3.4.5.6.8.1.1.2.2.2.3.7 1.5 1.2 3.1 1.4 5 0 .3.1.6.1.9-.4.2-.7.5-.9 1.1-.1.3-.1.6 0 .9.2.4.3.8.5 1.2 0 0-.1 0-.1.1-.4.4-.6 1-.3 1.5-.1.1-.1.3-.2.4-.1.3-.3.5-.5.8-.4 0-.8.1-1.1.4l-.2.2c-.2.1-.5.3-.6.5-1.5.5-3.2.5-4.5.4-9.9-.2-17.4-5.8-22.5-13.9-2.2-3.4-3.1-7.1-4-11-1.3-5.8-1.8-11.4.3-17 1.3-3.7 2.4-7.3 4.9-10.3 3.1-3.6 7.4-7 11.3-9.7.2.2.5.3.8.3.1 0 .3 0 .4-.1.7-.2 1.1-.9.9-1.6.5-.3 1.1-.6 1.6-.9.3.4.7.5 1 0 .2-.3.4-.5.6-.7.1 0 .3-.1.4-.2l.1-.1c6.6-2.7 14.3-3.3 21.1-1.8.2.1.4.1.7.2.4.5 1.3.8 1.8.5 3.8 1.3 6.8 3.6 9.2 6.4.1.3.4.7.7.8 3.4 4.3 5.6 9.8 7.3 15.2 2.8 8.9 3.1 19.2-.5 28-1.3 3.1-2.5 6.3-2.9 9.6 0 .3-.1.7-.1 1.1-.1.2-.1.4 0 .7 0 .7.1 1.5.3 2.3 0 .4-.1.9-.1 1.3 0 .7.4 1.1.8 1.2.3.6.6 1.1.9 1.5.1.2.4.4.8.5 5.7 1.2 9.5-10.4 10.9-14 3.5-9 3.2-19.4 2.1-28.4zM84.7 51c.5.7.7 1.6.7 2.5 0 .8-.2 1.2-.5 1.4.2-.3.3-.6.2-.9-.1-.9-.4-1.9-.6-2.7-.1-.2-.2-.5-.2-.8.1.2.3.3.4.5zm-3.8-2.9l1.2.6c-.8.6-.7 1.5-.4 2.5-.1-.3-.2-.5-.3-.8-.3-.8-.6-1.5-.8-2.3V48c.1.1.2.1.3.1zm-4.1-1.4c.7.2 1.4.4 2 .6-.5.3-.8.9-.7 1.4.1.3.2.7.3 1-.3.4-.4.9-.2 1.4.2.5.5 1 .7 1.5 0 0 0 .1.1.1-.3-.1-.7-.2-1-.2v-.1c-.2-1-.5-2-1-3-.2-.9-.3-1.8-.2-2.6v-.1zm-4.7 5.4c.2-.3.3-.6.2-.9 0-.1-.1-.2-.1-.3.1.2.2.3.4.5s.3.5.5.7h-1zm.5-6.3c.4.1.7.1 1.1.2-.8.5-1.3 1.2-1.5 2.1v.1c-.2.2-.4.4-.5.6-.2-.4-.4-.9-.6-1.3-.4-.7-.7-1.4-.9-2.1v-.1c.8.2 1.6.3 2.4.5zM70 52.2c-.4 0-.7.1-1.1.1 0-.2 0-.5-.1-.7-.2-.5-.5-.9-.8-1.4.7.8 1.3 1.4 2 2zm-2.2-7c-.2.3-.2.7-.1 1 0 .1 0 .1.1.2-.4-.2-.8-.2-1.2.1-.2-.1-.5-.2-.8-.2-.3 0-.6.1-.8.3l-.4-.4c-.3-.3-.6-.4-1-.4-.1-.2-.2-.4-.3-.5 1.4-.1 3-.1 4.5-.1zm-3.8 7c.1 0 .1.1 0 0 .3 0 .5 0 .7-.1.4-.2.6-.5.7-.9.1.1.2.3.3.4.2.4.5.9.8 1.3-.8.2-1.7.5-2.5.8-.3.1-.6.3-.9.4-.1-.1-.1-.3-.2-.4.7-.3 1.1-.8 1.1-1.5zm-1.8 16.3c-.1.1-.1.3-.2.5v.5c-.1-.1-.4-.3-.5-.3-.4-.2-.2-.2-.6-.6 0 0-.3-.4-.3-.5-1.3-2.1-3.1-4-4.6-5.7h.1c.3 0 .5-.1.7-.2.3.4.6.7.9 1 .1.1.2.3.4.3.3 1.1 1.3 2 2.2 2.9.8.7 1.1 1.5 1.9 2.1zM55 48.2c1.9-1.2 4-2 6.2-2.5-.1.1-.1.2-.1.3-.2 1 .2 2 .6 3-.2.3-.3.6-.2.9l-.1-.1c-1-.9-2-1.8-3.1-2.5-.5-.3-1.1-.2-1.5.1-.4.4-.6.9-.4 1.5.1.2.2.5.3.7-.8-.4-1.6-.7-2.4-.9.1-.2.4-.4.7-.5zm-3.1 2.2c.2.4.6.6 1 .7.9.1 2 .6 3.1 1.2l.3.3c.5.4 1.1.9 1.7 1.3.4.4.9.7 1.4 1.1.2.3.4.5.6.7.1.2.3.3.5.4-.3.3-.6.6-.8 1-.7-.6-1.6-1.5-2.3-2.2-1.9-2-3.8-4-6-3.9h-.2c.2-.1.4-.4.7-.6zm-1.8 1.7v.3c0 .3.1.5.2.7-.4 0-.8.1-1.2.2-.1 0-.1 0-.1.1.3-.4.7-.8 1.1-1.3zm.2 7c-1-.7-1.7-1.3-1.9-.8-.1.3.4 1.8.4 1.8s.7 1.3.7 1.7c-.2 0-1.6-1-1.6-1-.2.1-.2.9-.2 1.4.6.9 2.5 4.2 2.1 4.1l-2.6-2.4c0-.1-.1-.3-.1-.4-.3-.4-.5-2.5-.5-2.5-.3-3 .4-3.3.9-4.8 1.2.8 4.1 2.6 5.2 3.5 2 1.6 1.7 2.4-2.4-.6zM60 72.5c-.5-.5-6-3.5-7-4.4l1-.9c.3.2 8.2 5.7 8.4 5.9.2.3-2.6-.9-2.4-.6zm5.9-.6c0 .1-.1.2-.1.2-.4-.3-.8-.6-1.2-.8.5.2.9.4 1.3.6zm.7 6.9c-.3-.1-.8-1-1-.9-.3-.3-.7-.5-1-.8.1 0-.3-.7-.2-.8.4-.5-.1-1.1-.5-1.5 1.1.8 2.3 2 3.4 2.8-.2.3.4.7.5 1-.6-.2-.8.4-1.2.2zm10.1 23.1c-1-1.2-5.3-7.3-6.1-8.6.1-.4.2-.8.2-1.2 1.2 1.8 5.6 8.4 6.7 10.3-.2-.2-.5-.3-.8-.5zm1.6-6.4c-.2-.1-1.2-1.2-1.4-1.2-.3-.1-.6-.3-.6-.3-1-1.8-2.2-3.5-3.3-5.2.4-.1-2.8-4.8-2.7-5.2.3.4 4.1 3.4 4.4 3.8 1 1.4 2.3 3 3.3 4.3.2.4 2 2.7 2.1 3-.3-.1-1.4.6-1.8.8zm5.6-5.1c-.2-.4-3.1-3.8-3.3-4.1L77 82.4s3.9 3.5 4 3.5c.1.3 2.5 1.9 2.6 2.2 0 0 .3 2.2.3 2.3zm-3.6-11.9c2.3 2.5 3.8 5.6 4.5 8.8-1.8-4.3-4.9-8.2-9-11.4-.6-.6-1.3-1.2-1.9-1.8 2.3 1.1 4.6 2.4 6.4 4.4zm-4.3 0l-6.5-2.4-.1-2.1c0-.1 6.6 4.5 6.6 4.5zm-7 18.2c.3.4 3.4 5.4 1.1 4.2 0 0-1.6-2.9-1.6-3.2l-.2-.2c.1-.1.6-.8.7-.8zm-4.2 2.5c.8 2.9 2.6 5.4 4.6 7.8-.9.1-1.9.3-2.8.4v-.2c.2-.6 0-1.3-.6-1.6-.2-.1-.3-.1-.5-.1-.8-1.9-1.8-3.9-2.9-5.7l-.1-.1c.8-.2 1.5-.3 2.3-.5zm-6.7.2c.3 0 .6.1.9.1l.8.8.7 1.5c1.1 2.2 0 5.1 0 5.3 0-.2-2.3-6.2-2.3-6.4-.1-.3-.3-1.3-.3-1.3h.2zM32.4 36c.2.3 2.7 6.1 2.9 6.4 0 .1-3.6-2.2-4-2.6-.3-.4-1.1-1.3-1.1-1.3.2-.9 2.2-2.5 2.2-2.5zm-1 9c.6.9 1.9 2.7 1.7 2.9l-.1.3c-.4-.7-1.5-1.3-1.9-2.1-.2-.3-2.2-3-2.4-3.3-.1.1 2.6 2.1 2.7 2.2zm-1 12.5c-.1-.4-4.2-5.2-3.8-5.9.4-.3 3.5 3.9 3.8 3.9.1 0 1 .2.6 1.3-.4 1.5-.6 3.1-.8 4.6-.4-.7-.7-1.4-1.1-2.1 0-.1-.1-.1-.1-.2h.2c.2 0 .4 0 .6-.1.5-.3.8-.9.6-1.5zm-4.3-13.6c.1.4 1.1 2 1.3 2.3-.2 0-1.4-1.2-1.6-1.1-.5.3-.2 1.9-.1 2.5-.1-.1-.7-1.3-.8-1.3.4-.9.8-1.7 1.2-2.4zm.6 16.6c1.3 2.5 2.7 5.2 3.1 7.1h-.3c-.3-.1-.6-.1-.9 0-.2.1-.3.2-.4.3-.6-1.2-1.2-2.3-1.5-3.3-.1-.3-.4-.9-.6-1.6-2.3-5.3-3.3-8.5-3.2-9.5.2-.2-.1-1.9-.1-2.2.7 2.6 2.5 6.6 3.9 9.2zm-3.1 3.6c.3.6.5 1.1.6 1.5.7 1.7 1.7 3.7 2.8 5.7.8 1.5 1.7 3.1 2.4 4.7-.3-.4-.5-.8-.8-1.3-1.1-1.7-2-3.2-2.4-4-.2-.4-.4-.8-.6-1.3-1.4-2.9-3-6.1-3.5-9.3.4 1.2.9 2.5 1.5 4zM28.1 90c.2-.4.2-.8 0-1.2-.4-.8-2.3-4.6-2.6-5.4.2.4 1.8 2.2 2 2.6.3.6 1.4 2.4 1.8 3.1.7 1.4.9 3.3 1.7 4.8-1.1-1.2-2.1-2.5-2.9-3.9zM55 98.9c.4.1.8.2 1.3.2-.3.2.5 3.7.4 4.2-.2-.3-1.4-3.7-1.6-4-.1-.2-.2-.3-.3-.5.1.1.1.1.2.1zm-3.3-.8c-.3.1-.5.3-.7.6-.4-.5-.8-.9-1.2-1.3.6.2 1.2.4 1.9.7zM35 83.8c3.3 5.7 8 10.5 14 13.2-.3 0-.6 0-.8.2-.5.3-.7.9-.6 1.5.4 1.4 1.9 4.5 2.3 5.4.8 1.8 1.4 2.8 1.7 3.5-2.2-.3-5.1-.8-5.1-1v-1.9c0-.1 0-.3-.1-.4-.4-1-.9-2.1-1.6-3.1-.1-.2-.3-.3-.5-.4-.1-.2-.2-.3-.3-.5-.5-.8-.9-1.5-1.4-2.3-.1-.1-.1-.3-.2-.4-.1-.2-.2-.3-.3-.4-2.5-4.1-5-8.4-7.2-12.7.1-.3.1-.5.1-.7zm2.5 12.6c-.5-.8-5.8-10.1-6.3-10.8-2-2.9-4-5.8-5.6-8.9-.5-1.3-.9-2.6-1.3-3.9.5.9 1.2 2 2.1 3.3 1.8 2.8 10.2 17.1 11.1 20.3zm-5.8-42.1zm.5-1.5c0-.1-2.5-5.1-2.6-5.2.1 0 2.8 2.1 2.8 2.1.2-.1.9.6 1 .5-.1.2-1.1 2.3-1.2 2.6zm3.2-6.1c-.4-.5-1.5-.9-2.4-2.3-.1-.1-1.8-2-1.7-2.9 0 0 .6.5 1.2 1.1 0 .1.3.3.6.6-.2-.2-.4-.3-.5-.4.2.2.4.4.6.5.6.5 1.4 1.1 1.5 1.2.2.2.8.7 1 1 .2.2 0 .4.3.5-.2.1-.4.4-.6.7zm3.1-3.7c-1-2-2.2-3.8-3.6-5.6.2-.2.3-.4.4-.7 0-.1 0-.2.1-.3 1.1 1.7 2 3.4 2.7 5.3.2.4.7.6 1.2.5-.3.3-.6.5-.8.8zm.8-4.9c-.6-1.2-1.3-2.3-2-3.4.2-.2.4-.3.7-.5.2-.1.4-.3.6-.4.4 1.4.8 2.9.7 4.3zm1.3 2.9v-.1c.1-.1.3-.2.4-.5.5-1.4.5-2.9.1-4.6.2.5.4 1.1.5 1.6.3 1.1 2.7 1.5 2.3 0-.6-2.1-1.5-4.1-2.5-6v-1.9c1.1 1.6 1.2 5 3.1 5.6.5.1.8.9.8 1.7-1.4 1.3-3.3 3-4.7 4.2zm.8-11.4c.1-.1 3.1-1.9 3.1-2 1.5 1.8 2.8 3.9 3.2 6.2-.8-2.1-5.2-2.2-6.3-4.2zm10.3 3.2c-.4-.8-.8-1.5-1.2-2.3l-1.2-2.1c-.1-.2-.3-.8-.4-1.3-.2-.8-.4-1.4-.7-1.9l.6-.6c.5 1.2 1.4 2.8 2 4.1.4.7.6 1.6.9 2.1.3.4.2.2.6.8.1.2 0 .5.2.7-.2.2-.5.4-.8.5zm3.5-8.6c-.1-.3-1.2-2.1-1.4-2.3 0 0 1.2-.5 1.3-.5.2.3 1.4 5.5 1.6 5.8-.1 0-1.5-2.9-1.5-3zm4.6 3.7c-.8-1.7-1.4-3.4-2.2-5h.1c1.3 1.4 1.9 3.2 2.2 5.1 0-.2-.1-.2-.1-.1zm2.7-.6c-.4-2.6-1.6-5-3.6-6.6.4-.1.8-.1 1.1-.2 1.9 1.7 2.6 4.3 3.1 6.7-.1.1-.4.1-.6.1zm3.6-1c-.3.3-.2.6-.1.8h-.6c-.6-2.4-1.4-4.9-3.1-6.8 1-.1 2.1-.2 3.1-.2-.3.2-.4.5-.2.9 1.1 1.5 2.3 3.5.9 5.3zm6.6-4.6c-.4 1.4-.2 3.6-1 4.9l-.6.4c0-2-.1-4-.3-5.9 0-.4-2.6-.5-2.6-.1-.1-.2-.2-.4-.4-.6l-.3-.3c2.4 0 4.8.3 7.1.7V21.6c-.5-.5-1.6-.8-1.9.1zm6.9.7c-.2.3-.2.6 0 .8v.9c-.6-.2-1.1-.1-1.1.5-.6-.1-1.2 0-1.3.6-.2.6-.3 1.2-.6 1.7-.2 0-.4 0-.7-.1 1-1.7 1.2-3.6 1.1-5.5v-.1c1 .2 2 .5 3 .9-.2.1-.3.2-.4.3zm10 7.3c-.3.4-2.6 3.9-3.1 3.4-.6-.3 2.5-5.4 2.8-5.9 0 .1 1.7 1 .3 2.5zm2 4.3c0-.1 1.8-3.5 1.8-3.6.1.1.9 1.1 1 1.3-.1.8-2.5 2.8-2.8 2.3zm3.3 5.4c.8-.6 1.6-1.3 2.5-1.8 1.3-.7-.7-2.3-1.7-1.7-.9.5-1.8 1.2-2.6 1.9-.2-.3-.5-.6-.7-.9.3-.3.5-.6.7-.9.9-.7 1.7-1.6 2.2-2.6.1-.1.1-.3.1-.4 1.1 1.5 2.2 3 3.1 4.5-.1 0-.1.1-.2.1-.7.8-1.5 1.5-2.4 2-.2-.1-.6-.2-1-.2zM97 43c-.2-.3-.4-.6-.6-.8.8-.4 1.6-.8 2.3-1.3 0 .1.1.3.2.4-.6.5-1.3 1.1-1.9 1.7zm9.7 19.3h-.2c-.1-.2-.2-.5-.3-.7-.3-.3-1.1-.9-1.5-.4-.3.4-.7.7-1.2 1 0-.2 0-.5-.1-.7.1-.1.3-.1.4-.2.3-.1.6-.2 1-.3h.2c.2 0 .3 0 .1-.1.5.1 1 0 1.4-.2.1.4.1 1 .2 1.6zm-.4-3.4s0 .1 0 0c0 .1 0 .1 0 0 0 .1 0 0 0 0zm-1.3-6.6c.4 1.7.8 3.4 1.1 5.1-.4-.2-.9-.2-1.3 0s-1.2.7-1.8.7c0-.3-.1-.7-.1-1 .4-.4.9-.7 1.4-.6.5 0 1.3-.1 1.4-.7.1-.6-.6-1.1-1.2-1.1-.7-.1-1.4 0-2.1.2-.1-.3-.1-.6-.2-1 .9-.5 1.7-1.1 2.6-1.6.2.1.2.1.2 0zm-1.7-5.4c.5 1.2.9 2.5 1.3 3.7-.4-.3-.8-.4-1.2-.2-.6.4-1.2.7-1.8 1.1 0-.1-.1-.2-.1-.2.5-.4.9-.9 1.3-1.3.5-.5.4-1.2.2-1.7-.1-.1-.2-.3-.4-.5.1-.3.4-.6.7-.9zm-.5-1.4c-.4-.3-.8-.4-1.2-.4.1-.3.3-.5.4-.8.1-.3.1-.5 0-.8.2.8.5 1.4.8 2zm-1.4-3.1c.2.4.4.7.5 1.1-.2-.3-.5-.6-.8-.8l.3-.3zm-1.4-2.6c0 .1.1.1.1.2h-.3c.1-.1.1-.2.2-.2zm-2.3 58.3c-.2.1-.3.2-.4.3-.2-.3-.8-1.6-.9-1.9-1.6-1.9 2.2 1.8 1.3 1.6zm2.3-3c-.4-.7-1-1.3-1.6-2 .7.4 1.2.9 1.8 1.4l.1.1c-.1.1-.2.3-.3.5zm1.4-2.5c0 .1-.1.2-.1.3-1.1-.9-2.2-1.7-3.5-2.2.1-.2.3-.5.4-.7 1 .5 2 .9 3 1.2.7.2 1.3-.3 1.1-1l-.3-.9c-.3-1-2.1-1.5-2.3-.6l-.6-.3c.1-.3.3-.5.4-.8.3 0 .5-.1.7-.2.9-.6 1.8-.8 2.1-.8.3.6 1 .8 1.6.6-.7 1.8-1.6 3.6-2.5 5.4zm3.2-7.3c-.3-.5-.6-.8-1.1-1.1.4.1.9.2 1.3.3 0 .3-.1.6-.2.8zm.8-2.7c-1.4-.1-2.8-.6-4.2-.8.1-.8.2-1.6.2-2.4.2 0 .5-.1.7-.2 1.1-.7 2.7-1.3 4.1-1.2-.1 1.5-.4 3.1-.8 4.6zm1.2-7.2c-.6 0-1.3 0-1.9.1-.6-.1-1.2-.2-1.7-.2.2-.8.3-1.6.4-2.5.3 0 .6.1.9.1-.2.6.4 1.3 1.4 1.2.4 0 .8-.1 1.1-.1-.1.5-.1.9-.2 1.4zm.3-3.7c-.3-.1-.6-.2-.9-.2.3-.1.6-.2.9-.4v.6zm-.4-2.7c-.2 0-2.1-.6-2.2-.6l-.8-1.8c.2.1 3.2-.5 3.4-.6.1-.1-.1.7 0 2.3v.8c-.1 0-.3-.1-.4-.1z"/>
</svg>
