<svg viewBox="0 0 128 128">
  <path
    d="M119.35 31.95c-.931-3.259-3.398-4.985-4.49-8.081-2.778-1.514-5.034-3.549-7.183-5.688-2.644-.55-4.605-1.784-7.486-2.096-.125-.672-1.589-.009-1.794-.598-1.04.24-1.153-.447-2.097-.299-1.17-.527-2.515-.875-3.892-1.198-9.038-.34-17.916-.841-27.535-.6-2.399.495-5.247.541-7.78.897-.907.69-2.319.877-3.294 1.498-1.139.46-1.988 1.205-3.293 1.495-1.277 1.42-3.15 2.241-4.189 3.891-1.066.233-1.132 1.466-2.096 1.795a8.265 8.265 0 0 1-2.094 2.097c-2.383 3.706-5.377 6.796-6.885 11.375-1.406 2.986-1.217 7.562-1.198 11.973.384 1.711.805 3.383 1.198 5.089 1.104 2.186 2.733 3.85 3.588 6.286 3.619 2.667 6.264 6.31 10.18 8.68 1.053.344 2.133.658 2.692 1.498 2.328-.133 3.435.958 5.39 1.197 2.809.283 5.476.709 8.68.6 2.292-.098 4.428-.579 6.584 0 .527 1.869 1.499 3.29 2.096 5.088 1.26 1.137 1.9 2.888 3.292 3.891.842 1.554 2.145 2.644 3.295 3.89.913 1.481 2.313 2.477 3.59 3.591.482 1.574 2.466 3.041 4.491 2.096.931-.067.504-1.49.598-2.395-.204-1.203.288-1.71.3-2.693-.108-2.201.584-3.606.6-5.688.448-1.646.747-3.445.899-5.388.328-.669.496-1.499.896-2.097.621-.478.369-1.825.902-2.392 1.996-.196 3.377-1.008 5.388-1.198 1.217-.975 3.665-.724 5.088-1.494 2.111-.088 3.448-.945 5.388-1.198.379-.72 1.593-.6 2.096-1.197.959-.14 1.054-1.141 2.096-1.198-.14-.94.806-.789.898-1.495.135-.765.421-1.377.897-1.798.808-.99 1.315-2.278 2.097-3.291.717-2.678 1.79-4.997 2.396-7.785-.198-5.658 1.069-12.09-.308-17.061zm-5.687 22.149c-3.287 5.194-8.791 8.172-15.265 10.177-3.81-.084-6.811-.448-10.478 0-.922.776-.663 2.728-1.197 3.892.059 1.654-.825 2.369-.598 4.19-.175 3.12-1.093 5.491-1.2 8.682-1.589-.504-1.825-2.364-3.29-2.993-.598-1.496-2.052-2.141-2.692-3.593-.464-.638-1.085-1.116-1.499-1.797-.538-.462-.242-1.756-1.196-1.795-.829-1.267-1.528-2.667-2.693-3.594H66.37c-6.151-.333-9.688-3.281-14.667-4.787-2.621-2.171-5.194-4.385-7.482-6.884-.792-2.8-2.089-5.094-3.293-7.483-.253-2.343-.392-4.8-.3-7.486-.146-1.613 1.059-.017 1.498-.896.211-.988.481-1.915.598-2.995 1.373-1.02 1.793-2.994 3.29-3.89.517-1.88 2.254-2.538 2.995-4.191 1.534-.961 2.761-2.225 4.189-3.293 1.723-.776 3.449-1.541 5.088-2.396 3.734-1.252 7.338-2.642 11.378-3.589.8-.396 1.591-.806 2.392-1.198a1.52 1.52 0 0 1 .897-.899c6.234-.443 9.9 1.674 14.369 2.994 4.414-.12 7.981.601 12.272.599.078.623 1.317.081 1.499.598.721-.123.65.546 1.496.3-.212.813 1.411-.213 1.197.598.72-.122.65.547 1.494.3.87.829 1.756 1.636 2.698 2.395.558 1.335 1.398 2.388 1.796 3.89.988 1.704 2.53 2.858 3.292 4.789.686 2.608.459 5.836 1.496 8.681.008 4.202.216 8.602-.899 11.674zm-44.9 29.934c-1.414.683-2.017 2.171-3.294 2.993-2.108 2.081-4.382 3.996-7.483 5.089-5.046 1.217-12.546 1.163-17.957.302-.673.822-1.004 1.986-1.797 2.691-.111 1.383-1.297 1.696-1.496 2.993-1.232.764-2.17 1.822-3.292 2.693.052 1.051-1.01.986-1.197 1.797-.354.144-.676.319-.899.6-.43-.159-.73 1.167-.895.299 1.237-4.111.268-9.648-.299-13.769-2.174-2.117-5.152-3.429-7.785-5.089-.697-.401-.462-1.732-.898-2.394-1.352-.644-2.174-1.819-2.992-2.994-.498-1.002-1.002-1.994-1.498-2.994-.098-.699-.358-1.237-.598-1.797.561-1.359-1.188-.406-.896-1.494-.228-1.626.475-2.321.3-3.891-.187-3.36.061-5.795 0-9.579 2.109-3.277 4.534-6.24 7.482-8.681 1.303-1.39 3.01-2.376 4.492-3.593.916-.378 1.574-1.019 2.394-1.495.562-.833 2.38-.412 2.396-1.795.145-.947-.543-1.057-.302-2.097-.465-.432-1.166-.629-1.795-.898-.383.017-.417.384-.898.3-6.059 1.425-9.397 5.57-13.47 8.979-3.308 4.175-6.875 8.093-8.082 14.369v7.183c.405 2.684 1.121 5.046 2.096 7.182.963 2.11 2.134 4.06 3.59 5.688 1.17 1.926 2.863 3.324 4.492 4.788.826.673 1.991 1.002 2.693 1.798 1.07.524 2.629.56 3.29 1.494.505 2.458-.51 4.237-.297 7.184-.815 2.278-1.017 5.17-1.796 7.484-.019 1.476-.881 2.112-.897 3.593-.427.368-.569 1.027-.598 1.795-.427.367-.682 1.141-.298 1.496 3.377.632 5.498-1.901 8.378-2.691 2.39-1.5 4.724-3.058 6.885-4.789 2.606-2.984 4.615-6.559 7.185-9.579 5.11.878 10.779-.162 16.162 0 3.746-1.141 6.59-3.185 9.281-5.389 2.085-2.619 5.375-5.237 4.487-9.876-1.968.027-3.056.936-3.893 2.095z"/>
</svg>
