<svg viewBox="0 0 128 128">
  <path
    d="M112.673 55.48V39.96c-.389-2.858-.804-5.688-1.219-8.52-.642-2.603-1.836-4.654-3.042-6.694-.61-.508-1.412-.819-1.522-1.826-1.897-.741-3.156-2.12-5.177-2.738-.723-.595-2.048-.59-2.736-1.218-1.202-.221-2.464-.378-3.352-.913-14.542-.301-29.746.196-44.122.305-2.252-.282-3.294-1.777-5.785-1.826-6.341-.453-12.082-1.51-19.173-1.218-.047.355-.48.332-.91.303-1.856.378-3.047 1.418-4.566 2.132-.417.698-1.252.977-1.823 1.521-.458.765-.759 1.676-1.523 2.131-1 2.402-1.649 5.274-1.826 8.521a224.65 224.65 0 0 0-.304 10.042c-.643 6.354-.149 13.847-.305 20.693.329 6.671 1.014 12.982 1.215 19.78.118 6.881.722 13.279 3.046 17.952 1.984 3.696 4.666 6.695 8.52 8.523 1.845.894 4.139 1.338 6.693 1.521 2.105.637 4.8.676 7.611.608.618.698 2.525.111 3.648.305 1.344.076 2.355.485 3.963.303 2.221.617 5.366.313 7.605.914 5.483.096 8.996 2.161 14.911 1.825 5.808.229 10.68-.479 16.43-.305-.05-.657 1.083-.136 1.521-.303.362-.351 1.081-.346 1.83-.305.778-.641 2.363-.474 3.041-1.218 2.578-.259 4.428-1.252 6.697-1.825 1.931-.912 3.54-2.135 5.477-3.044a8.48 8.48 0 0 1 2.129-2.129c.603-.819.861-1.984 1.523-2.738 1.104-4.07.419-9.925.61-14.912 0-5.168-.115-10.459.304-15.215.984-4.483.61-9.698.61-14.91zm-7.609 10.042c-.269 2.57-.556 5.124-.914 7.608v12.476c.004 4.064.25 8.157-.302 11.871-.396 1.531-1.858 1.994-3.044 2.737-.963.86-2.319 1.332-3.951 1.523-1.104.724-2.757.899-4.262 1.218-.941.883-2.995.655-4.262 1.217-5.502-.229-10.173.378-15.52.304-6.956-.753-13.075-2.338-20.386-2.737-6.929-.783-14.849-.573-21-2.131-2.04-1.51-3.972-3.13-4.87-5.781-.47-1.355-.854-2.794-1.214-4.261.213-1.129-.52-1.308-.303-2.434-.186-.632.374-2-.306-2.131.156-3.708-.173-6.925-.305-10.346.232-2.052-.49-3.163-.303-5.173-.712-1.012.157-3.61-.611-4.564-.148-6.954-.451-13.749-.302-20.998.42-3.13.55-6.55.607-10.043.06-3.492-.427-7.53 1.524-9.13.169-.439.473-.742.911-.913.418.902 2.302.336 3.044.913h19.78c5.919.735 13.4-.092 18.868.304h19.779c6.516-.027 11.602 1.381 14.911 4.563 2.192 4.383 2.435 10.374 2.435 16.738v19.172h-.003zm-13.085-8.521c-.912-1.22-1.974-2.287-3.654-2.739-.936-.075-.929-1.094-1.52-1.521-.253-.862-1.192-1.037-1.825-1.522-1.325-.005-2.738-.101-3.651.303-14.683-.176-28.513.5-41.996 1.524-1.473.149-1.706 1.54-3.045 1.825-1.93-.309-2.326.916-3.343 1.521-.574 2.372-.205 5.683-.307 8.521.637 1.292.582 3.272 1.218 4.564.522 1.504 1.218 2.84 2.741 3.348 4.05.78 8.228-.88 12.474-.912 4.686-.082 8.516-1.018 12.78-1.522h15.522c2.745-.21 4.557.513 7.306.303 2.222.298 5.307.715 6.692-.608 1.163-1.268 1.292-3.578 1.218-6.086.066-2.599.04-5.109-.609-6.998zm-52.342 3.652c-.696-.422-.114-2.118-.304-3.044h2.127c.538 1.082-1.541 1.806-1.823 3.044zm7.304.608c.492-1.131.444-2.803 1.218-3.652h3.955c-1.8 1.14-2.76 3.125-5.173 3.652zm5.479 3.347c.346-.67 1.018-1.011 1.215-1.826.536.277.506 1.12 1.218 1.217-.065.946-1.518.514-2.433.609zm2.737-5.475c.293 1.262-.911.06 0 0v-1.218c.352-.256.816-.401 1.521-.306a4.288 4.288 0 0 1-1.521 1.524zm3.045 4.866c-.907-.634.764-1.238.604-2.13.944-.028.911.919.918 1.827-.445.166-1.573-.355-1.522.303zm1.826-5.476v-.914c.756-.032.939-.569 1.521 0-.213.603-.814.812-1.521.914zm7.606.303c-.766.556-.672 1.971-2.13 1.827.293-1.228.409-2.637 1.218-3.347h3.347c-.838.482-1.406 1.233-2.435 1.52zm17.651 4.87h-3.35c-.337-.576.225-1.752-.912-2.131-1.506-.089-1.624 1.214-2.434 1.828H70.98c.844-2 2.731-2.954 2.435-6.086h11.264c.658 1.669.671 3.989.606 6.389z"/>
</svg>
