<svg viewBox="0 0 128 128">
  <path
    d="M109.923 56.21c.409-5.694.647-12.634-.302-17.954-.233-2.365.467-3.796.302-6.086-.868-2.072-1.746-4.136-2.737-6.086-.852-2.09-2.736-3.147-4.257-4.565-5.561-1.341-13.054-.74-19.177-1.523-6.579-.418-12.929-1.066-18.867-2.128h-7.304c-.385.016-.419.389-.912.304-5.551.027-11.305-.148-16.431.303-2.942-.099-5.227.453-7.61.913-1 .42-2.043.799-3.041 1.219-1.143.279-1.602 1.242-2.742 1.519-.577.642-.872 1.561-1.217 2.435a5.19 5.19 0 0 0-1.824 1.827c-.396 1.535-.45 3.404-1.219 4.563-.157 1.771.343 4.197-.302 5.479-.036 3.919-.815 7.099-.612 11.26-1.575 4.306-2.276 9.491-2.126 15.519-.456 5.434-.98 10.789-1.827 15.825.307 6.804.708 13.69.913 19.781 1.622 2.64 3.123 5.4 5.779 6.999 5.712.882 11.89 1.297 17.042 2.74 1.349.333 1.517-.515 2.435-.609.125-.517.392.065.913 0h1.522c3.946.277 6.548.044 10.652 0 1.51-.195 1.711.924 3.042.911 1.445-.126 2.196.447 3.348.611 3.524.365 7.632.304 11.563.304 4.025 0 8.029.245 11.567-.304 4.332.376 7.038-.873 11.259-.611.418-.595 1.865-.161 2.437-.607.811-.201 1.902-.124 2.429-.606 1.534-.498 2.817-1.243 4.261-1.828 2.076-4.306 2.74-9.485 2.74-15.216 0-5.624.161-11.742.302-17.65.132-5.468-.349-11.78.001-16.739zM27.758 34.909c-.159.468-.315.019-.302-.304v-1.219c.419-.966.3 1.075.302 1.523zm73.953 55.689c.652 2.591.675 5.813.606 9.133-5.804 1.6-14.109.699-20.691 1.521-4.472-.111-8.555.17-12.476.608-2.138-.504-3.61-1.667-6.085-1.827-1.142.23-.664-1.164-1.525-1.218-1.424-.308-1.008 1.222-2.434.914h-3.958c-1.102.09-.403-1.622-.909-2.133-.734-.279-.807-1.222-2.133-.911-.977-.066-.74 1.088-1.217 1.523.081.891-.689.933-.61 1.824h-4.561c.307-2.517 1.759-5.068.607-7.303-2.723-.291-3.29 1.579-4.26 3.044-.401.816-.817 1.617-1.216 2.433-.508.713-.189 2.245-1.829 1.825-1.288.111-.264-1.317-.303-1.825.221-.691.271-1.554.609-2.131-.078-1.646.377-3.827-.911-4.262-1.397-.175-1.422 1.019-2.133 1.525a11.614 11.614 0 0 0-1.217 2.129c-1.102 1.13-.625 3.84-2.737 3.957-.584-1.97 1.188-4.037 1.217-6.39.151-2.097 1.873-5.141-.306-6.085-1.399-.387-.483 1.541-1.214 1.825-.35.669-1.02 1.01-1.221 1.825-.646-.099.051-1.327.306-1.523-.22-.929.524-.892.305-1.825.5-.306.33-1.292.609-1.826-.01-.718.524-.897.303-1.826.52-1.001.804-2.238.911-3.651.434-1.019.434-2.939 0-3.955-.902-.401-1.5-.271-1.823.608-.691-.15-.912 1.679-1.219.912.015-2.32.251-4.417.607-6.392V49.215c.436-4.737.91-9.441.913-14.608.308-2.613.579-5.91.307-8.216 1.41-.923 3.574-1.089 5.476-1.521 6.802-.288 14.01-.563 20.387.304 1.381.225-.464-.835.912-.61h6.391c10.367 2.014 22.067 2.687 34.085 3.044.007.298.373.238.605.306 2.21 1.539 1.622 5.885 2.737 8.52-.234 18.12-1.26 35.453-.903 54.167zM82.535 36.125c-2.252.688-3.169 2.714-4.562 4.262-2.067 1.38-3.58 3.316-5.784 4.565-1.526 1.923-3.365 3.53-5.475 4.866-2.176-2.694-4.338-5.4-6.395-8.216-2.231-2.735-4.108-5.831-7.606-7.302h-2.131c-2.075 1.473-3.851 3.249-5.475 5.174-1.037.791-2.299 1.352-3.044 2.435-.899.928-2.384 1.266-2.129 3.347.306 1.645 2.396.879 3.348 1.218 1.227 2.726 2.975 4.935 4.866 6.999.527 1.501 1.758 2.3 2.433 3.65 1.027 1.089 2.238 2.07 2.741 3.348-2.134 2.026-4.06 4.259-6.087 6.39-1.166.864-2.221 1.838-3.348 2.738-.668 1.462-2.562 1.696-2.737 3.651-.166 3.007 1.867 3.812 2.737 5.782 1.13 1.712 2.039 3.647 3.651 4.868h2.434c2.076-.663 2.94-2.541 4.264-3.955 3.495-2.286 6.37-5.188 9.733-7.609 2.803 2.472 5.295 5.255 7.306 8.518.908.921 2.223 1.431 2.741 2.739 1.242.684 1.408 2.444 3.041 2.739 1.094.465 1.92.52 3.042.302 2.191-1.054 3.531-2.96 4.87-4.866 1.162-.968 2.48-1.78 3.348-3.042-.086-1.606.322-1.807 0-3.045-1.217-2.842-3.434-4.68-5.173-6.999-.864-1.163-1.841-2.216-2.738-3.345-.853-1.278-2.158-2.103-2.739-3.651 3.76-3.239 8-6 11.565-9.436.369.848 1.869.564 3.042.609.413-.805 1.606-.829 1.525-2.13.46-.758.588-1.846.606-3.044-1.865-3.513-4.566-6.188-6.998-9.132-1.626-.807-2.52-2.349-4.871-2.431zm-34.997 6.696c1.026-.11.508 1.317.915 1.826-.587-.364-1.662-1.043-.915-1.826zm-1.519 31.343c.056-.344.304-.168.304 0-.059.347-.307.171-.304 0zm12.476-19.476c-1.496-1.138-1.311-3.962-2.738-5.175-.523-2.113-.916-4.356-1.827-6.084-.492-.889-.96-.12-1.521-.607-.051-.863-.556-1.269-.605-2.131.49-.085.523.288.91.304 1.021 1.718 2.533 2.945 3.348 4.869.962.359 1.06 1.578 1.825 2.13.369.952 1.314 1.323 1.524 2.435-2.194.146-1.364 2.828-.916 4.259zm12.174 12.781c.16-.468.316-.019.304.306-.162.469-.319.021-.304-.306zm2.737-10.346c-.938-1.19-2.056-2.205-3.044-3.346.138-.878 1.311-.721 1.523-1.523 1.058.26 1.058 1.579 1.825 2.13.957-.147.691.933 1.827.607-.335 1.088-1.044 1.798-2.131 2.132zm4.567-3.956c.074-.381.605-.305.606 0-.269.189-.545.369-.606 0zm1.825-6.086c-1.383-.478.452-1.088.609-1.824.412.094.253.763.303 1.218-.245.259-.833.178-.912.606zm4.869.304a16.394 16.394 0 0 0-.914-2.737c.154-.963-1.508-.113-1.217-1.219 1.137-.987 1.32.935 2.131 1.219.369.952 1.312 1.324 1.521 2.433-.732-.125-.66.557-1.521.304zM36.279 35.821c.085.087.463-.145.306-.304-.084-.083-.463.148-.306.304zm52.952 55.692c.085.082.463-.148.304-.305-.083-.084-.46.145-.304.305z"/>
</svg>
