<svg viewBox="0 0 128 128">
  <path
    d="M112.834 44.595c0-6.612-1.114-12.8-2.738-17.651-1.635-2.729-3.24-5.487-5.475-7.606-1.666-.367-2.695-1.366-4.567-1.523-.299-.716-1.756-.273-2.132-.912-.837-.276-2.135-.095-2.737-.608-6.213-.178-13.154.372-18.867-.304-4.69-.571-11.49.778-14.605 0-.408-.102-.703.346-.913.304-.12-.023.031-.306-.304-.304-1.069.008-1.908.13-2.131.304h-.607c-10.648.409-23.15-1.037-31.953 1.217-1.617 1.224-3.709 1.974-5.477 3.044-1.567 1.375-2.678 3.205-3.958 4.868-1.029 3.164-1.113 6.602-1.216 10.043.252 1.838.003 2.511 0 4.868.34 1.686.216 3.84.609 5.477.815 7.197 1.977 14.051 2.434 21.607 1.444 6.563 1.588 14.438 2.738 21.302 1.196 6.918 1.219 15.01 5.475 18.867 3.937 3.073 10.267 3.349 17.044 3.349 6.575 0 13.759.316 19.477.911 6.548-.245 13.393-.2 19.781-.608 6.765-.131 13.565-.227 19.171-1.521 3.102-2.067 6.613-3.731 8.518-6.999 2.715-10.776 1.305-25.679 2.131-38.343.426-6.351.302-13.108.302-19.782zm-8.213 45.342c-.056 2.382.26 5.133-.612 6.694-2.721 2.591-8.127 1.818-12.477 2.13-2.485.052-4.698.373-6.999.608-1.441-.226-2.092.341-3.352.304-.869.341-2.369.063-3.041.608-8.554 1.488-17.874 2.208-26.78 3.349-7.069-.133-14.964.561-20.083-1.522-1.078-1.762-1.784-3.897-2.131-6.391-.379-1.041-.102-2.736-.606-3.652-.179-.535.369-1.789-.306-1.827-.175-.533.369-1.788-.302-1.825-.739-4.944-1.333-10.026-1.828-15.216-1.708-9.65-2.364-20.359-3.956-30.128.182-4.788-.378-10.318.305-14.607a11.813 11.813 0 0 1 3.044-3.347c1.578-.448 2.911-1.143 4.26-1.826.169-.437.473-.744.912-.912 10.763.258 21.389.303 31.955.303 5.189 0 10.406-.348 15.517 0 5.315.364 10.512.36 15.827.306 2.819.223 4.732 1.352 6.996 2.129 1.047 1.896 2.378 3.508 3.044 5.781.569 2.372.956 4.932 1.522 7.304.06 15.075-.16 29.864-.606 44.431-.08 2.463.219 5.301-.304 7.307zM94.27 53.724c-3.538-1.071-6.913.57-10.653.305-.037.873-2.088-.262-2.127.609h-3.044c-.32.69-1.91.115-2.736.302-.758.256-1.631.4-2.739.305-1.672-7.453-1.272-16.986-3.952-23.433-.863-.156-1.296-.736-2.133-.913h-3.045c-.384.019-.417.389-.909.304-2.876.371-6.238.254-8.218 1.522-.801 1.33-.61 3.649-.607 5.784-.111 2.24.076 4.182.304 6.085.4 3.856.915 7.605 1.519 11.26-5.065.614-11.299.061-16.431.609-1.288.131-1.551 1.291-2.737 1.521-1.694-.272-2.177.664-3.045 1.217-.981 4.106.042 8.849 1.524 12.174 2.197 1.858 7.063 1.05 10.954 1.217 3.87.192 8.507-.389 11.871.304.323 6.638-.93 13.238 0 19.477.628.791 1.352 1.487 2.737 1.521.595.825 1.181 1.662 2.434 1.827 2.022.358 5.005.514 7 0 .126-.383.392-.622.911-.609.969-.959 1.43-2.426 2.133-3.651V75.333c.181-.632-.376-1.999.304-2.13h11.261c3.215-.638 7.744.036 10.044-1.523.504-.625 1.454-2.378.604-3.348.435-1.088.869-2.173.915-3.652-.259-4.109.272-8.999-2.138-10.956zM38.882 63.767v-2.132h1.526c-.394.826-.555 1.883-1.526 2.132zm13.393 3.043c-2.243.037-5.57-.026-8.219 0 .156-1.267 1.067-1.776 1.22-3.042.965.656.504 2.74 2.128 2.736 1.895.273 1.654-1.591 3.045-1.826-.254 2.672 3.024 1.345 4.259 1.826-.581.582-1.614.293-2.434.306zm2.434-4.869c.008-.295.372-.238.609-.306-.008.298-.372.238-.609.306zm11.563-8.217c.097.714.48 1.142.306 2.13h-2.131c.115-1.61 1.072-2.377 1.522-3.651.66-.051.135 1.08.303 1.521zm-3.345-.609c-.625.085-.608.814-.914 1.219-1.082-2.065-.735-5.555-1.521-7.913.056-1.458.529.523 1.521 0 1.236-.187.747-2.091 1.218-3.043-.003-.809.115-1.738-.303-2.13.408-1.621 1.52-2.538 1.217-4.869-2.396-.065-2.753 1.915-3.652 3.348-.136 1.253 1.089 1.142 1.218 2.13-.666.652-.961 1.676-.913 3.043-1.368-1.874-.584-5.909-1.218-8.52-.128-.636.207-.805.307-1.218 1.35.371 3.117.332 4.866.305.709 3.651.671 8.053.911 12.173-1.816.313-2.411 1.849-3.348 3.041-.372 1.387.836 1.197.611 2.434zm2.435 8.52h1.519v1.218c-.094 1.125-1.294 1.141-1.825 1.826-.286.832-.932 1.298-1.221 2.13-.511-.6-.33-1.899-.605-2.738.212-1.309 1.791-1.25 2.132-2.436zm1.519 10.957c-.819 1.112-2.369 1.488-2.737 3.044-1.056-1.774.245-3.803 2.737-3.044zm-3.348 12.174c-.208-.819.633-.59.913-.913.261-.245.182-.832.608-.913.276-1.955 1.133-3.33 1.826-4.866.684.129.122 1.498.303 2.127v2.133c-1.097 1.536-2.845 2.427-3.349 4.562-.674-.131-.118-1.5-.301-2.13zm3.348 4.867c-1.163-.262-.306-1.583 0-2.13.652.191.286 1.874 0 2.13zM75.1 63.157c-.256 1.167-.559 2.285-1.827 2.434.171-1.958 1.209-3.053 1.827-4.563h2.131c-.142 1.282-1.487 1.35-2.131 2.129zm15.215 3.35c-2.921.529-5.812 1.086-9.436.912-.977.267-.417-1.004-1.213-.912-1.331-.212-1.359.878-2.435.912.344-.669 1.016-1.011 1.213-1.827.33-1.135-.754-.866-.606-1.824.351-.678 1.817-1.819.912-2.739.133-.681 1.5-.124 2.129-.303.756-.464 2.361-.077 3.045-.609 2.373.38 4.511-.876 6.388 0l.002 6.39z"/>
</svg>
