<svg width="128" height="128" viewBox="0 0 128 128">
  <path
    d="M35.845 61.774v-4.402c-.179-.554.381-1.85-.317-1.889.441-.904-.856-1.598 0-1.887 4.632.821 10.595.31 15.102 1.258h12.584c3.1-.57 7.119-.219 10.694-.314.289-.858.984.438 1.889 0 1.011-.072 1.329.556 2.515.314.888.052 1.31.578 2.2.629.562.383 1.832.059 2.203.632 1.616.252 2.39-.341 3.461-.632 1.222.875 1.86 2.331 4.401 1.889.573-.586 1.526-.781 1.89-1.574.145-1.114.697-1.818.627-3.146.421-2.096.842-4.19.946-6.605.158-4.307 1.163-10.35-1.261-12.898-8.269-.575-16.961-.317-25.483-.317-8.704 0-17.227.516-25.478.632-2.281.341-4.733.512-7.238.628-.089-3.999.346-8.52-.627-11.637-.991-.795-1.845-1.721-3.46-1.889-.405.017-.435.403-.946.315-2.619 1.677-4.885 3.712-7.547 5.347-2.662 2.895-5.346 5.77-8.494 8.179-1.282 1.443-2.934 2.522-4.407 3.777-1.387 1.442-3.602 2.058-3.771 4.715 1.012 3.814 4.221 5.429 6.289 8.181 1.412 1.002 2.264 2.56 3.46 3.775.971 1.547 2.733 2.3 3.461 4.091 1.591.611 2.726 1.675 4.09 2.515 1.611.696 2.931 1.683 4.719 2.2 1.5.913 2.006 2.815 4.404 2.832.086-.647 1.392-.075 1.26-.945.644-.084.626-.838.943-1.257.092-.642.853-.618.946-1.258.869.136.3-1.172.945-1.259zm48.444-12.898c.165-.484.331-.021.317.317-.164.484-.329.02-.317-.317zm.632-2.518c-.162-.161.226-.4.31-.312.168.161-.225.402-.31.312zM26.409 58.316c-.761-.733.492-.845.627-1.574.706.228.154 1.794-.627 1.574zm5.347-8.494c-.616.043-1.492 1.402-.627 1.887-.132.7-1.67.245-1.889 0v3.458c-1.025-.079-1.516.376-1.571 1.261-.776-1.311.634-3.13.311-5.035.714-.334.12-1.978.318-2.83.621-.597.15-1.487 0-2.204-1.784-.309-1.75 1.191-2.835 1.575-.273 1.3-.981 2.164-1.259 3.459-.54.193.027 1.491-.626 1.574-.142.596.429 1.894-.633 1.574-.741-1.133.39-2.628 0-4.404.02-2.54 1.604-5.655.317-7.553-3.853.026-3.423 4.337-4.404 7.238-.657-.5-1.579-.731-1.573-1.889.534-.623.342-1.965.631-2.832-.061-.254-.319-.313-.319-.626-.267-.256-.187-.866-.625-.946-.07-.454-.939-.111-.945-.632-1.131.342-1.764 1.174-1.572 2.832-1.741-.149-2.232-1.547-3.461-2.2 2.669-2.365 5.822-4.244 8.178-6.922a56.99 56.99 0 0 0 7.548-7.231c.808-.036 1.104-.579 1.578-.948.36-.052.559.07.627.317.087 3.756-.031 7.308-.314 10.696.64.719 2.612.111 3.773.313.721-.328 1.901-.2 2.52-.627 4.816.097 8.58-.858 13.523-.632.735.105 1.302.378 1.889.632 6.354-.364 14.244-.317 21.707-.317 5.338 0 10.787-.258 15.729.317.181 1.338-.227 2.08-.315 3.144.234 1.073-1.279.401-.945 1.573-.622.217-.84.84-.943 1.574-.71-.549-.208-2.31-1.261-2.52-2.282.761-2.575 3.506-3.144 5.978-1.475-.681.316-2.292 0-3.775.448-1.122.541-2.603.944-3.775-.284-.138-.562-.274-.632-.627-1.13-.184-1.523.365-2.203.627-1.144.953-1.795 2.399-2.2 4.092-1.021.34-1.186 1.537-1.889 2.2-3.036-.956 1.413-5.089-1.258-6.607-1.936.054-2.472 1.516-3.146 2.832-.993.999-1.732 2.252-2.201 3.775-1.011-.069-1.333.556-2.516.315-.038-1.889 1.539-4.383-.314-5.35-2.096.004-2.433 1.764-3.461 2.834-.709.336-1.385.712-1.885 1.255-.407.543-.655 1.24-1.578 1.261.136-2.684 2.673-5.292 1.259-7.551-2.593-.077-2.965 2.066-4.403 3.147-.414 1.578-1.297 2.686-1.888 4.09-1.736-.163-2.963.181-4.404.315.157-1.232 1.619-2.399.629-3.775-2.313.518-3.42 2.244-4.403 4.09-1.038.013-1.565.531-2.831.315.361-1.538 1.532-3.191.628-5.034-1.869-.297-2.309.833-2.831 1.889-.292 1.277-1.178 1.964-1.258 3.458-2.536.293-5.432.226-7.55.944zm88.711 34.287c-.603-1.49-1.69-2.502-2.513-3.773-1.828-2.472-3.587-5.011-5.666-7.234-1.533-2.662-3.889-4.501-5.662-6.922-1.701-2.597-3.868-4.732-5.978-6.919-.752-.194-1.434-.454-2.514-.314-1.179.025-.953-1.357-2.516-.948a1.609 1.609 0 0 0-.945.948c-.392.758-1.584.719-1.574 1.887-.234 4.429.376 8.014.315 12.269-9.491-.254-18.881.315-28.309.315-9.346.002-18.698-.865-27.681.315-.677.791-1.181 1.755-1.891 2.514-.076 2.911 1.093 4.571 1.573 6.921.256 2.894.641 5.654 1.259 8.179-.008 2.528.24 4.794.946 6.605.787-.055.984.484 1.258.946.561.174 1.31.161 1.574.628 1.821.248 2.686-.459 4.404-.315 1.996-1.15 4.757-1.535 7.551-1.887 5.649-.541 10.682-1.693 15.726-2.829 7.765-.207 15.308-.64 22.963-.946v3.459c.2.956-.402 2.71.316 3.146-.025 2.437-.226 5.046.946 6.289 1.66.885 3.489.819 5.035.317.665-.22 1.105-.911 1.571-1.259.773-.584 1.434-.778 1.889-1.261 2.111-1.874 4.331-3.635 6.604-5.347 2.08-1.906 4.53-3.443 6.607-5.348 1.165-.829 2.225-1.761 3.46-2.517 1.055-1.038 2.925-1.267 3.456-2.829-.94-1.156-.876-3.314-2.203-4.09zm-71.095 7.866c.061-.358.315-.175.315 0-.059.356-.315.173-.315 0zm.314-3.774v1.573c.039.778-.385.534-.315 0v-3.15c.217-1.147.442-2.285.315-3.773-.502-1.283-1.435-2.13-2.832-2.515-2.054.565-3.485 1.756-4.4 3.46-.822-1.489-1.1-3.517-1.578-5.349h.633c3.219 1.081 7.793.805 11.638 1.26-2.398 1.585-2.633 5.338-3.461 8.494zm13.529 3.144c.334-.292.096-1.16.945-.943.054.686-.259.999-.945.943zm5.033-.629c-.25-1.611.439-2.287.315-3.775 1.104.469.778 2.368 1.257 3.461-.756-.129-.682.573-1.571.314zm14.47-7.55c-.102 1.156-.778 1.741-.945 2.832-.463.691.04 2.341-.942 2.514-1.284.098-.168-.655-.317-1.257-.006-.741.543-.927.317-1.889.65-.818.662-2.269.627-3.774-.268-1.099-1.137-1.587-2.203-1.889-1.793.478-4.257.673-5.66 1.576-.898.577-1.902 1.385-1.886 2.829-1.075.022-1.174-.923-1.578-1.573a7.754 7.754 0 0 0-1.573-1.576c-2.525 1.356-3.459 4.304-4.088 7.55-1.209-2.033 1.838-6.181-.632-7.55-2.863-.029-3.183 2.479-3.775 4.722-.917-.972.492-4.264-1.259-4.404-2.753-.239-2.142 2.892-3.145 4.404.244 1.501-.49 2.023-.314 3.459-.349.804-.124 2.188-.944 2.516-.723-.643-.115-2.612-.314-3.775.115-2.487 1.435-6.107.314-7.867.234-.706 1.766-.121 2.516-.313 3.034-.743 8.642-1.49 13.212-.943.893.103.456.078 1.258 0 .383-.04.569.317.632.315.59-.047.962-.34 1.574-.315 3.936.149 8.036.75 12.267 0-.941 1.576-2.103 2.929-3.144 4.406zm31.14 3.458c-5.764 2.623-7.465 9.311-13.523 11.643.485-.459.277-1.612.313-2.516-1.4-.037-.467 2.26-1.26 2.829-3.49-.472-1.103-5.496-1.258-8.177.335-.817.201-2.107.945-2.516-.138-.704-1.551-.127-2.203-.313.1-1.777-.461-2.898-1.573-3.465-2.075.023-2.589 1.611-2.829 3.465-1.338.287-.022-2.079-1.261-1.889-2.65-.45-1.354 3.05-4.405 2.2-.016-3.688 1.821-5.518 1.574-9.438 3.755.507 7.873-1.132 10.067.632 1.209-.366.389-2.756.632-4.092-.403-1.272-.171-3.189-.632-4.402v-5.037c1.272 1.353 1.955 3.29 3.148 4.722 1.127 1.388 2.196 2.834 3.46 4.09 1.071 1.547 2.7 2.538 3.771 4.088.996.266.896 1.622 1.889 1.889.296.959 1.534.984 1.573 2.2.904-.066 1.598.082 1.888.629.78 1.009-.815 1.748-.317 3.46z"/>
</svg>
