<?xml version="1.0" encoding="utf-8"?>
<!-- Generated by IcoMoon.io -->
<!DOCTYPE svg PUBLIC "-//W3C//DTD SVG 1.1//EN" "http://www.w3.org/Graphics/SVG/1.1/DTD/svg11.dtd">
<svg version="1.1" xmlns="http://www.w3.org/2000/svg" xmlns:xlink="http://www.w3.org/1999/xlink" width="128" height="128" viewBox="0 0 128 128">
<path fill="#000000" d="M104.962 50.482c0.006-1.344 0.494-2.908 0.61-4.566 0.317-4.661-0.394-10.142 0.302-13.388-0.472-2.060-0.512-4.56-0.912-6.697-0.584-0.734-0.192-2.444-0.304-3.65-0.477-0.844-0.944-1.694-1.217-2.737-0.623-0.473-2.728-0.473-3.348 0-1.127-0.298-1.748-1.094-3.35-0.914-16.734-0.006-32.96-0.514-49.906-0.304-0.442 0.17-0.746 0.473-0.914 0.912-0.706 0.914-1.352 1.89-2.129 2.74-0.569 0.537 0.363 0.883-0.304 1.52-0.535 0.276-0.946 0.682-1.219 1.218-1.639 1.605-3.229 3.263-4.262 5.477-1.075 0.543-1.254 1.987-2.127 2.739-0.859 0.762-0.966 2.282-1.827 3.043-0.075 1.546-1.312 1.932-1.825 3.044-0.756 1.057-2.087 1.614-2.129 3.041v7.002c0.208 1.82 0.806 3.246 0.912 5.172-1.096 15.44-0.15 32.918-0.91 48.691 0.177 2.556-0.373 5.846 0.302 7.91v2.129c-0.179 0.542 0.892 1.267 0 1.524-0.475 1.162-0.741 1.936 0 3.042 1.458 1.249 3.983 0.212 6.090 0.305 0.481-0.635 2.127-0.103 2.737-0.606 10.282-0.85 19.412 0.31 28.909-0.608 8.467-0.878 17.564-0.55 26.475-0.304 2.749 0.378 6.535 1.062 9.133 0.606 1.733-0.804 1.309-3.757 2.736-4.867 0.517-21.478-0.974-42.369-1.52-61.476zM46.84 28.268c-0.648 0.142-0.581-0.436-0.61-0.913 0.374 0.134 0.627 0.387 0.61 0.913zM44.404 29.484h0.912c0.404 1.527 1.465 2.392 2.433 3.349-0.238 1.252 0.47 1.563 0.306 2.739-1.429-0.097-1.233-1.814-2.435-2.132-0.44-1.082-1.235-1.809-2.129-2.434 0.177-0.633 0.64-0.983 0.913-1.522zM43.491 35.572c0.378 0.941 1.002 1.629 1.825 2.127-0.275 0.827-1.121-0.255-1.215-0.607-0.448-0.266-0.964-0.456-0.914-1.217-0.821-0.599-1.456-1.386-1.829-2.435 1.184 0.241 1.158 1.682 2.133 2.132zM38.929 36.484c0.73 0.584 1.008 1.624 1.823 2.128-0.813 0.607-2.682 0.156-3.652 0.609 0.43-1.090 1.315-1.727 1.829-2.737zM98.877 111.953c-1.558 0.136-1.666-1.174-3.045-1.218-8.879-0.096-18.116-0.74-26.475 0.306-1.029-0.085-2.466 0.236-3.040-0.306-1.215-0.3-0.916 0.911-2.131 0.608-2.658-0.225-4.376 0.498-6.999 0.303 0.081-1.089 1.065-2.365 0.304-3.347-1.242-0.55-2.363 0.61-2.739 1.824-0.387 0.424-1.491 0.134-1.521 0.913 0.289 1.098-1.2 0.422-1.825 0.607-1.1 0.289-0.425-1.197-0.608-1.824-0.308-0.406-0.289-1.133-0.914-1.219-1.573-0.667-2.358 1.832-3.042 3.043-1.504 0.273-1.954-0.187-3.348 0.304 0.518-2.554 2.636-5.030 1.825-7.914-2.158 0.175-2.727 1.939-3.958 3.044-0.821 1.51-1.659 3.008-2.127 4.869-0.958-0.159-1.698-0.534-2.435-0.911-0.392-2.466 2.070-4.598 1.825-7.912-0.398-0.391-1.121-0.391-1.521 0-0.623-0.262-0.606 1.548-0.912 0.609 0.155-3.303 0.24-5.267 0-8.522 0.487-4.686 1.431-8.913 1.219-14.302-0.092-1.075-0.822 1.073-0.912 0-0.158-11.821 0.535-22.795 0.302-34.69 0.188-1.404-0.684-1.752-0.608-3.044h4.564c2.061-0.374 4.092-0.778 6.693-0.607 2.029-0.609 4.555-0.727 6.087-1.826 0.277-0.533 0.102-1.52 0.608-1.826-0.475-2.671-0.696-5.594-1.217-8.216-0.442-2.704-1.312-4.979-1.521-7.914 3.106-0.182 6.566-1.143 9.736-0.305 11.479-0.218 21.242 1.279 32.566 1.219 2.011 0.164 4.431 1.032 6.389 0.304 0.002 1.325 0.096 2.738-0.308 3.652 0.581 1.143 0.029 3.419 0.61 4.564 0.49 24.262 0.171 49.334 0.912 73.34-0.877 2.069-0.427 5.457-2.433 6.394zM86.096 55.047c-6.059-0.64-13.237-0.155-19.779-0.306-0.391 0.018-0.422 0.389-0.914 0.306h-8.52c-1.088 0.727-2.739 0.019-3.956 0.302-1.421 0.333-2.131 0.911-2.741 1.826 0.456 2.995 4.417 2.482 7.608 2.737 3.194 0.257 6.502 0.399 10.046 0.307 4.542 0.63 10.19 0.157 15.215 0.304 3.152 0.638 7.941 0.769 7.305-3.349-0.537-1.597-1.92-2.343-4.263-2.127zM86.096 67.828c-9.335 0.205-17.742-0.517-27.084-0.303-0.389 0.017-0.422 0.389-0.914 0.303-2.813 0.13-6.367-0.482-6.389 2.434 0.308 1.212 1.327 1.714 3.042 1.521 0.039 0.673 1.29 0.128 1.827 0.306h6.998c0.781-0.332 1.452 0.923 1.827 0 0.387 0.778 1.49-0.284 1.521 0.303 2.477-0.315 3.862 0.082 7.609 0h9.436c2.427 0.321 6.156 1.542 6.389-1.524 0.131-1.353-0.825-1.606-1.217-2.431-0.877-0.346-2.374-0.064-3.045-0.609zM86.096 80.608c-6.623-0.751-14.975 0.575-21.001 0-0.387 0.017-0.42 0.389-0.911 0.306-2.821-0.183-4.691 0.586-7.304 0.605-1.56-0.238-2.212 0.428-3.652 0.304-1.029 0.289-2.304 0.333-2.129 1.828-0.373 2.196 1.762 1.888 3.042 2.432 8.968 0.061 19.908-0.527 29.216-0.302 2.667 0.066 6.929 1.162 6.999-2.434-0.334-2.212-2.306-2.516-4.26-2.739z"></path>
</svg>
