<svg xmlns="http://www.w3.org/2000/svg" width="128" height="128" viewBox="0 0 128 128">
    <path d="M96.813 47.826c1.939-1.191 3.643-2.617 5.364-4.022 1.935.078 1.622 2.403 3.021 3.019.647 1.026 2.086 2.676 3.686 1.677 3.182.053 3.49-2.771 4.694-4.694-.275-1.962-1.617-2.856-2.348-4.358-1.097-1.023-2.474-1.773-3.016-3.354-1.531-.595-2.344-1.902-3.691-2.683-1.824-.636-3.775-.181-5.029.67-1.169.173-.494 2.191-.673 3.354.837.399 1.246 1.214 1.008 2.683v1.005c-1.214.576-2.12 1.455-3.019 2.349-.409.484-1.281.509-1.677 1.005a2.988 2.988 0 0 1-1.34 1.341c-.848.854-.853-.845-1.343-1.341-.502-.501-1.409-.598-1.674-1.342-.911-.205-1.572-.662-2.013-1.341-.541-.463-1.727-.283-2.012-1.004-3.24-.673-5.901-1.926-9.389-2.349-2.454-.673-6.205-.054-8.383-1.005-.419-2.264.172-5.537-1.342-6.707-.538-.932 1.448-.926 1.342-.336.825.047 1.617.053 2.013-.334.463-.991 1.55-1.358 2.011-2.347 2.556-3.098 3.994-9.521 2.348-14.754-2.523-1.72-6.413-1.341-10.394-1.341h-11.4c-.358.978-2.991-.312-3.355.67-1.475-.246-1.371 1.086-2.343 1.342.053.392-.077.597-.339.671-.349 6.945 3.485 9.708 5.705 14.084.673.776 1.22 1.684 2.345 2.009.974.371 2.269.417 2.347 1.678.066.272.335.334.335.671.069 1.05-.227 2.461.334 3.019-.084 1.202 1.01 1.228 1.006 2.347-9.667.726-14.897 5.893-21.796 9.389-1.933-1.195-2.869-3.386-4.691-4.694-.266-1.16.313-1.476 1.003-1.678.339-.445.319-1.245 1.007-1.341.681-.996 1.389-1.959 1.341-3.688-.636-.815-.706-2.2-2.008-2.347-.264-1.191-1.847-1.059-2.684-1.678-2.424-.184-3.82.651-5.365 1.342-3.43 2.298-6.904 5.224-7.377 10.06-.002.01-.315-.01-.336 0v1.005c.525.819.603 2.081 1.341 2.683.883.459 1.273 1.412 2.35 1.678 3.992.55 4.682-3.688 8.382-2.349.313 1.362 1.557 1.796 2.012 3.019 1.982 2.056-1.839 2.715-2.348 4.358-1.377 1.307-2.445 2.92-3.691 4.361-1.968 3.395-3.786 6.941-5.027 11.064-2.653 8.266-1.824 20.132 1.678 26.822 1.76 3.602 3.741 6.989 6.706 9.39 2.702 2.658 5.708 5.024 9.384 6.704 6.57 4.053 15.103 6.138 25.824 6.037 9.765-.933 17.898-3.531 24.475-7.711 6.478-4.117 11.696-9.567 15.424-16.431 1.475-3.889 3.328-7.4 3.686-12.405.734-.606.061-2.627.674-3.355v-4.022c.031-1.374.063-2.746-.335-3.688-.025-1.316-.166-2.52-.673-3.353-.516-4.847-2.708-8.02-5.027-11.067-.918-1.761-2.277-3.092-3.355-4.693-.677-.667-1.096-1.586-2.013-2.013a1.697 1.697 0 0 0-1.005-1.005c-.191-.318-.933-.513-.336-.675zm7.379-9.053c-.789.768-1.731-1.157-3.353-.67.775-2.053 2.594-.182 3.353.67zM52.89 15.301c.412.148.689.43.671 1.008-.414-.147-.688-.43-.671-1.008zM27.742 42.127c-1.147.531-1.315 2.036-3.02 2.012-.16-1.058 1.032-.76.674-2.012 1.974-.483 2.083-2.832 4.694-2.683-.486 1.193-1.358 1.995-2.349 2.683zM54.901 18.32c.013-.325.412-.26.671-.336-.008.328-.411.26-.671.336zm3.688 3.017c.191-.818 1.3-.714 1.006-2.012-.099-1.657-2.268-1.99-3.69-1.342.49-.854 1.837-.85 1.345-2.683 5.756-.049 9.831-.289 15.424 0 .941 2.572-.755 4.331-1.34 6.372-.901 1.785-1.717 3.65-2.685 5.366-2.494-.146-4.149.543-6.374.67.27-1.835-.515-2.616-2.342-2.348 1.028-1.121 1.085-4.447-1.344-4.024zm4.36 14.419c1.132.209 1.493 1.189 2.684 1.34-.419.922-1.813.87-3.016 1.007-.167-1.058.603-1.183.332-2.347zm0-4.359c.542-.095.578.317 1.005.334-.267.628-.558 1.23-.671 2.014-.51-.469-.949-1.736-.334-2.348zm37.553 39.231c.067 5.322-.481 10.022-1.677 14.081-1.227 4.022-3.252 7.254-5.029 10.731-4.754 4.3-10.279 7.93-16.767 10.395-.825.318-1.496.383-2.344.67-.219.074-.825.609-1.005.673-.2.068-.466-.052-.672 0-.509.127-2.574.942-3.69 1.004-2.469.14-6.462 1.436-10.058 1.006-4.725-.749-8.287-2.667-13.078-3.355-2.221-1.914-4.638-3.631-6.707-5.7-2.046-2.086-3.744-4.522-5.364-7.042-2.725-5.543-4.471-12.069-4.361-20.456.258-3.206 1.323-5.609 1.681-8.716 1.217-.348.968-2.158 2.343-2.348.555-.9 1.423-1.484 2.016-2.347 1.518-1.386 3.2-2.609 4.691-4.022 3.31-2.502 6.591-5.034 9.724-7.712 2.931-.757 5.174-2.202 8.048-3.02 2.132-.436 4.796-.346 7.378-.334.387.054.598-.074.669-.336 1.958-.056 3.216.584 5.366.336.689.989 3.671-.318 4.356.67 3.283.068 5.362 1.343 8.386 1.676 7.996 5.421 14.151 12.673 16.092 24.147zm-19.448-2.346c-3.508 1.519-7.935 2.123-11.064 4.022-1.197-1.148-1.956-2.733-4.022-3.018-1.202-.697-3.627-.172-5.366-.334-1.476-2.328-2.602-4.999-4.694-6.707-.635-1.265-1.529-2.271-2.344-3.352-.678-1.221-1.506-2.294-3.355-2.348-1.133-.017-1.455.781-2.011 1.342-.161 3.516 1.967 4.737 3.016 7.04 1.485 1.983 3.035 3.898 3.69 6.707-.442 2.874-1.165 6.625-.333 9.722 1.708 2.54 4.258 4.241 9.051 3.69.641-.476 1.455-.778 2.348-1.005.54-.579 1.254-.981 2.013-1.343 1.721-1.967 3.183-4.194 3.356-7.711 4.396-.632 7.875-2.182 12.067-3.016 1.749-.708 3.517-1.4 5.364-2.014 1.538-1.031 3.792-1.349 3.353-4.358-4.277-2.13-7.412 2.023-11.066 2.684zm-20.788 8.38c.066-.381.334-.186.334 0-.064.382-.334.187-.334 0zm2.683 2.684c.066-1.631-.147-2.981-2.014-2.684.525-1.04 1.373-1.758 2.014-2.684 1.595-.142 2.507.4 3.352 1.006-.141.7.229.888.336 1.342-.504 1.729-1.454 3.02-3.688 3.02z"/>
</svg>
