<svg width="128" height="128" viewBox="0 0 128 128">
  <path
    d="M118.596 60.809c-0.533-3.158-0.871-6.514-1.299-9.78-0.639-3.167-1.711-5.897-2.284-9.13-0.928-0.593-1.138-1.906-1.96-2.608-0.621-0.897-1.331-1.71-1.953-2.609-1.419-1.622-2.574-3.514-4.239-4.89-2.466-3.726-5.532-6.858-8.475-10.106-0.819 0.054-1.023-0.5-1.307-0.978-1.646-0.635-2.825-1.74-4.24-2.609-1.702-0.577-3.227-1.338-4.56-2.282-3.664-0.903-5.95-3.18-9.458-4.238h-12.061c-0.067 0.254-0.27 0.379-0.648 0.326-3.604 0.094-7.65-0.257-10.76 0.326-2.706 0.88-5.416 1.756-7.499 3.261-3.078 0.613-4.809 2.579-7.495 3.585-1.667 1.919-5.101 2.073-6.848 3.912-2.656 1.038-4.188 3.201-6.522 4.564-1.734 2.719-3.61 5.3-5.213 8.151-1.48 3.086-2.818 6.309-3.916 9.779-2.426 6.59-2.627 15.409-4.239 22.82 0.312 5.232 0.677 10.41 1.629 14.997 1.035 2.013 1.828 4.258 2.938 6.196 0.938 2.105 2.573 3.51 3.259 5.867 2.392 3.697 5.329 6.844 7.826 10.433 0.2 0.020 0.384 0.048 0.325 0.326 1.685 0.598 2.698 1.869 4.238 2.607 1.429 0.964 3.194 1.587 4.566 2.608 3.461 1.316 6.538 3.025 10.432 3.912 6.963 2.485 15.686 3.222 25.43 2.936 2.121-0.485 4.407-0.808 6.518-1.306 1.141-0.703 2.531-1.164 3.91-1.631 1.133-0.714 2.153-1.54 3.587-1.955 2.221-1.579 5.296-2.309 7.495-3.912 7.523-4.76 13.692-10.868 18.258-18.584 0.691-2.785 1.233-5.718 1.954-8.476 0.778-0.961 0.529-2.951 1.308-3.909-0.264-1.133 0.484-1.254 0.326-2.285 0.644-0.225-0.085-1.819 0.648-1.956 0.088-4.478 0.52-8.609 0.324-13.365zM105.231 87.867c-0.096 3.054-1.307 4.994-2.279 7.171-0.956 0.244-0.634 1.76-1.958 1.631 0.025 1.221-2.308 0.083-2.279 1.305-0.882 1.513-2.615 2.168-3.587 3.585-3.152 1.521-5.122 4.227-8.153 5.869-1.489 0.141-2.765 0.496-4.566 0.328-2.221 0.927-4.571 1.731-6.845 2.608-2.207-0.254-3.467 0.444-5.54 0.325-3.917-0.645-7.828-1.302-11.736-1.956-1.303 0.11-1.807-0.581-3.263-0.325-0.143-0.943-2.461 0.289-2.608-0.652-2.644 0.369-3.424-1.136-5.867-0.979-2.747-2.466-5.405-5.025-8.8-6.846-2.27-2.621-4.784-4.995-7.174-7.496-0.866-2.067-1.658-4.208-3.258-5.542-0.853-1.975-1.848-3.806-2.936-5.541-0.305-2.083-1.428-3.356-1.633-5.541-0.562-1.717-0.678-3.886-0.974-5.869-0.203-8.244 2.338-13.744 2.932-21.19 0.45-0.745 0.662-1.727 0.975-2.608 0.41-0.789 0.812-1.584 0.981-2.608 0.375-1.908 1.832-2.732 1.955-4.89 7.044-7.736 16.197-13.363 25.431-18.91 0.011-0.317 0.398-0.253 0.648-0.325 0.063-0.37 0.332-0.181 0.326 0 5.194 0.36 10.261-0.98 15 0 2.737-0.13 5.108 0.11 7.498 0.325 2.225 0.276 3.805 1.192 5.868 1.631 1.666 1.265 3.559 2.309 5.218 3.585 1.437 1.392 2.971 2.676 4.562 3.913 1.198 1.736 3.097 2.771 4.236 4.564 1.585 1.242 2.826 2.827 3.917 4.562 2.96 2.8 4.56 6.959 6.518 10.76 1.198 4.56 1.692 9.83 2.607 14.671 0.398 10.28-0.317 19.454-5.215 24.448zM62.849 27.555c2.733 0.232 4.221-0.781 4.241-3.26-0.101-1.422-1.179-1.862-1.956-2.609-3.644-0.963-4.61 3.017-3.583 4.564 0.456 0.693 0.95 0.951 1.298 1.305zM94.798 93.408c-0.72-0.256-0.813-1.139-1.302-1.629-0.608-1.021-0.992-2.267-1.631-3.261-0.9-0.836-1.35-2.127-1.954-3.261-1.047-2.321-2.396-4.344-3.261-6.846-2.667-1.895-5.6-3.531-7.827-5.87-1.265-0.251-2.779-0.257-3.26-1.302-1.377-0.253-2.496-0.766-3.586-1.306 0.736-1.363-0.061-2.625 0-4.24-0.867-0.756-1.133-2.126-2.279-2.608 0.121-1.754-1.685-1.575-1.631-3.26 0.418-1.215 1.043-2.219 1.305-3.587 0.538-1.092 1.579-1.679 1.957-2.933v-3.258c-1.067-2.845-2.694-5.131-3.262-8.478-1.362-2.658-1.506-6.534-3.262-8.8-0.067-0.256-0.273-0.381-0.648-0.328-0.186 0.471-0.511 0.797-0.978 0.98-0.5 2.221-1.635 3.797-2.286 5.867-0.478 2.13-0.977 4.239-1.303 6.52-0.529 0.776-0.636 1.977-0.98 2.934-0.321 0.98-1.149 1.454-0.977 2.933 1.188 3.702 3.76 6.022 3.916 10.757-0.172 0.484-0.483 0.824-0.655 1.304-1.156-0.507-0.196 1.109-0.977 0.98-0.652 2.173-1.468 4.183-1.307 7.173 0.573 0.734 0.776 1.835 1.307 2.607 0.56-0.018 0.835 0.251 0.977 0.65 0.49 0.056 1.203-0.113 1.306 0.328 2.389 0.218 4.141-0.205 5.54-0.977 0.386 2.331 2.080 3.356 2.934 5.216 0.519 1.439 1.192 2.722 1.634 4.24 1.851 1.187 3.451 2.63 6.515 2.606 2.728 1.513 5.765 2.71 8.153 4.564 1.619 0.448 2.396 1.733 4.24 1.956 1.141 0.685 2.754 2.337 4.561 1.305 0.342-0.019 0.26-0.417-0.326-0.328-0.066-0.363-0.357-0.504-0.651-0.651zM65.133 49.071c0.166 0.169-0.236 0.416-0.328 0.326-0.168-0.169 0.239-0.415 0.328-0.326zM64.157 59.176c0.049-0.27 0.948-0.889 0.975-0.977-0.135-0.682 0.223-0.863 0.328-1.304v-0.653c0.856 1.2-0.666 2.798-0.652 4.238-0.677-0.17-0.771-0.69-0.651-1.303zM62.526 41.572c0.982 0.494-0.27 1.434 0 2.283-0.878-0.386 0.001-1.7 0-2.283zM66.436 69.285c-0.786 1.040-3.167 1.36-4.238 0.324 0.052-0.378-0.072-0.58-0.325-0.651-0.848-4.339 5.728-4.2 4.563 0.326zM75.24 74.501c-0.17-0.168 0.237-0.418 0.324-0.328 0.171 0.168-0.236 0.418-0.324 0.328zM78.822 79.392c-0.391 0.032-0.196-0.476 0 0 0.397-0.036 0.202 0.472 0 0zM80.781 81.348c-0.83-0.042-1.264-0.475-1.306-1.306 0.575 0.294 1.012 0.728 1.306 1.306 0.395-0.036 0.202 0.472 0 0zM82.739 80.368c-1.054-0.249-1.711-0.901-1.958-1.953-1.158-0.15-0.859-1.755-1.958-1.958 0.739-0.822 2.161 0.429 2.938 0.653 1.010 0.399 2.107 0.718 2.281 1.955 0.049 0.918-0.924 0.817-1.301 1.303zM100.668 61.134c0.016 0.56-0.249 0.836-0.653 0.978-0.219 2.176 0.313 3.6 1.309 4.564 3.406 1.199 5.579-0.977 5.541-4.24-0.581-2.763-3.945-2.362-6.197-1.302zM27.642 66.349c-1.377 0.216-2.331 1.767-2.607 2.936-0.254 3.077 1.343 4.306 3.912 4.562 2.601-0.317 2.808-4.69 1.629-6.848-1.157-0.311-1.787-0.829-2.933-0.651zM66.762 100.907c-0.251 0.075-0.641 0.011-0.648 0.329-1.952 0.331-1.973 2.594-1.955 4.89 1.602 3.132 6.151 1.218 6.191-1.303 0.177-1.482-0.652-1.954-0.977-2.933-0.917-0.279-1.335-1.057-2.61-0.981z"></path>
</svg>
