<svg width="128" height="128" viewBox="0 0 128 128">
  <path
    d="M111.711 26.147c-0.575-0.663-1.037-1.438-2.026-1.686-0.58 0.018-0.866-0.258-1.014-0.675 0.106-0.776-0.971-0.374-1.009-1.010-5.331-0.744-11.419-0.73-17.539-0.675-1.274 0.26-1.615-0.412-2.7-0.337-0.805-0.205-2.448 0.424-2.699-0.337-0.904-3.256-1.068-7.255-3.372-9.11-5.421-1.328-13.098-0.398-19.569-0.673-3.405 0.643-6.737 1.358-9.445 2.698-0.909 1.004-1.281 2.543-2.364 3.375-0.287 1.734-0.481 3.566-1.345 4.723-1.703-0.24-1.887 1.038-3.711 0.675-1.833 0.257-2.735-0.417-4.386-0.337-4.072 0.539-7.934 1.286-12.822 1.010-0.055 0.394-0.533 0.367-1.009 0.339-1.58 0.445-2.27 1.779-3.711 2.361-1.32 0.706-1.931 2.116-2.7 3.374 0.311 2.164 0.378 4.57 1.352 6.072 1.901 0.913 5.278 0.341 7.421 1.011 0.133 13.248 1.495 25.27 3.037 37.109 1.707 11.672 2.805 23.956 6.072 34.072-0.125 2.036 0.095 3.726 0.337 5.4 0.88 1.254 3.094 1.177 4.048 2.361 2.095 0.155 3.326 1.173 5.734 1.011 0.254 0.762 1.893 0.132 2.699 0.336 0.56 0.566 1.983 0.27 3.039 0.339 1.108 0.013 1.677 0.566 3.035 0.335 0.915 0.208 2.678-0.429 3.036 0.337h26.314c3.593-0.794 7.037-1.738 10.12-3.039 0.725-0.738 1.047-1.873 2.025-2.361 0.448-1.011 0.344-2.582 0.336-4.048 0.768-0.808 1.288-1.86 1.349-3.374v-7.086c0.156-1.532 0.607-2.765 0.677-4.384v-16.527c0.782-6.639 1.707-13.137 2.022-20.241 0.657-6.878 1.793-13.277 1.686-20.917 1.967-0.398 4.427-0.295 5.736-1.349 1.069-2.358 2.135-5.552 1.348-8.771zM61.779 17.039c4.848-0.774 11.128-0.119 16.529-0.335 1.167 0.749 0.196 3.627 1.014 4.722-0.8 0.776-3.031 0.12-4.389 0.337-4.682 0.599-9.37 1.199-14.166 1.688 0.039-2.212-0.262-4.762 0.675-6.072-0.063-0.288 0.132-0.32 0.337-0.339zM57.056 19.738c0.174 0.175-0.242 0.431-0.334 0.338-0.178-0.174 0.243-0.43 0.334-0.338zM62.456 110.15c0.064-0.382 0.336-0.19 0.336 0-0.065 0.382-0.34 0.184-0.336 0zM94.162 87.211c-0.989 6.653-2.429 12.86-2.693 20.239-4.55 1.298-9.621 2.077-14.844 2.7-1.36 0.442-2.721 0.877-4.728 0.673-0.111-1.704 1.472-2.909 0-4.048-1.774-0.204-2.673 0.476-3.036 1.685-0.617 0.846-0.271 2.654-2.022 2.363-1.38 0.105 0.058-0.467-0.34-1.35 0.189-0.6 0.175-1.4 0.68-1.686-0.052-1.35 1.359-2.441 0.334-3.711-2.48-0.457-2.856 1.192-3.712 2.363-0.598-0.3-0.855-0.942-2.023-0.677-1.043 0.422-1.81 1.117-2.358 2.025-1.176 0.176-0.673 2.026-2.364 1.686 0.285-2.301 1.637-3.536 2.023-5.733-0.099-0.689-0.912-0.662-1.012-1.35-3.639 0.292-4.571 3.299-6.072 5.734-1.010-1.473 1.086-2.728 1.013-4.384 0.696-0.893 1.544-3.007 0.673-4.386-2.042-0.133-2.385 1.439-3.372 2.361-0.61 1.187-1.645 1.958-2.026 3.377-0.972-1.548 0.739-3.306 1.349-4.387 0.090-1.036 0.732-1.517 1.012-2.363 0.49-0.523 0.451-1.573 1.013-2.022 0.006-1.557 0.879 0.289 1.009 0.675 0.602 0.3 0.86 0.942 2.028 0.677 1.237 0 1.294-1.182 2.026-1.69-0.6-7.947-1.742-15.354-3.040-22.602-1.090-7.34-1.343-15.524-2.699-22.603v-5.060c-0.158-1.416-0.437-2.708-1.685-3.035-3.967-0.031-1.81 6.063-2.363 9.444 1.103 13.405 2.258 26.758 4.724 38.797 0.159 1.056-0.851 0.95-1.349 1.348-0.34 0.45-0.557 1.019-1.012 1.35-0.646 0.929-1.498 1.652-2.027 2.699-0.88-0.797 0.556-2.129 0.339-3.373 0.566-0.786 0.882-1.818 1.014-3.036 0.527-0.934 1.046-1.878 1.345-3.039 0.463-1.001 0.489-2.444-0.336-3.037-2.834 0.201-3.91 2.162-4.721 4.386-0.868-0.821-0.894-2.48-1.014-4.049 0.305-2.508 1.324-4.3 1.69-6.747 0.561-0.785 0.879-1.818 1.010-3.037 0.679-0.672 1.154-1.544 1.011-3.037-0.109-0.794-1.044-0.754-1.348-1.352-2.251 0.113-2.917 1.81-3.711 3.374-0.966-0.522-1.343-2.958-0.676-4.046 0.561-1.13 0.792-2.588 1.354-3.712 0.349-2.615 2.797-4.786 1.686-7.758-3.224-0.072-3.462 2.836-4.386 5.060-0.919-0.317-0.771-1.702-1.011-2.7 0.234-1.473-0.575-1.901-0.34-3.374-0.284-2.187-0.687-4.259-0.673-6.746-0.718-4.231-1.529-8.369-1.686-13.157 14.194-0.113 29.014 0.184 40.814 0 1.485-0.175 1.112-0.106 2.364-0.336h5.062c2.836-0.651 6.762-0.212 10.122-0.339 0.837-0.283 1.806-0.44 3.037-0.336-2.237 16.208-4.419 32.466-4.053 51.28zM101.587 31.209c-0.719 0.283-2.126-0.289-2.363 0.675-7.958 0.022-16.122-0.156-23.616 0.336-7.296 0.877-15.251-0.478-23.277 0-2.032-0.214-3.973-0.523-6.072-0.675-5.123 0.386-10.64 0.381-16.194 0.339-1.025-0.212-2.904 0.431-3.372-0.339-0.427-1.326 0.797-1.002 1.686-1.011 1.060 0.162 1.317-0.48 2.022-0.674h8.77c8.747-1.488 19.117-1.354 29.35-1.35 0.546 0.097 0.582-0.317 1.014-0.336 8.866 0.243 17.206 1.007 26.315 1.011 1.213-0.474 3.392 0.021 4.046-1.011 1.877-0.305 2.84 0.307 3.375 1.35-0.305 1.086-0.673 1.288-1.686 1.685zM66.5 92.606c-1.12-2.813-1.298-6.572-2.022-9.784-0.855-3.081-1.436-6.435-1.35-10.459-0.6-7.27-0.605-15.137-1.349-22.264v-4.048c-0.111-1.349 0.432-3.359-1.012-3.374-0.020-0.206-0.049-0.399-0.337-0.338-0.399 0.163-0.766 0.359-1.009 0.675-1.242 0.937-0.58 3.605-0.675 5.734-0.255 5.718-0.34 12.107-0.34 17.88 0 8.333 1.188 16.52 2.699 21.928-0.171 2.984 0.281 5.344 0.676 7.758 0.079 1.382 0.164 2.758 0.676 3.711 0.502 0.959 1.987 0.94 3.373 1.014 0.878-0.59 0.685-2.243 0.672-3.712v-4.723zM87.419 47.063c0.107-0.791 0.531-1.266 0.335-2.359-0.527-0.486-0.262-1.759-1.349-1.688-0.022-0.206-0.052-0.4-0.334-0.337-0.4 0.163-0.767 0.359-1.014 0.675-1.075 0.65-1.089 2.717-1.348 4.385-1.779 11.445-0.69 26.675-1.012 38.795-0.025 1.439-0.562 2.359-0.338 4.047-0.058 1.859 1.030 2.572 0.674 4.723 0.038 0.866 0.19 1.611 0.677 2.025 0.004 1.006-0.029 2.056 1.011 2.025 0.545-0.806 0.539-2.161 1.010-3.038 0.086-1.38-0.329-3.253 0.676-3.711-0.168-3.091 0.242-5.609 0.677-8.096v-32.385c0.752-0.146 0.135-1.662 0.335-2.362v-2.699zM74.933 57.185c-0.109-2.589-0.523-4.869-0.335-7.76-0.607-0.742-0.292-2.404-0.673-3.372 0.317-1.666-0.411-2.288-1.012-3.037-0.834-0.052-1.4 0.175-1.685 0.673-0.363 0.986-0.756 1.944-0.673 3.374-0.352 0.889-0.406 2.070-0.339 3.374-0.658 1.928-0.202 4.97-0.335 7.423-0.177 2.049 0 4.453 0 6.748v23.275c0.769 0.467 0.124 2.349 0.335 3.375 0.617 0.733-0.065 2.763 0.674 3.373 0.561 0.675-0.026 2.502 0.675 3.038-0.032 1.381 0.046 2.65 1.349 2.7 2.242-0.35 3.521-1.658 3.375-4.387 0.081-2.779-0.47-4.929-0.675-7.421-0.61-10.078-0.164-21.204-0.68-31.375z"></path>
</svg>
