<svg xmlns="http://www.w3.org/2000/svg" width="128" height="128" viewBox="0 0 128 128">
  <path
    d="M114.5 38.12c-1-1.58-3.93-1.2-6.08-1.6h-4.8c.6-1.52 1.48-2.8 2.24-4.16.24-1.9 1.1-3.16.96-5.43.56-.72.76-1.8 1.28-2.56.45-.62 1.04-2.05.32-2.87-.22-.96-1.27-1.08-2.56-.96-.38.15-.72.34-.95.64-1.9 1.86-3.3 4.37-5.4 6.07 0 .03-.2 0-.3 0-.3.02-.1.2-.3.32-.6.42-1.1.66-1.6.96-1.2.76-2.3 1.92-3.8 2.24-2.3-.92-5-1.4-8-1.6-5 .44-9.9.93-13.1 3.2-3.9 1.5-6.3 4.5-9.2 7.03-.2 1.38-1.47 1.7-1.6 3.2-.02.2-.05.37-.3.3.17 1.05-.23 1.5-.33 2.25 0 .57.87 1.86 0 2.24-3.54-.6-6.4-2.8-9.26-4.2-3.1-1.6-6.34-2.6-8.95-4.8-3.1-1.4-5.44-3.5-7.7-5.8-.9-1.4-2.3-2.2-2.84-3.9-1.63-.7-.75-3.96-3.2-3.87-1.36-.18-1.5.87-1.9 1.6-.32 1-1.57 1-1.6 2.24-.03.2-.06.4-.33.34-.7 4.7-2.25 8.6-2.2 14.06.55 1.8 1.5 3.2 2.55 4.47-1.8.23-3.1.97-3.85 2.25-.28 4.6 1.6 7.1 3.2 9.9.56 1.63 1.5 2.93 2.54 4.13.06 1 .9 1.26 1.26 1.94.1.46.54.55.66 1-.2.4 1.24.72.3.9-1.77.57-4.37.3-5.4 1.6-.5 1.2-.5 3.6 0 4.8.13 1.03 1.2 1.13 1.26 2.24 2.15 1.8 4.66 3.2 7.03 4.8 2.5.7 5.24 1.15 8 1.6-.5 1.5-1.5 2.4-2.6 3.24-3.37 1.64-8 2.04-11.83 3.2-2.4.15-4.1.98-6.7.95-1.43.5-3.7.3-4.8.92-.5.3-.43.4-.95.94-.6 1.77.5 3.2 1.9 3.84 0 1.1 1 1.2 1.6 1.6.4.8 1.1 1.26 2 1.6 2.34 2 5.45 3.28 8.3 4.8 3.57.8 7.1 1.63 10.86 2.24 3.9.5 8.2.53 12.17.95h4.14c2.2.53 5.3.2 8 .3.4-.45 1.4-.3 2.22-.3 2.22-1.2 5.13-1.7 7-3.2 2.45-1.07 4.24-2.8 6.7-3.86 3.7-3.3 8.34-5.73 10.85-10.24.9-.83 1.53-1.9 1.93-3.2 1.13-.68 1.66-1.97 2.55-2.9 1.8-1.75 3.1-3.95 4.5-6.05 1.4-2.15 2.5-4.56 3.85-6.7-.02-1.77 1.34-2.1 1.3-3.86.85-.97.78-2.85 1.6-3.83-.13-1.1.15-1.8.34-2.5.2-5.5-.2-10.45-1.3-14.7 2.54-.67 5.1-1.3 7.04-2.56 2.25-.8 4.3-2.5 3.5-5.4zM99.8 55.7c-.67 3.7-2.66 6.08-4.48 8.63.25 1.63-.45 2.32-.32 3.83"/>
</svg>
