<svg id="unchecked01" xmlns="http://www.w3.org/2000/svg" width="128" height="128" viewBox="0 0 12.387 12.387">
  <path fill-rule="evenodd"
        d="M470.733,187.6c-1.938-.161-3.88-0.318-6-0.3-0.96-.206-1.98-0.352-2.9-0.6-0.248-2.276.094-4.546-.1-6.9a0.786,0.786,0,0,1,.1-0.3,29.553,29.553,0,0,0,7,0,4.656,4.656,0,0,0,1.3.2c0.026,1.882.638,3.681,0.4,5.5A7.8,7.8,0,0,1,470.733,187.6Zm1.5,0.1c-0.089-2.635,0-5.632.1-8-0.257-.408-0.322-1.01-0.6-1.4a3.84,3.84,0,0,1-1.2-.3,82.768,82.768,0,0,1-9.8-.1,0.591,0.591,0,0,0-.2.3,0.91,0.91,0,0,1-.4.4,65.238,65.238,0,0,0,.2,10.295,41.828,41.828,0,0,0,4.6.1c1.176,0.19,2.419.313,3.7,0.4a17.632,17.632,0,0,0,1.8.2,2.174,2.174,0,0,0,.9-0.1c0.178-.188.732,0,0.7-0.4a0.966,0.966,0,0,0,.2-1.1C472.221,187.9,472.236,187.8,472.232,187.7Z"
        transform="translate(-459.994 -177.556)"/>
</svg>
