<svg width="128" height="128" viewBox="0 0 128 128">
  <path
    d="M103.978 54.758c-0.99-1.407-2.298-2.5-4.069-3.13-0.456-0.796-1.892-0.606-2.187-1.565-0.713-0.541-2.625 0.12-2.817-0.938 0.296-8.328-0.269-15.792-1.565-22.529-1.077-1.634-1.619-3.808-2.819-5.318-0.879-1.934-2.53-3.102-3.756-4.692-1.75-1.026-3.265-2.254-5.318-3.128-1.935-0.827-4.208-1.318-6.569-1.877h-9.388c-1.793 0.396-3.602 0.779-5.63 0.938-0.609 0.851-2.261 0.659-2.817 1.567-1.551-0.091-1.868 1.052-3.13 1.25-1.553 1.471-3.829 2.222-5.944 3.131-0.127 0.392-0.403 0.64-0.94 0.625-2.319 2.688-4.648 5.36-5.944 9.073-0.982 1.519-1.183 3.822-1.877 5.632-0.958 1.647-1.478 3.736-1.25 6.571 1.245 1.257 2.815 2.191 5.63 1.877 1.099 0.154 2.038 0.467 3.442 0.313 0.942 0.413 2.682 0.031 3.444 0.624 1.544-0.54 3.416-0.752 5.629-0.624 1.659-7.525 5.16-13.198 12.518-15.019 1.885-0.010 3.851-0.098 5.317 0.311 2.877 3.071 2.428 9.462 3.755 14.081v4.068c-0.198 1.156 0.407 3.116-0.311 3.754-7.307 0.312-15.912-0.686-22.213 0.626-5.025-0.922-11.406-0.487-16.588-1.251-0.559-0.041-0.733 0.31-0.624 0.938-0.049 0.579-1.059 0.193-1.251 0.625-2.508-0.108-4.244 0.555-6.883 0.315 0.634 2.405-1.563 1.985-1.566 3.755-0.020 0.19-0.047 0.369-0.314 0.312-0.131 8.059 0.556 15.3 0.314 23.468 0.272 1.4 0.776 2.562 0.939 4.066-0.021 5.235 0.499 9.933 1.25 14.394 1.089 2.984 2.854 5.28 3.756 8.448 1.352 0.842 2.096 2.285 3.132 3.444 1.158 1.133 2.568 2.021 3.752 3.13 1.076 0.277 1.951 0.76 2.82 1.252 1.213 0.241 2.671 0.249 3.125 1.252 1.16 0.194 1.834 0.879 2.817 1.25 0.907 0.556 2.359 0.562 3.131 1.252 4.625 1.058 10.184 1.589 15.645 0.938 1.534-0.654 3.55-0.831 5.317-1.25h5.316c7.637-4.044 14.117-9.246 19.714-15.332 1.028-3.458 2.751-6.218 3.44-10.013 0.835-3.651 1.202-7.77 1.879-11.578-0.204-8.251 0.406-17.306-0.311-25.034zM73.002 21.278c-2.748 0.242-4.55-0.46-7.198-0.313-0.888 0.052-1.306 0.573-2.191 0.626-2.57 1.18-4.615 2.892-6.883 4.38-0.541 1.128-1.508 1.829-2.191 2.816-0.827 0.84-1.23 2.107-2.19 2.816-0.253 1.416-1.247 2.091-1.252 3.754-0.725 0.837-0.65 2.48-2.817 1.878-0.575-1.051 1.155-2.069 1.252-3.442-0.282-0.658-0.486-1.39-0.939-1.877-0.547-0.289-1.678 0.011-1.566-0.939 1.201-1.72 2.341-3.499 4.068-4.693-0.069-1.219 0.671-1.62 0.939-2.503 1.313-1.501 3.563-2.072 5.006-3.441 1.947-0.766 3.48-1.944 5.631-2.502h3.756c2.806-1.054 6.706-1.011 10.641-0.94 0.049 0.366 0.569 0.265 0.934 0.314 1.941 1.19 3.488 2.772 5.323 4.066 1.259 1.662 2.457 3.382 3.439 5.318 0.203 2.197 0.573 4.227 1.253 5.946 0.196 3.77 0.446 7.484 0.315 11.578-0.004 1.142-0.89 1.404-1.255 2.191v1.875c-0.172 0.456 0.368 1.617-0.313 1.565-1.508 0.467-1.303-0.781-1.25-1.876-1.157-0.142-2.154-0.027-2.816-1.253 0.483-1.87 1.106-3.9 0.94-6.882-0.194-3.427-1.069-7.132-1.569-10.014-0.325-1.027-1.409-1.297-1.873-2.189-0.444-0.811-1.060-1.444-1.567-2.192-1.995-1.232-3.583-2.876-5.627-4.065zM94.904 81.979c0.444 1.225 0.212 3.121 0.936 4.066-0.387 1.699-0.448 3.719-0.623 5.632-1.921 3.086-4.14 5.875-6.258 8.761-1.923 1.521-3.897 2.988-5.945 4.378-2.483 0.859-4.477 2.2-6.572 3.444-3.139 0.275-7.576 0.662-10.638 0-1.071-0.776 0.118-2.135-1.252-2.818-1.6-1.154-2.44 1.9-3.755 0.94-1.534-0.144 0.385-1.219 0.31-1.877 0.525-0.518 0.252-1.839 0.314-2.819-0.45-1.32-1.427-2.116-3.439-1.875-1.962 0.021-2.186 1.779-4.069 1.875-1.672 0.728-1.645 3.156-3.441 3.756-0.518-1.266 1.429-2.446 0.938-4.691-0.1-0.734-0.968-0.701-1.25-1.252-2.136 0.368-3.266 1.739-4.069 3.441-1.076-0.227-0.207-0.94 0-1.564 0.434-0.504 0.267-1.615 0.939-1.877 0.339-1.541 1.352-2.406 1.566-4.067 0.988-1.138 1.118-2.638 1.566-4.067 0.061-0.202 0.568-0.774 0.623-0.938 0.066-0.186-0.047-0.433 0-0.625 0.093-0.376 0.551-1.716 0.315-3.131-0.283-0.554-0.698-0.968-1.252-1.252-3.546-0.315-3.847 2.618-5.631 4.066-1.189 1.939-2.487 3.773-3.443 5.946-0.738-0.264 0.26-1.373 0.313-1.877-0.030-0.97 0.382-1.493 0.627-2.192 0.31-1.46 0.941-2.604 1.252-4.066 0.891-2.653 2.608-4.485 2.504-8.136-0.313-0.94-0.941-1.566-1.88-1.878-1.781 0.094-2.956 0.796-3.756 1.878-0.791-0.417 0.461-1.389 0.318-2.191 0.241-0.695 0.655-1.221 0.623-2.19 0.655-1.222 1.15-2.604 1.565-4.068-0.035-1.635-0.849-2.49-1.876-3.127 0.592-1.395 2.417-1.548 2.504-3.444-0.178-1.283-1.182-1.74-2.192-2.191-2.129-0.358-2.248 1.297-3.756 1.564 0.481-1.603 0.387-3.783 0.629-5.632 1.429-0.55 2.398-1.564 3.754-2.191 17.227 1.443 36.219 1.121 54.755 1.252-0.845 7.927 0.39 17.922-1.251 25.040zM70.81 69.15c-2.239-0.438-3.879-0.645-6.257-0.313-1.779 1.036-3.866 1.766-5.316 3.13-1.457 2.059-2.546 5.907-1.566 9.386 0.981 1.628 3.29 1.93 4.38 3.444-0.686 3.288-0.937 8.296-0.312 11.891 0.679 0.673 1.633 1.073 2.5 1.563 1.162 0.195 1.433 1.279 3.13 0.939 4.414-1.428 2.859-8.822 3.133-14.392 1.748-1.486 3.040-3.425 3.755-5.945 0.236-2.22-0.387-3.576-0.313-5.63-0.973-1.435-1.88-2.927-3.134-4.073z"></path>
</svg>
