<svg width="128" height="128" viewBox="0 0 128 128">
  <path
    d="M100.097 85.265c-6.006-3.186-13.899-4.734-21.301-5.481-1.007-0.719-1.788-1.661-2.742-2.432-0.107-2.529-0.371-4.904-0.909-6.999 1.403-1.842 2.725-3.767 4.257-5.48 1.642-3.936 3.819-7.341 4.868-11.868 7.379-0.018 8.706-8.321 7.305-15.217-1.623-0.571-2.955 0.369-4.258-0.608-0.061-7.548-1.775-13.442-4.262-18.562-1.18-1.154-2.252-2.413-3.346-3.652-1.056-0.26-1.692-0.948-2.435-1.521-2.013-0.523-3.936-1.137-6.085-1.523h-3.956c-0.39 0.419-1.323 0.302-2.13 0.305-2.282 1.168-5.175 1.724-6.696 3.651-1.331 0.394-1.911 1.536-2.739 2.436-1.067 0.755-1.915 1.739-2.433 3.041-1.089 0.638-1.266 2.186-2.131 3.044-0.239 1.585-1.444 2.206-1.521 3.956-0.748 0.975-1.040 2.412-1.218 3.956-0.554 0.361-0.239 1.586-0.607 2.131 0.066 0.979-0.539 1.288-0.303 2.434-1.812 0.422-3.212 1.251-4.264 2.434-1.685 2.433-1.823 6.023-1.519 9.738 0.898 0.925 1.915 1.738 2.737 2.739 0.396 1.428 2.564 1.085 3.044 2.433-0.022 2.051 0.715 3.34 0.911 5.174 0.703 0.92 0.89 2.355 1.524 3.347 0.619 1.001 0.946 2.3 1.521 3.349 0.559 2.684 2.248 4.244 1.825 7.912-0.575 1.049-1.021 2.225-2.131 2.738-0.487 1.134-1.858 1.388-2.738 2.129-1.22 0.607-2.768 0.883-4.258 1.218-3.578 2.411-8.527 3.444-12.174 5.784-4.269 1.716-7.3 4.673-10.349 7.608-0.52 1.609-1.797 2.461-2.127 4.26-0.861 1.272-2.046 2.214-2.435 3.955-0.195 1.327 0.397 3.443-0.304 4.26-0.436 1.451 1.271 0.756 0.911 2.131-0.538 1.237-0.303 3.274 0 4.563 1.352 1.285 2.699 2.577 5.784 2.129 1.14-0.022 0.919 1.312 2.434 0.914 29.486-0.222 56.855-0.728 83.079-4.26 1.088-2.867 2.239-5.675 2.435-9.434-0.107-8.787-5.132-13.486-11.263-16.735zM87.008 41.746c1.4-0.282 1.475 0.762 2.741 0.607-0.246 2.289-0.595 4.48-3.348 4.26-0.222-2.048 0.833-2.818 0.607-4.867zM46.233 46.613c-0.942 0.031-1.452-0.372-2.128-0.608-0.051-0.962 0.805-1.017 0.607-2.129 1.091-0.18 1.472 0.352 2.131 0.608-0.256 0.658-0.788 1.037-0.61 2.129zM104.052 101.394c0.282 1.19-1.604 0.218-1.826 0.911-0.986-0.176-1.413 0.206-2.129 0.304h-4.867c-8.999 0.741-19.602-0.126-27.996 1.219-12.81 0.175-24.079 1.891-37.127 1.826 0.842-4.944 3.757-7.807 6.39-10.956 1.813-0.822 3.443-1.832 5.174-2.74 2.221-0.314 3.134-1.934 5.173-2.432 0.971-0.955 2.027-1.829 3.044-2.739 1.091-0.831 1.646-2.207 3.042-2.738 1.981-1.873 4.381-3.328 5.78-5.781v-6.694c-0.757-5.839-1.992-11.193-2.128-17.653-0.502-1.327-0.542-3.11-0.914-4.562v-11.569c0.358-0.049 0.257-0.555 0.305-0.911 1.494-5.303 4.366-9.23 6.999-13.391 2.027-1.119 3.263-3.027 5.478-3.954 0.801-0.317 1.868-0.367 3.043-0.306 0.548 0.038 0.642-0.371 1.219-0.305 3.158-0.318 3.571 2.111 5.175 3.349 0.042 1.377 1.355 1.486 1.217 3.043 1.079 0.338 0.76 2.078 1.522 2.738 0.484 7.898 1.022 17.151 0.303 25.259-0.602 0.512-0.482 1.747-1.215 2.131-0.042 1.073-0.871 1.36-0.913 2.435-1.226 1.004-1.711 2.75-2.742 3.954-2.107 0.732-4.148 1.532-5.779 2.738-1.209 0.113-2.916-0.278-3.651 0.305-1.258 0.063-2.093 0.544-2.435 1.521-0.264 1.178 0.743 1.084 0.913 1.825 0.533 0.279 1.519 0.107 1.825 0.608 0.894 0.021 1.132 0.695 1.522 1.219 0.778 0.032 1.451 0.173 1.826 0.608-0.16 2.682-0.774 4.907-0.608 7.912 0.378 1.552 1.404 2.448 2.131 3.652 1.263 0.665 2.638 1.219 3.349 2.434 1.704-0.288 2.062 0.776 3.345 0.912 0.868 0.451 2.015 0.624 2.74 1.218 5.923 0.467 10.747 2.033 15.215 3.954 1.974 1.173 3.841 2.452 5.481 3.958 0.641 0.981 1.348 1.895 1.825 3.043 0.098 0.714 0.479 1.141 0.302 2.13 0.487-0.139 0.487 1.659-0.011 1.523z"></path>
</svg>
