<svg width="128" height="128" viewBox="0 0 128 128">
  <path
    d="M124.525 89.523c-1.305-2.143-2.998-3.898-4.866-5.478-2.243-0.496-4.027-1.446-5.48-2.738-3.707-0.858-6.945-2.187-10.040-3.651-0.426-0.793-0.605-1.832-0.915-2.738-0.308-0.296-0.614-0.602-0.91-0.912-0.849 0.138 0.237-1.659-0.611-1.522 0.286-1.235 1.413-1.63 1.827-2.738 0.689-0.936 1.536-1.709 1.825-3.044 1.278-1.865 2.078-4.212 2.736-6.694 1.531-0.299 2.947-0.709 3.958-1.523 1.534-2.261 2.066-5.586 1.524-9.126-0.549-0.774-2.942 0.3-3.044-0.915-0.51-6.693-1.914-12.489-5.782-15.823-1.752-0.685-3.375-1.492-5.477-1.826-1.181 0.094-2.273-0.127-3.349 0-1.255 0.148-2.778 0.911-3.345 1.217-0.769 0.413-1.788 0.584-2.132 0.912-0.603 0.579-3.926 3.389-3.956 3.957-0.016 0.351-0.197 0.136-0.302 0.303-0.428 0.662-1.492 2.184-1.524 2.738-0.019 0.336-0.234 0.157-0.303 0.305-1.158 2.389-1.995 5.488-2.133 8.215-1.711 0.318-2.854 1.203-3.651 2.434-0.62 1.613-0.691 3.77-0.607 6.087 0.562 0.756 1.414 1.224 1.826 2.131 0.715 0.706 2.029 0.811 2.432 1.823 0.262 5.725 4.046 7.927 3.96 14-1.222 2.738-4.248 3.667-7.303 4.564-2.48 1.48-5.434 2.481-8.218 3.652-0.921-0.6-2.619-0.426-3.352-1.218-1.538 0.022-1.965-1.076-3.346-1.218-0.844-1.388-2.428-2.033-3.044-3.652-0.163-2.373-0.371-4.699-0.913-6.692 1.409-1.841 2.726-3.767 4.26-5.478 1.645-3.937 3.818-7.342 4.869-11.869 7.377-0.018 8.708-8.321 7.307-15.217-1.624-0.571-2.956 0.369-4.264-0.608-0.538-13.254-3.76-23.827-16.127-25.259h-3.956c-0.361 0.352-1.073 0.346-1.827 0.305-0.555 0.357-1.185 0.368-1.824 0.609-0.69 0.26-1.367 0.694-1.825 0.912-0.74 0.349-1.245 0.55-1.826 0.912-0.271 0.168-0.629 0.107-0.916 0.304-0.252 0.177-0.354 0.719-0.606 0.912-0.256 0.197-0.682 0.129-0.912 0.304-0.166 0.128-0.435 0.448-0.609 0.609-0.878 0.822-2.090 1.945-2.737 2.74-0.18 0.219-0.163 0.704-0.306 0.911-0.013 0.020-0.266 0.265-0.303 0.304-0.23 0.238-0.096 0.304-0.304 0.608-0.323 0.469-0.956 0.787-1.215 1.218-0.163 0.259-0.21 0.701-0.305 0.913-0.344 0.744-0.668 1.29-0.915 1.826-0.162 0.353-0.472 0.62-0.608 0.911-0.281 0.606-0.328 1.41-0.608 2.131-0.052 0.138-0.554 0.429-0.608 0.608-0.227 0.744-0.248 1.3-0.303 1.521-0.101 0.407-0.218 0.631-0.305 0.914-0.142 0.454-0.236 0.931-0.308 1.218-0.4 1.612-0.416 2.742-0.605 4.26-1.861 0.307-2.741 1.34-3.955 1.824-0.009 0.911-0.791 1.036-0.914 1.827-0.534 0.478-0.398 1.629-0.913 2.131-0.131 2.673-0.131 3.715 0 6.389 0.901 0.925 1.914 1.738 2.74 2.739 0.396 1.428 2.566 1.085 3.043 2.433-0.023 2.051 0.718 3.34 0.913 5.174 0.7 0.92 0.89 2.355 1.521 3.347 0.623 1.001 0.946 2.299 1.521 3.349 0.562 2.683 2.245 4.244 1.827 7.912-1.373 2.785-4.588 3.729-7 5.477-2.717 0.632-4.506 2.19-7 3.044-2.321 1.023-4.819 1.876-6.997 3.044-4.508 2.191-8.241 5.15-11.262 8.822-0.435 1.292-0.865 2.586-1.519 3.653-0.465 1.266-0.932 2.519-1.523 3.652-0.291 1.738-0.214 3.844-0.912 5.177 0.128 0.476 0.956 0.257 0.608 1.217-0.542 1.237-0.306 3.275 0 4.564 0.813 0.504 1.348 1.29 2.129 1.825 0.913 0.406 2.328 0.31 3.654 0.304 1.138-0.022 0.917 1.311 2.433 0.913 29.48-0.222 56.855-0.728 83.078-4.26 0.363-2.39 0.677-5.357 0.303-7.608 10.934-0.53 21.903-1.026 31.651-2.739 0.961-4.080-0.174-8.501-1.225-11.563zM110.225 51.789c0.778 0.136 1.398 0.425 1.825 0.912 0.052 1.777-0.787 2.657-2.435 2.739-0.153-1.574 0.862-1.979 0.61-3.651zM81.316 55.441c-0.735 0.124-0.665-0.556-1.525-0.305-0.221-0.93 0.526-0.895 0.306-1.826 0.861-0.251 0.788 0.427 1.521 0.304 0.006 0.717-0.523 0.897-0.302 1.827zM71.882 41.746c1.397-0.282 1.471 0.762 2.737 0.607-0.245 2.289-0.592 4.48-3.346 4.26-0.223-2.048 0.832-2.818 0.609-4.867zM31.102 46.613c-0.943 0.031-1.452-0.372-2.131-0.608-0.050-0.962 0.808-1.017 0.61-2.129 1.091-0.18 1.471 0.352 2.131 0.608-0.256 0.658-0.787 1.037-0.61 2.129zM12.538 100.478c-0.94 0.58 0.069 3.112-1.519 3.043-0.114-2.445 1.158-3.509 1.217-5.781 0.437-0.171 0.739-0.472 0.911-0.912 0.685 0.9-0.906 2.127-0.609 3.65zM88.923 102.608h-8.823c-5.003 0.635-10.301 0.608-15.522 0.608-14.944 0-31.525 0.863-46.866 0 0.972-7.654 6.205-11.040 10.349-15.521 1.928-0.606 3.105-1.969 4.865-2.739 1.731-0.808 3.348-1.727 4.87-2.736 2.849-2.227 6.262-3.885 7.915-7.306 1.126-2.019 0.935-5.353 0.913-8.52-1.073-4.508-3.328-7.831-4.564-12.173-1.357-7.854 1.319-14.017 1.822-20.997 0.873-2.983 2.038-5.676 3.045-8.522 1.887-1.967 3.893-3.814 6.39-5.171 0.801-0.317 1.866-0.367 3.044-0.306 0.546 0.038 0.64-0.371 1.213-0.305 3.158-0.318 3.573 2.111 5.179 3.349 0.039 1.377 1.354 1.486 1.215 3.043 1.082 0.338 0.763 2.078 1.523 2.738 0.45 6.347 0.706 12.885 0.605 19.781 0.012 0.717-0.524 0.894-0.303 1.825-0.896 2.555-1.465 5.436-2.737 7.608-0.645 2.703-2.355 4.341-3.044 6.999-1.134 0.79-2.795 1.058-3.955 1.826-0.581 4.316-1.604 7.089-1.521 12.476 0.376 1.551 1.407 2.448 2.131 3.652 1.262 0.665 2.634 1.22 3.345 2.434 1.71-0.288 2.066 0.776 3.348 0.912 0.869 0.45 2.016 0.623 2.737 1.217 6.046 0.552 11.197 1.992 15.523 4.26 4.047 2.116 8.352 5.338 7.303 11.565zM119.355 96.522c-7.431-0.481-15.565-0.258-23.434-0.305-1.066 0.457-2.431 0.61-2.431 2.131-0.912-1.116-1.108-2.95-1.829-4.259-2.669-3.62-5.268-7.31-10.648-8.216-0.049-1.164 1.243-0.99 1.826-1.523 0.644-0.372 0.883-1.144 1.825-1.218 1.568-1.779 3.149-3.546 4.868-5.173 0.254-1.27-0.591-1.438-0.607-2.435 0.689-0.325 1.105-0.923 1.219-1.826 0.158-1.276-0.533-1.699-0.611-2.738 0.115-3.867-1.135-6.371-0.91-10.344-1.403-5.080-0.46-5.923-0.609-12.174 0.292-0.008 0.234-0.371 0.301-0.607 0.582-1.75 1.485-3.187 2.131-4.87 0.835-1.495 2.145-2.518 2.738-4.26 1.55-0.682 2.516-1.944 3.954-2.737 1.412 0.317 2.639-0.561 3.35 0 1.364 2.896 2.008 6.514 3.044 9.738-0.166 3.714 0.854 6.248 0.609 10.043-0.203 3.146-1.48 5.218-2.133 7.914-1.029 0.796-1.448 2.2-2.432 3.042 0.004 0.808-0.166 1.792 0.607 1.827-0.044 0.561-1.028 0.186-1.218 0.607 0.096 0.706-0.050 1.17-0.301 1.522-0.251 0.968-0.2 2.242-0.61 3.043v4.869c0.418 1.28 1.465 1.905 2.739 2.738 0.74 0.485 0.623 0.689 1.523 0.912 0.557 0.14 0.741 0.413 1.522 0.608 0.878 0.219 2.565 1.352 4.255 1.217 1.472 1.109 3.044 2.019 4.567 3.044 1.486 1.001 2.944 2.216 4.564 3.044 0.731 2.107 2.547 3.132 2.129 6.388z"></path>
</svg>
