<?xml version="1.0" standalone="no"?>
<!DOCTYPE svg PUBLIC "-//W3C//DTD SVG 20010904//EN"
  "http://www.w3.org/TR/2001/REC-SVG-20010904/DTD/svg10.dtd">
<svg version="1.0" xmlns="http://www.w3.org/2000/svg"
     width="1024.000000pt" height="1024.000000pt" viewBox="0 0 1024.000000 1024.000000"
     preserveAspectRatio="xMidYMid meet">
  <metadata>
    Created by potrace 1.11, written by Peter Selinger 2001-2013
  </metadata>
  <g transform="translate(0.000000,1024.000000) scale(0.100000,-0.100000)"
     fill="#000000" stroke="none">
    <path d="M5039 10186 c-2 -2 -49 -7 -104 -11 -102 -6 -132 -9 -220 -19 -98
-12 -141 -17 -190 -26 -27 -5 -68 -12 -90 -15 -23 -3 -50 -7 -60 -9 -26 -5
-215 -45 -241 -51 -114 -24 -350 -93 -514 -149 -57 -20 -113 -36 -125 -36 -11
0 -33 -7 -50 -16 -16 -9 -86 -39 -154 -66 -118 -48 -126 -50 -160 -38 -47 17
-81 19 -106 7 -11 -5 -66 -55 -122 -110 -55 -55 -125 -113 -155 -130 -358
-203 -711 -452 -1013 -716 -120 -105 -463 -461 -539 -559 -11 -15 -29 -36 -39
-47 -38 -41 -216 -283 -282 -385 -240 -365 -437 -770 -570 -1175 -50 -151
-141 -497 -151 -573 -3 -26 -8 -50 -10 -53 -5 -8 -26 -135 -40 -244 -3 -27 -8
-57 -9 -66 -2 -9 -6 -52 -10 -95 -4 -43 -9 -92 -11 -109 -21 -173 -21 -702 1
-885 2 -19 7 -64 10 -100 12 -114 21 -187 35 -270 5 -30 12 -73 15 -95 4 -22
8 -47 10 -55 2 -8 7 -35 10 -59 7 -50 84 -401 90 -411 2 -4 6 -17 9 -31 30
-145 159 -533 250 -751 89 -213 184 -404 298 -597 44 -75 74 -121 185 -280 73
-105 350 -428 553 -645 469 -501 875 -813 1325 -1016 123 -56 501 -165 640
-185 22 -3 63 -9 90 -15 57 -10 115 -18 195 -26 30 -3 69 -7 85 -10 173 -25
857 -25 1065 1 19 2 69 7 110 10 41 3 93 8 115 10 141 14 155 16 255 29 19 3
62 8 95 12 33 3 69 8 80 10 11 2 45 7 75 10 30 3 129 16 220 29 91 13 188 27
215 30 148 19 364 78 505 138 487 207 845 577 1043 1077 87 220 122 402 121
640 -1 236 -31 417 -109 655 -107 323 -338 736 -525 939 -234 253 -502 415
-1165 701 -16 8 -84 37 -150 65 -355 154 -595 279 -743 389 -260 193 -377 427
-332 665 11 57 15 66 42 77 69 28 107 103 86 171 -10 34 -9 41 17 80 35 53
140 157 197 196 158 107 375 181 613 208 204 23 623 23 760 -1 45 -8 86 -14
130 -20 22 -4 48 -8 57 -11 10 -3 29 -7 42 -10 66 -12 211 -66 223 -84 18 -25
47 -41 87 -46 17 -3 83 -29 146 -59 168 -79 239 -99 340 -100 92 0 130 15 187
74 27 28 71 115 78 153 3 13 9 44 13 70 15 79 14 211 -2 281 -28 122 -118 266
-216 347 -23 19 -47 40 -53 46 -69 62 -271 169 -452 239 -109 42 -391 129
-459 141 -16 3 -32 7 -36 9 -11 7 -296 71 -359 81 -18 3 -43 8 -55 10 -40 8
-100 17 -196 29 -25 4 -56 8 -70 10 -176 27 -682 27 -860 0 -14 -2 -45 -6 -70
-9 -390 -51 -875 -229 -1181 -434 -57 -39 -113 -79 -124 -89 -11 -10 -40 -34
-65 -54 -168 -136 -385 -402 -483 -594 -14 -27 -39 -62 -55 -77 -20 -18 -34
-46 -43 -80 -15 -62 -13 -50 -23 -113 -4 -27 -16 -81 -26 -120 -10 -38 -22
-95 -26 -125 -4 -30 -9 -66 -10 -80 -6 -41 -5 -243 1 -301 62 -565 384 -1018
990 -1391 165 -101 395 -222 595 -313 424 -194 427 -196 575 -379 62 -78 141
-168 175 -201 93 -91 153 -179 198 -291 54 -131 89 -268 109 -425 l16 -127
-35 -31 c-76 -66 -87 -143 -39 -255 l29 -70 -26 -35 c-23 -29 -27 -45 -28
-105 -1 -62 -5 -78 -33 -123 -23 -37 -39 -53 -54 -54 -12 0 -30 -2 -40 -4 -18
-3 -116 -75 -138 -101 -15 -19 -85 -38 -189 -52 -100 -13 -540 -4 -600 13 -8
2 -33 6 -56 9 -22 2 -56 7 -75 10 -19 3 -45 8 -59 10 -245 41 -565 157 -815
296 -160 88 -379 243 -505 356 -73 66 -269 261 -315 314 -170 197 -326 412
-448 618 -79 132 -227 483 -251 594 -3 13 -15 55 -26 93 -12 39 -23 77 -25 85
-2 8 -21 87 -43 175 -55 221 -106 475 -126 625 -4 30 -10 69 -13 85 -24 144
-35 494 -20 685 10 129 14 156 43 300 32 159 46 206 162 535 214 609 336 833
617 1124 135 140 279 276 415 391 36 30 67 57 70 60 30 32 427 335 577 440 54
38 64 41 78 30 9 -8 40 -14 69 -14 43 -1 60 4 89 27 46 35 59 59 61 114 l2 44
85 48 c85 47 86 48 108 29 35 -28 49 -23 104 37 68 74 122 104 317 170 323
109 667 179 1005 202 235 16 574 7 795 -22 263 -35 383 -64 444 -107 43 -30
55 -33 119 -34 80 -1 144 -22 293 -96 168 -83 302 -170 458 -297 91 -73 291
-274 321 -321 13 -20 45 -59 72 -86 124 -126 346 -501 507 -857 121 -268 353
-941 390 -1131 3 -12 18 -82 34 -156 17 -74 33 -155 37 -180 4 -25 9 -54 11
-65 9 -45 42 -293 50 -380 23 -242 22 -713 -2 -890 -2 -16 -6 -52 -9 -80 -8
-77 -32 -224 -60 -370 -47 -250 -155 -577 -310 -940 -50 -117 -142 -418 -175
-573 -58 -274 -67 -453 -30 -616 6 -28 9 -92 6 -146 -5 -111 7 -151 60 -185
17 -11 41 -41 54 -67 43 -85 92 -141 140 -159 62 -23 188 -18 262 10 252 96
499 416 736 951 36 82 119 293 182 460 34 91 67 179 75 195 60 137 172 573
211 825 3 19 7 46 10 60 2 14 9 63 14 110 6 47 12 94 14 105 3 18 9 78 21 230
21 259 21 812 1 1060 -2 22 -7 87 -11 145 -3 58 -8 116 -10 130 -2 14 -7 59
-10 100 -4 41 -8 86 -10 100 -2 14 -6 57 -10 95 -4 39 -9 78 -11 89 -2 10 -6
44 -10 75 -3 31 -8 63 -9 73 -2 9 -7 38 -11 65 -3 26 -8 57 -10 68 -2 11 -8
45 -14 75 -6 30 -13 69 -16 85 -32 186 -146 599 -227 825 -187 522 -435 1001
-726 1400 -45 61 -214 273 -250 315 -292 326 -546 545 -871 750 -134 84 -462
246 -655 323 -286 114 -674 232 -910 278 -22 4 -44 8 -50 10 -5 1 -26 5 -45 8
-19 4 -42 9 -50 11 -8 2 -32 6 -52 9 -21 3 -55 9 -75 12 -43 7 -53 8 -138 19
-33 3 -71 9 -85 11 -14 2 -59 7 -100 10 -41 3 -86 8 -100 11 -28 6 -656 14
-661 9z m217 -218 c-24 -34 -20 -49 36 -134 65 -101 115 -207 124 -264 15
-101 3 -160 -53 -253 -25 -42 -33 -65 -29 -82 6 -23 4 -25 -26 -22 -32 2 -32
3 -68 127 -77 264 -147 418 -258 563 -24 32 -42 60 -40 63 3 2 41 7 84 10 43
4 80 7 81 8 2 1 39 3 84 5 l81 2 -16 -23z m574 7 c76 -8 140 -15 175 -20 17
-2 50 -6 75 -10 55 -6 99 -13 165 -26 51 -10 51 -10 51 -49 0 -22 -1 -40 -2
-40 -2 0 -18 9 -36 19 -70 41 -141 31 -167 -25 -11 -24 -30 -142 -45 -284 -18
-164 -54 -264 -105 -293 l-31 -18 -1 38 c-4 218 -23 547 -35 601 -2 13 -16 27
-32 33 -37 14 -185 20 -224 8 -27 -7 -35 -6 -46 8 -7 10 -24 31 -39 47 l-27
28 135 -6 c74 -3 159 -8 189 -11z m-1114 -67 c129 -142 206 -306 274 -578 33
-130 32 -139 -16 -140 -17 0 -22 10 -32 64 -41 218 -154 438 -309 596 -40 41
-73 75 -73 76 0 3 39 8 91 12 29 2 40 -3 65 -30z m1959 -68 c44 -12 105 -30
135 -41 30 -11 62 -22 70 -25 12 -4 12 -7 -3 -16 -28 -15 -50 -74 -37 -98 5
-10 10 -40 10 -65 l0 -47 -33 5 c-45 6 -75 -8 -83 -37 -5 -20 -12 -25 -33 -24
-14 1 -41 -1 -59 -6 -37 -9 -47 -26 -82 -141 -32 -104 -38 -111 -82 -105 l-38
5 29 56 c34 67 78 221 87 304 4 33 7 106 7 163 1 87 3 101 16 98 9 -3 52 -14
96 -26z m-2510 -100 c15 -52 28 -102 30 -112 6 -30 94 -364 101 -381 3 -9 4
-17 0 -17 -3 0 -38 66 -77 148 -102 211 -117 238 -176 330 l-53 83 47 20 c27
10 57 23 68 28 11 5 23 6 26 2 4 -3 19 -49 34 -101z m300 -115 c71 -97 138
-235 161 -330 2 -5 5 -20 8 -32 23 -90 30 -139 19 -128 -6 6 -46 96 -91 200
-44 105 -97 225 -116 268 -20 42 -32 77 -28 77 4 0 25 -25 47 -55z m-792 -625
c8 -19 30 -71 48 -115 18 -44 47 -98 65 -120 42 -52 60 -122 37 -147 -8 -9
-27 -21 -42 -26 -26 -9 -28 -7 -79 92 -29 55 -92 173 -142 260 -63 113 -94
179 -104 225 -20 85 -50 181 -71 221 -17 32 -16 33 15 65 l32 33 113 -226 c61
-125 119 -243 128 -262z m4317 138 c14 -19 25 -50 27 -77 4 -54 0 -62 -132
-243 -126 -173 -195 -251 -238 -267 -33 -13 -43 2 -33 52 9 48 104 240 213
429 93 162 96 166 117 152 12 -7 33 -28 46 -46z m-4909 -146 c84 -122 157
-266 192 -377 41 -130 40 -131 -10 -75 -54 61 -122 99 -313 178 -156 64 -203
88 -264 136 -29 22 -36 25 -29 10 6 -10 34 -89 63 -174 80 -238 130 -317 225
-359 61 -27 89 -74 100 -167 2 -18 -13 -38 -60 -81 -83 -78 -110 -101 -100
-84 16 28 10 59 -38 201 -53 158 -79 219 -173 411 l-62 126 2 99 1 99 77 50
c43 28 119 77 170 111 l93 60 27 -30 c15 -17 60 -77 99 -134z m5387 -255 c26
-39 26 -39 7 -73 -24 -45 -121 -139 -191 -186 -53 -36 -83 -46 -97 -32 -3 3
28 72 70 152 41 81 87 169 100 197 l26 49 29 -34 c17 -19 42 -52 56 -73z m234
-314 c96 -134 226 -325 234 -347 8 -21 -153 -174 -237 -224 -33 -20 -41 -21
-93 -11 l-56 12 93 69 c50 39 117 86 147 105 65 41 80 58 80 91 0 59 -98 132
-177 132 -44 0 -150 -63 -270 -161 l-73 -60 -28 32 c-53 63 -53 58 -5 121 25
32 63 73 85 91 65 52 198 229 198 263 0 25 14 10 102 -113z m-6374 -48 c33
-124 43 -182 49 -285 l5 -95 -62 110 c-34 61 -68 117 -76 126 -8 8 -14 19 -14
22 0 4 -17 33 -37 64 l-38 56 25 16 c13 9 45 30 70 47 25 17 48 28 51 25 4 -3
16 -42 27 -86z m-690 -197 c21 -46 279 -624 289 -647 4 -9 -3 -8 -28 4 -52 27
-382 245 -399 264 -8 9 -41 47 -73 83 l-58 67 18 38 c18 38 204 233 222 233 6
0 19 -19 29 -42z m986 -63 c8 -32 23 -70 34 -84 29 -39 88 -65 150 -65 48 0
52 -1 36 -13 -11 -8 -39 -33 -64 -56 -25 -23 -79 -71 -120 -107 -41 -36 -86
-75 -100 -87 -14 -13 -29 -23 -35 -23 -5 0 0 7 12 15 41 28 67 142 67 290 1
72 -2 150 -6 175 -10 60 6 33 26 -45z m-643 13 c92 -149 179 -318 246 -482 31
-77 60 -105 114 -108 l35 -3 -40 -40 c-23 -22 -44 -38 -47 -35 -4 3 -24 37
-44 75 -81 151 -177 301 -287 447 -32 42 -58 81 -58 85 0 5 9 26 20 48 11 22
20 45 20 52 0 22 7 15 41 -39z m7139 -338 c0 -5 -4 -10 -10 -10 -5 0 -10 5
-10 10 0 6 5 10 10 10 6 0 10 -4 10 -10z m-137 -140 c3 -11 -1 -23 -8 -28 -18
-10 -144 -122 -169 -149 -19 -22 -20 -22 -36 -5 -29 31 -51 70 -43 75 4 3 44
24 88 48 44 23 95 53 114 65 38 25 46 24 54 -6z m-7349 -169 c39 -42 33 -37
141 -122 119 -94 215 -187 215 -210 0 -10 5 -21 10 -24 6 -4 -4 -23 -22 -45
l-33 -39 -25 23 c-14 12 -51 42 -83 66 -61 46 -93 80 -207 225 -74 94 -147
226 -135 244 6 11 73 -46 139 -118z m7655 2 c6 -16 16 -39 22 -53 8 -21 4 -19
-30 14 -31 30 -38 43 -30 53 17 19 26 16 38 -14z m-7868 -191 c74 -57 95 -81
161 -181 96 -146 119 -192 107 -212 -7 -13 -24 -1 -92 65 -45 45 -94 97 -108
116 -193 266 -245 336 -251 338 -5 2 -8 8 -8 14 0 5 24 -9 53 -32 28 -23 91
-72 138 -108z m7970 -49 c15 -35 26 -63 25 -63 -2 0 -17 7 -32 15 -16 8 -37
15 -46 15 -42 0 -46 9 -21 57 12 26 23 56 24 67 0 23 -4 31 50 -91z m-8461 77
c0 -6 27 -55 60 -111 33 -56 59 -103 57 -105 -3 -3 -27 16 -119 91 -53 44 -79
6 -73 -110 2 -44 6 -93 10 -110 8 -36 7 -35 -43 46 l-40 66 52 104 c71 142 76
150 87 144 5 -4 9 -10 9 -15z m4603 -134 c-4 -12 -7 -40 -5 -64 1 -43 1 -43
-27 -37 -17 3 -43 0 -63 -8 -23 -10 -41 -11 -58 -5 -39 14 -98 12 -123 -5 -23
-15 -26 -14 -63 19 -21 20 -58 40 -81 47 -27 7 -45 19 -52 34 -6 13 -11 25
-11 27 0 2 37 4 82 5 45 1 83 3 84 4 1 1 75 2 163 3 159 0 161 0 154 -20z
m474 -33 l182 -36 -44 -39 c-48 -42 -87 -102 -105 -164 -7 -22 -25 -55 -41
-73 l-29 -33 -10 27 c-5 14 -31 68 -56 118 -45 90 -94 208 -94 227 0 14 -7 15
197 -27z m-1210 -95 c-1 -68 5 -100 31 -175 30 -88 31 -96 19 -142 l-13 -50
-34 32 c-134 125 -290 243 -347 262 -86 30 -183 -44 -183 -139 0 -19 9 -55 20
-80 10 -25 17 -46 15 -46 -2 0 -28 11 -57 25 -74 34 -160 65 -180 65 -10 0
-18 4 -18 9 0 11 48 51 62 51 4 0 27 11 49 26 39 24 177 95 249 127 93 42 322
114 366 116 20 1 21 -4 21 -81z m1916 -69 c20 -5 37 -12 37 -15 0 -3 -13 -22
-30 -42 -39 -49 -43 -85 -21 -163 16 -58 17 -67 3 -87 -28 -42 -19 -109 26
-204 23 -48 42 -90 42 -93 0 -3 -10 -3 -22 0 -13 3 -34 7 -48 9 -22 3 -27 11
-41 72 -19 79 -54 183 -79 234 -32 65 -46 173 -41 307 l1 32 68 -20 c37 -11
84 -24 105 -30z m2856 -216 c28 -84 51 -155 51 -158 0 -3 -13 1 -30 10 -48 25
-75 18 -187 -50 -58 -36 -110 -62 -114 -58 -4 4 30 47 76 95 53 55 88 100 93
120 11 42 -3 116 -28 150 -29 39 -28 43 10 92 l35 45 21 -47 c12 -26 44 -115
73 -199z m-8105 50 c78 -60 157 -116 176 -126 19 -10 46 -26 58 -36 l24 -18
-49 -104 c-27 -57 -56 -120 -64 -138 l-16 -35 -140 282 c-78 155 -139 282
-136 282 3 0 69 -48 147 -107z m5586 32 c62 -31 88 -55 60 -55 -5 0 -19 -19
-31 -42 -18 -35 -21 -53 -16 -108 l6 -65 -30 75 c-27 67 -79 217 -79 226 0 10
27 1 90 -31z m-3204 -288 c16 -8 47 -18 69 -21 80 -13 289 -102 327 -139 13
-14 157 -127 273 -216 33 -25 94 -81 136 -123 l76 -77 -24 -23 c-14 -13 -32
-35 -41 -50 -9 -16 -20 -28 -24 -28 -4 0 -116 108 -249 241 -134 133 -275 265
-314 295 -112 84 -221 129 -332 136 l-33 2 32 33 31 32 22 -23 c12 -13 35 -31
51 -39z m1929 -134 c-1 -2 -27 -6 -58 -9 l-56 -6 1 30 c1 17 -16 61 -39 104
l-40 74 97 -96 c53 -52 96 -96 95 -97z m1663 89 c16 -31 35 -81 42 -111 18
-76 15 -192 -6 -236 -18 -39 -30 -42 -15 -4 13 36 -16 192 -70 368 -10 35 -19
66 -19 69 0 16 42 -37 68 -86z m-1328 -59 c0 -6 6 -14 13 -16 6 -3 -14 -6 -45
-6 l-57 -1 13 33 c8 17 12 43 10 57 -3 23 0 21 31 -15 19 -22 35 -45 35 -52z
m-773 -19 c52 -85 57 -104 25 -104 -24 0 -283 -89 -306 -106 -28 -19 -35 -18
-45 8 -7 18 -2 26 27 46 49 33 70 61 77 103 6 34 10 37 47 42 42 6 93 44 104
79 3 10 8 18 12 18 4 0 31 -39 59 -86z m-4286 -4 c35 -35 82 -87 170 -191 26
-30 61 -70 79 -89 17 -19 39 -46 48 -59 8 -13 34 -31 56 -41 64 -27 74 -55 53
-148 -31 -135 -80 -428 -79 -464 2 -43 -19 -18 -76 92 -34 66 -62 121 -62 122
0 2 19 4 41 5 71 3 130 82 115 156 -5 24 -128 202 -157 227 -3 3 -49 66 -102
140 -111 155 -174 268 -164 294 8 21 17 16 78 -44z m-480 23 c7 -69 198 -535
313 -763 18 -36 89 -175 158 -310 166 -327 235 -483 272 -622 l13 -47 -63 4
c-51 3 -68 0 -87 -15 -19 -15 -27 -17 -35 -7 -15 19 -128 257 -145 307 -28 82
-87 233 -157 400 -102 246 -153 379 -203 537 -60 184 -78 276 -73 360 2 37 1
89 -3 116 -4 26 -4 47 1 47 4 0 8 -3 9 -7z m3024 -121 c3 -3 -22 -12 -57 -19
-34 -7 -63 -11 -65 -9 -2 2 19 27 47 57 27 30 50 59 51 64 1 6 5 -12 9 -38 5
-27 11 -52 15 -55z m6079 50 c6 -20 26 -106 32 -142 3 -14 11 -50 18 -80 8
-30 17 -68 20 -85 l7 -30 -21 33 c-11 18 -36 40 -54 47 -47 20 -159 24 -231 9
-33 -7 -62 -11 -64 -9 -9 9 -20 100 -13 107 26 26 277 175 288 171 7 -3 15
-12 18 -21z m96 -429 c6 -38 14 -78 17 -91 5 -21 3 -22 -23 -12 -41 16 -93 6
-171 -34 -70 -35 -142 -59 -144 -48 0 4 -2 16 -5 27 -11 52 -7 86 12 100 42
34 75 44 147 49 79 4 137 31 137 62 0 8 4 14 9 14 5 0 14 -30 21 -67z m-6233
-139 c300 -197 405 -277 443 -340 24 -39 25 -44 3 -44 -33 0 -139 57 -264 142
-141 95 -192 131 -199 139 -18 19 -83 50 -102 47 -46 -6 -28 -114 48 -280 64
-140 63 -142 -51 -67 -50 33 -81 47 -87 41 -18 -18 -21 -142 -5 -160 20 -23
126 -209 174 -307 46 -91 60 -129 45 -124 -5 2 -62 53 -127 114 -64 60 -126
116 -136 123 -21 15 -63 141 -74 222 -4 30 -9 64 -11 75 -2 11 -6 76 -8 145
-4 142 12 226 64 336 16 35 30 71 30 79 0 8 4 15 10 15 5 0 117 -70 247 -156z
m-3000 -454 c19 -52 38 -104 43 -115 8 -19 102 -248 142 -350 51 -128 165
-356 322 -648 149 -278 233 -449 202 -412 -14 17 -25 33 -26 38 0 4 -38 67
-83 140 -120 189 -188 308 -240 417 -24 52 -68 145 -97 205 -189 398 -289 665
-314 840 -6 45 -12 59 51 -115z m9304 88 c1 -33 9 -110 13 -130 8 -35 -22 -17
-38 21 -16 42 -61 82 -111 99 -30 10 -29 10 15 12 25 1 56 6 70 10 41 13 50
11 51 -12z m-238 -58 c-34 -32 -72 -64 -83 -70 -18 -10 -20 -8 -20 25 0 19 0
38 -1 43 -1 6 145 62 161 61 3 0 -23 -26 -57 -59z m-5273 -88 c0 -4 34 -42 75
-85 41 -43 75 -84 75 -90 0 -33 99 -156 209 -261 29 -28 82 -88 118 -133 35
-46 75 -91 89 -102 21 -16 23 -23 14 -46 -5 -14 -10 -37 -10 -51 0 -29 -1 -29
-48 -4 -40 21 -66 52 -144 175 -82 129 -153 218 -397 494 -74 84 -78 91 -49
91 13 0 30 5 38 10 18 12 30 13 30 2z m5547 -579 c1 -93 -1 -172 -4 -176 -3
-4 -10 -4 -16 1 -7 5 -19 9 -27 10 -15 0 -82 17 -180 47 -61 19 -60 18 -111
131 l-36 81 86 12 c68 10 283 55 287 60 0 0 1 -74 1 -166z m-5726 -66 c275
-190 731 -510 766 -537 12 -10 20 -20 17 -22 -6 -7 -238 69 -280 91 -71 38
-539 320 -643 389 l-115 75 55 49 c30 26 57 48 60 48 3 0 66 -42 140 -93z
m5729 -367 c0 -30 -1 -31 -37 -24 -21 3 -42 11 -48 17 -7 7 -7 8 0 4 6 -3 26
3 45 14 19 10 36 18 38 19 1 0 2 -14 2 -30z m-4595 -32 c43 -21 58 -38 33 -38
-13 1 -97 60 -85 60 4 0 27 -10 52 -22z m4295 -133 c6 4 10 -8 10 -28 0 -79
65 -113 197 -103 77 5 84 4 79 -12 -3 -9 -8 -42 -11 -72 -4 -30 -9 -57 -11
-59 -2 -3 -26 -6 -52 -7 -139 -6 -193 -5 -256 4 -38 6 -74 8 -79 5 -9 -6 -7
20 7 83 2 12 7 45 11 75 9 75 15 111 21 120 2 4 20 3 39 -2 19 -6 40 -7 45 -4z
m-8694 -263 c196 -293 719 -1194 1009 -1737 126 -236 283 -570 273 -580 -2 -2
-82 132 -177 298 -406 702 -489 838 -696 1147 -120 179 -220 333 -223 343 -2
9 -8 17 -13 17 -5 0 -9 4 -9 8 0 5 -25 50 -55 100 -96 160 -153 283 -210 456
-30 94 -55 175 -55 180 0 6 24 -27 54 -74 29 -47 75 -118 102 -158z m4969 50
c272 -185 575 -396 572 -399 -2 -2 -26 6 -53 16 -27 11 -179 68 -339 127 -159
58 -293 109 -297 113 -4 3 -10 57 -13 119 -5 92 -3 112 7 106 7 -4 63 -41 123
-82z m504 7 c148 -79 223 -126 340 -213 257 -191 480 -489 613 -816 28 -70 39
-99 44 -115 49 -163 61 -205 58 -205 -2 0 -23 39 -47 88 -127 255 -287 491
-473 697 -109 121 -257 263 -379 365 -116 97 -291 260 -280 260 4 0 60 -28
124 -61z m-1062 -162 c68 -58 136 -115 153 -127 16 -12 30 -29 30 -37 0 -9 10
-30 23 -47 33 -44 42 -60 29 -52 -6 3 -32 -2 -59 -13 -55 -22 -71 -17 -111 31
-14 16 -58 54 -97 83 -56 41 -76 63 -86 92 -17 48 -17 53 -6 80 13 29 2 65
-30 104 l-28 34 30 -22 c17 -12 85 -69 152 -126z m4503 -221 c-1 -22 -14 -132
-26 -201 -3 -22 -15 -80 -26 -130 -10 -49 -22 -105 -25 -124 l-6 -33 -56 6
c-31 4 -127 22 -214 41 -87 19 -168 35 -179 35 -19 0 -20 4 -13 73 4 39 8 99
10 131 4 56 14 75 42 76 6 0 44 18 85 39 127 69 247 105 361 108 42 1 47 -1
47 -21z m-3142 -554 c8 -7 84 -74 170 -150 87 -75 173 -151 192 -168 19 -18
87 -73 151 -123 122 -94 124 -97 135 -192 3 -30 10 -76 14 -102 4 -26 4 -46 0
-45 -4 2 -36 39 -71 83 -35 44 -68 85 -74 91 -5 7 -26 31 -45 55 -99 122 -223
266 -318 369 -59 63 -114 122 -122 131 -8 9 -33 36 -55 60 -34 37 -21 33 23
-9z m-5660 -218 c58 -71 222 -339 278 -454 12 -25 33 -81 47 -125 76 -245 100
-317 117 -349 10 -20 16 -36 15 -36 -11 0 -179 213 -241 307 -70 105 -75 115
-68 150 5 21 7 47 5 57 -2 11 -53 121 -113 245 -111 226 -178 369 -178 378 0
3 17 -17 38 -45 20 -27 66 -85 100 -128z m4987 26 c44 -35 82 -67 85 -70 3 -3
46 -39 95 -80 105 -87 150 -132 191 -192 16 -24 31 -45 34 -48 3 -3 52 -66
110 -140 57 -74 107 -137 110 -140 3 -3 33 -43 66 -90 33 -47 98 -136 143
-199 45 -63 78 -117 74 -121 -4 -4 -27 -14 -51 -23 -23 -10 -60 -28 -82 -42
-22 -14 -45 -25 -51 -25 -7 0 -40 27 -74 59 -34 33 -81 69 -106 80 -38 18 -52
35 -98 114 -30 50 -111 178 -179 282 -69 105 -129 205 -134 224 -8 28 -106
209 -171 315 -7 11 -26 43 -43 70 -34 56 -84 152 -84 162 0 4 19 -11 43 -32
23 -22 78 -68 122 -104z m-3966 -61 c132 -203 258 -367 394 -514 40 -42 47
-47 47 -28 0 12 4 24 9 27 18 12 102 -56 190 -155 145 -160 182 -199 189 -195
4 2 17 -16 30 -41 27 -53 25 -52 -93 43 -101 82 -147 123 -253 227 l-73 72 26
-69 c24 -65 125 -273 185 -381 15 -27 47 -86 70 -130 24 -44 58 -107 76 -140
18 -33 86 -166 152 -295 65 -129 140 -273 167 -320 26 -47 73 -137 104 -201
31 -64 71 -133 87 -155 17 -21 37 -50 44 -64 24 -45 38 -53 86 -47 25 2 50 9
56 15 18 18 16 132 -2 197 -21 72 -54 138 -218 440 -129 237 -382 733 -382
749 0 5 8 2 18 -6 54 -49 320 -209 454 -274 31 -15 55 -31 52 -35 -2 -5 -10
-6 -17 -3 -21 8 -80 -38 -99 -76 -34 -66 -24 -113 70 -336 28 -66 75 -172 106
-238 31 -65 56 -120 56 -123 0 -3 43 -92 95 -198 52 -107 95 -196 95 -199 0
-3 -6 -4 -12 -1 -13 4 -75 13 -137 20 -59 7 -323 57 -365 69 l-41 12 -5 129
c-6 128 -7 132 -50 225 -60 128 -136 255 -170 283 -24 19 -53 61 -127 183 -6
10 -33 55 -59 99 -26 44 -66 109 -89 145 -43 65 -202 332 -332 555 -71 121
-101 175 -156 275 -16 30 -47 84 -67 120 -44 76 -83 148 -172 320 -55 104 -65
131 -60 160 6 41 -5 54 121 -141z m7622 99 c6 -9 -5 -68 -13 -72 -2 -1 -28 24
-58 55 l-56 56 60 -14 c33 -7 63 -19 67 -25z m-255 -249 c29 -32 69 -49 114
-49 53 0 59 23 -65 -250 -53 -117 -65 -135 -65 -101 0 36 -41 147 -64 174 -55
64 -168 87 -209 43 -21 -22 -24 -23 -50 -10 -15 8 -27 19 -27 23 0 19 44 90
52 85 4 -3 45 14 91 37 138 70 192 82 223 48z m-440 -367 c14 -13 130 -61 223
-93 96 -33 137 -36 169 -13 19 13 14 -2 -29 -88 -28 -56 -52 -104 -54 -106 -1
-1 -41 26 -88 62 -91 68 -176 121 -244 151 -46 20 -52 37 -27 73 16 23 33 28
50 14z m-2904 -470 c133 -202 323 -492 443 -677 26 -40 92 -146 123 -199 3 -5
-14 2 -38 15 -44 25 -125 127 -329 414 -23 33 -61 87 -85 120 -23 33 -102 146
-174 251 -128 185 -131 192 -122 225 6 19 10 46 10 61 0 16 3 28 8 28 4 0 77
-107 164 -238z m3016 51 c37 -31 71 -60 76 -64 5 -5 4 -21 -4 -39 l-12 -30
-42 54 c-22 30 -61 78 -86 107 -54 63 -29 53 68 -28z m-322 -285 c79 -82 134
-150 134 -163 0 -7 -12 -20 -26 -30 -25 -16 -26 -16 -42 7 -10 12 -34 61 -55
108 -21 47 -48 95 -59 107 -12 13 -17 23 -12 23 5 0 32 -24 60 -52z m-3006
-114 c140 -237 191 -382 137 -392 -45 -9 -66 8 -108 85 -94 170 -157 308 -149
323 10 17 59 70 65 70 2 0 27 -39 55 -86z m-2130 -9 c15 -3 68 -22 124 -44
l29 -12 -24 -16 c-13 -10 -30 -25 -37 -35 -12 -16 -16 -14 -50 24 -20 23 -50
55 -67 72 -23 22 -25 27 -10 22 11 -4 27 -9 35 -11z m606 -162 l51 -6 6 -87
c4 -48 11 -109 16 -136 17 -86 35 -234 28 -234 -2 0 -16 33 -32 73 -93 242
-148 377 -156 382 -19 12 -9 27 14 21 12 -4 45 -9 73 -13z m1029 -100 c31 -90
133 -306 146 -311 5 -2 9 -8 9 -14 0 -17 146 -229 235 -341 47 -59 84 -111 81
-115 -2 -4 -19 -9 -38 -10 -18 -2 -73 -9 -123 -17 -136 -22 -138 -22 -132 21
11 78 -27 146 -94 165 -32 10 -40 19 -65 78 -36 84 -185 381 -224 446 -54 91
-70 124 -62 128 6 4 66 16 99 20 5 0 25 6 46 12 20 6 50 12 66 13 27 2 30 -2
56 -75z m-626 4 c49 -47 132 -211 158 -312 27 -104 20 -270 -17 -411 -20 -76
-18 -77 -53 26 -8 25 -52 144 -97 265 -123 331 -162 454 -153 482 2 6 24 7 61
1 47 -7 64 -16 101 -51z"/>
  </g>
</svg>
