<?xml version="1.0" encoding="UTF-8" ?>
<!DOCTYPE svg PUBLIC "-//W3C//DTD SVG 1.1//EN" "http://www.w3.org/Graphics/SVG/1.1/DTD/svg11.dtd">
<svg width="553" height="893" viewBox="0 0 553 893" version="1.1" xmlns="http://www.w3.org/2000/svg">
  <g id="#161616ff">
    <path fill="#161616" opacity="1.00"
          d=" M 227.30 13.58 C 233.91 13.29 240.33 11.53 246.92 11.09 C 259.18 10.81 271.43 11.40 283.68 11.61 C 289.63 12.60 295.66 12.88 301.64 13.53 C 308.81 15.21 316.22 15.29 323.42 16.78 C 335.78 19.84 348.49 21.49 360.61 25.50 C 367.71 28.14 374.47 31.77 381.94 33.34 C 385.95 33.94 387.98 38.10 391.80 39.22 C 402.32 43.18 411.69 49.49 421.86 54.20 C 429.41 58.81 437.50 62.44 445.10 66.95 C 449.91 70.75 455.83 73.41 459.36 78.60 C 464.01 85.27 471.25 89.38 477.16 94.80 C 482.32 99.65 487.35 104.64 492.09 109.90 C 495.71 113.90 497.71 118.96 500.43 123.54 C 504.25 130.56 509.32 136.84 512.80 144.06 C 521.69 163.39 527.60 183.87 533.53 204.25 C 534.67 208.77 535.67 213.32 536.87 217.83 C 538.51 225.45 538.27 233.34 539.89 240.98 C 542.00 249.85 539.77 258.95 540.97 267.91 C 541.62 293.85 534.88 319.39 525.12 343.22 C 522.32 351.58 518.57 359.57 515.77 367.92 C 509.99 381.45 504.81 395.25 498.38 408.49 C 494.45 415.48 490.56 422.56 488.04 430.21 C 486.45 435.44 483.21 439.90 480.77 444.73 C 477.75 451.05 474.06 457.03 471.47 463.56 C 467.14 474.02 460.44 483.21 455.15 493.17 C 452.14 498.15 448.64 502.84 446.02 508.05 C 442.00 515.75 437.06 522.89 431.90 529.85 C 427.17 538.00 420.64 544.90 416.01 553.11 C 409.62 563.89 401.81 573.75 395.68 584.68 C 391.69 591.28 386.79 597.28 382.86 603.93 C 378.49 611.05 372.65 617.12 368.22 624.21 C 361.85 634.17 356.81 644.89 351.26 655.31 C 349.30 659.60 347.98 664.16 346.60 668.66 C 345.26 672.63 347.82 676.93 345.85 680.79 C 338.86 697.10 329.59 712.55 325.07 729.82 C 327.62 732.99 331.72 734.49 334.13 737.83 C 335.81 740.22 337.48 742.75 338.20 745.64 C 338.98 750.15 338.07 754.90 339.79 759.27 C 342.45 766.37 342.05 774.08 343.65 781.41 C 344.76 786.56 344.96 791.83 345.11 797.08 C 345.15 800.44 346.95 803.49 346.98 806.84 C 346.30 809.89 343.36 812.05 343.28 815.29 C 342.86 820.93 343.30 826.58 343.64 832.22 C 344.10 837.87 342.23 843.35 342.08 848.98 C 341.46 859.30 341.88 870.31 336.72 879.65 C 329.52 878.46 322.25 879.87 315.04 879.02 C 300.03 879.37 285.01 880.65 269.97 880.09 C 264.63 879.91 259.32 879.03 253.97 879.13 C 249.88 879.08 245.62 879.65 241.70 878.18 C 234.19 875.04 226.97 871.12 219.13 868.88 C 215.00 867.51 210.10 866.11 208.18 861.77 C 204.65 854.42 204.52 845.96 204.90 837.97 C 206.57 827.06 206.71 815.97 205.89 804.97 C 205.46 800.10 202.79 795.29 204.33 790.36 C 206.07 784.14 209.91 778.75 211.60 772.49 C 217.07 759.15 221.57 744.61 219.02 730.07 C 217.95 724.40 214.72 719.51 212.82 714.13 C 210.26 707.00 207.92 699.78 205.32 692.66 C 204.23 689.40 201.36 687.26 199.79 684.29 C 198.34 680.59 197.74 676.59 195.94 673.02 C 193.47 667.46 189.26 662.96 186.46 657.60 C 184.21 653.29 181.78 649.07 178.80 645.22 C 175.54 641.07 172.99 636.41 169.62 632.35 C 167.47 629.77 165.54 627.02 163.85 624.13 C 161.84 620.57 158.61 617.90 156.66 614.31 C 153.24 607.52 148.64 601.41 145.41 594.51 C 139.56 586.27 135.14 577.12 129.32 568.86 C 126.52 560.62 122.51 552.75 117.34 545.73 C 112.21 536.91 107.93 527.54 101.52 519.52 C 94.91 511.16 91.40 501.00 86.19 491.81 C 83.75 487.34 80.70 483.22 78.46 478.64 C 72.27 465.86 65.19 453.51 57.43 441.61 C 51.76 432.49 45.24 423.77 41.35 413.67 C 37.21 405.15 32.70 396.78 29.06 388.02 C 25.82 379.02 22.62 369.99 20.38 360.69 C 16.48 349.97 14.10 338.82 11.56 327.74 C 9.43 320.19 8.74 312.36 6.80 304.78 C 6.15 290.85 4.95 276.69 8.03 262.93 C 9.52 250.43 13.78 238.46 15.00 225.92 C 15.81 215.56 20.23 206.03 23.36 196.26 C 26.09 187.45 30.52 179.27 35.45 171.50 C 41.92 159.57 46.90 146.39 56.69 136.63 C 59.40 133.59 61.09 129.82 63.68 126.69 C 67.28 122.28 70.72 117.73 74.34 113.34 C 78.60 108.23 81.94 102.38 86.68 97.67 C 91.02 93.31 94.65 88.31 99.15 84.11 C 102.48 80.98 104.09 76.54 107.14 73.18 C 110.44 69.48 113.95 65.96 117.68 62.69 C 121.06 59.75 123.84 56.18 127.36 53.38 C 134.00 47.78 142.88 45.99 149.76 40.74 C 153.62 37.74 157.97 35.50 162.33 33.34 C 168.18 30.48 172.58 24.97 179.16 23.62 C 186.61 21.85 193.88 19.47 201.26 17.46 C 209.89 15.91 218.50 13.96 227.30 13.58 M 218.17 19.23 C 209.99 20.70 201.96 22.84 193.88 24.75 C 184.62 26.43 175.56 30.19 168.42 36.40 C 162.13 43.46 157.00 51.61 149.65 57.66 C 143.31 64.17 138.73 72.32 135.69 80.85 C 133.58 86.19 130.10 90.88 128.27 96.33 C 125.81 104.89 122.22 113.08 119.62 121.60 C 116.90 132.08 113.22 142.29 110.87 152.87 C 109.03 161.73 105.45 170.17 104.29 179.18 C 103.98 183.81 103.79 188.47 102.87 193.04 C 100.47 204.07 101.34 215.44 99.42 226.55 C 99.81 241.39 99.93 256.30 101.86 271.05 C 102.05 278.76 102.99 286.42 103.97 294.07 C 106.34 306.63 108.04 319.34 111.25 331.73 C 113.73 339.30 115.39 347.10 116.97 354.90 C 120.12 368.76 126.54 381.59 129.85 395.40 C 132.27 402.05 135.22 408.50 137.89 415.05 C 139.29 418.83 140.86 422.56 142.91 426.04 C 148.08 435.02 151.54 444.82 155.80 454.23 C 158.49 459.76 160.44 465.72 164.41 470.52 C 167.85 476.47 170.93 482.64 174.29 488.65 C 179.81 504.69 191.34 517.51 200.14 531.74 C 202.52 536.09 203.94 540.87 205.46 545.56 C 207.44 550.18 210.25 554.49 211.38 559.45 C 213.44 568.19 217.38 576.47 218.40 585.46 C 218.85 589.67 220.38 593.66 221.00 597.84 C 221.81 605.27 223.40 612.57 223.96 620.03 C 226.89 618.99 229.80 617.88 232.61 616.55 C 238.26 613.73 244.79 613.88 250.61 611.57 C 256.73 609.18 263.38 610.07 269.78 609.83 C 269.20 599.28 268.99 588.65 266.87 578.26 C 265.13 569.89 264.36 561.32 261.99 553.09 C 260.22 546.52 257.04 540.46 254.94 534.01 C 252.55 527.09 251.16 519.80 247.74 513.27 C 242.70 503.78 241.73 492.88 238.23 482.83 C 235.87 474.86 232.26 467.36 229.42 459.56 C 228.28 456.50 226.86 453.55 225.28 450.70 C 221.31 443.52 218.17 435.92 214.45 428.62 C 208.13 416.02 205.28 402.07 202.94 388.28 C 201.18 379.75 197.98 371.60 196.08 363.10 C 193.52 350.94 189.14 339.22 187.15 326.94 C 185.99 318.96 182.78 311.40 182.44 303.29 C 181.64 290.83 179.24 278.51 179.31 266.01 C 179.28 248.35 179.26 230.69 179.69 213.03 C 180.07 207.03 180.78 201.03 180.65 195.00 C 180.44 186.74 182.02 178.58 182.31 170.34 C 182.85 158.54 184.83 146.81 188.49 135.56 C 191.95 124.41 195.33 113.11 200.88 102.78 C 203.76 97.43 207.18 92.39 210.04 87.03 C 212.74 81.42 213.96 75.24 216.67 69.64 C 220.53 60.65 227.58 53.64 232.14 45.07 C 236.68 38.74 242.42 33.36 247.15 27.17 C 248.68 24.72 250.54 22.07 250.44 19.07 C 250.40 17.20 248.65 16.41 247.00 16.71 C 237.37 17.32 227.79 18.50 218.17 19.23 M 298.95 22.01 C 294.90 31.37 289.95 40.45 287.62 50.46 C 285.41 59.24 282.30 67.77 279.44 76.34 C 277.12 90.10 278.63 104.13 277.91 118.00 C 277.19 134.33 283.97 149.55 286.81 165.36 C 288.11 171.24 290.25 176.92 291.34 182.86 C 293.22 192.55 295.64 202.18 296.15 212.08 C 296.83 222.29 300.91 231.90 301.48 242.13 C 302.20 252.75 304.96 263.10 305.60 273.72 C 306.15 281.11 307.39 288.45 307.58 295.87 C 308.39 313.20 309.42 330.51 309.54 347.86 C 310.62 360.65 310.19 373.50 311.41 386.28 C 312.25 396.19 311.91 406.14 312.40 416.07 C 312.93 428.04 312.68 440.02 312.73 452.00 C 312.67 478.67 313.21 505.38 311.05 531.99 C 309.85 545.61 309.30 559.27 308.31 572.91 C 307.87 584.98 305.64 596.86 303.97 608.79 C 314.40 613.67 326.16 613.62 336.93 617.42 C 340.35 608.18 340.74 598.17 344.07 588.92 C 345.76 584.02 347.26 579.04 349.20 574.23 C 351.24 569.09 354.22 564.40 356.40 559.34 C 359.73 551.45 363.68 543.84 366.90 535.91 C 368.50 531.24 369.65 526.38 372.07 522.04 C 375.43 515.99 376.19 509.00 378.54 502.57 C 381.04 494.95 381.72 486.90 384.10 479.25 C 386.14 469.97 390.99 461.70 395.53 453.47 C 399.46 446.78 400.59 438.97 402.85 431.65 C 407.47 416.64 411.52 401.46 415.17 386.19 C 418.76 374.91 420.73 363.22 423.61 351.75 C 427.04 338.10 427.73 324.00 428.51 310.01 C 429.50 299.35 429.42 288.63 430.24 277.96 C 430.76 262.65 430.36 247.33 430.26 232.03 C 429.34 218.30 429.37 204.51 427.45 190.86 C 425.93 180.54 425.86 170.01 423.30 159.86 C 420.38 148.26 418.64 136.27 413.79 125.26 C 408.22 111.41 402.54 97.54 398.94 83.02 C 396.84 74.78 395.19 66.30 391.39 58.63 C 388.88 53.49 386.15 48.47 383.61 43.35 C 382.25 40.56 380.34 37.83 377.30 36.74 C 368.02 33.09 358.83 28.96 348.99 27.06 C 333.47 23.72 318.00 19.29 302.05 18.79 C 300.15 18.60 299.64 20.71 298.95 22.01 M 303.43 616.32 C 302.27 624.47 303.15 632.76 301.80 640.89 C 300.94 646.80 299.19 652.54 298.19 658.44 C 305.64 660.33 313.51 660.38 321.05 658.93 C 324.41 658.38 328.77 658.00 330.42 654.49 C 332.47 648.40 332.91 641.93 334.56 635.74 C 335.55 631.99 335.84 628.12 335.77 624.27 C 329.68 622.35 323.73 619.89 317.46 618.58 C 312.82 617.61 308.11 617.00 303.43 616.32 M 239.53 621.20 C 234.38 622.86 227.85 622.69 224.09 627.04 C 224.30 631.54 224.79 636.05 225.48 640.51 C 227.53 649.44 232.19 657.53 237.39 665.00 C 240.66 664.48 243.78 663.32 247.03 662.72 C 254.49 661.62 262.18 661.77 269.45 659.58 C 269.55 653.38 270.59 647.21 270.19 641.01 C 269.26 632.89 270.65 624.75 269.99 616.62 C 259.62 615.76 249.35 618.06 239.53 621.20 M 324.68 689.92 C 323.84 698.02 323.02 706.26 324.24 714.38 C 329.44 709.36 330.80 702.00 333.65 695.64 C 335.14 692.46 336.47 689.19 337.20 685.75 C 332.93 686.84 328.85 688.53 324.68 689.92 M 209.69 689.96 C 210.51 695.22 212.82 700.03 215.29 704.69 C 217.80 709.28 217.11 715.13 220.67 719.20 C 219.70 711.80 218.85 704.39 217.89 697.00 C 217.58 695.14 217.38 693.18 216.39 691.55 C 214.33 690.44 211.94 690.33 209.69 689.96 M 312.16 692.80 C 314.25 698.65 315.36 705.06 318.76 710.31 C 319.51 704.16 319.54 697.96 320.12 691.80 C 317.40 690.98 314.63 691.53 312.16 692.80 M 221.25 691.95 C 222.48 700.44 223.95 708.89 225.51 717.33 C 228.44 710.32 229.37 702.67 230.30 695.19 C 227.33 693.97 224.32 692.85 221.25 691.95 M 235.56 695.44 C 234.64 697.81 234.45 700.37 233.99 702.85 C 233.25 707.60 231.52 712.16 231.13 716.98 C 230.84 721.97 229.27 726.92 230.16 731.94 C 236.46 732.67 242.71 731.31 248.98 730.98 C 258.51 730.48 268.08 730.04 277.51 728.51 C 278.48 717.70 278.07 706.84 277.81 696.01 C 272.61 695.62 267.38 695.66 262.23 694.80 C 257.49 694.05 252.63 693.88 247.91 694.85 C 245.07 695.49 242.52 693.47 239.72 693.49 C 238.18 693.67 236.70 694.38 235.56 695.44 M 294.78 694.41 C 290.66 694.29 286.49 694.43 282.49 695.54 C 282.50 698.03 282.54 700.53 282.67 703.03 C 283.60 711.64 280.81 720.17 282.51 728.77 C 288.64 727.95 294.82 727.27 300.99 728.03 C 306.61 728.73 311.90 726.34 317.41 725.83 C 316.67 720.69 314.47 715.96 312.97 711.04 C 311.06 704.99 309.45 698.81 306.63 693.10 C 302.68 693.54 298.78 694.58 294.78 694.41 M 229.39 744.14 C 228.02 750.54 223.55 755.61 221.81 761.86 C 219.93 768.22 216.80 774.14 215.06 780.56 C 221.63 781.53 228.29 781.76 234.93 781.68 C 239.97 781.29 244.98 780.62 250.04 780.60 C 247.76 769.93 246.57 758.66 240.92 749.09 C 238.58 745.12 233.43 744.94 229.39 744.14 M 317.93 750.01 C 315.85 754.71 315.43 759.90 313.90 764.78 C 312.25 770.03 311.54 775.49 310.67 780.91 C 315.32 784.12 320.64 786.08 325.81 788.25 C 330.14 790.00 333.92 793.15 338.67 793.77 C 339.05 785.42 336.62 777.32 336.08 769.04 C 335.69 761.77 333.26 754.85 331.56 747.83 C 327.02 748.70 322.69 750.74 317.93 750.01 M 291.00 749.94 C 284.33 749.41 277.67 750.39 271.01 750.10 C 263.60 749.83 256.25 751.00 249.05 752.62 C 249.52 755.02 250.15 757.39 250.98 759.70 C 253.02 765.51 253.99 771.62 255.44 777.60 C 255.90 778.77 255.84 780.37 256.97 781.16 C 259.25 781.74 261.62 781.33 263.94 781.30 C 270.31 780.90 276.63 782.22 283.01 781.87 C 290.11 781.49 297.17 782.93 304.26 782.38 C 305.09 776.43 305.93 770.44 307.70 764.68 C 309.19 759.59 311.46 754.58 311.23 749.16 C 304.47 749.18 297.76 750.44 291.00 749.94 M 213.53 787.65 C 212.35 790.18 210.68 792.76 211.03 795.69 C 211.95 797.00 213.27 798.26 215.02 798.10 C 223.03 797.96 231.15 798.58 239.02 796.73 C 243.66 797.08 248.27 796.56 252.88 796.20 C 261.90 797.18 270.98 796.93 280.02 797.42 C 287.45 797.48 294.84 796.59 302.15 795.35 C 311.24 793.81 319.33 799.33 327.87 801.33 C 332.98 802.10 336.43 807.89 342.06 806.07 C 341.63 804.52 341.98 802.50 340.51 801.47 C 336.81 798.62 331.73 798.72 327.96 795.98 C 322.02 791.47 314.49 790.32 307.73 787.62 C 298.86 787.05 289.94 787.78 281.06 787.23 C 272.41 786.99 263.67 785.81 255.15 787.84 C 246.25 784.75 237.00 788.66 227.91 787.14 C 223.12 786.33 218.27 786.66 213.53 787.65 M 309.10 801.69 C 308.68 806.89 308.65 812.14 309.33 817.33 C 309.93 829.47 310.05 841.65 309.21 853.79 C 314.86 860.09 322.86 863.39 329.21 868.85 C 330.57 870.05 332.25 870.74 333.94 871.38 C 336.29 866.25 336.27 860.53 336.80 855.03 C 337.49 841.02 338.08 826.98 339.79 813.04 C 335.46 811.31 331.24 809.26 327.35 806.68 C 324.10 804.40 320.03 804.02 316.43 802.56 C 314.10 801.58 311.58 801.47 309.10 801.69 M 285.38 803.68 C 287.40 812.39 284.95 821.20 285.71 830.00 C 286.28 836.24 285.30 842.51 286.04 848.74 C 292.39 849.33 298.64 850.61 304.97 851.30 C 306.24 839.56 305.63 827.78 305.18 816.02 C 304.76 812.04 306.26 806.93 302.42 804.24 C 297.00 802.16 291.01 803.18 285.38 803.68 M 242.08 804.26 C 240.63 807.99 240.30 811.99 240.38 815.96 C 239.76 828.02 240.80 840.08 240.37 852.15 C 246.72 852.40 252.89 850.58 258.99 849.13 C 266.68 848.73 274.40 848.84 282.10 848.72 C 282.54 844.65 283.27 840.52 282.57 836.45 C 280.57 825.97 282.80 815.26 281.29 804.73 L 280.77 804.18 C 271.85 803.51 262.88 804.21 253.96 803.68 C 249.99 803.50 246.03 803.95 242.08 804.26 M 225.26 807.53 C 220.84 808.84 216.49 806.38 212.02 806.66 C 211.72 816.22 212.83 825.79 214.83 835.14 C 216.08 840.52 215.05 846.04 215.45 851.47 C 216.57 854.21 219.68 853.35 221.98 853.17 C 226.49 852.57 231.04 852.35 235.56 851.82 C 235.57 845.67 236.69 839.51 235.80 833.38 C 235.29 829.85 235.38 826.27 235.89 822.76 C 236.67 817.49 236.52 812.15 237.03 806.87 C 233.17 805.67 229.14 807.09 225.26 807.53 Z"/>
    <path fill="#161616" opacity="1.00"
          d=" M 255.18 818.12 C 257.86 818.84 260.44 819.93 263.14 820.58 C 265.64 820.77 268.14 820.41 270.63 820.26 C 270.68 824.35 272.36 829.07 270.74 832.86 C 266.84 832.88 262.93 832.56 259.10 831.89 C 257.65 831.87 257.10 830.43 256.65 829.33 C 255.29 825.76 255.07 821.89 255.18 818.12 Z"/>
  </g>
  <g id="#ffffffff">
    <path fill="#ffffff" opacity="1.00"
          d=" M 218.17 19.23 C 227.79 18.50 237.37 17.32 247.00 16.71 C 248.65 16.41 250.40 17.20 250.44 19.07 C 250.54 22.07 248.68 24.72 247.15 27.17 C 242.42 33.36 236.68 38.74 232.14 45.07 C 227.58 53.64 220.53 60.65 216.67 69.64 C 213.96 75.24 212.74 81.42 210.04 87.03 C 207.18 92.39 203.76 97.43 200.88 102.78 C 195.33 113.11 191.95 124.41 188.49 135.56 C 184.83 146.81 182.85 158.54 182.31 170.34 C 182.02 178.58 180.44 186.74 180.65 195.00 C 180.78 201.03 180.07 207.03 179.69 213.03 C 179.26 230.69 179.28 248.35 179.31 266.01 C 179.24 278.51 181.64 290.83 182.44 303.29 C 182.78 311.40 185.99 318.96 187.15 326.94 C 189.14 339.22 193.52 350.94 196.08 363.10 C 197.98 371.60 201.18 379.75 202.94 388.28 C 205.28 402.07 208.13 416.02 214.45 428.62 C 218.17 435.92 221.31 443.52 225.28 450.70 C 226.86 453.55 228.28 456.50 229.42 459.56 C 232.26 467.36 235.87 474.86 238.23 482.83 C 241.73 492.88 242.70 503.78 247.74 513.27 C 251.16 519.80 252.55 527.09 254.94 534.01 C 257.04 540.46 260.22 546.52 261.99 553.09 C 264.36 561.32 265.13 569.89 266.87 578.26 C 268.99 588.65 269.20 599.28 269.78 609.83 C 263.38 610.07 256.73 609.18 250.61 611.57 C 244.79 613.88 238.26 613.73 232.61 616.55 C 229.80 617.88 226.89 618.99 223.96 620.03 C 223.40 612.57 221.81 605.27 221.00 597.84 C 220.38 593.66 218.85 589.67 218.40 585.46 C 217.38 576.47 213.44 568.19 211.38 559.45 C 210.25 554.49 207.44 550.18 205.46 545.56 C 203.94 540.87 202.52 536.09 200.14 531.74 C 191.34 517.51 179.81 504.69 174.29 488.65 C 170.93 482.64 167.85 476.47 164.41 470.52 C 160.44 465.72 158.49 459.76 155.80 454.23 C 151.54 444.82 148.08 435.02 142.91 426.04 C 140.86 422.56 139.29 418.83 137.89 415.05 C 135.22 408.50 132.27 402.05 129.85 395.40 C 126.54 381.59 120.12 368.76 116.97 354.90 C 115.39 347.10 113.73 339.30 111.25 331.73 C 108.04 319.34 106.34 306.63 103.97 294.07 C 102.99 286.42 102.05 278.76 101.86 271.05 C 99.93 256.30 99.81 241.39 99.42 226.55 C 101.34 215.44 100.47 204.07 102.87 193.04 C 103.79 188.47 103.98 183.81 104.29 179.18 C 105.45 170.17 109.03 161.73 110.87 152.87 C 113.22 142.29 116.90 132.08 119.62 121.60 C 122.22 113.08 125.81 104.89 128.27 96.33 C 130.10 90.88 133.58 86.19 135.69 80.85 C 138.73 72.32 143.31 64.17 149.65 57.66 C 157.00 51.61 162.13 43.46 168.42 36.40 C 175.56 30.19 184.62 26.43 193.88 24.75 C 201.96 22.84 209.99 20.70 218.17 19.23 Z"/>
    <path fill="#ffffff" opacity="1.00"
          d=" M 298.95 22.01 C 299.64 20.71 300.15 18.60 302.05 18.79 C 318.00 19.29 333.47 23.72 348.99 27.06 C 358.83 28.96 368.02 33.09 377.30 36.74 C 380.34 37.83 382.25 40.56 383.61 43.35 C 386.15 48.47 388.88 53.49 391.39 58.63 C 395.19 66.30 396.84 74.78 398.94 83.02 C 402.54 97.54 408.22 111.41 413.79 125.26 C 418.64 136.27 420.38 148.26 423.30 159.86 C 425.86 170.01 425.93 180.54 427.45 190.86 C 429.37 204.51 429.34 218.30 430.26 232.03 C 430.36 247.33 430.76 262.65 430.24 277.96 C 429.42 288.63 429.50 299.35 428.51 310.01 C 427.73 324.00 427.04 338.10 423.61 351.75 C 420.73 363.22 418.76 374.91 415.17 386.19 C 411.52 401.46 407.47 416.64 402.85 431.65 C 400.59 438.97 399.46 446.78 395.53 453.47 C 390.99 461.70 386.14 469.97 384.10 479.25 C 381.72 486.90 381.04 494.95 378.54 502.57 C 376.19 509.00 375.43 515.99 372.07 522.04 C 369.65 526.38 368.50 531.24 366.90 535.91 C 363.68 543.84 359.73 551.45 356.40 559.34 C 354.22 564.40 351.24 569.09 349.20 574.23 C 347.26 579.04 345.76 584.02 344.07 588.92 C 340.74 598.17 340.35 608.18 336.93 617.42 C 326.16 613.62 314.40 613.67 303.97 608.79 C 305.64 596.86 307.87 584.98 308.31 572.91 C 309.30 559.27 309.85 545.61 311.05 531.99 C 313.21 505.38 312.67 478.67 312.73 452.00 C 312.68 440.02 312.93 428.04 312.40 416.07 C 311.91 406.14 312.25 396.19 311.41 386.28 C 310.19 373.50 310.62 360.65 309.54 347.86 C 309.42 330.51 308.39 313.20 307.58 295.87 C 307.39 288.45 306.15 281.11 305.60 273.72 C 304.96 263.10 302.20 252.75 301.48 242.13 C 300.91 231.90 296.83 222.29 296.15 212.08 C 295.64 202.18 293.22 192.55 291.34 182.86 C 290.25 176.92 288.11 171.24 286.81 165.36 C 283.97 149.55 277.19 134.33 277.91 118.00 C 278.63 104.13 277.12 90.10 279.44 76.34 C 282.30 67.77 285.41 59.24 287.62 50.46 C 289.95 40.45 294.90 31.37 298.95 22.01 Z"/>
    <path fill="#ffffff" opacity="1.00"
          d=" M 303.43 616.32 C 308.11 617.00 312.82 617.61 317.46 618.58 C 323.73 619.89 329.68 622.35 335.77 624.27 C 335.84 628.12 335.55 631.99 334.56 635.74 C 332.91 641.93 332.47 648.40 330.42 654.49 C 328.77 658.00 324.41 658.38 321.05 658.93 C 313.51 660.38 305.64 660.33 298.19 658.44 C 299.19 652.54 300.94 646.80 301.80 640.89 C 303.15 632.76 302.27 624.47 303.43 616.32 Z"/>
    <path fill="#ffffff" opacity="1.00"
          d=" M 239.53 621.20 C 249.35 618.06 259.62 615.76 269.99 616.62 C 270.65 624.75 269.26 632.89 270.19 641.01 C 270.59 647.21 269.55 653.38 269.45 659.58 C 262.18 661.77 254.49 661.62 247.03 662.72 C 243.78 663.32 240.66 664.48 237.39 665.00 C 232.19 657.53 227.53 649.44 225.48 640.51 C 224.79 636.05 224.30 631.54 224.09 627.04 C 227.85 622.69 234.38 622.86 239.53 621.20 Z"/>
    <path fill="#ffffff" opacity="1.00"
          d=" M 213.53 787.65 C 218.27 786.66 223.12 786.33 227.91 787.14 C 237.00 788.66 246.25 784.75 255.15 787.84 C 263.67 785.81 272.41 786.99 281.06 787.23 C 289.94 787.78 298.86 787.05 307.73 787.62 C 314.49 790.32 322.02 791.47 327.96 795.98 C 331.73 798.72 336.81 798.62 340.51 801.47 C 341.98 802.50 341.63 804.52 342.06 806.07 C 336.43 807.89 332.98 802.10 327.87 801.33 C 319.33 799.33 311.24 793.81 302.15 795.35 C 294.84 796.59 287.45 797.48 280.02 797.42 C 270.98 796.93 261.90 797.18 252.88 796.20 C 248.27 796.56 243.66 797.08 239.02 796.73 C 231.15 798.58 223.03 797.96 215.02 798.10 C 213.27 798.26 211.95 797.00 211.03 795.69 C 210.68 792.76 212.35 790.18 213.53 787.65 Z"/>
    <path fill="#ffffff" opacity="1.00"
          d=" M 309.10 801.69 C 311.58 801.47 314.10 801.58 316.43 802.56 C 320.03 804.02 324.10 804.40 327.35 806.68 C 331.24 809.26 335.46 811.31 339.79 813.04 C 338.08 826.98 337.49 841.02 336.80 855.03 C 336.27 860.53 336.29 866.25 333.94 871.38 C 332.25 870.74 330.57 870.05 329.21 868.85 C 322.86 863.39 314.86 860.09 309.21 853.79 C 310.05 841.65 309.93 829.47 309.33 817.33 C 308.65 812.14 308.68 806.89 309.10 801.69 Z"/>
    <path fill="#ffffff" opacity="1.00"
          d=" M 285.38 803.68 C 291.01 803.18 297.00 802.16 302.42 804.24 C 306.26 806.93 304.76 812.04 305.18 816.02 C 305.63 827.78 306.24 839.56 304.97 851.30 C 298.64 850.61 292.39 849.33 286.04 848.74 C 285.30 842.51 286.28 836.24 285.71 830.00 C 284.95 821.20 287.40 812.39 285.38 803.68 Z"/>
    <path fill="#ffffff" opacity="1.00"
          d=" M 242.08 804.26 C 246.03 803.95 249.99 803.50 253.96 803.68 C 262.88 804.21 271.85 803.51 280.77 804.18 L 281.29 804.73 C 282.80 815.26 280.57 825.97 282.57 836.45 C 283.27 840.52 282.54 844.65 282.10 848.72 C 274.40 848.84 266.68 848.73 258.99 849.13 C 252.89 850.58 246.72 852.40 240.37 852.15 C 240.80 840.08 239.76 828.02 240.38 815.96 C 240.30 811.99 240.63 807.99 242.08 804.26 M 255.18 818.12 C 255.07 821.89 255.29 825.76 256.65 829.33 C 257.10 830.43 257.65 831.87 259.10 831.89 C 262.93 832.56 266.84 832.88 270.74 832.86 C 272.36 829.07 270.68 824.35 270.63 820.26 C 268.14 820.41 265.64 820.77 263.14 820.58 C 260.44 819.93 257.86 818.84 255.18 818.12 Z"/>
    <path fill="#ffffff" opacity="1.00"
          d=" M 225.26 807.53 C 229.14 807.09 233.17 805.67 237.03 806.87 C 236.52 812.15 236.67 817.49 235.89 822.76 C 235.38 826.27 235.29 829.85 235.80 833.38 C 236.69 839.51 235.57 845.67 235.56 851.82 C 231.04 852.35 226.49 852.57 221.98 853.17 C 219.68 853.35 216.57 854.21 215.45 851.47 C 215.05 846.04 216.08 840.52 214.83 835.14 C 212.83 825.79 211.72 816.22 212.02 806.66 C 216.49 806.38 220.84 808.84 225.26 807.53 Z"/>
  </g>
</svg>
