<svg width="630" height="3" preserveAspectRatio="meet">
  <path
    fill="none"
    stroke="red"
    d="M.106 1.574H21.83c4.97 0 15.65-.674 21.724 0H65.28c5.3 0 14.91.675 21.723 0 6 .675 15.612.675 21.724 0H173.9c6.664.675 15.206 0 21.723 0h21.724c6.996 0 15.54.675 21.725 0h21.724c6.26.675 14.802 0 21.724 0h43.448c6.223.675 14.765-.674 21.724 0h21.724c6.554.675 14.03 0 21.725 0h21.725c6.885.675 15.428-.674 21.724 0h43.447c7.917 0 15.39-.674 21.724 0 6.482-.674 15.024.675 21.725 0h21.725c6.81.675 15.354 0 21.724 0 7.51 0 14.986-.674 21.724 0 6.075.675 15.685.675 21.724 0h21.724"/>
</svg>
