<svg xmlns="http://www.w3.org/2000/svg" width="3" height="630" preserveAspectRatio="meet">
  <path fill="none" stroke="red"
        d="M1.684.17v21.725c0 4.97.674 15.648 0 21.724v21.72c0 5.3-.675 14.91 0 21.722-.675 6.002-.675 15.612 0 21.724v65.173c-.675 6.664 0 15.207 0 21.724v21.724c0 6.995-.675 15.54 0 21.723v21.725c-.675 6.26 0 14.8 0 21.723v43.45c-.675 6.22.674 14.765 0 21.724v21.724c-.675 6.555 0 14.03 0 21.725v21.725c-.675 6.884.674 15.426 0 21.722v43.45c0 7.913.674 15.39 0 21.72.674 6.48-.675 15.023 0 21.725v21.723c-.675 6.81 0 15.353 0 21.723 0 7.51.674 14.987 0 21.725-.675 6.077-.675 15.687 0 21.725v21.724"/>
</svg>
